<?xml version="1.0" encoding="UTF-8"?>
<svg version="1.1" xmlns="http://www.w3.org/2000/svg" width="225" height="225">
<path d="M0 0 C74.25 0 148.5 0 225 0 C225 74.25 225 148.5 225 225 C150.75 225 76.5 225 0 225 C0 150.75 0 76.5 0 0 Z " fill="#740632" transform="translate(0,0)"/>
<path d="M0 0 C10.47161197 -1.20248176 10.47161197 -1.20248176 13.59375 1.25390625 C14.91183492 3.43345381 15.93142314 5.68696252 17 8 C18.41931068 10.38852868 19.85659207 12.75922528 21.3125 15.125 C24.96498256 21.1978388 28.51291877 27.32501043 32.00390625 33.4921875 C33.40636524 35.96909408 34.83424752 38.42936554 36.27734375 40.8828125 C36.64915771 41.51952881 37.02097168 42.15624512 37.40405273 42.81225586 C38.11854263 44.03479916 38.83788527 45.25452318 39.56274414 46.47094727 C41.16316692 49.22357762 42 50.75406006 42 54 C43.485 54.495 43.485 54.495 45 55 C46.00186719 56.88451428 46.99185858 58.7770825 47.89794922 60.70947266 C49.72229379 64.50123181 51.90947596 68.07545517 54.0625 71.6875 C54.7131543 72.78674805 54.7131543 72.78674805 55.37695312 73.90820312 C57.15759856 76.91388926 58.94566082 79.91174361 60.77734375 82.88671875 C62 85 62 85 62.5 87.125 C63.13412391 89.50296466 64.20680463 90.34474274 66 92 C68.82828899 95.14254332 69.14441736 96.83252769 69 101 C61.97116894 101.17756865 54.94291637 101.30010649 47.91235352 101.38452148 C45.52118313 101.41971199 43.13016323 101.46747246 40.73950195 101.52807617 C37.30121764 101.61305142 33.86492436 101.65270357 30.42578125 101.68359375 C28.82395744 101.73778725 28.82395744 101.73778725 27.18977356 101.79307556 C19.93084725 101.79691095 19.93084725 101.79691095 17.23165894 99.48609924 C15.9361307 97.70486802 14.93740367 95.98935495 14 94 C13.30390625 92.71802734 13.30390625 92.71802734 12.59375 91.41015625 C12.2328125 90.63542969 11.871875 89.86070313 11.5 89.0625 C9.28184855 84.48842371 6.77176436 80.25579683 4 76 C-0.11516962 69.66748016 -4.02553612 63.30938405 -7.58203125 56.64453125 C-9.33061372 53.38340086 -11.16892338 50.17678315 -13.01953125 46.97265625 C-14.00498487 44.98997067 -14.55024871 43.16170781 -15 41 C-15.66 41 -16.32 41 -17 41 C-17.30292969 40.30132812 -17.60585937 39.60265625 -17.91796875 38.8828125 C-18.33691406 37.97273438 -18.75585938 37.06265625 -19.1875 36.125 C-19.59355469 35.22007813 -19.99960938 34.31515625 -20.41796875 33.3828125 C-22.30846459 30.53539901 -23.77262041 29.94380512 -27 29 C-27.27585938 29.721875 -27.55171875 30.44375 -27.8359375 31.1875 C-31.30747581 39.57510935 -36.3455789 47.25631437 -41.125 54.94140625 C-43.08405144 58.13710892 -44.9165475 61.37825375 -46.7109375 64.66796875 C-49.95867429 70.54341984 -53.27547209 76.41320813 -57 82 C-57.39013716 83.9896995 -57.73202649 85.99019869 -58 88 C-57.36772995 87.99333817 -56.7354599 87.98667633 -56.08403015 87.97981262 C-49.51448645 87.91353853 -42.94503741 87.86823239 -36.37524414 87.83520508 C-33.92207992 87.82010119 -31.46894276 87.79961679 -29.01586914 87.77368164 C-25.49358445 87.73736943 -21.97165619 87.72028964 -18.44921875 87.70703125 C-17.34913986 87.69154739 -16.24906097 87.67606354 -15.11564636 87.66011047 C-13.58439873 87.65977058 -13.58439873 87.65977058 -12.0222168 87.65942383 C-11.12286911 87.65276199 -10.22352142 87.64610016 -9.29692078 87.63923645 C-7 88 -7 88 -5.18611145 89.33378601 C-4 91 -4 91 -4 94 C-3.34 94 -2.68 94 -2 94 C-2 96.31 -2 98.62 -2 101 C-11.98773616 101.02315123 -21.97546595 101.04092932 -31.96322346 101.05181217 C-36.60073607 101.05703489 -41.23823036 101.06412151 -45.87573242 101.07543945 C-50.34960803 101.08628996 -54.82346599 101.09228145 -59.29735374 101.09487724 C-61.00581325 101.09672758 -62.71427177 101.10034071 -64.42272377 101.10573006 C-66.81219205 101.11296916 -69.201587 101.11398972 -71.59106445 101.11352539 C-72.65489601 101.1189183 -72.65489601 101.1189183 -73.74021912 101.12442017 C-76.77863698 101.11801416 -79.09175899 100.96941367 -82 100 C-81.36478809 96.79506716 -80.23542098 94.50739111 -78.5 91.75 C-75.18639218 86.3774514 -72.11329388 80.88822842 -69.07226562 75.35839844 C-66.21522287 70.21522287 -66.21522287 70.21522287 -64 68 C-63.32728633 66.33576488 -62.66180831 64.6686018 -62 63 C-60.82307585 60.83678025 -59.61111133 58.6924528 -58.375 56.5625 C-57.65347915 55.31520057 -56.93212979 54.06780193 -56.2109375 52.8203125 C-55.84323242 52.18641602 -55.47552734 51.55251953 -55.09667969 50.89941406 C-54.04702263 49.08144168 -53.00923731 47.25734996 -51.9765625 45.4296875 C-48.06673459 38.51593216 -44.00628513 31.72073906 -39.81640625 24.97265625 C-37.41802917 21.04757031 -35.19766046 17.03958452 -33 13 C-28.30547738 4.50595367 -28.30547738 4.50595367 -26 2 C-25.01 2 -24.02 2 -23 2 C-22.505 3.98 -22.505 3.98 -22 6 C-21.34 6 -20.68 6 -20 6 C-19.443125 7.175625 -18.88625 8.35125 -18.3125 9.5625 C-16.91890129 12.36441853 -15.44566754 14.87801519 -13.5625 17.375 C-10.4211422 21.61151005 -8.28069911 26.26316339 -6 31 C-4.64302946 33.65817517 -3.28283068 36.31461849 -1.91796875 38.96875 C-1 41 -1 41 -1 43 C-0.34 43 0.32 43 1 43 C1.42667969 43.75539062 1.85335937 44.51078125 2.29296875 45.2890625 C7.23149069 53.98493413 12.29387721 62.60157274 17.43041992 71.18212891 C17.9638501 72.07851074 18.49728027 72.97489258 19.046875 73.8984375 C19.51963867 74.68911621 19.99240234 75.47979492 20.47949219 76.29443359 C22.44656258 79.79460605 24.20441802 83.40883605 26 87 C32.27 87 38.54 87 45 87 C44.16055485 82.80277426 43.28474875 80.47458126 41.1484375 76.9140625 C40.00532003 75.00886671 38.93728114 73.07628238 37.875 71.125 C34.90443704 65.75762767 31.77547136 60.48396106 28.65380859 55.20361328 C24.61724833 48.37311704 20.69831393 41.47968296 16.8125 34.5625 C16.42811768 33.87945801 16.04373535 33.19641602 15.64770508 32.49267578 C13.60964744 28.87010592 11.57747409 25.24440216 9.5546875 21.61328125 C9.15789795 20.90292725 8.7611084 20.19257324 8.35229492 19.46069336 C7.59784265 18.10976362 6.84527819 16.75777716 6.0949707 15.40454102 C4.40619323 12.3848078 2.71254794 9.60288135 0.67578125 6.7890625 C-1 4 -1 4 -0.75 1.625 C-0.37875 0.820625 -0.37875 0.820625 0 0 Z " fill="#F9F4F5" transform="translate(119,30)"/>
<path d="M0 0 C2.60502727 2.32591721 4.4147554 4.57762679 6.0625 7.625 C7.75951367 11.16137593 7.75951367 11.16137593 11 13 C10.34 13 9.68 13 9 13 C9.99 14.98 10.98 16.96 12 19 C12.99 19 13.98 19 15 19 C17.15305957 22.85756507 18.39253254 25.55129785 18 30 C18.99 30.33 19.98 30.66 21 31 C21 31.66 21 32.32 21 33 C22.485 33.495 22.485 33.495 24 34 C24.66 34.99 25.32 35.98 26 37 C26 36.01 26 35.02 26 34 C26.28037344 32.47291748 26.59567447 30.95201166 26.9375 29.4375 C27.19853516 28.25994141 27.19853516 28.25994141 27.46484375 27.05859375 C28 25 28 25 29 23 C28.34 23 27.68 23 27 23 C26.505 18.05 26.505 18.05 26 13 C26.99 13 27.98 13 29 13 C29.77923828 14.46759766 29.77923828 14.46759766 30.57421875 15.96484375 C36.03604915 26.23975623 41.60839028 36.38523451 47.62817383 46.3449707 C50.38761738 50.92910564 53.00038056 55.57131469 55.51171875 60.296875 C57.77862613 64.41419759 60.28041818 68.3897963 62.77734375 72.37109375 C64.15613577 75.33571685 63.93651044 76.01752562 63 79 C59.91738544 79.1746397 56.83604167 79.28094067 53.75 79.375 C52.87730469 79.42527344 52.00460938 79.47554688 51.10546875 79.52734375 C48.60939182 79.58450582 46.43648652 79.55213814 44 79 C41.55859375 76.28125 41.55859375 76.28125 40 73 C39.54238281 72.19820313 39.08476562 71.39640625 38.61328125 70.5703125 C38.18402344 69.76335937 37.75476563 68.95640625 37.3125 68.125 C34.75076176 63.37119208 32.14424905 58.64574153 29.5 53.9375 C28.92451416 52.91172852 28.92451416 52.91172852 28.33740234 51.86523438 C25.66137499 47.11748069 22.88634663 42.44158404 19.99609375 37.8203125 C19 36 19 36 19 34 C18.34 34 17.68 34 17 34 C16.63648437 33.26136719 16.27296875 32.52273437 15.8984375 31.76171875 C11.30105883 22.48444436 6.67603686 13.25499811 0.8828125 4.65625 C0 3 0 3 0 0 Z " fill="#660B33" transform="translate(101,39)"/>
<path d="M0 0 C24.09 0 48.18 0 73 0 C72.67 0.66 72.34 1.32 72 2 C49.23 2 26.46 2 3 2 C2.16710178 8.20648881 2.16710178 8.20648881 1.87695217 14.32649994 C1.87496112 15.08787498 1.87297007 15.84925002 1.87091869 16.63369703 C1.87383153 17.44305724 1.87674437 18.25241744 1.87974548 19.08630371 C1.87889106 19.96701931 1.87803663 20.84773492 1.87715632 21.75513887 C1.87551746 24.68769182 1.88099665 27.62018676 1.88647461 30.55273438 C1.88675685 32.66226195 1.88659802 34.77178962 1.8860321 36.88131714 C1.88574558 42.59554583 1.89161901 48.30975347 1.89860606 54.02397728 C1.9048636 60.00039945 1.9054453 65.97682213 1.90663147 71.95324707 C1.9097377 83.26484525 1.91794156 94.57643375 1.92798096 105.88802767 C1.93916407 118.76825704 1.94465809 131.64848688 1.94967639 144.5287199 C1.96012476 171.0191532 1.97846145 197.50957323 2 224 C26.42 224 50.84 224 76 224 C76 224.33 76 224.66 76 225 C50.92 225 25.84 225 0 225 C0 150.75 0 76.5 0 0 Z " fill="#9F1036" transform="translate(0,0)"/>
<path d="M0 0 C45.21 0 90.42 0 137 0 C137 73.26 137 146.52 137 222 C136.67 222 136.34 222 136 222 C136 149.07 136 76.14 136 1 C130.72 1.66 125.44 2.32 120 3 C114.14285278 2.63110352 114.14285278 2.63110352 111.52151871 2.29959106 C107.25901317 1.79314685 103.00126947 1.87721564 98.71435547 1.90234375 C97.2705954 1.90453415 97.2705954 1.90453415 95.79766846 1.9067688 C93.7292618 1.9105442 91.66085827 1.9166277 89.59246445 1.92483521 C86.31262311 1.93771426 83.03282269 1.94414343 79.75296021 1.94897461 C72.79362165 1.96034429 65.83431715 1.97959074 58.875 2 C50.79792641 2.02366113 42.72087233 2.04402776 34.64377213 2.05593872 C31.42385476 2.06238653 28.20399798 2.07489125 24.98410034 2.08764648 C22.99835257 2.09128109 21.01260426 2.09463256 19.02685547 2.09765625 C18.14142059 2.10282257 17.25598572 2.10798889 16.34371948 2.11331177 C10.81898586 2.11377659 5.4815799 1.69896935 0 1 C0 0.67 0 0.34 0 0 Z " fill="#5F1246" transform="translate(88,0)"/>
<path d="M0 0 C0.33 0.66 0.66 1.32 1 2 C3.32156597 2.40729228 5.6568787 2.74438677 8 3 C7.67 4.98 7.34 6.96 7 9 C7.66 9 8.32 9 9 9 C9 10.98 9 12.96 9 15 C9.66 15 10.32 15 11 15 C11 12.69 11 10.38 11 8 C10.34 8 9.68 8 9 8 C9.33 7.34 9.66 6.68 10 6 C12.0625 5.375 12.0625 5.375 14 5 C14 5.99 14 6.98 14 8 C14.66 8.33 15.32 8.66 16 9 C16 10.32 16 11.64 16 13 C16.33 12.01 16.66 11.02 17 10 C17.66 10 18.32 10 19 10 C18.125 17.75 18.125 17.75 17 20 C15.35 19.34 13.7 18.68 12 18 C12 18.66 12 19.32 12 20 C11.01 20 10.02 20 9 20 C8.67 17.36 8.34 14.72 8 12 C7.34 12 6.68 12 6 12 C5.67 11.01 5.34 10.02 5 9 C4.34 8.67 3.68 8.34 3 8 C2.67 8.99 2.34 9.98 2 11 C1.01 11 0.02 11 -1 11 C-0.67 11.99 -0.34 12.98 0 14 C1.32 13.67 2.64 13.34 4 13 C2.78065514 17.03321763 1.44045073 20.54269479 -1 24 C-1.66 24 -2.32 24 -3 24 C-2.67 22.02 -2.34 20.04 -2 18 C-2.99 18.66 -3.98 19.32 -5 20 C-8.1875 20.125 -8.1875 20.125 -11 20 C-11 16.37 -11 12.74 -11 9 C-9.68 8.34 -8.36 7.68 -7 7 C-7.33 6.01 -7.66 5.02 -8 4 C-6.68 4 -5.36 4 -4 4 C-3.67 3.01 -3.34 2.02 -3 1 C-2.01 0.67 -1.02 0.34 0 0 Z " fill="#720938" transform="translate(126,171)"/>
<path d="M0 0 C2.00390625 0.1328125 2.00390625 0.1328125 4 1 C5.08984375 2.6796875 5.08984375 2.6796875 5.9375 4.875 C7.8142482 9.54070071 9.89689017 14.07113523 12.046875 18.6171875 C13 21 13 21 13 24 C11.02 24 9.04 24 7 24 C6.67 23.34 6.34 22.68 6 22 C3.64400765 21.53248212 3.64400765 21.53248212 0.9375 21.375 C0.01839844 21.30023438 -0.90070313 21.22546875 -1.84765625 21.1484375 C-2.55792969 21.09945312 -3.26820312 21.05046875 -4 21 C-4 21.99 -4 22.98 -4 24 C-6.31 24 -8.62 24 -11 24 C-10.35089433 18.99689322 -8.21766389 14.8097358 -6.0625 10.3125 C-5.70220703 9.54099609 -5.34191406 8.76949219 -4.97070312 7.97460938 C-2.26119965 2.26119965 -2.26119965 2.26119965 0 0 Z " fill="#E9D7DF" transform="translate(129,146)"/>
<path d="M0 0 C1.8828125 0.29296875 1.8828125 0.29296875 4 1 C5.875 4.3125 5.875 4.3125 6.8515625 6.46875 C8.68591932 10.51182218 10.78861362 14.42056247 12.828125 18.36328125 C14 21 14 21 14 24 C11.69 24 9.38 24 7 24 C7 23.01 7 22.02 7 21 C5.35333797 21.1135629 3.70763918 21.24117381 2.0625 21.375 C0.68771484 21.47941406 0.68771484 21.47941406 -0.71484375 21.5859375 C-1.46894531 21.72257812 -2.22304688 21.85921875 -3 22 C-3.33 22.66 -3.66 23.32 -4 24 C-5.98 24 -7.96 24 -10 24 C-9.44561173 19.4567205 -8.24325295 16.04681161 -6.125 12 C-5.61195312 11.01 -5.09890625 10.02 -4.5703125 9 C-4.05210938 8.01 -3.53390625 7.02 -3 6 C-1.99630144 4.00185356 -0.99522959 2.0023781 0 0 Z " fill="#ECDEE1" transform="translate(62,146)"/>
<path d="M0 0 C1.40668945 0.01450195 1.40668945 0.01450195 2.84179688 0.02929688 C3.81826172 0.05443359 4.79472656 0.07957031 5.80078125 0.10546875 C6.78884766 0.11900391 7.77691406 0.13253906 8.79492188 0.14648438 C11.23492356 0.18184672 13.67382844 0.23119842 16.11328125 0.29296875 C16.24461999 8.26710668 16.24461999 8.26710668 14.11328125 12.29296875 C13.12328125 12.78796875 13.12328125 12.78796875 12.11328125 13.29296875 C11.72069186 15.81389048 11.72069186 15.81389048 11.61328125 18.73046875 C11.3347393 24.0715107 11.3347393 24.0715107 9.11328125 26.29296875 C9.11328125 20.35296875 9.11328125 14.41296875 9.11328125 8.29296875 C10.76328125 8.29296875 12.41328125 8.29296875 14.11328125 8.29296875 C14.11328125 6.31296875 14.11328125 4.33296875 14.11328125 2.29296875 C8.17328125 2.29296875 2.23328125 2.29296875 -3.88671875 2.29296875 C-3.88671875 3.94296875 -3.88671875 5.59296875 -3.88671875 7.29296875 C-1.90671875 7.29296875 0.07328125 7.29296875 2.11328125 7.29296875 C2.11328125 13.89296875 2.11328125 20.49296875 2.11328125 27.29296875 C4.42328125 27.29296875 6.73328125 27.29296875 9.11328125 27.29296875 C9.11328125 27.95296875 9.11328125 28.61296875 9.11328125 29.29296875 C8.45328125 29.62296875 7.79328125 29.95296875 7.11328125 30.29296875 C8.10328125 30.29296875 9.09328125 30.29296875 10.11328125 30.29296875 C10.77328125 31.28296875 11.43328125 32.27296875 12.11328125 33.29296875 C11.45328125 33.29296875 10.79328125 33.29296875 10.11328125 33.29296875 C8.02948616 37.13997507 6.61641501 41.19351304 5.11328125 45.29296875 C4.78328125 45.29296875 4.45328125 45.29296875 4.11328125 45.29296875 C4.11328125 40.01296875 4.11328125 34.73296875 4.11328125 29.29296875 C1.63828125 28.30296875 1.63828125 28.30296875 -0.88671875 27.29296875 C-0.88671875 21.68296875 -0.88671875 16.07296875 -0.88671875 10.29296875 C-2.86671875 9.63296875 -4.84671875 8.97296875 -6.88671875 8.29296875 C-7.57421875 5.98046875 -7.57421875 5.98046875 -7.88671875 3.29296875 C-5.62721621 0.12083938 -3.76772326 -0.06850406 0 0 Z " fill="#550D2E" transform="translate(160.88671875,143.70703125)"/>
<path d="M0 0 C1.1315918 1.71313477 1.1315918 1.71313477 2 4 C1.26489258 6.21069336 1.26489258 6.21069336 -0.10546875 8.58984375 C-0.83926758 9.89018555 -0.83926758 9.89018555 -1.58789062 11.21679688 C-2.11576172 12.11462891 -2.64363281 13.01246094 -3.1875 13.9375 C-3.69603516 14.83146484 -4.20457031 15.72542969 -4.72851562 16.64648438 C-7.09867107 20.79810906 -9.54026534 24.90044224 -12 29 C14.07 29.33 40.14 29.66 67 30 C67 30.33 67 30.66 67 31 C52.48 31.33 37.96 31.66 23 32 C23 32.33 23 32.66 23 33 C22.05157227 33.02505615 21.10314453 33.0501123 20.12597656 33.07592773 C16.59981968 33.1711884 13.07382041 33.27041441 9.54785156 33.37231445 C8.02315614 33.41556707 6.49841531 33.45724885 4.97363281 33.49731445 C2.77915778 33.55525203 0.58490932 33.61887795 -1.609375 33.68359375 C-2.62834869 33.70866249 -2.62834869 33.70866249 -3.66790771 33.73423767 C-6.90538552 33.83507472 -9.89769604 34.03139176 -13 35 C-13.52992692 33.54494642 -14.0486789 32.08581873 -14.5625 30.625 C-14.85253906 29.81289062 -15.14257812 29.00078125 -15.44140625 28.1640625 C-16 26 -16 26 -15 24 C-14.34 24 -13.68 24 -13 24 C-13 22.35 -13 20.7 -13 19 C-11.68 19 -10.36 19 -9 19 C-9.020625 18.21625 -9.04125 17.4325 -9.0625 16.625 C-9 14 -9 14 -8 12 C-8.39938767 9.90178785 -8.39938767 9.90178785 -9 8 C-6 9 -6 9 -4 10 C-4 8.68 -4 7.36 -4 6 C-2.68 5.67 -1.36 5.34 0 5 C0 3.35 0 1.7 0 0 Z " fill="#8C384E" transform="translate(49,101)"/>
<path d="M0 0 C2.31 0 4.62 0 7 0 C7 5.94 7 11.88 7 18 C9.64 18 12.28 18 15 18 C15 19.98 15 21.96 15 24 C10.05 24 5.1 24 0 24 C0 16.08 0 8.16 0 0 Z " fill="#E9D1D8" transform="translate(88,146)"/>
<path d="M0 0 C5.94 0 11.88 0 18 0 C18 1.98 18 3.96 18 6 C16.02 6 14.04 6 12 6 C12 11.94 12 17.88 12 24 C10.02 24 8.04 24 6 24 C6 17.73 6 11.46 6 5 C4.02 5 2.04 5 0 5 C0 3.35 0 1.7 0 0 Z " fill="#EBDCE4" transform="translate(157,146)"/>
<path d="M0 0 C3.3 0 6.6 0 10 0 C10.33 1.32 10.66 2.64 11 4 C12.65 4 14.3 4 16 4 C16 5.32 16 6.64 16 8 C18.57093082 8.85697694 21.04482928 9.48800637 23.6875 10.0625 C24.89986328 10.32740234 24.89986328 10.32740234 26.13671875 10.59765625 C26.75160156 10.73042969 27.36648437 10.86320313 28 11 C27.67 11.66 27.34 12.32 27 13 C23.9375 13.625 23.9375 13.625 21 14 C21 16.97 21 19.94 21 23 C20.34 23 19.68 23 19 23 C19.33 20.03 19.66 17.06 20 14 C19.34 14 18.68 14 18 14 C17.67 15.98 17.34 17.96 17 20 C16.67 20 16.34 20 16 20 C16.020625 18.9275 16.04125 17.855 16.0625 16.75 C16.0142016 13.85209576 15.86844115 11.71387859 15 9 C14.01 9 13.02 9 12 9 C11.67 9.66 11.34 10.32 11 11 C11.33 11.33 11.66 11.66 12 12 C12.04092937 14.33297433 12.04241723 16.66705225 12 19 C11.34 19 10.68 19 10 19 C10 17.02 10 15.04 10 13 C9.34 13 8.68 13 8 13 C8 12.34 8 11.68 8 11 C7.34 10.67 6.68 10.34 6 10 C6.33 9.34 6.66 8.68 7 8 C1.99067246 4.99440348 -1.32723489 4.70658112 -7 5 C-7 4.67 -7 4.34 -7 4 C-5.02 3.67 -3.04 3.34 -1 3 C-0.67 2.01 -0.34 1.02 0 0 Z " fill="#620C30" transform="translate(125,167)"/>
<path d="M0 0 C0.99 0.33 1.98 0.66 3 1 C2.67 1.66 2.34 2.32 2 3 C3.65 2.34 5.3 1.68 7 1 C7 1.99 7 2.98 7 4 C7.33 4.99 7.66 5.98 8 7 C8.03954234 9.33299825 8.04401732 11.66708189 8 14 C7.34 14 6.68 14 6 14 C6 12.35 6 10.7 6 9 C5.34 9 4.68 9 4 9 C3.67 10.65 3.34 12.3 3 14 C2.34 14 1.68 14 1 14 C0.67 13.34 0.34 12.68 0 12 C-0.33 12.66 -0.66 13.32 -1 14 C-2.47906892 14.02689216 -3.95827483 14.04634621 -5.4375 14.0625 C-6.67306641 14.07990234 -6.67306641 14.07990234 -7.93359375 14.09765625 C-10 14 -10 14 -11 13 C-11.07179964 11.48071962 -11.08392007 9.95832518 -11.0625 8.4375 C-11.05347656 7.61121094 -11.04445312 6.78492188 -11.03515625 5.93359375 C-11.02355469 5.29550781 -11.01195312 4.65742188 -11 4 C-9.71073008 3.63720544 -8.41846728 3.28503302 -7.125 2.9375 C-6.40570313 2.74027344 -5.68640625 2.54304687 -4.9453125 2.33984375 C-3 2 -3 2 -1 3 C-0.67 2.01 -0.34 1.02 0 0 Z " fill="#5F2339" transform="translate(157,177)"/>
<path d="M0 0 C42.24 0 84.48 0 128 0 C128 0.66 128 1.32 128 2 C123.43444567 2.77528281 119.45824519 3.04508865 114.84988403 2.53344727 C109.45083569 2.00142397 104.13599545 1.87056435 98.71435547 1.90234375 C97.2705954 1.90453415 97.2705954 1.90453415 95.79766846 1.9067688 C93.7292618 1.9105442 91.66085827 1.9166277 89.59246445 1.92483521 C86.31262311 1.93771426 83.03282269 1.94414343 79.75296021 1.94897461 C72.79362165 1.96034429 65.83431715 1.97959074 58.875 2 C50.79792641 2.02366113 42.72087233 2.04402776 34.64377213 2.05593872 C31.42385476 2.06238653 28.20399798 2.07489125 24.98410034 2.08764648 C22.99835257 2.09128109 21.01260426 2.09463256 19.02685547 2.09765625 C18.14142059 2.10282257 17.25598572 2.10798889 16.34371948 2.11331177 C10.81898586 2.11377659 5.4815799 1.69896935 0 1 C0 0.67 0 0.34 0 0 Z " fill="#6D0F3F" transform="translate(88,0)"/>
<path d="M0 0 C2 0 2 0 4.0625 1.75 C6.0464777 4.0539741 6.35468303 5.14216772 7 8 C7.98020375 9.0194119 8.97803008 10.02246356 10 11 C10 11.66 10 12.32 10 13 C10.66 13.33 11.32 13.66 12 14 C12.625 16.5625 12.625 16.5625 13 19 C13.99 19 14.98 19 16 19 C16.33 21.31 16.66 23.62 17 26 C17.99 26.33 18.98 26.66 20 27 C20.33 29.64 20.66 32.28 21 35 C22.65 35.33 24.3 35.66 26 36 C26.09087891 36.90492187 26.09087891 36.90492187 26.18359375 37.828125 C26.30927734 39.02695313 26.30927734 39.02695313 26.4375 40.25 C26.51871094 41.03890625 26.59992188 41.8278125 26.68359375 42.640625 C26.97634993 44.82364639 27.42064419 46.8773182 28 49 C24.71282645 46.80855097 23.99368921 45.50375906 22.21875 42.0625 C19.15560042 36.26142412 15.86633491 30.62921563 12.5 25 C9.13307122 19.36979131 5.80151319 13.72277002 2.59375 8 C2.09552734 7.113125 1.59730469 6.22625 1.08398438 5.3125 C0 3 0 3 0 0 Z " fill="#5D1030" transform="translate(132,29)"/>
<path d="M0 0 C0.33 0.66 0.66 1.32 1 2 C1.62196259 1.98081009 2.24392517 1.96162018 2.88473511 1.94184875 C9.34021858 1.74564409 15.79602642 1.57058131 22.25244141 1.40795898 C24.66404985 1.34441006 27.07552103 1.27541482 29.48681641 1.20092773 C32.94672652 1.0949831 36.40665269 1.00843879 39.8671875 0.92578125 C40.95055389 0.88842361 42.03392029 0.85106598 43.15011597 0.81257629 C44.1510025 0.79232895 45.15188904 0.7720816 46.18310547 0.7512207 C47.06690887 0.72679398 47.95071228 0.70236725 48.86129761 0.67720032 C49.5670694 0.78372421 50.27284119 0.89024811 51 1 C51.66 1.99 52.32 2.98 53 4 C52 5 52 5 49.86766052 5.12025452 C48.92834183 5.11803391 47.98902313 5.11581329 47.02124023 5.11352539 C45.96021591 5.11344986 44.89919159 5.11337433 43.80601501 5.11329651 C42.07479149 5.10555458 42.07479149 5.10555458 40.30859375 5.09765625 C39.13361832 5.0962413 37.95864288 5.09482635 36.74806213 5.09336853 C32.97784936 5.08774992 29.20769496 5.07519426 25.4375 5.0625 C22.88867273 5.0574874 20.33984453 5.05292408 17.79101562 5.04882812 C11.52732367 5.03777444 5.26366601 5.02101821 -1 5 C-0.67 3.35 -0.34 1.7 0 0 Z " fill="#7B2541" transform="translate(62,113)"/>
<path d="M0 0 C0.66 0.33 1.32 0.66 2 1 C2.495 2.485 2.495 2.485 3 4 C6.00847418 5.22520264 6.00847418 5.22520264 9 6 C9.08912219 9.83225427 8.87867729 13.26562152 8 17 C7.01 16.67 6.02 16.34 5 16 C5 16.66 5 17.32 5 18 C3.68 18.33 2.36 18.66 1 19 C1 18.34 1 17.68 1 17 C-0.24612061 17.03552979 -1.49224121 17.07105957 -2.77612305 17.10766602 C-7.40716288 17.23821063 -12.03837611 17.36130845 -16.66967773 17.48217773 C-18.6726624 17.53548911 -20.67559466 17.59080963 -22.6784668 17.64819336 C-25.56026918 17.73040801 -28.44218386 17.80535382 -31.32421875 17.87890625 C-32.21711105 17.90594131 -33.11000336 17.93297638 -34.029953 17.96083069 C-38.17357514 18.05990505 -41.9579083 18.08250788 -46 17 C-46 16.34 -46 15.68 -46 15 C-20.755 14.505 -20.755 14.505 5 14 C3.37988445 8.40545044 3.37988445 8.40545044 1.375 5.3125 C0 3 0 3 0 0 Z " fill="#4F0629" transform="translate(183,117)"/>
<path d="M0 0 C1.32 0.66 2.64 1.32 4 2 C3.34 4.31 2.68 6.62 2 9 C3.32 8.67 4.64 8.34 6 8 C7.04449911 11.13349732 6.93423645 11.98968256 6 15 C7.65 15.33 9.3 15.66 11 16 C11.33 18.97 11.66 21.94 12 25 C14.31 25.66 16.62 26.32 19 27 C18.67 29.64 18.34 32.28 18 35 C17.01 35 16.02 35 15 35 C13.83666992 33.59814453 13.83666992 33.59814453 12.73046875 31.6328125 C12.31917725 30.91641602 11.90788574 30.20001953 11.48413086 29.46191406 C11.05624268 28.69073242 10.62835449 27.91955078 10.1875 27.125 C9.29741268 25.55958999 8.4067896 23.99448448 7.515625 22.4296875 C7.08572266 21.6675293 6.65582031 20.90537109 6.21289062 20.12011719 C4.26225145 16.71042504 2.16376264 13.3939151 0.05859375 10.078125 C-1.16854466 7.66913005 -1.7523255 5.69400333 -2 3 C-1.34 2.01 -0.68 1.02 0 0 Z " fill="#530D2E" transform="translate(165,80)"/>
<path d="M0 0 C1.125 3.75 1.125 3.75 0 6 C0.99 6 1.98 6 3 6 C3.33 4.68 3.66 3.36 4 2 C4 2.66 4 3.32 4 4 C4.66 4 5.32 4 6 4 C6 4.99 6 5.98 6 7 C6.66 7 7.32 7 8 7 C8 8.32 8 9.64 8 11 C7.34 11 6.68 11 6 11 C6 11.66 6 12.32 6 13 C7.32 13.33 8.64 13.66 10 14 C10 14.33 10 14.66 10 15 C6.7 15 3.4 15 0 15 C0 15.99 0 16.98 0 18 C-2.31 18 -4.62 18 -7 18 C-6.35534798 13.66695924 -4.81074878 10.13327935 -2.9375 6.1875 C-2.11572266 4.44533203 -2.11572266 4.44533203 -1.27734375 2.66796875 C-0.85582031 1.78753906 -0.43429688 0.90710938 0 0 Z " fill="#F0DCE3" transform="translate(125,152)"/>
<path d="M0 0 C1.32 0 2.64 0 4 0 C4.33 1.98 4.66 3.96 5 6 C4.360625 6.20625 3.72125 6.4125 3.0625 6.625 C0.67137131 7.88508506 0.67137131 7.88508506 0.25 11 C-0.02768183 13.83044881 -0.02768183 13.83044881 0 16 C-0.99 16 -1.98 16 -3 16 C-3.33 17.65 -3.66 19.3 -4 21 C-5.98 21 -7.96 21 -10 21 C-9.35294971 15.56477757 -8.2335464 10.78683712 -3.8125 7.25 C-3.214375 6.8375 -2.61625 6.425 -2 6 C-2 5.34 -2 4.68 -2 4 C-1.34 3.34 -0.68 2.68 0 2 C0 1.34 0 0.68 0 0 Z " fill="#FAF7F5" transform="translate(62,149)"/>
<path d="M0 0 C0.99 0 1.98 0 3 0 C3 0.99 3 1.98 3 3 C3.66 3.33 4.32 3.66 5 4 C5 5.32 5 6.64 5 8 C5.33 7.01 5.66 6.02 6 5 C6.66 5 7.32 5 8 5 C7.125 12.75 7.125 12.75 6 15 C3.525 14.01 3.525 14.01 1 13 C1 13.66 1 14.32 1 15 C0.01 15 -0.98 15 -2 15 C-2.66 11.7 -3.32 8.4 -4 5 C-3.34 5 -2.68 5 -2 5 C-2 6.65 -2 8.3 -2 10 C-1.34 10 -0.68 10 0 10 C0 7.69 0 5.38 0 3 C-0.66 3 -1.32 3 -2 3 C-1 1 -1 1 0 0 Z " fill="#722D48" transform="translate(137,176)"/>
<path d="M0 0 C0.33 0 0.66 0 1 0 C1.33 5.94 1.66 11.88 2 18 C4.31 18.33 6.62 18.66 9 19 C9 19.66 9 20.32 9 21 C8.34 21.33 7.68 21.66 7 22 C7.99 22 8.98 22 10 22 C10.66 22.99 11.32 23.98 12 25 C11.34 25 10.68 25 10 25 C7.91620491 28.84700632 6.50313376 32.90054429 5 37 C4.67 37 4.34 37 4 37 C4 31.72 4 26.44 4 21 C1.525 20.01 1.525 20.01 -1 19 C-0.67 12.73 -0.34 6.46 0 0 Z " fill="#590932" transform="translate(161,152)"/>
<path d="M0 0 C0.99 0.495 0.99 0.495 2 1 C2 1.99 2 2.98 2 4 C2.66 4 3.32 4 4 4 C4 6.31 4 8.62 4 11 C-21.41 11 -46.82 11 -73 11 C-73 10.67 -73 10.34 -73 10 C-71.63816841 9.99453156 -71.63816841 9.99453156 -70.24882507 9.98895264 C-61.69945977 9.95111101 -53.15047743 9.89430224 -44.60138226 9.81609726 C-40.20600054 9.77656089 -35.81082101 9.74440287 -31.4152832 9.72900391 C-27.17456069 9.71387754 -22.93439379 9.67950463 -18.69391823 9.63169098 C-17.07482541 9.61683544 -15.45565329 9.6089566 -13.83649254 9.60811615 C-11.5709727 9.60575711 -9.30700176 9.57876741 -7.04174805 9.54589844 C-5.10648506 9.53257477 -5.10648506 9.53257477 -3.13212585 9.51898193 C0.09699166 9.3063167 0.09699166 9.3063167 1.94010925 6.96588135 C2.2898732 6.3171405 2.63963715 5.66839966 3 5 C2.34 5 1.68 5 1 5 C0.505 2.525 0.505 2.525 0 0 Z " fill="#F4CED6" transform="translate(113,120)"/>
<path d="M0 0 C2.05078125 0.03255208 4.1015625 0.06510417 6.15234375 0.09765625 C6.81234375 2.07765625 7.47234375 4.05765625 8.15234375 6.09765625 C7.16234375 6.09765625 6.17234375 6.09765625 5.15234375 6.09765625 C5.15234375 6.75765625 5.15234375 7.41765625 5.15234375 8.09765625 C3.50234375 8.09765625 1.85234375 8.09765625 0.15234375 8.09765625 C0.15234375 7.43765625 0.15234375 6.77765625 0.15234375 6.09765625 C-1.48734375 6.65453125 -1.48734375 6.65453125 -3.16015625 7.22265625 C-4.37703125 7.51140625 -5.59390625 7.80015625 -6.84765625 8.09765625 C-7.83765625 7.43765625 -8.82765625 6.77765625 -9.84765625 6.09765625 C-9.84765625 5.10765625 -9.84765625 4.11765625 -9.84765625 3.09765625 C-8.71328125 2.78828125 -7.57890625 2.47890625 -6.41015625 2.16015625 C-3.90743448 1.41373046 -2.37560415 0.12556047 0 0 Z " fill="#7E0428" transform="translate(61.84765625,167.90234375)"/>
<path d="M0 0 C0.7109375 1.5625 0.7109375 1.5625 1 4 C-0.03515903 6.4519968 -1.10279962 8.67896267 -2.375 11 C-5.29102996 16.26539272 -5.29102996 16.26539272 -7 22 C-5.02 22 -3.04 22 -1 22 C-1 22.33 -1 22.66 -1 23 C-4.96 23.495 -4.96 23.495 -9 24 C-10.14947895 20.44706507 -10.0868937 19.20023331 -8.5625 15.6875 C-8.046875 14.800625 -7.53125 13.91375 -7 13 C-8.98 13.99 -8.98 13.99 -11 15 C-11 14.01 -11 13.02 -11 12 C-5.65116279 7 -5.65116279 7 -3 7 C-2.690625 6.030625 -2.38125 5.06125 -2.0625 4.0625 C-1 1 -1 1 0 0 Z " fill="#781330" transform="translate(59,148)"/>
<path d="M0 0 C0.80244141 0.00966797 1.60488281 0.01933594 2.43164062 0.02929688 C3.26501953 0.05443359 4.09839844 0.07957031 4.95703125 0.10546875 C6.22450195 0.12577148 6.22450195 0.12577148 7.51757812 0.14648438 C9.60183509 0.18181076 11.68576402 0.23561736 13.76953125 0.29296875 C13.76953125 0.62296875 13.76953125 0.95296875 13.76953125 1.29296875 C8.15953125 1.29296875 2.54953125 1.29296875 -3.23046875 1.29296875 C-3.23046875 3.27296875 -3.23046875 5.25296875 -3.23046875 7.29296875 C-1.25046875 7.29296875 0.72953125 7.29296875 2.76953125 7.29296875 C2.76953125 13.56296875 2.76953125 19.83296875 2.76953125 26.29296875 C2.43953125 26.29296875 2.10953125 26.29296875 1.76953125 26.29296875 C1.43953125 24.31296875 1.10953125 22.33296875 0.76953125 20.29296875 C0.43953125 20.29296875 0.10953125 20.29296875 -0.23046875 20.29296875 C-0.23046875 16.99296875 -0.23046875 13.69296875 -0.23046875 10.29296875 C-2.21046875 9.63296875 -4.19046875 8.97296875 -6.23046875 8.29296875 C-6.91796875 5.98046875 -6.91796875 5.98046875 -7.23046875 3.29296875 C-5.08901908 0.38797468 -3.53317351 -0.0751739 0 0 Z " fill="#601E39" transform="translate(160.23046875,143.70703125)"/>
<path d="M0 0 C-0.03255208 2.01822917 -0.06510417 4.03645833 -0.09765625 6.0546875 C-0.12649242 8.08185404 -0.12649242 8.08185404 1 10 C17.335 10.495 17.335 10.495 34 11 C34 11.33 34 11.66 34 12 C33.05157227 12.02505615 32.10314453 12.0501123 31.12597656 12.07592773 C27.59981968 12.1711884 24.07382041 12.27041441 20.54785156 12.37231445 C19.02315614 12.41556707 17.49841531 12.45724885 15.97363281 12.49731445 C13.77915778 12.55525203 11.58490932 12.61887795 9.390625 12.68359375 C8.37165131 12.70866249 8.37165131 12.70866249 7.33209229 12.73423767 C4.09461448 12.83507472 1.10230396 13.03139176 -2 14 C-3.31334663 11.04497008 -4.444461 8.19434924 -5 5 C-2.14285714 0 -2.14285714 0 0 0 Z " fill="#830829" transform="translate(38,122)"/>
<path d="M0 0 C0.66 0 1.32 0 2 0 C2.66 1.32 3.32 2.64 4 4 C4.66 2.68 5.32 1.36 6 0 C6.99 0 7.98 0 9 0 C10.1577506 3.47325181 10.06866652 6.36067448 10 10 C9.34 10 8.68 10 8 10 C8 8.35 8 6.7 8 5 C7.34 5 6.68 5 6 5 C5.67 6.65 5.34 8.3 5 10 C4.34 10 3.68 10 3 10 C2.67 9.34 2.34 8.68 2 8 C1.67 8.66 1.34 9.32 1 10 C0.34 10 -0.32 10 -1 10 C-1.125 3.375 -1.125 3.375 0 0 Z " fill="#D3A8B7" transform="translate(155,181)"/>
<path d="M0 0 C1.5 1.3125 1.5 1.3125 3 3 C3 3.99 3 4.98 3 6 C5.97 6.495 5.97 6.495 9 7 C8.773125 8.0725 8.54625 9.145 8.3125 10.25 C7.9497616 14.60286081 8.48383114 14.77930386 11 18 C11.1875 21.75 11.1875 21.75 11 25 C8.6267306 22.05411037 7.0254639 19.1442403 5.5 15.6875 C5.07332031 14.72199219 4.64664063 13.75648438 4.20703125 12.76171875 C3.80871094 11.85035156 3.41039062 10.93898437 3 10 C2.67386719 9.28457031 2.34773437 8.56914062 2.01171875 7.83203125 C0.74769344 5.02242048 0 3.12152521 0 0 Z " fill="#56102B" transform="translate(133,146)"/>
<path d="M0 0 C2.15973378 3.23960066 2.75921963 5.14751405 3 9 C1.875 10.875 1.875 10.875 0 12 C-2.6875 12.1875 -2.6875 12.1875 -5 12 C-5.625 9.1875 -5.625 9.1875 -6 6 C-4 3 -4 3 -1 2 C-0.67 1.34 -0.34 0.68 0 0 Z " fill="#FAF0F1" transform="translate(67,153)"/>
<path d="M0 0 C0.66 0 1.32 0 2 0 C1.52460869 6.3702436 -0.74186391 11.25735229 -3.5625 16.9375 C-3.98724609 17.81212891 -4.41199219 18.68675781 -4.84960938 19.58789062 C-5.891213 21.72961493 -6.9414422 23.86661853 -8 26 C-8.66 25.67 -9.32 25.34 -10 25 C-10 23.02 -10 21.04 -10 19 C-8.35 18.34 -6.7 17.68 -5 17 C-4.95101562 16.28972656 -4.90203125 15.57945312 -4.8515625 14.84765625 C-4.73941406 13.46900391 -4.73941406 13.46900391 -4.625 12.0625 C-4.55539063 11.14597656 -4.48578125 10.22945312 -4.4140625 9.28515625 C-4.27742188 8.53105469 -4.14078125 7.77695313 -4 7 C-3.34 6.67 -2.68 6.34 -2 6 C-1.27306096 4.02111039 -0.60183749 2.02045442 0 0 Z " fill="#5E0D2C" transform="translate(125,145)"/>
<path d="M0 0 C0.66 0 1.32 0 2 0 C2 0.99 2 1.98 2 3 C3.32 3 4.64 3 6 3 C8 6 8 6 8 10 C5.29120665 11.35439668 2.99066732 11.06501451 0 11 C0 7.37 0 3.74 0 0 Z " fill="#DFA6B6" transform="translate(115,180)"/>
<path d="M0 0 C1.125 3.75 1.125 3.75 0 6 C0.99 6 1.98 6 3 6 C3.33 4.68 3.66 3.36 4 2 C4 2.66 4 3.32 4 4 C4.66 4 5.32 4 6 4 C6 4.99 6 5.98 6 7 C6.66 7 7.32 7 8 7 C8 7.99 8 8.98 8 10 C4.7 10 1.4 10 -2 10 C-2.33 10.99 -2.66 11.98 -3 13 C-3.66 13 -4.32 13 -5 13 C-3.78184562 8.31479085 -2.30440013 4.29456388 0 0 Z " fill="#BE9EA9" transform="translate(125,152)"/>
<path d="M0 0 C0.33 0.66 0.66 1.32 1 2 C1.66 2 2.32 2 3 2 C4.03046722 3.78614318 5.04913236 5.57910018 6.0625 7.375 C6.63097656 8.37273437 7.19945313 9.37046875 7.78515625 10.3984375 C8.38650391 11.68621094 8.38650391 11.68621094 9 13 C8.67 13.66 8.34 14.32 8 15 C7.34 15 6.68 15 6 15 C6 14.01 6 13.02 6 12 C4.68 11.67 3.36 11.34 2 11 C2 10.34 2 9.68 2 9 C1.34 9 0.68 9 0 9 C-0.33 9.66 -0.66 10.32 -1 11 C-2.60080151 6.99799622 -1.29279692 3.95443764 0 0 Z " fill="#6F1332" transform="translate(101,69)"/>
<path d="M0 0 C0.99 0.33 1.98 0.66 3 1 C4 8.625 4 8.625 4 12 C2.35 12.66 0.7 13.32 -1 14 C-0.125 7.25 -0.125 7.25 1 5 C0.01 5 -0.98 5 -2 5 C-2.33 5.99 -2.66 6.98 -3 8 C-3.33 6.35 -3.66 4.7 -4 3 C-3.01 2.67 -2.02 2.34 -1 2 C-0.67 1.34 -0.34 0.68 0 0 Z " fill="#580924" transform="translate(129,179)"/>
<path d="M0 0 C1.32 0 2.64 0 4 0 C5.31626692 3.61973402 6 6.09567131 6 10 C5.34 10 4.68 10 4 10 C4 9.01 4 8.02 4 7 C2.02 7.99 0.04 8.98 -2 10 C-1.125 2.25 -1.125 2.25 0 0 Z " fill="#C194A9" transform="translate(168,181)"/>
<path d="M0 0 C0.99 0.33 1.98 0.66 3 1 C3.38218767 2.65614657 3.71395102 4.32457024 4 6 C3 7 3 7 1.14233398 7.11352539 C0.35157471 7.10828857 -0.43918457 7.10305176 -1.25390625 7.09765625 C-2.10791016 7.09443359 -2.96191406 7.09121094 -3.84179688 7.08789062 C-4.73962891 7.07951172 -5.63746094 7.07113281 -6.5625 7.0625 C-7.46419922 7.05798828 -8.36589844 7.05347656 -9.29492188 7.04882812 C-11.53001314 7.03700225 -13.76497437 7.0205222 -16 7 C-16.33 6.34 -16.66 5.68 -17 5 C-14.69 5 -12.38 5 -10 5 C-10 4.67 -10 4.34 -10 4 C-6.7 3.67 -3.4 3.34 0 3 C0 2.01 0 1.02 0 0 Z " fill="#6F394D" transform="translate(161,111)"/>
<path d="M0 0 C0.99 0 1.98 0 3 0 C2.32902328 4.19360449 0.1441606 7.40334352 -2 11 C-1.34 11.33 -0.68 11.66 0 12 C-0.66 12.66 -1.32 13.32 -2 14 C-2.33 14.845625 -2.66 15.69125 -3 16.5625 C-4 19 -4 19 -6 20 C-6.50510892 13.81241575 -5.23969326 11.05011009 -2 6 C-0.38450531 3.14568802 -0.38450531 3.14568802 0 0 Z " fill="#811837" transform="translate(59,80)"/>
<path d="M0 0 C6.93 0.495 6.93 0.495 14 1 C14 1.66 14 2.32 14 3 C13.34 3 12.68 3 12 3 C11.67 3.99 11.34 4.98 11 6 C7.17632299 6.21849583 4.37823976 5.87679987 1 4 C0.67 2.68 0.34 1.36 0 0 Z " fill="#6D0727" transform="translate(88,170)"/>
<path d="M0 0 C0.99 0 1.98 0 3 0 C4.65 3.63 6.3 7.26 8 11 C7.34 11.66 6.68 12.32 6 13 C5.01 12.01 4.02 11.02 3 10 C2.34 10.66 1.68 11.32 1 12 C0.67 10.68 0.34 9.36 0 8 C0.66 8 1.32 8 2 8 C2 7.34 2 6.68 2 6 C1.34 5.67 0.68 5.34 0 5 C0 3.35 0 1.7 0 0 Z " fill="#681333" transform="translate(120,104)"/>
<path d="M0 0 C2.7920147 1.39600735 3.00162933 3.00416384 4.125 5.875 C4.47820312 6.75929687 4.83140625 7.64359375 5.1953125 8.5546875 C6 11 6 11 6 14 C4.02 14 2.04 14 0 14 C-0.33 13.01 -0.66 12.02 -1 11 C-0.34 11 0.32 11 1 11 C1 10.34 1 9.68 1 9 C0.34 9 -0.32 9 -1 9 C-0.67 8.34 -0.34 7.68 0 7 C0.66 7.33 1.32 7.66 2 8 C1.2236068 4.9254644 1.2236068 4.9254644 -1 3 C-0.67 2.01 -0.34 1.02 0 0 Z " fill="#E4CBD6" transform="translate(136,156)"/>
<path d="M0 0 C4.75 0.75 4.75 0.75 7 3 C6.625 6.625 6.625 6.625 6 10 C4.35 8.35 2.7 6.7 1 5 C-0.98 5.99 -0.98 5.99 -3 7 C-1.125 2.25 -1.125 2.25 0 0 Z " fill="#73223A" transform="translate(92,59)"/>
<path d="M0 0 C0.66 0 1.32 0 2 0 C2 2.33333333 2 4.66666667 2 7 C2.185625 8.155 2.37125 9.31 2.5625 10.5 C3 14 3 14 2 16 C1.34 16 0.68 16 0 16 C-2.07899522 9.88530818 -2.01952506 6.05857519 0 0 Z " fill="#580A33" transform="translate(174,174)"/>
<path d="M0 0 C1.85546875 0.25390625 1.85546875 0.25390625 4 1 C5.30078125 2.77734375 5.30078125 2.77734375 6.3125 4.9375 C6.65925781 5.64777344 7.00601563 6.35804688 7.36328125 7.08984375 C7.57339844 7.72019531 7.78351563 8.35054687 8 9 C7.67 9.66 7.34 10.32 7 11 C6.67 9.68 6.34 8.36 6 7 C5.34 7 4.68 7 4 7 C4 5.68 4 4.36 4 3 C2.68 3 1.36 3 0 3 C0.33 3.99 0.66 4.98 1 6 C0.01 6.33 -0.98 6.66 -2 7 C-1.67 8.32 -1.34 9.64 -1 11 C-2.32 11.33 -3.64 11.66 -5 12 C-4.54738642 10.56068883 -4.08767021 9.12361001 -3.625 7.6875 C-3.24214844 6.48673828 -3.24214844 6.48673828 -2.8515625 5.26171875 C-2 3 -2 3 0 0 Z " fill="#E7C3CC" transform="translate(62,146)"/>
<path d="M0 0 C-2.65067354 2.65067354 -4.24471497 2.38329043 -7.9375 2.625 C-8.99839844 2.69976563 -10.05929688 2.77453125 -11.15234375 2.8515625 C-13.09954677 2.95306279 -15.05015336 3 -17 3 C-15.2314031 0.61623897 -13.77903383 -0.79559296 -10.87109375 -1.55859375 C-6.51319531 -2.1401255 -3.88239453 -2.27649498 0 0 Z " fill="#5A092A" transform="translate(133,27)"/>
<path d="M0 0 C0.99 0.33 1.98 0.66 3 1 C3.625 2.8125 3.625 2.8125 4 5 C4.20625 5.721875 4.4125 6.44375 4.625 7.1875 C4.74875 7.785625 4.8725 8.38375 5 9 C4.67 9.33 4.34 9.66 4 10 C4 10.66 4 11.32 4 12 C2.02 11.34 0.04 10.68 -2 10 C-2 9.34 -2 8.68 -2 8 C-1.34 8 -0.68 8 0 8 C-0.185625 7.05125 -0.37125 6.1025 -0.5625 5.125 C-1 2 -1 2 0 0 Z " fill="#FCF8FB" transform="translate(133,155)"/>
<path d="M0 0 C2 0 2 0 4 1.4375 C6.77974608 4.99904966 7.28673172 8.607769 8 13 C7.01 13 6.02 13 5 13 C4.15930585 11.39967863 3.32768495 9.79458829 2.5 8.1875 C1.80390625 6.84751953 1.80390625 6.84751953 1.09375 5.48046875 C0 3 0 3 0 0 Z " fill="#5E1835" transform="translate(132,29)"/>
<path d="M0 0 C0 0.66 0 1.32 0 2 C-0.99 2 -1.98 2 -3 2 C-3 2.99 -3 3.98 -3 5 C-2.01 5.33 -1.02 5.66 0 6 C-0.99 6 -1.98 6 -3 6 C-3 7.32 -3 8.64 -3 10 C-2.01 10.33 -1.02 10.66 0 11 C-1.66611905 11.042721 -3.33382885 11.04063832 -5 11 C-6 10 -6 10 -6.09765625 7.93359375 C-6.08605469 7.10988281 -6.07445312 6.28617188 -6.0625 5.4375 C-6.05347656 4.61121094 -6.04445312 3.78492188 -6.03515625 2.93359375 C-6.02355469 2.29550781 -6.01195312 1.65742188 -6 1 C-4 0 -4 0 0 0 Z " fill="#CEA0B0" transform="translate(152,180)"/>
<path d="M0 0 C3.29078593 2.79716804 5.06305458 6.19528578 7 10 C6.67 10.66 6.34 11.32 6 12 C4.1875 11.875 4.1875 11.875 2 11 C-0.10234659 7.81023276 -1.10492845 5.96534169 -0.6875 2.125 C-0.460625 1.42375 -0.23375 0.7225 0 0 Z " fill="#F6E2EB" transform="translate(138,43)"/>
<path d="M0 0 C2 3 2 3 2 5 C2.66 5 3.32 5 4 5 C4.33 3.35 4.66 1.7 5 0 C5.66 0 6.32 0 7 0 C7 1.65 7 3.3 7 5 C7.66 5 8.32 5 9 5 C9.33 4.34 9.66 3.68 10 3 C10.66 3.33 11.32 3.66 12 4 C12 4.66 12 5.32 12 6 C6.97874074 6.77916092 3.02296004 7.13016601 -2 6 C-1.34 5.67 -0.68 5.34 0 5 C0 3.35 0 1.7 0 0 Z " fill="#642B45" transform="translate(156,186)"/>
<path d="M0 0 C0.99 0 1.98 0 3 0 C3.33 0.99 3.66 1.98 4 3 C4.33 2.01 4.66 1.02 5 0 C5.66 0 6.32 0 7 0 C6.125 7.75 6.125 7.75 5 10 C4.34 10 3.68 10 3 10 C2.34 8.35 1.68 6.7 1 5 C0.67 5 0.34 5 0 5 C0 3.35 0 1.7 0 0 Z " fill="#D3A6B4" transform="translate(138,181)"/>
<path d="M0 0 C3.28465896 2.79196011 5.01321958 6.23196817 7 10 C7 10.66 7 11.32 7 12 C6.01 12 5.02 12 4 12 C4 11.34 4 10.68 4 10 C3.38125 9.9175 2.7625 9.835 2.125 9.75 C0 9 0 9 -1.25 6.9375 C-1.62125 5.9784375 -1.62125 5.9784375 -2 5 C-0.68 4.67 0.64 4.34 2 4 C1.34 4 0.68 4 0 4 C0 2.68 0 1.36 0 0 Z " fill="#702B48" transform="translate(130,118)"/>
<path d="M0 0 C0.66 0 1.32 0 2 0 C4.53309233 4.64203897 6.46515599 8.65155992 7 14 C4 13 4 13 2.8125 11.25 C1.89180904 8.70039426 1.85051282 6.69076919 2 4 C1.34 4 0.68 4 0 4 C0 2.68 0 1.36 0 0 Z " fill="#63132F" transform="translate(112,89)"/>
<path d="M0 0 C0.66 0.99 1.32 1.98 2 3 C1.54625 3.7425 1.0925 4.485 0.625 5.25 C-0.98364832 7.87563711 -0.98364832 7.87563711 -2.0625 10.25 C-3 12 -3 12 -5 13 C-6.13350534 15.01669827 -6.13350534 15.01669827 -7 17 C-7.66 16.67 -8.32 16.34 -9 16 C-7.87684284 13.8948311 -6.75155495 11.79084961 -5.625 9.6875 C-5.30789062 9.09259766 -4.99078125 8.49769531 -4.6640625 7.88476562 C-3.20613651 5.16634112 -1.71288297 2.56932446 0 0 Z " fill="#E9CCD3" transform="translate(67,76)"/>
<path d="M0 0 C3.96 0 7.92 0 12 0 C12.33 0.66 12.66 1.32 13 2 C11.68 2.33 10.36 2.66 9 3 C9 2.34 9 1.68 9 1 C7.35 1.33 5.7 1.66 4 2 C4 3.65 4 5.3 4 7 C3.01 7 2.02 7 1 7 C-0.0625 4.625 -0.0625 4.625 -1 2 C-0.67 1.34 -0.34 0.68 0 0 Z " fill="#FAE2EF" transform="translate(119,30)"/>
<path d="M0 0 C2.33333333 0 4.66666667 0 7 0 C5.78065514 4.03321763 4.44045073 7.54269479 2 11 C1.34 11 0.68 11 0 11 C0.185625 10.113125 0.37125 9.22625 0.5625 8.3125 C0.98042484 5.14821189 0.80777742 3.05160358 0 0 Z " fill="#D297A7" transform="translate(123,184)"/>
<path d="M0 0 C0.33 0 0.66 0 1 0 C1.33 5.94 1.66 11.88 2 18 C4.31 18.33 6.62 18.66 9 19 C9 19.66 9 20.32 9 21 C7.52031676 20.85950482 6.04125484 20.71245174 4.5625 20.5625 C3.73878906 20.48128906 2.91507813 20.40007812 2.06640625 20.31640625 C0 20 0 20 -1 19 C-1.0165911 17.58155387 -0.9633054 16.16212393 -0.87890625 14.74609375 C-0.83056641 13.89208984 -0.78222656 13.03808594 -0.73242188 12.15820312 C-0.67634766 11.26037109 -0.62027344 10.36253906 -0.5625 9.4375 C-0.51029297 8.53580078 -0.45808594 7.63410156 -0.40429688 6.70507812 C-0.27419751 4.4697345 -0.13922064 2.2347911 0 0 Z " fill="#4A041F" transform="translate(161,152)"/>
<path d="M0 0 C2.4375 0.75 2.4375 0.75 5 2 C5.9375 3.875 5.9375 3.875 6 6 C5.0625 8.25 5.0625 8.25 4 10 C3.34 8.35 2.68 6.7 2 5 C0.68 5 -0.64 5 -2 5 C-2 2 -2 2 0 0 Z " fill="#731C39" transform="translate(119,178)"/>
<path d="M0 0 C0.85276722 2.41707906 1.12087895 3.64003451 0.29296875 6.10546875 C-0.07183594 6.79253906 -0.43664063 7.47960937 -0.8125 8.1875 C-1.16957031 8.88230469 -1.52664062 9.57710937 -1.89453125 10.29296875 C-3 12 -3 12 -5 13 C-5.33 13.99 -5.66 14.98 -6 16 C-6.66 16 -7.32 16 -8 16 C-8.33 16.66 -8.66 17.32 -9 18 C-8.34628933 14.51354309 -6.93113107 11.99711976 -5.0625 9 C-3.23237877 6.0502223 -1.5006156 3.13171952 0 0 Z " fill="#F1D2D6" transform="translate(46,112)"/>
<path d="M0 0 C0.33 0 0.66 0 1 0 C1.08226668 3.04386724 0.97608217 5.07175348 0 8 C-0.66 8 -1.32 8 -2 8 C-2 8.66 -2 9.32 -2 10 C-2.66 10 -3.32 10 -4 10 C-4.33 11.32 -4.66 12.64 -5 14 C-5.66 14 -6.32 14 -7 14 C-5.56032356 8.76481294 -3.18303389 4.36973991 0 0 Z " fill="#EBD4DC" transform="translate(75,62)"/>
<path d="M0 0 C1.32 0.99 2.64 1.98 4 3 C3.34 3 2.68 3 2 3 C2 5.97 2 8.94 2 12 C1.34 12 0.68 12 0 12 C0.33 9.03 0.66 6.06 1 3 C0.34 3 -0.32 3 -1 3 C-1.33 4.98 -1.66 6.96 -2 9 C-2.33 9 -2.66 9 -3 9 C-3.1875 5.625 -3.1875 5.625 -3 2 C-2.01 1.34 -1.02 0.68 0 0 Z " fill="#551F32" transform="translate(144,178)"/>
<path d="M0 0 C1.46726798 3.81489674 0.43336419 6.29011622 -1 10 C-0.01 10 0.98 10 2 10 C2 10.66 2 11.32 2 12 C0.02 12 -1.96 12 -4 12 C-3.45660208 7.43545749 -2.20536179 4.0271824 0 0 Z " fill="#E9C1CC" transform="translate(56,158)"/>
<path d="M0 0 C0.99 0.99 1.98 1.98 3 3 C3 3.99 3 4.98 3 6 C5.97 6.495 5.97 6.495 9 7 C8.67 8.65 8.34 10.3 8 12 C6.68 10.68 5.36 9.36 4 8 C3.01 8.495 3.01 8.495 2 9 C1.34 6.03 0.68 3.06 0 0 Z " fill="#620E30" transform="translate(133,146)"/>
<path d="M0 0 C0.66 0.33 1.32 0.66 2 1 C1.49396008 3.16874252 1.00016187 4.99967627 0 7 C1.32 7.33 2.64 7.66 4 8 C3.01 9.485 3.01 9.485 2 11 C0.68 11 -0.64 11 -2 11 C-1.85892253 9.54119891 -1.71197585 8.08296449 -1.5625 6.625 C-1.48128906 5.81289062 -1.40007812 5.00078125 -1.31640625 4.1640625 C-1 2 -1 2 0 0 Z " fill="#610D2B" transform="translate(123,188)"/>
<path d="M0 0 C0.66 0 1.32 0 2 0 C2 3.63 2 7.26 2 11 C1.01 10.67 0.02 10.34 -1 10 C-1.02689216 8.52093108 -1.04634621 7.04172517 -1.0625 5.5625 C-1.07410156 4.73878906 -1.08570312 3.91507813 -1.09765625 3.06640625 C-1 1 -1 1 0 0 Z " fill="#610F29" transform="translate(113,180)"/>
<path d="M0 0 C0.99 0 1.98 0 3 0 C4.1577506 3.47325181 4.06866652 6.36067448 4 10 C3.34 10 2.68 10 2 10 C2 8.35 2 6.7 2 5 C1.01 5 0.02 5 -1 5 C-0.67 3.35 -0.34 1.7 0 0 Z " fill="#CAA2B2" transform="translate(161,181)"/>
<path d="M0 0 C2.97069541 2.54631035 4.4775751 5.42230149 6 9 C5.67 9.66 5.34 10.32 5 11 C1.51668565 7.98112756 0.20842856 5.43090471 -1 1 C-0.67 0.67 -0.34 0.34 0 0 Z " fill="#682C40" transform="translate(128,51)"/>
<path d="M0 0 C1.9375 0.8125 1.9375 0.8125 4 2 C4.33 2.99 4.66 3.98 5 5 C4.01 5 3.02 5 2 5 C2 5.66 2 6.32 2 7 C0 6 0 6 -2 4 C-1 1 -1 1 0 0 Z " fill="#880730" transform="translate(65,169)"/>
<path d="M0 0 C0.99 0 1.98 0 3 0 C4.20628008 2.33214148 5.1654738 4.49642139 6 7 C5.01 8.485 5.01 8.485 4 10 C3.01 9.67 2.02 9.34 1 9 C1.33 6.69 1.66 4.38 2 2 C1.34 2 0.68 2 0 2 C0 1.34 0 0.68 0 0 Z " fill="#76324C" transform="translate(115,122)"/>
<path d="M0 0 C0.99 0 1.98 0 3 0 C3.625 2.8125 3.625 2.8125 4 6 C3.01 7.485 3.01 7.485 2 9 C1.34 8.34 0.68 7.68 0 7 C-0.66 6.67 -1.32 6.34 -2 6 C-1.34 5.34 -0.68 4.68 0 4 C0 2.68 0 1.36 0 0 Z " fill="#670A29" transform="translate(97,65)"/>
<path d="M0 0 C0.66 0 1.32 0 2 0 C2 2.31 2 4.62 2 7 C1.67 6.34 1.34 5.68 1 5 C0.01 5 -0.98 5 -2 5 C-2.33 5.99 -2.66 6.98 -3 8 C-3.33 6.35 -3.66 4.7 -4 3 C-3.01 2.67 -2.02 2.34 -1 2 C-0.67 1.34 -0.34 0.68 0 0 Z " fill="#60142C" transform="translate(129,179)"/>
<path d="M0 0 C6.0546875 -0.1953125 6.0546875 -0.1953125 8 0 C8.66 0.66 9.32 1.32 10 2 C12.57061311 2.64767793 12.57061311 2.64767793 15 3 C14.01 3.33 13.02 3.66 12 4 C12 4.66 12 5.32 12 6 C9 5 9 5 7.6875 3.5 C5.31932032 1.39495139 3.08518447 1.34279827 0 1 C0 0.67 0 0.34 0 0 Z " fill="#560324" transform="translate(126,168)"/>
<path d="M0 0 C1.98 0 3.96 0 6 0 C5.01 0.495 5.01 0.495 4 1 C4 1.66 4 2.32 4 3 C5.32 3.33 6.64 3.66 8 4 C8 4.33 8 4.66 8 5 C4.7 5 1.4 5 -2 5 C-1.34 4.34 -0.68 3.68 0 3 C0.99 3 1.98 3 3 3 C3 2.34 3 1.68 3 1 C2.01 0.67 1.02 0.34 0 0 Z " fill="#DFC1CB" transform="translate(127,162)"/>
<path d="M0 0 C0.99 0.495 0.99 0.495 2 1 C2.33 1.99 2.66 2.98 3 4 C3.66 4.33 4.32 4.66 5 5 C6.1577506 8.47325181 6.06866652 11.36067448 6 15 C5.34 14.67 4.68 14.34 4 14 C4.0825 13.29875 4.165 12.5975 4.25 11.875 C3.91987723 8.07858813 2.14816553 6.08798795 0 3 C0 2.01 0 1.02 0 0 Z " fill="#400C29" transform="translate(183,117)"/>
<path d="M0 0 C3.34726719 1.11575573 3.62079748 1.51344622 5.25 4.4375 C5.8275 5.613125 6.405 6.78875 7 8 C6.67 8.66 6.34 9.32 6 10 C2.46413986 6.82679218 0.41421969 4.83256305 0 0 Z " fill="#540F27" transform="translate(134,96)"/>
<path d="M0 0 C1.875 0.125 1.875 0.125 4 1 C5.25 4.0625 5.25 4.0625 6 7 C5.34 7.66 4.68 8.32 4 9 C3.67 7.35 3.34 5.7 3 4 C2.34 4 1.68 4 1 4 C0.67 2.68 0.34 1.36 0 0 Z " fill="#70233A" transform="translate(96,32)"/>
<path d="M0 0 C0 1.98 0 3.96 0 6 C-1.65 5.67 -3.3 5.34 -5 5 C-5 3.68 -5 2.36 -5 1 C-2 0 -2 0 0 0 Z " fill="#633645" transform="translate(154,185)"/>
<path d="M0 0 C2.78388975 1.70625501 3.85384206 2.47626739 4.75 5.6875 C4.8325 6.450625 4.915 7.21375 5 8 C4.01 8.33 3.02 8.66 2 9 C0.59306362 6.37371875 -0.49157276 3.94887797 -1 1 C-0.67 0.67 -0.34 0.34 0 0 Z " fill="#5F0C2C" transform="translate(116,118)"/>
<path d="M0 0 C2.89932357 2.39509338 3.50168276 4.31245243 4 8 C1.69 8 -0.62 8 -3 8 C-1.68 7.34 -0.36 6.68 1 6 C0.67 5.67 0.34 5.34 0 5 C-0.04063832 3.33382885 -0.042721 1.66611905 0 0 Z " fill="#E0AEBE" transform="translate(72,162)"/>
<path d="M0 0 C0.66 0 1.32 0 2 0 C2.33 1.98 2.66 3.96 3 6 C1.35 6 -0.3 6 -2 6 C-1.125 1.125 -1.125 1.125 0 0 Z " fill="#884E5D" transform="translate(63,156)"/>
<path d="M0 0 C0.66 0.99 1.32 1.98 2 3 C1.01 3.33 0.02 3.66 -1 4 C-1.33 5.65 -1.66 7.3 -2 9 C-2.99 9.33 -3.98 9.66 -5 10 C-4.34 7.36 -3.68 4.72 -3 2 C-2.01 2 -1.02 2 0 2 C0 1.34 0 0.68 0 0 Z " fill="#6D0A2A" transform="translate(76,90)"/>
<path d="M0 0 C0.33 0.66 0.66 1.32 1 2 C0.67 2.66 0.34 3.32 0 4 C0.66 4.33 1.32 4.66 2 5 C-2.75 9 -2.75 9 -5 9 C-3.50163895 5.88801935 -1.80066242 2.9465385 0 0 Z " fill="#7B2442" transform="translate(82,77)"/>
<path d="M0 0 C3.0916909 2.52956528 3.90931332 5.22454612 5 9 C4.01 9 3.02 9 2 9 C2 8.01 2 7.02 2 6 C1.34 6 0.68 6 0 6 C-1.125 2.25 -1.125 2.25 0 0 Z " fill="#753348" transform="translate(105,75)"/>
<path d="M0 0 C0.66 0 1.32 0 2 0 C2.185625 1.2065625 2.185625 1.2065625 2.375 2.4375 C2.58125 3.283125 2.7875 4.12875 3 5 C3.66 5.33 4.32 5.66 5 6 C5 7.32 5 8.64 5 10 C4.01 10 3.02 10 2 10 C1.34 6.7 0.68 3.4 0 0 Z " fill="#E4ACC0" transform="translate(133,181)"/>
<path d="M0 0 C1.32 0 2.64 0 4 0 C3.6875 2.375 3.6875 2.375 3 5 C2.01 5.66 1.02 6.32 0 7 C0 4.69 0 2.38 0 0 Z " fill="#840330" transform="translate(82,160)"/>
<path d="M0 0 C2.97 0 5.94 0 9 0 C9 0.99 9 1.98 9 3 C7.02 3.99 7.02 3.99 5 5 C4.34 4.01 3.68 3.02 3 2 C2.01 1.34 1.02 0.68 0 0 Z " fill="#841C3A" transform="translate(62,145)"/>
<path d="M0 0 C0.66 0 1.32 0 2 0 C0.78065514 4.03321763 -0.55954927 7.54269479 -3 11 C-3.66 11 -4.32 11 -5 11 C-3.55049545 7.2089881 -1.84827434 3.6125362 0 0 Z " fill="#64142A" transform="translate(62,80)"/>
<path d="M0 0 C2.61500768 2.36595933 4.38999603 4.86049226 6 8 C5.67 8.66 5.34 9.32 5 10 C1.95623822 7.97082548 1.25189126 7.27417715 0 4 C0 2.68 0 1.36 0 0 Z " fill="#693147" transform="translate(142,76)"/>
<path d="M0 0 C0.66 0.33 1.32 0.66 2 1 C0.38731308 3.71224618 -1.24901874 6.37352812 -3 9 C-3.33 6.69 -3.66 4.38 -4 2 C-2.125 0.9375 -2.125 0.9375 0 0 Z " fill="#4D1026" transform="translate(162,178)"/>
<path d="M0 0 C0.66 0.33 1.32 0.66 2 1 C2 2.32 2 3.64 2 5 C3.98 5 5.96 5 8 5 C8 5.33 8 5.66 8 6 C5.36 6.33 2.72 6.66 0 7 C-1.125 2.25 -1.125 2.25 0 0 Z " fill="#801D39" transform="translate(50,165)"/>
<path d="M0 0 C0.66 0.66 1.32 1.32 2 2 C2.99 1.67 3.98 1.34 5 1 C5 2.32 5 3.64 5 5 C3.35 5.33 1.7 5.66 0 6 C-1.125 2.25 -1.125 2.25 0 0 Z " fill="#ECE3E2" transform="translate(51,103)"/>
<path d="M0 0 C1 2 1 2 0.44140625 4.1640625 C0.15136719 4.97617188 -0.13867188 5.78828125 -0.4375 6.625 C-0.72496094 7.44226563 -1.01242188 8.25953125 -1.30859375 9.1015625 C-1.53675781 9.72804688 -1.76492187 10.35453125 -2 11 C-2.99 11 -3.98 11 -5 11 C-3.55049545 7.2089881 -1.84827434 3.6125362 0 0 Z " fill="#823950" transform="translate(72,93)"/>
<path d="M0 0 C2.67576692 1.00617682 3.7785108 1.54214546 5.046875 4.1640625 C5.27890625 4.97617188 5.5109375 5.78828125 5.75 6.625 C5.99234375 7.44226563 6.2346875 8.25953125 6.484375 9.1015625 C6.73960937 10.04128906 6.73960937 10.04128906 7 11 C3.73734388 8.82489592 3.26063591 7.87050047 1.8125 4.375 C1.46832031 3.55773437 1.12414062 2.74046875 0.76953125 1.8984375 C0.38861328 0.95871094 0.38861328 0.95871094 0 0 Z " fill="#54122C" transform="translate(153,67)"/>
<path d="M0 0 C2.32472205 2.85306797 3.7508258 5.54074837 5 9 C0.125 6.375 0.125 6.375 -1 3 C-0.67 2.01 -0.34 1.02 0 0 Z " fill="#E7CFDA" transform="translate(147,58)"/>
<path d="M0 0 C1.32 0.99 2.64 1.98 4 3 C4.66 2.67 5.32 2.34 6 2 C6.33 3.65 6.66 5.3 7 7 C5.02 6.34 3.04 5.68 1 5 C0.67 3.35 0.34 1.7 0 0 Z " fill="#550726" transform="translate(142,46)"/>
<path d="M0 0 C2.0625 0.4375 2.0625 0.4375 4 1 C4 1.66 4 2.32 4 3 C2.03852126 4.38938077 0.03833424 5.7260411 -2 7 C-1.125 1.125 -1.125 1.125 0 0 Z " fill="#85052C" transform="translate(52,152)"/>
<path d="M0 0 C1.98 0 3.96 0 6 0 C4.25 4.875 4.25 4.875 2 6 C1.34 5.34 0.68 4.68 0 4 C0 2.68 0 1.36 0 0 Z " fill="#8B263B" transform="translate(36,120)"/>
<path d="M0 0 C0 1.65 0 3.3 0 5 C-1.32 4.34 -2.64 3.68 -4 3 C-4.66 3.66 -5.32 4.32 -6 5 C-6.66 4.01 -7.32 3.02 -8 2 C-2.25 0 -2.25 0 0 0 Z " fill="#72163A" transform="translate(120,116)"/>
<path d="M0 0 C2.54845496 2.45539341 4.3743846 4.83004997 6 8 C5.67 8.66 5.34 9.32 5 10 C4.01 9.67 3.02 9.34 2 9 C1.26953125 6.93359375 1.26953125 6.93359375 0.8125 4.4375 C0.65394531 3.61121094 0.49539062 2.78492187 0.33203125 1.93359375 C0.16767578 0.97646484 0.16767578 0.97646484 0 0 Z " fill="#632F48" transform="translate(157,102)"/>
<path d="M0 0 C1.98 0.495 1.98 0.495 4 1 C3.67 2.98 3.34 4.96 3 7 C2.01 6.67 1.02 6.34 0 6 C-0.33 5.01 -0.66 4.02 -1 3 C-0.34 3 0.32 3 1 3 C0.67 2.01 0.34 1.02 0 0 Z " fill="#F0EFEF" transform="translate(157,96)"/>
<path d="M0 0 C1.5 1.375 1.5 1.375 3 3 C3 3.66 3 4.32 3 5 C3.99 5.33 4.98 5.66 6 6 C5.67 6.66 5.34 7.32 5 8 C2.525 7.01 2.525 7.01 0 6 C0 4.02 0 2.04 0 0 Z " fill="#600A28" transform="translate(128,56)"/>
<path d="M0 0 C1.32 0.99 2.64 1.98 4 3 C3.67 4.65 3.34 6.3 3 8 C2.34 8 1.68 8 1 8 C0.67 5.36 0.34 2.72 0 0 Z " fill="#470A29" transform="translate(173,182)"/>
<path d="M0 0 C0.99 0.495 0.99 0.495 2 1 C2 1.99 2 2.98 2 4 C2.66 4 3.32 4 4 4 C4 5.98 4 7.96 4 10 C2.68 9.67 1.36 9.34 0 9 C0.99 7.68 1.98 6.36 3 5 C2.34 5 1.68 5 1 5 C0.67 3.35 0.34 1.7 0 0 Z " fill="#F3DAE5" transform="translate(113,120)"/>
<path d="M0 0 C0.66 0.33 1.32 0.66 2 1 C2 3.97 2 6.94 2 10 C1.01 10.495 1.01 10.495 0 11 C0.33 9.02 0.66 7.04 1 5 C0.34 4.67 -0.32 4.34 -1 4 C-0.67 2.68 -0.34 1.36 0 0 Z " fill="#5A042A" transform="translate(146,85)"/>
<path d="M0 0 C1.98 0.99 1.98 0.99 4 2 C4 2.66 4 3.32 4 4 C4.66 4 5.32 4 6 4 C6 4.99 6 5.98 6 7 C5.34 7 4.68 7 4 7 C4 6.34 4 5.68 4 5 C3.01 4.67 2.02 4.34 1 4 C0.3125 1.9375 0.3125 1.9375 0 0 Z " fill="#570A29" transform="translate(128,86)"/>
<path d="M0 0 C1.32 0.33 2.64 0.66 4 1 C3.67 2.32 3.34 3.64 3 5 C2.01 5 1.02 5 0 5 C0 3.35 0 1.7 0 0 Z " fill="#673C46" transform="translate(117,185)"/>
<path d="M0 0 C0.99 0 1.98 0 3 0 C2.34 2.97 1.68 5.94 1 9 C0.67 9 0.34 9 0 9 C0 6.03 0 3.06 0 0 Z " fill="#380C1E" transform="translate(165,180)"/>
<path d="M0 0 C2.475 0.99 2.475 0.99 5 2 C4.01 2.495 4.01 2.495 3 3 C2.67 3.99 2.34 4.98 2 6 C1.01 6 0.02 6 -1 6 C-0.67 4.02 -0.34 2.04 0 0 Z " fill="#FEF7FB" transform="translate(126,152)"/>
<path d="M0 0 C0.99 0 1.98 0 3 0 C3.33 1.65 3.66 3.3 4 5 C2.35 4.67 0.7 4.34 -1 4 C-0.67 2.68 -0.34 1.36 0 0 Z " fill="#F1E7EC" transform="translate(127,148)"/>
<path d="M0 0 C1.98 0.495 1.98 0.495 4 1 C2.515 4.465 2.515 4.465 1 8 C0.34 7.67 -0.32 7.34 -1 7 C-0.67 4.69 -0.34 2.38 0 0 Z " fill="#740528" transform="translate(67,104)"/>
<path d="M0 0 C0.66 0.99 1.32 1.98 2 3 C0.02 5.31 -1.96 7.62 -4 10 C-4 7 -4 7 -2 5 C-1.29289322 3.35008418 -0.62056011 1.68437744 0 0 Z " fill="#E8C5CE" transform="translate(57,93)"/>
<path d="M0 0 C0.99 0 1.98 0 3 0 C3 1.98 3 3.96 3 6 C2.01 6 1.02 6 0 6 C0 4.02 0 2.04 0 0 Z " fill="#86072D" transform="translate(48,95)"/>
<path d="M0 0 C2.50037734 2.17424117 3.43628586 3.73045798 4 7 C2.35 6.67 0.7 6.34 -1 6 C-0.67 4.02 -0.34 2.04 0 0 Z " fill="#E0C7D2" transform="translate(141,48)"/>
<path d="M0 0 C1.32 1.65 2.64 3.3 4 5 C3.67 5.66 3.34 6.32 3 7 C1.35 6.01 -0.3 5.02 -2 4 C-1 1 -1 1 0 0 Z " fill="#742D46" transform="translate(124,44)"/>
<path d="M0 0 C1.9375 1.0625 1.9375 1.0625 4 3 C4.75 6.6875 4.75 6.6875 5 10 C2.35534962 6.8745041 1.15585285 3.91211733 0 0 Z " fill="#4E0E28" transform="translate(153,97)"/>
<path d="M0 0 C0.99 0 1.98 0 3 0 C2.625 2.4375 2.625 2.4375 2 5 C1.01 5.495 1.01 5.495 0 6 C0 5.34 0 4.68 0 4 C-0.66 3.67 -1.32 3.34 -2 3 C-1.34 2.01 -0.68 1.02 0 0 Z " fill="#600637" transform="translate(173,91)"/>
<path d="M0 0 C0.99 0.33 1.98 0.66 3 1 C3 2.32 3 3.64 3 5 C1.68 5 0.36 5 -1 5 C-0.67 3.35 -0.34 1.7 0 0 Z " fill="#62102B" transform="translate(108,83)"/>
<path d="M0 0 C1.32 0.33 2.64 0.66 4 1 C4.33 3.31 4.66 5.62 5 8 C2.74754119 5.31158141 1.11786042 3.35358125 0 0 Z " fill="#F8DFEA" transform="translate(104,72)"/>
<path d="M0 0 C0.33 0.66 0.66 1.32 1 2 C0.06421005 4.35981813 -0.93347808 6.69631264 -2 9 C-2.66 9 -3.32 9 -4 9 C-2.94124926 5.59687262 -1.99097846 2.98646769 0 0 Z " fill="#DFBCC4" transform="translate(72,67)"/>
<path d="M0 0 C0.99 0 1.98 0 3 0 C2.67 1.65 2.34 3.3 2 5 C1.01 5 0.02 5 -1 5 C-0.67 3.35 -0.34 1.7 0 0 Z " fill="#6A1230" transform="translate(88,66)"/>
<path d="M0 0 C3.67230705 3.07999946 4.56802365 5.2482602 5 10 C2.08772731 6.71195019 0.50298788 4.40114397 0 0 Z " fill="#5D1932" transform="translate(101,39)"/>
<path d="M0 0 C0.68707555 2.49064888 1 4.37886292 1 7 C0.34 7 -0.32 7 -1 7 C-1.66 5.02 -2.32 3.04 -3 1 C-2.01 0.67 -1.02 0.34 0 0 Z " fill="#7E3451" transform="translate(118,30)"/>
</svg>
