<svg version="1.1" baseProfile="tiny" id="Layer_1" xmlns="http://www.w3.org/2000/svg" xmlns:xlink="http://www.w3.org/1999/xlink" x="0px" y="0px" viewBox="0 0 117.508 123.992" overflow="visible" xml:space="preserve">
 <g>
  <path fill-rule="evenodd" fill="#636463" d="M11.807,34.428c-0.109,0.251,0.146-0.532,0.22-0.796l0.286-1.052
		c2.977-10.773,5.944-21.553,8.913-32.34l95.607,0.195L11.173,86.377l48.285-58.181l-36.266,0.097
		c-0.676,0.002-1.342-0.009-2.018,0.049C16.878,28.707,13.147,31.319,11.807,34.428z">
  </path>
  <path fill="none" stroke="#FFFCFC" stroke-width="0.48" stroke-miterlimit="22.926" d="M11.807,34.428
		c-0.109,0.251,0.146-0.532,0.22-0.796l0.286-1.052c2.977-10.773,5.944-21.553,8.913-32.34l95.607,0.195L11.173,86.377
		l48.285-58.181l-36.266,0.097c-0.676,0.002-1.342-0.009-2.018,0.049C16.878,28.707,13.147,31.319,11.807,34.428z">
  </path>
  <path fill-rule="evenodd" fill="#D22F14" d="M111.647,59.162c0.107-0.251-2.888,18.316-8.177,37.508L3.69,97.227L111.454,9.952
		L63.157,68.679l36.273-0.105c0.671,0,1.34,0.016,2.013-0.046C105.742,68.161,110.309,62.273,111.647,59.162z">
  </path>
  <path fill="none" stroke="#FFFCFC" stroke-width="0.48" stroke-miterlimit="22.926" d="M111.647,59.162
		c0.107-0.251-2.888,18.316-8.177,37.508L3.69,97.227L111.454,9.952L63.157,68.679l36.273-0.105c0.671,0,1.34,0.016,2.013-0.046
		C105.742,68.161,110.309,62.273,111.647,59.162z">
  </path>
  <path fill-rule="evenodd" fill="#B2B3B2" d="M16.977,123.992H0l11.734-15.941H3.949l0.569-4.402h16.171L8.978,119.558h8.565
		L16.977,123.992z M20.183,123.992h11.769l0.58-4.56h-6.663l0.441-3.429h6.285l0.559-4.367H26.87l0.45-3.529h6.663l0.571-4.458
		H22.786L20.183,123.992z M35.414,123.992l2.605-20.343h5.052l5.916,10.462c0.114,0.211,0.283,0.639,0.527,1.284
		c0.237,0.648,0.485,1.409,0.757,2.301c0.002-0.84,0.023-1.588,0.058-2.252c0.035-0.657,0.086-1.24,0.156-1.748l1.284-10.046h5.027
		l-2.605,20.343h-5.029l-5.907-10.508c-0.123-0.214-0.302-0.641-0.539-1.282c-0.235-0.648-0.485-1.407-0.748-2.273
		c-0.009,0.852-0.03,1.607-0.06,2.266c-0.037,0.655-0.091,1.238-0.16,1.751l-1.282,10.046H35.414z M58.441,123.992l2.603-20.343
		h5.291l-2.603,20.343H58.441z M70.723,123.992l1.987-15.539h-4.309l0.62-4.804h13.845l-0.618,4.804h-4.302l-1.992,15.539H70.723z
		 M82.819,123.992h5.235l1.059-8.282h6.979l-1.059,8.282h5.249l2.603-20.343h-5.249l-1.012,7.905h-6.977l1.01-7.905h-5.238
		L82.819,123.992z">
  </path>
 </g>
</svg>