<?xml version="1.0" encoding="UTF-8"?>
<svg version="1.1" xmlns="http://www.w3.org/2000/svg" width="756" height="330">
<path d="M0 0 C2.40625 -0.13671875 2.40625 -0.13671875 5 0 C6.5 2.1875 6.5 2.1875 8 5 C8.886875 5.886875 9.77375 6.77375 10.6875 7.6875 C13 10 13 10 13 12 C13.66 12 14.32 12 15 12 C17.625 14.375 17.625 14.375 20 17 C20 17.66 20 18.32 20 19 C20.82602974 19.33854507 20.82602974 19.33854507 21.66874695 19.68392944 C24.71298586 21.40250444 26.82887969 23.58217043 29.30004883 26.05712891 C29.8160817 26.57126343 30.33211456 27.08539795 30.86378479 27.6151123 C32.56645657 29.31408386 34.26182451 31.02014488 35.95703125 32.7265625 C37.14487293 33.9155974 38.33308573 35.10426165 39.52165222 36.29257202 C42.01372121 38.78620502 44.50239707 41.28315927 46.98852539 43.78271484 C50.15730013 46.96839593 53.33253318 50.14753914 56.51015186 53.32439613 C58.96673009 55.78124805 61.42067951 58.24071179 63.87378502 60.70103073 C65.04244939 61.87285348 66.21169941 63.0440925 67.38157082 64.21471024 C72.97620408 69.81681717 78.53946571 75.40634282 83.65707397 81.45605469 C85.54513894 83.62673945 87.63574158 85.49861199 89.8125 87.375 C93.48756129 90.63732364 97.13115828 93.92052702 100.6875 97.3125 C101.53699219 98.11300781 102.38648438 98.91351563 103.26171875 99.73828125 C105 102 105 102 104.82910156 103.93994141 C103.80329815 106.48874269 102.6051703 107.50281902 100.47265625 109.22265625 C95.87880377 113.0650294 91.65891725 117.19316103 87.4375 121.4375 C86.72142578 122.14970703 86.00535156 122.86191406 85.26757812 123.59570312 C81.85833554 127.01114997 78.55425304 130.46302618 75.41015625 134.125 C72.16616692 137.88398126 68.66760276 141.22257075 65 144.5625 C58.87056621 150.20232352 52.96816294 156.02351549 47.13671875 161.96875 C45.73373075 163.39380552 44.33073591 164.8188543 42.92773438 166.24389648 C40.80472243 168.40155726 38.68675055 170.56327449 36.58178711 172.73855591 C34.59010741 174.79627421 32.58371742 176.83860804 30.57421875 178.87890625 C29.97067062 179.51143311 29.3671225 180.14395996 28.74528503 180.7956543 C27.0300293 182.52172852 27.0300293 182.52172852 24 185 C19.5240463 184.56768434 17.09138932 181.48894308 14.09765625 178.42578125 C13.53807724 177.86432907 12.97849823 177.30287689 12.40196228 176.72441101 C11.219286 175.53501726 10.04021067 174.34203357 8.86450195 173.14575195 C7.07938999 171.32968289 5.28401882 169.52431296 3.48632812 167.72070312 C2.33531628 166.56051181 1.18490627 165.39972305 0.03515625 164.23828125 C-0.49520737 163.70366776 -1.02557098 163.16905426 -1.57200623 162.61824036 C-3.97794724 160.16672983 -6.21879031 157.72827038 -8.37719727 155.04760742 C-10.9083211 151.94744874 -13.83498356 149.45352566 -16.87158203 146.85952759 C-20.55101225 143.64493247 -23.98123867 140.18141977 -27.4375 136.73046875 C-28.20304199 135.96825516 -28.96858398 135.20604156 -29.75732422 134.42073059 C-31.35856229 132.82451788 -32.95848243 131.22698208 -34.55712891 129.62817383 C-37.01575594 127.17175823 -39.48230396 124.7234796 -41.94921875 122.27539062 C-43.50830044 120.71923871 -45.06691157 119.16261516 -46.625 117.60546875 C-47.36548584 116.87216843 -48.10597168 116.1388681 -48.86889648 115.38334656 C-49.54380127 114.70536514 -50.21870605 114.02738373 -50.9140625 113.32885742 C-51.5117041 112.73264084 -52.1093457 112.13642426 -52.72509766 111.5221405 C-54 110 -54 110 -54 108 C-54.9590625 107.62875 -54.9590625 107.62875 -55.9375 107.25 C-58 106 -58 106 -58.91601562 104.34277344 C-59.13691159 98.18080337 -51.43434722 91.58096026 -47.5 87.25 C-46.57992661 86.23505966 -46.57992661 86.23505966 -45.64126587 85.19961548 C-36.27866286 75.31313035 -28.01807611 71.43954182 -14.38052368 70.98153687 C-3.88135199 70.94317205 6.58128601 71.7559843 17 73 C17.495 71.515 17.495 71.515 18 70 C17.46061798 69.59677521 16.92123596 69.19355042 16.36550903 68.77810669 C8.39997405 62.57732074 0.13835347 56.09291287 -1.48535156 45.63964844 C-1.98307339 38.69292977 -1.58016154 31.81311233 -1.125 24.875 C-1.03449495 22.45212461 -0.95240355 20.02891969 -0.87890625 17.60546875 C-0.68266458 11.72965961 -0.38346804 5.86641369 0 0 Z M20 73 C19.64421875 73.67289062 19.2884375 74.34578125 18.921875 75.0390625 C16.42038507 78.89298397 13.41044398 82.05453354 10.25 85.375 C9.65445313 86.00921875 9.05890625 86.6434375 8.4453125 87.296875 C4.87808675 91.08029625 1.2369613 94.75933353 -2.52832031 98.34619141 C-4.10523704 100.11826073 -5.03631458 101.84197851 -6 104 C-5.04746338 104.9446814 -5.04746338 104.9446814 -4.07568359 105.90844727 C-1.69176873 108.2751882 0.68977779 110.64426387 3.06982422 113.01489258 C4.09494499 114.03502454 5.12096633 115.05425245 6.14794922 116.07250977 C11.65696779 121.53593276 17.06766359 126.99871013 22 133 C28.74080425 127.47349666 34.8071129 121.30550441 40.9375 115.125 C42.01343727 114.04403726 43.08960731 112.96330617 44.16601562 111.8828125 C46.78003292 109.25787359 49.39088596 106.62981372 52 104 C46.97221923 97.8905108 41.47513586 92.28895714 35.88549805 86.70019531 C34.3003173 85.11280028 32.72334313 83.51753204 31.14648438 81.921875 C30.13590553 80.90836648 29.12485485 79.89532816 28.11328125 78.8828125 C27.20360596 77.96902832 26.29393066 77.05524414 25.35668945 76.11376953 C23.10819977 73.81494204 23.10819977 73.81494204 20 73 Z " fill="#BAD408" transform="translate(108,51)"/>
<path d="M0 0 C0 4.41811269 -0.17196654 4.67861913 -3.03515625 7.64453125 C-4.00291992 8.66063477 -4.00291992 8.66063477 -4.99023438 9.69726562 C-5.67408203 10.39529297 -6.35792969 11.09332031 -7.0625 11.8125 C-7.71927734 12.49892578 -8.37605469 13.18535156 -9.05273438 13.89257812 C-11.662151 16.60997061 -14.2854778 19.30583756 -16.98779297 21.93115234 C-17.60928223 22.53523926 -18.23077148 23.13932617 -18.87109375 23.76171875 C-19.42595459 24.29112061 -19.98081543 24.82052246 -20.55249023 25.3659668 C-22.11499171 27.12980933 -23.04091663 28.85683433 -24 31 C-23.35450195 31.64026123 -22.70900391 32.28052246 -22.04394531 32.94018555 C-19.63401845 35.33299768 -17.22641447 37.72809995 -14.8203125 40.12475586 C-13.78151098 41.15855071 -12.7418109 42.19144351 -11.70117188 43.22338867 C-10.19940781 44.71292573 -8.70098141 46.20575346 -7.203125 47.69921875 C-6.30239258 48.59471436 -5.40166016 49.49020996 -4.47363281 50.4128418 C0.31511869 55.42136921 3.13167012 58.78032333 3.11352539 65.83862305 C3.11341209 67.30980843 3.11341209 67.30980843 3.11329651 68.81071472 C3.10813522 69.86704605 3.10297394 70.92337738 3.09765625 72.01171875 C3.0962413 73.09508011 3.09482635 74.17844147 3.09336853 75.29463196 C3.08776559 78.75894925 3.07521258 82.2232022 3.0625 85.6875 C3.05748538 88.03450428 3.05292241 90.38150956 3.04882812 92.72851562 C3.03779521 98.48569908 3.0210542 104.24284494 3 110 C-1.50823181 108.57110597 -4.03870735 106.32352663 -7.34375 102.984375 C-7.83532593 102.4909259 -8.32690186 101.99747681 -8.83337402 101.48907471 C-9.86884985 100.44689957 -10.90073321 99.40114413 -11.92919922 98.35205078 C-13.4881348 96.76210125 -15.05734999 95.18293497 -16.62890625 93.60546875 C-24.33312185 85.83122595 -24.33312185 85.83122595 -27.33398438 82.09082031 C-29.88273041 78.97779763 -32.81886981 76.46729075 -35.87158203 73.85952759 C-39.55101225 70.64493247 -42.98123867 67.18141977 -46.4375 63.73046875 C-47.20304199 62.96825516 -47.96858398 62.20604156 -48.75732422 61.42073059 C-50.35856229 59.82451788 -51.95848243 58.22698208 -53.55712891 56.62817383 C-56.01575594 54.17175823 -58.48230396 51.7234796 -60.94921875 49.27539062 C-62.50830044 47.71923871 -64.06691157 46.16261516 -65.625 44.60546875 C-66.36548584 43.87216843 -67.10597168 43.1388681 -67.86889648 42.38334656 C-68.54380127 41.70536514 -69.21870605 41.02738373 -69.9140625 40.32885742 C-70.8105249 39.43453255 -70.8105249 39.43453255 -71.72509766 38.5221405 C-73 37 -73 37 -73 35 C-73.639375 34.7525 -74.27875 34.505 -74.9375 34.25 C-77 33 -77 33 -77.91162109 31.34277344 C-78.14431631 25.17442188 -70.54896622 18.59459212 -66.625 14.25 C-66.01484039 13.57337311 -65.40468079 12.89674622 -64.77603149 12.19961548 C-47.24100971 -6.37338948 -23.49717493 -2.75382248 0 0 Z " fill="#D13114" transform="translate(127,124)"/>
<path d="M0 0 C1.8671875 1.0703125 1.8671875 1.0703125 4.7421875 3.1328125 C5.4021875 3.4628125 6.0621875 3.7928125 6.7421875 4.1328125 C8.47733023 3.16884431 10.21115752 2.19861553 11.890625 1.140625 C17.71682926 -2.0306001 25.88000862 -1.97337621 32.12890625 -0.18359375 C37.73617765 2.39041083 41.22318168 6.09480086 43.9921875 11.6328125 C45.73293105 17.43529101 45.8785337 23.0325344 45.83984375 29.03125 C45.8384288 29.86621002 45.83701385 30.70117004 45.83555603 31.56143188 C45.82998924 34.21026292 45.81744297 36.8590073 45.8046875 39.5078125 C45.7996682 41.31119669 45.79510605 43.11458221 45.79101562 44.91796875 C45.78088451 49.32297636 45.7613028 53.7277982 45.7421875 58.1328125 C39.4721875 58.1328125 33.2021875 58.1328125 26.7421875 58.1328125 C26.69320312 55.65265625 26.64421875 53.1725 26.59375 50.6171875 C26.5397159 48.21103971 26.48241801 45.80499021 26.42480469 43.39892578 C26.38655893 41.72875309 26.35169835 40.05849927 26.3203125 38.38818359 C26.27456589 35.98505693 26.21658825 33.58248666 26.15625 31.1796875 C26.14469879 30.43475037 26.13314758 29.68981323 26.12124634 28.92230225 C26.01627505 25.22197132 25.90754395 22.22284519 23.7421875 19.1328125 C21.17065446 17.89138276 19.94378895 18.07872431 17.1796875 18.8203125 C14.32561732 20.35711952 13.35383679 21.32076826 11.7421875 24.1328125 C11.41790401 26.81423962 11.25418495 29.27728784 11.23046875 31.9609375 C11.21251755 32.70994324 11.19456635 33.45894897 11.17607117 34.23065186 C11.12204207 36.61464874 11.08809747 38.9984463 11.0546875 41.3828125 C11.02150775 43.00263186 10.98701747 44.62242494 10.95117188 46.2421875 C10.86632034 50.20558516 10.79947461 54.16892447 10.7421875 58.1328125 C7.76330624 58.3266336 4.78428504 58.51316352 1.8046875 58.6953125 C0.52948242 58.77942383 0.52948242 58.77942383 -0.77148438 58.86523438 C-1.98481445 58.93774414 -1.98481445 58.93774414 -3.22265625 59.01171875 C-3.971521 59.0588501 -4.72038574 59.10598145 -5.49194336 59.15454102 C-7.2578125 59.1328125 -7.2578125 59.1328125 -8.2578125 58.1328125 C-8.40561986 55.41913791 -8.49285303 52.72767324 -8.5390625 50.01171875 C-8.56667664 48.7890757 -8.56667664 48.7890757 -8.59484863 47.54173279 C-8.65378365 44.92633493 -8.70651295 42.31087063 -8.7578125 39.6953125 C-8.82534642 36.25897227 -8.89904645 32.82284662 -8.9765625 29.38671875 C-8.99013794 28.59084854 -9.00371338 27.79497833 -9.0177002 26.97499084 C-9.0193643 22.92230999 -9.0193643 22.92230999 -10.2578125 19.1328125 C-13.50514585 17.8570744 -15.92813832 18.30039395 -19.2578125 19.1328125 C-20.50254782 22.86701847 -20.48991035 26.40646488 -20.57421875 30.30078125 C-20.59499985 31.09559402 -20.61578094 31.8904068 -20.63719177 32.70930481 C-20.70253337 35.24622013 -20.76150058 37.78323823 -20.8203125 40.3203125 C-20.86351236 42.04102622 -20.90712713 43.76172958 -20.95117188 45.48242188 C-21.05819898 49.69911363 -21.15950974 53.9159087 -21.2578125 58.1328125 C-27.58236782 60.24099761 -34.60265001 58.52429265 -41.2578125 58.1328125 C-41.2578125 38.9928125 -41.2578125 19.8528125 -41.2578125 0.1328125 C-34.9878125 0.1328125 -28.7178125 0.1328125 -22.2578125 0.1328125 C-21.9278125 0.7928125 -21.5978125 1.4528125 -21.2578125 2.1328125 C-20.3503125 1.6378125 -19.4428125 1.1428125 -18.5078125 0.6328125 C-12.82446765 -1.78145391 -5.805032 -2.22961437 0 0 Z " fill="#4A4A4A" transform="translate(452.2578125,151.8671875)"/>
<path d="M0 0 C1.19418297 -0.00855011 1.19418297 -0.00855011 2.41249084 -0.01727295 C4.10644191 -0.02674497 5.80041158 -0.03326562 7.49438477 -0.03710938 C10.05584398 -0.04671815 12.61646709 -0.07767799 15.17773438 -0.109375 C29.14909583 -0.20252197 39.48737777 1.31905813 50.16015625 11.203125 C58.2311724 21.25908618 60.20532929 32.58846711 59.16015625 45.203125 C57.52041942 55.00055258 52.27582018 63.43975278 44.47900391 69.58764648 C34.31324067 76.66985909 22.783846 75.67995462 10.97265625 75.453125 C9.14389983 75.43302343 7.31512201 75.41477915 5.48632812 75.3984375 C1.0437344 75.35474483 -3.39781379 75.28592146 -7.83984375 75.203125 C-9.30842848 72.26595554 -8.9671867 69.66165256 -8.96923828 66.38256836 C-8.97186676 65.3311541 -8.97186676 65.3311541 -8.97454834 64.25849915 C-8.97895741 61.93663066 -8.9760325 59.61483804 -8.97265625 57.29296875 C-8.97332948 55.6839649 -8.97429967 54.07496114 -8.97555542 52.46595764 C-8.97703105 49.09244825 -8.97488187 45.71896531 -8.97021484 42.34545898 C-8.96451306 38.01179624 -8.96780025 33.67819536 -8.97378731 29.34453487 C-8.97739266 26.02209503 -8.97625454 22.69966997 -8.97365952 19.37722969 C-8.97299041 17.77876338 -8.9738181 16.18029574 -8.97613907 14.58183098 C-8.97866566 12.35261325 -8.97482515 10.12349722 -8.96923828 7.89428711 C-8.96844269 6.62346786 -8.96764709 5.35264862 -8.96682739 4.0433197 C-8.71697848 -1.54495572 -4.54274841 0.02498211 0 0 Z M11.16015625 19.203125 C11.16015625 31.743125 11.16015625 44.283125 11.16015625 57.203125 C23.26914879 57.97573395 23.26914879 57.97573395 33.16015625 53.203125 C37.94866623 48.01757776 39.49371762 43.38573808 39.375 36.2890625 C38.7482777 30.20415872 35.73016212 26.02917643 31.16015625 22.203125 C24.19119346 18.15962661 24.19119346 18.15962661 11.16015625 19.203125 Z " fill="#434343" transform="translate(253.83984375,134.796875)"/>
<path d="M0 0 C1.1127832 -0.01836914 1.1127832 -0.01836914 2.24804688 -0.03710938 C4.18763629 -0.04238478 6.1267371 0.06561098 8.0625 0.1875 C10.0625 2.1875 10.0625 2.1875 10.30300903 5.23733521 C10.2963472 7.20257645 10.2963472 7.20257645 10.28955078 9.20751953 C10.28984283 9.92957581 10.29013489 10.65163208 10.29043579 11.39556885 C10.28904008 13.78727142 10.27346783 16.17866421 10.2578125 18.5703125 C10.25408322 20.2265506 10.25123585 21.88279089 10.24923706 23.53903198 C10.24159389 27.9022224 10.2219396 32.26528007 10.1998291 36.62841797 C10.17938535 41.07908329 10.1702385 45.52977003 10.16015625 49.98046875 C10.13869429 58.71620681 10.10455018 67.4518369 10.0625 76.1875 C6.91668577 76.21638514 3.77090531 76.23425923 0.625 76.25 C-0.27283203 76.25837891 -1.17066406 76.26675781 -2.09570312 76.27539062 C-3.37670898 76.28022461 -3.37670898 76.28022461 -4.68359375 76.28515625 C-5.47435303 76.29039307 -6.2651123 76.29562988 -7.07983398 76.30102539 C-8.9375 76.1875 -8.9375 76.1875 -9.9375 75.1875 C-10.824375 75.5175 -11.71125 75.8475 -12.625 76.1875 C-19.98533377 78.26694389 -29.03951553 78.48238621 -36.09765625 75.2890625 C-43.76407407 70.69897795 -48.34244517 65.03603437 -50.6875 56.4375 C-51.55309541 45.18475969 -52.13432639 33.95445131 -44.57421875 24.875 C-37.46632071 17.54657052 -29.86865758 16.97646244 -20.21875 16.82421875 C-16.25060343 17.26354926 -13.5263453 18.47011065 -9.9375 20.1875 C-9.89991577 19.33200562 -9.89991577 19.33200562 -9.86157227 18.45922852 C-9.74593451 15.88923843 -9.62306376 13.31964473 -9.5 10.75 C-9.46068359 9.85216797 -9.42136719 8.95433594 -9.38085938 8.02929688 C-9.31801758 6.74829102 -9.31801758 6.74829102 -9.25390625 5.44140625 C-9.21724854 4.65064697 -9.18059082 3.8598877 -9.14282227 3.04516602 C-8.63634335 -1.53723364 -3.59619216 0.0031082 0 0 Z M-30.75 38.8125 C-33.16417842 43.64085685 -33.51635298 48.38284072 -31.875 53.5 C-29.48751251 56.81167619 -27.64385798 58.43921793 -23.9375 60.1875 C-19.35514034 60.63675095 -16.64956139 59.76024503 -13.0625 56.875 C-9.92721288 52.90978394 -8.9375 51.55355556 -8.9375 46.375 C-9.72077335 41.51141895 -12.07456476 38.19296755 -15.9375 35.1875 C-22.03976227 33.22605856 -26.04620383 34.59530343 -30.75 38.8125 Z " fill="#484848" transform="translate(679.9375,133.8125)"/>
<path d="M0 0 C0 4 0 4 -2.00024414 6.43847656 C-2.91926514 7.33018555 -3.83828613 8.22189453 -4.78515625 9.140625 C-5.27906357 9.62650085 -5.77297089 10.11237671 -6.28184509 10.61297607 C-7.86622647 12.16837097 -9.46355285 13.70959499 -11.0625 15.25 C-13.14096467 17.27171807 -15.21389027 19.29903487 -17.28515625 21.328125 C-18.04114609 22.06597984 -18.04114609 22.06597984 -18.81240845 22.81874084 C-22.20440362 26.15094224 -25.35334537 29.61670984 -28.43530273 33.23291016 C-31.08712926 36.22774872 -34.04532421 38.8718029 -37 41.5625 C-43.12943379 47.20232352 -49.03183706 53.02351549 -54.86328125 58.96875 C-56.26626925 60.39380552 -57.66926409 61.8188543 -59.07226562 63.24389648 C-61.19527757 65.40155726 -63.31324945 67.56327449 -65.41821289 69.73855591 C-67.40989259 71.79627421 -69.41628258 73.83860804 -71.42578125 75.87890625 C-72.02932938 76.51143311 -72.6328775 77.14395996 -73.25471497 77.7956543 C-74.9699707 79.52172852 -74.9699707 79.52172852 -78 82 C-80.12687683 81.77989197 -80.12687683 81.77989197 -82 81 C-82.33 80.34 -82.66 79.68 -83 79 C-82.34 79 -81.68 79 -81 79 C-81 62.5 -81 46 -81 29 C-79.68 28.34 -78.36 27.68 -77 27 C-75.87326796 25.57493215 -74.75356484 24.14221417 -73.70704651 22.65724182 C-54.31027945 -4.72007227 -31.28492361 -3.31140236 0 0 Z " fill="#049CA2" transform="translate(210,154)"/>
<path d="M0 0 C0 -0.99 0 -1.98 0 -3 C2.97922593 -3.02683987 5.95821295 -3.04676037 8.9375 -3.0625 C10.21270508 -3.07506836 10.21270508 -3.07506836 11.51367188 -3.08789062 C12.32255859 -3.09111328 13.13144531 -3.09433594 13.96484375 -3.09765625 C14.7137085 -3.10289307 15.46257324 -3.10812988 16.23413086 -3.11352539 C18 -3 18 -3 19 -2 C19.09370624 -0.22008076 19.11744271 1.56356739 19.11352539 3.34594727 C19.11344986 4.4870546 19.11337433 5.62816193 19.11329651 6.80384827 C19.10813522 8.0454924 19.10297394 9.28713654 19.09765625 10.56640625 C19.0962413 11.83016586 19.09482635 13.09392548 19.09336853 14.39598083 C19.08870582 17.76124889 19.0797148 21.1264499 19.06866455 24.49169922 C19.05844846 27.9234967 19.05387049 31.35530109 19.04882812 34.78710938 C19.0377738 41.52475824 19.0210171 48.26237525 19 55 C15.93744039 55.0270491 12.8751214 55.04686298 9.8125 55.0625 C8.94818359 55.07087891 8.08386719 55.07925781 7.19335938 55.08789062 C2.99713231 55.10396812 -0.90936886 55.07559038 -5 54 C-5.495 54.99 -5.495 54.99 -6 56 C-16.54104231 56.39973054 -24.07911403 55.99804911 -33 50 C-34.94921875 47.765625 -34.94921875 47.765625 -36.6875 45.25 C-37.26886719 44.43015625 -37.85023438 43.6103125 -38.44921875 42.765625 C-43.00192141 34.64644746 -43.36310503 24.46728666 -41.46484375 15.4609375 C-38.48838784 7.03577815 -33.35833291 1.21739744 -25.4375 -2.8125 C-16.55336189 -5.7795634 -7.84767996 -4.92403449 0 0 Z M-20.25 16.9375 C-23.15793692 20.36471137 -23.27916775 23.60408268 -23.22265625 28.00390625 C-22.89829035 30.91181809 -21.76864298 32.70731466 -20 35 C-19.4121875 35.86625 -19.4121875 35.86625 -18.8125 36.75 C-15.7897508 38.83465462 -12.57863069 39.210109 -9 39 C-4.93116862 37.15751032 -3.347898 35.58357084 -1.0625 31.75 C0.26747377 27.05597494 0.14633444 24.73818235 -1 20 C-3.40301102 16.05219618 -5.55127087 14.25476975 -10 13 C-14.31803717 13 -16.97644446 14.11860495 -20.25 16.9375 Z " fill="#454545" transform="translate(383,155)"/>
<path d="M0 0 C6.97432027 5.58201092 10.02085842 12.10517036 11.50390625 20.81640625 C12.45585181 30.71664008 10.15260381 39.29433106 4.1328125 47.20703125 C-1.06066723 52.90396055 -8.71158735 56.10497188 -16.30859375 56.6953125 C-27.36208878 56.9299677 -36.38146655 55.28381601 -44.5859375 47.44921875 C-50.92701914 39.82197433 -52.01230251 30.04221277 -51.2421875 20.45703125 C-49.57608621 11.42823234 -46.46086786 4.59674704 -39.1953125 -1.21875 C-27.92873758 -8.8574878 -10.87612224 -7.48443952 0 0 Z M-30.2421875 16.45703125 C-33.1578316 20.8304974 -33.81091551 24.24369119 -33.2421875 29.45703125 C-31.42765992 33.56359366 -28.99197639 36.01530825 -25.2421875 38.45703125 C-21.36724167 39.72060054 -19.53903945 39.54915772 -15.6171875 38.33203125 C-11.99663562 36.32061354 -10.30703114 35.03079909 -8.2421875 31.45703125 C-6.75399484 25.78329674 -7.01243022 22.26870576 -9.9453125 17.15625 C-12.02437091 14.43218251 -14.00247862 13.47341051 -17.2421875 12.45703125 C-22.91041742 11.74850251 -25.92019421 12.72440068 -30.2421875 16.45703125 Z " fill="#464646" transform="translate(553.2421875,155.54296875)"/>
<path d="M0 0 C6.99105438 4.42291195 9.60315022 9.22911423 11.47802734 17.19946289 C12.66892744 24.81595052 12.36764889 32.49962632 12.25 40.1875 C12.23491737 41.91535284 12.22123533 43.64321851 12.20898438 45.37109375 C12.17885935 49.56048004 12.12009432 53.74804635 12.0625 57.9375 C5.7925 57.9375 -0.4775 57.9375 -6.9375 57.9375 C-6.98648438 55.61332031 -7.03546875 53.28914063 -7.0859375 50.89453125 C-7.14000732 48.6339699 -7.19729112 46.37351115 -7.25488281 44.11303711 C-7.29307409 42.54670919 -7.32794394 40.98029651 -7.359375 39.41381836 C-7.40524071 37.157082 -7.46319769 34.90092417 -7.5234375 32.64453125 C-7.53498871 31.94850296 -7.54653992 31.25247467 -7.55844116 30.53535461 C-7.71197025 25.43329433 -8.25993301 21.61506699 -11.9375 17.9375 C-15.95854757 17.49071694 -18.07506416 17.2566296 -21.3125 19.8125 C-24.25082148 23.6549204 -24.14719056 26.88736174 -24.25390625 31.5703125 C-24.27468735 32.32214813 -24.29546844 33.07398376 -24.31687927 33.84860229 C-24.38232705 36.25314085 -24.44123738 38.65778967 -24.5 41.0625 C-24.54318977 42.69141771 -24.58680421 44.32032422 -24.63085938 45.94921875 C-24.73880385 49.94520106 -24.83791198 53.94126564 -24.9375 57.9375 C-31.5375 57.9375 -38.1375 57.9375 -44.9375 57.9375 C-44.96005577 50.52289637 -44.97841784 43.10831135 -44.98931217 35.69368076 C-44.99453982 32.25109652 -45.00163531 28.80853688 -45.01293945 25.3659668 C-45.02584235 21.41194957 -45.03072918 17.45794244 -45.03515625 13.50390625 C-45.04031754 12.26226212 -45.04547882 11.02061798 -45.05079651 9.74134827 C-45.05087204 8.60024094 -45.05094757 7.45913361 -45.05102539 6.28344727 C-45.053246 5.273069 -45.05546661 4.26269073 -45.05775452 3.22169495 C-44.9375 0.9375 -44.9375 0.9375 -43.9375 -0.0625 C-42.59482587 -0.14881874 -41.24775678 -0.16956473 -39.90234375 -0.16015625 C-39.09345703 -0.15693359 -38.28457031 -0.15371094 -37.45117188 -0.15039062 C-36.60103516 -0.14201172 -35.75089844 -0.13363281 -34.875 -0.125 C-34.02099609 -0.12048828 -33.16699219 -0.11597656 -32.28710938 -0.11132812 C-30.17054337 -0.09950373 -28.05401315 -0.08156769 -25.9375 -0.0625 C-25.6075 0.5975 -25.2775 1.2575 -24.9375 1.9375 C-23.885625 1.4425 -22.83375 0.9475 -21.75 0.4375 C-15.08830072 -2.05174706 -6.75923661 -2.41830465 0 0 Z " fill="#4A4A4A" transform="translate(612.9375,152.0625)"/>
<path d="M0 0 C0 4.41811269 -0.17196654 4.67861913 -3.03515625 7.64453125 C-4.00291992 8.66063477 -4.00291992 8.66063477 -4.99023438 9.69726562 C-5.67408203 10.39529297 -6.35792969 11.09332031 -7.0625 11.8125 C-7.71927734 12.49892578 -8.37605469 13.18535156 -9.05273438 13.89257812 C-11.662151 16.60997061 -14.2854778 19.30583756 -16.98779297 21.93115234 C-17.60928223 22.53523926 -18.23077148 23.13932617 -18.87109375 23.76171875 C-19.42595459 24.29112061 -19.98081543 24.82052246 -20.55249023 25.3659668 C-22.33153118 27.23250921 -22.33153118 27.23250921 -24 31 C-18.06 36.94 -12.12 42.88 -6 49 C-9 49 -9 49 -10.88525391 47.47119141 C-11.57538574 46.77171387 -12.26551758 46.07223633 -12.9765625 45.3515625 C-13.729375 44.59359375 -14.4821875 43.835625 -15.2578125 43.0546875 C-16.42957031 41.85199219 -16.42957031 41.85199219 -17.625 40.625 C-18.41390625 39.8309375 -19.2028125 39.036875 -20.015625 38.21875 C-25.84576437 32.30847125 -25.84576437 32.30847125 -27 30 C-42.51 30.33 -58.02 30.66 -74 31 C-74 31.66 -74 32.32 -74 33 C-73.360625 33.226875 -72.72125 33.45375 -72.0625 33.6875 C-70 35 -70 35 -69.25 37.625 C-69.12625 38.800625 -69.12625 38.800625 -69 40 C-71 38.625 -71 38.625 -73 37 C-73 36.34 -73 35.68 -73 35 C-73.639375 34.7525 -74.27875 34.505 -74.9375 34.25 C-77 33 -77 33 -77.91162109 31.34277344 C-78.14431631 25.17442188 -70.54896622 18.59459212 -66.625 14.25 C-66.01484039 13.57337311 -65.40468079 12.89674622 -64.77603149 12.19961548 C-47.24100971 -6.37338948 -23.49717493 -2.75382248 0 0 Z " fill="#D48709" transform="translate(127,124)"/>
<path d="M0 0 C20.66517857 0 20.66517857 0 25.9453125 4.75 C27.87356838 8.86361254 26.92684055 13.25852305 26.6171875 17.6875 C26.66838736 21.19166232 26.66838736 21.19166232 29.5078125 23.4375 C30.33023438 23.953125 31.15265625 24.46875 32 25 C32.66 24.34 33.32 23.68 34 23 C33.62875 21.9275 33.2575 20.855 32.875 19.75 C32 16 32 16 32.5625 13.6875 C34.56200048 11.34026031 36.00440729 10.78145897 39 10 C44.27020459 9.66538384 48.03487477 10.01394991 53 12 C53 12.99 53 13.98 53 15 C53.99 15 54.98 15 56 15 C56 22.92 56 30.84 56 39 C51.9471875 39.309375 51.9471875 39.309375 47.8125 39.625 C46.97050049 39.69541504 46.12850098 39.76583008 45.26098633 39.83837891 C41.00193016 40.12491472 37.84985513 40.1260394 34 38 C31.6875 35.875 31.6875 35.875 30 34 C29.24783203 34.54140625 29.24783203 34.54140625 28.48046875 35.09375 C18.79201084 41.03556405 14.10559224 39 1 39 C0.67 26.13 0.34 13.26 0 0 Z M10 9 C10 11.31 10 13.62 10 16 C13.465 15.505 13.465 15.505 17 15 C17.2981424 11.2236068 17.2981424 11.2236068 16 9 C14.02 9 12.04 9 10 9 Z M40 19 C39.67 19.66 39.34 20.32 39 21 C40.65 21 42.3 21 44 21 C42.68 20.34 41.36 19.68 40 19 Z M10 24 C10 26.64 10 29.28 10 32 C14.04952729 31.74779369 14.04952729 31.74779369 18 31 C19.69701027 29.19477722 19.69701027 29.19477722 20 27 C19.67 26.34 19.34 25.68 19 25 C18.01 25 17.02 25 16 25 C16 24.34 16 23.68 16 23 C12.2236068 22.7018576 12.2236068 22.7018576 10 24 Z M45 28 C46 30 46 30 46 30 Z M42 29 C41.01 30.485 41.01 30.485 40 32 C41.65 31.67 43.3 31.34 45 31 C44.01 30.34 43.02 29.68 42 29 Z " fill="#CDDA2B" transform="translate(574,230)"/>
<path d="M0 0 C5.94 0 11.88 0 18 0 C18 19.14 18 38.28 18 58 C11.73 58 5.46 58 -1 58 C-1.02255577 50.58539637 -1.04091784 43.17081135 -1.05181217 35.75618076 C-1.05703982 32.31359652 -1.06413531 28.87103688 -1.07543945 25.4284668 C-1.08834235 21.47444957 -1.09322918 17.52044244 -1.09765625 13.56640625 C-1.10281754 12.32476212 -1.10797882 11.08311798 -1.11329651 9.80384827 C-1.11337204 8.66274094 -1.11344757 7.52163361 -1.11352539 6.34594727 C-1.115746 5.335569 -1.11796661 4.32519073 -1.12025452 3.28419495 C-1 1 -1 1 0 0 Z " fill="#494949" transform="translate(317,152)"/>
<path d="M0 0 C5.94 0.33 11.88 0.66 18 1 C18.33 1.66 18.66 2.32 19 3 C20.64363134 3.72159424 22.31050386 4.39351421 24 5 C24.12638231 12.45655608 24.12638231 12.45655608 23.375 15.6875 C22.76453116 18.04887359 22.76453116 18.04887359 24.0625 20.1875 C25.54302418 24.62907254 24.62245055 28.66828991 23 33 C20.875 34.5625 20.875 34.5625 18 35 C16.783125 35.20625 15.56625 35.4125 14.3125 35.625 C9.55797108 36.0384373 4.77247061 36 0 36 C0 24.12 0 12.24 0 0 Z M8 7 C8 9.31 8 11.62 8 14 C11.465 13.505 11.465 13.505 15 13 C15.2981424 9.2236068 15.2981424 9.2236068 14 7 C12.02 7 10.04 7 8 7 Z M8 22 C8 24.64 8 27.28 8 30 C12.04952729 29.74779369 12.04952729 29.74779369 16 29 C17.69701027 27.19477722 17.69701027 27.19477722 18 25 C17.67 24.34 17.34 23.68 17 23 C16.01 23 15.02 23 14 23 C14 22.34 14 21.68 14 21 C10.2236068 20.7018576 10.2236068 20.7018576 8 22 Z " fill="#BCD30A" transform="translate(576,232)"/>
<path d="M0 0 C2.64 0 5.28 0 8 0 C10.11925604 2.11925604 9.41831017 6.6196093 9.5625 9.5625 C9.60568359 10.36880859 9.64886719 11.17511719 9.69335938 12.00585938 C9.79975262 14.00368805 9.90040888 16.0018207 10 18 C10.61875 17.21625 11.2375 16.4325 11.875 15.625 C14 13 14 13 16 11 C18.1640625 10.8046875 18.1640625 10.8046875 20.625 10.875 C21.85089844 10.90207031 21.85089844 10.90207031 23.1015625 10.9296875 C24.04128906 10.96449219 24.04128906 10.96449219 25 11 C24.38625737 14.24200519 23.23437649 16.27846541 21.3125 18.9375 C19.93462789 20.97112453 19.93462789 20.97112453 19 23 C19.47730529 25.7774903 19.47730529 25.7774903 21 28 C21.35858516 29.32676508 21.7018576 30.65835921 22 32 C22.66 32 23.32 32 24 32 C25.4606285 34.64738916 26 35.89448334 26 39 C22.7 39 19.4 39 16 39 C14.35 36.03 12.7 33.06 11 30 C10.67 30 10.34 30 10 30 C9.67 32.97 9.34 35.94 9 39 C6.03 39 3.06 39 0 39 C0 26.13 0 13.26 0 0 Z " fill="#BCD20B" transform="translate(665,230)"/>
<path d="M0 0 C2.625 2 2.625 2 3.5 5.1875 C3.58418376 6.78999802 3.61581727 8.39531857 3.625 10 C3.63724609 10.62825684 3.64949219 11.25651367 3.66210938 11.90380859 C3.92472826 25.40054348 3.92472826 25.40054348 2.625 28 C-3.52734375 28.09765625 -3.52734375 28.09765625 -5.375 28 C-6.88921001 26.48578999 -6.58809856 25.07527232 -6.69140625 22.96484375 C-6.73330078 22.15595703 -6.77519531 21.34707031 -6.81835938 20.51367188 C-6.85767578 19.66353516 -6.89699219 18.81339844 -6.9375 17.9375 C-6.98068359 17.08349609 -7.02386719 16.22949219 -7.06835938 15.34960938 C-7.17476702 13.23327963 -7.27541731 11.11666187 -7.375 9 C-8.365 8.67 -9.355 8.34 -10.375 8 C-10.375 8.66 -10.375 9.32 -10.375 10 C-11.35919922 10.58394531 -11.35919922 10.58394531 -12.36328125 11.1796875 C-14.7395471 12.92381328 -14.7395471 12.92381328 -14.73046875 16.3203125 C-14.67503906 17.57585937 -14.61960937 18.83140625 -14.5625 20.125 C-14.47583072 22.41587992 -14.40724452 24.70770799 -14.375 27 C-15.375 28 -15.375 28 -17.1875 28.1328125 C-17.909375 28.13023437 -18.63125 28.12765625 -19.375 28.125 C-20.096875 28.12757813 -20.81875 28.13015625 -21.5625 28.1328125 C-23.375 28 -23.375 28 -24.375 27 C-24.46258003 25.00035018 -24.48196576 22.9976389 -24.47265625 20.99609375 C-24.46943359 19.78115234 -24.46621094 18.56621094 -24.46289062 17.31445312 C-24.45451172 16.03505859 -24.44613281 14.75566406 -24.4375 13.4375 C-24.43298828 12.15423828 -24.42847656 10.87097656 -24.42382812 9.54882812 C-24.41199545 6.36583978 -24.39551068 3.18294238 -24.375 0 C-23.23611328 0.01740234 -23.23611328 0.01740234 -22.07421875 0.03515625 C-21.08035156 0.04417969 -20.08648438 0.05320313 -19.0625 0.0625 C-18.07636719 0.07410156 -17.09023438 0.08570313 -16.07421875 0.09765625 C-1.45544495 -0.43124295 -1.45544495 -0.43124295 0 0 Z " fill="#CADA34" transform="translate(657.375,241)"/>
<path d="M0 0 C2.97 0 5.94 0 9 0 C10.27881787 3.83645362 10.02593245 7.19831524 9.9375 11.2109375 C9.9991297 13.96116299 10.2516855 16.35283747 11 19 C11.66 19.33 12.32 19.66 13 20 C16.28560634 17.50293918 16.95805055 16.26783112 17.609375 12.109375 C17.67539233 10.65699377 17.7217497 9.20360636 17.75 7.75 C17.79447266 6.63238281 17.79447266 6.63238281 17.83984375 5.4921875 C17.9102343 3.66203328 17.95741832 1.83101231 18 0 C20.97 0 23.94 0 27 0 C27 0.66 27 1.32 27 2 C27.66 2 28.32 2 29 2 C28.86186975 6.14612814 28.71321141 10.29181162 28.5625 14.4375 C28.52318359 15.62150391 28.48386719 16.80550781 28.44335938 18.02539062 C28.40146484 19.15009766 28.35957031 20.27480469 28.31640625 21.43359375 C28.27974854 22.47572021 28.24309082 23.51784668 28.20532227 24.59155273 C28 27 28 27 27 28 C24.11643874 28.32105631 21.26769576 28.56322752 18.375 28.75 C17.18197266 28.85248047 17.18197266 28.85248047 15.96484375 28.95703125 C10.46685896 29.30911895 6.7699987 28.86935654 2 26 C0.23540339 22.55896345 -0.24240321 19.75586183 -0.1953125 15.91796875 C-0.18886719 14.98662109 -0.18242187 14.05527344 -0.17578125 13.09570312 C-0.15902344 12.13599609 -0.14226562 11.17628906 -0.125 10.1875 C-0.11597656 9.20845703 -0.10695313 8.22941406 -0.09765625 7.22070312 C-0.07417326 4.81369652 -0.03830477 2.40681636 0 0 Z " fill="#B9D30B" transform="translate(510,241)"/>
<path d="M0 0 C3.1875 1.625 3.1875 1.625 5.1875 3.625 C6.1775 3.625 7.1675 3.625 8.1875 3.625 C8.1875 9.235 8.1875 14.845 8.1875 20.625 C7.5275 20.625 6.8675 20.625 6.1875 20.625 C6.1875 21.285 6.1875 21.945 6.1875 22.625 C5.5275 22.625 4.8675 22.625 4.1875 22.625 C4.1875 23.285 4.1875 23.945 4.1875 24.625 C-0.67428286 27.35234161 -5.24034833 29.43593875 -10.89453125 28.15234375 C-15.91745245 26.44697347 -18.9589059 24.22003173 -22.0625 19.875 C-23.64367422 15.13147734 -23.28502087 10.99006028 -21.6875 6.375 C-16.64310756 -1.02344225 -8.23180005 -3.40270649 0 0 Z M-11.8125 8.625 C-14.08460154 11.36486384 -14.08460154 11.36486384 -13.625 14.0625 C-12.76468569 16.77579897 -11.64727535 18.47113329 -9.8125 20.625 C-6.38019552 20.36106499 -6.38019552 20.36106499 -2.8125 19.625 C-0.48206442 16.12934664 -0.22486756 14.7384271 -0.8125 10.625 C-5.22652939 6.32415085 -6.37810958 6.10662395 -11.8125 8.625 Z " fill="#C3D528" transform="translate(499.8125,241.375)"/>
<path d="M0 0 C3.3 0 6.6 0 10 0 C10.66 1.65 11.32 3.3 12 5 C12.66 5 13.32 5 14 5 C14.66 6.98 15.32 8.96 16 11 C18.76544722 7.54319097 20.84921278 3.85658398 23 0 C26.3 0 29.6 0 33 0 C32.10429494 5.91165336 30.22449445 10.77550555 26 15 C24.79950593 18.10007201 24.79950593 18.10007201 24 21 C23.34 21 22.68 21 22 21 C22.01160156 22.14339844 22.02320313 23.28679687 22.03515625 24.46484375 C22.04453288 25.95572754 22.05363321 27.44661309 22.0625 28.9375 C22.07087891 29.69224609 22.07925781 30.44699219 22.08789062 31.22460938 C22.09652441 33.14994313 22.05224333 35.07535581 22 37 C21 38 21 38 18.93359375 38.09765625 C18.10988281 38.08605469 17.28617187 38.07445312 16.4375 38.0625 C15.61121094 38.05347656 14.78492188 38.04445313 13.93359375 38.03515625 C13.29550781 38.02355469 12.65742188 38.01195312 12 38 C12.05542969 37.06542969 12.11085938 36.13085938 12.16796875 35.16796875 C12.22835721 22.86080079 7.75592018 14.92529761 0.99389648 4.83081055 C0 3 0 3 0 0 Z " fill="#CDD91D" transform="translate(449,231)"/>
<path d="M0 0 C3.0625 2.4375 3.0625 2.4375 5 5 C5.33 5.33 5.66 5.66 6 6 C6.35536226 11.33043395 6.44866826 14.65723256 3 19 C-1.23552856 21.82368571 -5.02477314 21.66653757 -10 21 C-12.93423195 19.20353146 -14.47205355 18.0558929 -16 15 C-16.55512815 10.36786507 -16.6364242 7.01827873 -14.125 3 C-9.99724674 -0.88494424 -5.45197852 -0.79722327 0 0 Z " fill="#484848" transform="translate(331,128)"/>
<path d="M0 0 C0.9590625 -0.01933594 1.918125 -0.03867188 2.90625 -0.05859375 C5.5 0.4375 5.5 0.4375 7.26953125 2.23828125 C10.64601908 8.2730833 11.35921973 15.63955569 10.5 22.4375 C9.84 23.0975 9.18 23.7575 8.5 24.4375 C7.695625 24.2725 6.89125 24.1075 6.0625 23.9375 C3.27225382 23.08104576 3.27225382 23.08104576 0.5 25.4375 C-1.98046875 25.4140625 -1.98046875 25.4140625 -4.6875 25.0625 C-5.58855469 24.95164062 -6.48960937 24.84078125 -7.41796875 24.7265625 C-8.10503906 24.63117188 -8.79210937 24.53578125 -9.5 24.4375 C-9.69573608 23.00109829 -9.88127816 21.56330496 -10.0625 20.125 C-10.21912109 18.92423828 -10.21912109 18.92423828 -10.37890625 17.69921875 C-10.5 15.4375 -10.5 15.4375 -9.5 12.4375 C-5.28206754 10.36988605 -0.97949133 8.85782652 3.5 7.4375 C3.5 6.7775 3.5 6.1175 3.5 5.4375 C1.06612247 4.22056124 -0.91838846 4.11790104 -3.625 3.875 C-4.53507813 3.79121094 -5.44515625 3.70742187 -6.3828125 3.62109375 C-7.08148437 3.56050781 -7.78015625 3.49992188 -8.5 3.4375 C-5.96140723 0.20422475 -4.02317789 0.0054075 0 0 Z M1.5 15.4375 C2.5 17.4375 2.5 17.4375 2.5 17.4375 Z M-1.5 16.4375 C-2.49 17.9225 -2.49 17.9225 -3.5 19.4375 C-1.85 19.1075 -0.2 18.7775 1.5 18.4375 C0.51 17.7775 -0.48 17.1175 -1.5 16.4375 Z " fill="#BDD40B" transform="translate(617.5,242.5625)"/>
<path d="M0 0 C0 2.64 0 5.28 0 8 C-1.134375 8.474375 -2.26875 8.94875 -3.4375 9.4375 C-6.75740166 10.63622083 -6.75740166 10.63622083 -8 12 C-8.21063107 14.50416935 -8.37572077 16.99140081 -8.5 19.5 C-8.86486486 26.86486486 -8.86486486 26.86486486 -10 28 C-12.64 28 -15.28 28 -18 28 C-18 20.08 -18 12.16 -18 4 C-18.66 4 -19.32 4 -20 4 C-19.67 2.68 -19.34 1.36 -19 0 C-15 0 -11 0 -7 0 C-4.3333581 -1.33332095 -2.83319697 -0.67102033 0 0 Z " fill="#C5D537" transform="translate(560,241)"/>
<path d="M0 0 C0.33 0 0.66 0 1 0 C1 6.6 1 13.2 1 20 C4.96 19.67 8.92 19.34 13 19 C12.67 18.01 12.34 17.02 12 16 C8.99152582 14.77479736 8.99152582 14.77479736 6 14 C6 13.34 6 12.68 6 12 C6.66 12 7.32 12 8 12 C8 12.66 8 13.32 8 14 C12.95514502 13.12527407 12.95514502 13.12527407 16.4375 9.875 C16.623125 9.25625 16.80875 8.6375 17 8 C17.65239787 11.11701203 18.11015425 13.48594685 17.4375 16.625 C16.75628825 18.97680215 16.75628825 18.97680215 17.92578125 20.828125 C19.1604549 23.32441064 19.4695418 25.36166185 19.75 28.125 C19.89695312 29.42824219 19.89695312 29.42824219 20.046875 30.7578125 C20 33 20 33 18 35 C11.8576116 36.09685507 6.34868192 36 0 36 C0 24.12 0 12.24 0 0 Z M8 22 C8 24.64 8 27.28 8 30 C12.04952729 29.74779369 12.04952729 29.74779369 16 29 C17.69701027 27.19477722 17.69701027 27.19477722 18 25 C17.67 24.34 17.34 23.68 17 23 C16.01 23 15.02 23 14 23 C14 22.34 14 21.68 14 21 C10.2236068 20.7018576 10.2236068 20.7018576 8 22 Z " fill="#BBD111" transform="translate(576,232)"/>
<path d="M0 0 C0.99 0 1.98 0 3 0 C3 5.61 3 11.22 3 17 C2.34 17 1.68 17 1 17 C1 17.66 1 18.32 1 19 C0.34 19 -0.32 19 -1 19 C-1 19.66 -1 20.32 -1 21 C-6.46000435 24.1059167 -11.76222888 23.29347818 -17.8125 22.5 C-21.77126563 20.63705147 -22.63660138 18.85530653 -24.37109375 14.97265625 C-25 13 -25 13 -25 10 C-24.34 10 -23.68 10 -23 10 C-23 10.99 -23 11.98 -23 13 C-22.01 13.33 -21.02 13.66 -20 14 C-20 14.66 -20 15.32 -20 16 C-15.5086071 17.43724573 -10.97271575 17.80931928 -6.5625 16 C-4.15248319 12.91517849 -4.60445519 9.70916545 -5 6 C-5.41731018 3.64470719 -5.41731018 3.64470719 -6 2 C-3.50907189 0.75453595 -2.58919267 1.2232422 0 2 C0 1.34 0 0.68 0 0 Z " fill="#BCD30D" transform="translate(505,245)"/>
<path d="M0 0 C-1.11784111 4.1360121 -2.82163553 7.33707028 -5.0625 10.9375 C-8.95029299 17.78606965 -8.97912946 24.26746317 -9 32 C-11.475 32.495 -11.475 32.495 -14 33 C-14.33 26.73 -14.66 20.46 -15 14 C-15.66 14 -16.32 14 -17 14 C-17 13.34 -17 12.68 -17 12 C-17.66 12 -18.32 12 -19 12 C-19 9.36 -19 6.72 -19 4 C-17.68 4.33 -16.36 4.66 -15 5 C-14.67 4.01 -14.34 3.02 -14 2 C-11.875 8.75 -11.875 8.75 -13 11 C-11.02 10.67 -9.04 10.34 -7 10 C-6.9175 9.0925 -6.835 8.185 -6.75 7.25 C-5.88469713 3.50035425 -4.29387362 0 0 0 Z " fill="#BBD308" transform="translate(477,234)"/>
<path d="M0 0 C2.375 -0.125 2.375 -0.125 5 0 C7 2 7 2 7.22705078 4.06298828 C7.21657715 4.89040527 7.20610352 5.71782227 7.1953125 6.5703125 C7.18886719 7.46621094 7.18242188 8.36210937 7.17578125 9.28515625 C7.15902344 10.22230469 7.14226563 11.15945312 7.125 12.125 C7.11597656 13.06988281 7.10695313 14.01476562 7.09765625 14.98828125 C7.07404522 17.32577292 7.04111516 19.66276123 7 22 C6.67 22 6.34 22 6 22 C5.67 17.05 5.34 12.1 5 7 C5 12.61 5 18.22 5 24 C3.02 24 1.04 24 -1 24 C-1 23.01 -1 22.02 -1 21 C-1.66 21 -2.32 21 -3 21 C-3.33 21.99 -3.66 22.98 -4 24 C-6.62113708 24 -8.50935112 23.68707555 -11 23 C-11 22.01 -11 21.02 -11 20 C-10.44570313 19.82984375 -9.89140625 19.6596875 -9.3203125 19.484375 C-8.23363281 19.12085938 -8.23363281 19.12085938 -7.125 18.75 C-6.40570312 18.51796875 -5.68640625 18.2859375 -4.9453125 18.046875 C-2.39866531 16.67639017 -1.92311803 15.73242936 -1 13 C-0.71306612 10.75866742 -0.51033409 8.5055681 -0.375 6.25 C-0.30023437 5.07953125 -0.22546875 3.9090625 -0.1484375 2.703125 C-0.09945312 1.81109375 -0.05046875 0.9190625 0 0 Z " fill="#C4D70A" transform="translate(531,243)"/>
<path d="M0 0 C2.64 0 5.28 0 8 0 C10.11925604 2.11925604 9.41831017 6.6196093 9.5625 9.5625 C9.60568359 10.36880859 9.64886719 11.17511719 9.69335938 12.00585938 C9.79975262 14.00368805 9.90040888 16.0018207 10 18 C11.32 17.01 12.64 16.02 14 15 C13.01 17.97 12.02 20.94 11 24 C10.01 24 9.02 24 8 24 C8 23.01 8 22.02 8 21 C7.34 21 6.68 21 6 21 C6.08378906 20.11957031 6.16757812 19.23914063 6.25390625 18.33203125 C6.35574219 17.17058594 6.45757813 16.00914062 6.5625 14.8125 C6.66691406 13.66394531 6.77132812 12.51539063 6.87890625 11.33203125 C6.98859985 8.31368801 6.74002389 5.91076064 6 3 C4.68 3 3.36 3 2 3 C2 14.22 2 25.44 2 37 C3.65 37.33 5.3 37.66 7 38 C7.33 37.01 7.66 36.02 8 35 C8.33 36.32 8.66 37.64 9 39 C6.03 39 3.06 39 0 39 C0 26.13 0 13.26 0 0 Z " fill="#BFCD29" transform="translate(665,230)"/>
<path d="M0 0 C3.14137047 1.72467398 4.14884782 2.40323186 5.1875 5.75 C3.5375 5.75 1.8875 5.75 0.1875 5.75 C0.435 6.4925 0.435 6.4925 0.6875 7.25 C1.39895044 10.80725222 1.82907542 14.15127809 1.1875 17.75 C-1.5444174 21.06141503 -3.10911121 21.67595907 -7.375 22.125 C-10.53509458 21.78026241 -12.10476296 21.23125659 -14.8125 19.75 C-14.8397415 18.33344207 -14.85900467 16.91672955 -14.875 15.5 C-14.88660156 14.71109375 -14.89820313 13.9221875 -14.91015625 13.109375 C-14.81635306 10.84308998 -14.44491063 8.9211105 -13.8125 6.75 C-12.8225 6.75 -11.8325 6.75 -10.8125 6.75 C-10.8125 6.09 -10.8125 5.43 -10.8125 4.75 C-9.1625 4.75 -7.5125 4.75 -5.8125 4.75 C-5.8125 4.09 -5.8125 3.43 -5.8125 2.75 C-9.4425 2.75 -13.0725 2.75 -16.8125 2.75 C-11.92458024 -2.13791976 -6.37735129 -2.44975498 0 0 Z M-11.8125 8.75 C-14.08460154 11.48986384 -14.08460154 11.48986384 -13.625 14.1875 C-12.76468569 16.90079897 -11.64727535 18.59613329 -9.8125 20.75 C-6.38019552 20.48606499 -6.38019552 20.48606499 -2.8125 19.75 C-0.48206442 16.25434664 -0.22486756 14.8634271 -0.8125 10.75 C-5.22652939 6.44915085 -6.37810958 6.23162395 -11.8125 8.75 Z " fill="#C1D325" transform="translate(499.8125,241.25)"/>
<path d="M0 0 C2.97 0 5.94 0 9 0 C8.08974516 3.64101938 7.4084695 5.03759699 5.3125 7.9375 C3.93462789 9.97112453 3.93462789 9.97112453 3 12 C3.47730529 14.7774903 3.47730529 14.7774903 5 17 C5.35858516 18.32676508 5.7018576 19.65835921 6 21 C6.66 21 7.32 21 8 21 C9.4606285 23.64738916 10 24.89448334 10 28 C6.7 28 3.4 28 0 28 C-1.65 24.7 -3.3 21.4 -5 18 C-3.35 17.67 -1.7 17.34 0 17 C0.20496094 16.14535156 0.40992188 15.29070312 0.62109375 14.41015625 C0.89050781 13.30542969 1.15992188 12.20070312 1.4375 11.0625 C1.70433594 9.96035156 1.97117187 8.85820312 2.24609375 7.72265625 C3 5 3 5 4 4 C2.02 4 0.04 4 -2 4 C-1.34 2.68 -0.68 1.36 0 0 Z " fill="#BCD011" transform="translate(681,241)"/>
<path d="M0 0 C16.5 0 33 0 50 0 C50 4.38220173 49.45959307 5.00042812 46.51893616 7.9598999 C46.01897629 8.44235168 45.51901642 8.92480347 45.00390625 9.421875 C44.49576889 9.92672424 43.98763153 10.43157349 43.46409607 10.95172119 C42.3901031 12.01530084 41.31136231 13.07410453 40.22827148 14.12841797 C38.56349286 15.74903348 36.91251861 17.38272348 35.26367188 19.01953125 C34.21952165 20.05026145 33.17462504 21.08023621 32.12890625 22.109375 C31.63097061 22.59992371 31.13303497 23.09047241 30.62001038 23.59588623 C27.11827402 27 27.11827402 27 26 27 C26 25.35 26 23.7 26 22 C27.65 21.67 29.3 21.34 31 21 C31.33 19.02 31.66 17.04 32 15 C32.66 15 33.32 15 34 15 C34 14.34 34 13.68 34 13 C34.66 13 35.32 13 36 13 C36.1546875 12.0409375 36.1546875 12.0409375 36.3125 11.0625 C36.6528125 10.0415625 36.6528125 10.0415625 37 9 C40 8 40 8 44 8 C44.144375 7.21625 44.28875 6.4325 44.4375 5.625 C45 3 45 3 46 1 C30.82 1 15.64 1 0 1 C0 0.67 0 0.34 0 0 Z " fill="#3DAE88" transform="translate(160,154)"/>
<path d="M0 0 C2.53481 0.03600582 4.83765695 0.25126964 7.3125 0.7890625 C6.41679494 6.70071586 4.53699445 11.56456805 0.3125 15.7890625 C-0.88799407 18.88913451 -0.88799407 18.88913451 -1.6875 21.7890625 C-2.3475 21.7890625 -3.0075 21.7890625 -3.6875 21.7890625 C-4.90171557 18.26584682 -4.75604799 16.94838522 -3.25390625 13.45703125 C-2.60041108 12.28866109 -1.93194949 11.12855628 -1.25 9.9765625 C-0.91162109 9.37908203 -0.57324219 8.78160156 -0.22460938 8.16601562 C0.60827251 6.69967428 1.45868561 5.24331494 2.3125 3.7890625 C-1.80493282 6.84886718 -3.42801265 8.75111308 -4.6875 13.7890625 C-6.6675 14.1190625 -8.6475 14.4490625 -10.6875 14.7890625 C-10.3575 14.1290625 -10.0275 13.4690625 -9.6875 12.7890625 C-9.26597656 11.85835937 -8.84445312 10.92765625 -8.41015625 9.96875 C-3.99085068 1.17173232 -3.99085068 1.17173232 0 0 Z " fill="#BDD01B" transform="translate(474.6875,230.2109375)"/>
<path d="M0 0 C5.66129431 4.69766975 10.85228904 9.74723372 16 15 C15.34 16.32 14.68 17.64 14 19 C13.505 18.01 13.505 18.01 13 17 C12.36995056 16.99857498 11.73990112 16.99714996 11.09075928 16.99568176 C4.53678781 16.97600493 -2.01624977 16.92177454 -8.56982422 16.84741211 C-11.01604514 16.82420595 -13.46236635 16.8098303 -15.90869141 16.80444336 C-19.42414031 16.79517341 -22.93800606 16.75422239 -26.453125 16.70703125 C-28.0955014 16.71293022 -28.0955014 16.71293022 -29.77105713 16.71894836 C-37.38769299 16.57237633 -37.38769299 16.57237633 -40.72167969 13.45581055 C-41.35444824 12.24018433 -41.35444824 12.24018433 -42 11 C-39.03 11.495 -39.03 11.495 -36 12 C-36 12.99 -36 13.98 -36 15 C-22.14 15 -8.28 15 6 15 C6 14.34 6 13.68 6 13 C6.66 13 7.32 13 8 13 C8 12.01 8 11.02 8 10 C6.68 10 5.36 10 4 10 C4 9.01 4 8.02 4 7 C3.34 7 2.68 7 2 7 C0.5393715 4.35261084 0 3.10551666 0 0 Z " fill="#97CF46" transform="translate(197,138)"/>
<path d="M0 0 C1.65 0 3.3 0 5 0 C5 2.31 5 4.62 5 7 C4.34 7 3.68 7 3 7 C3 7.66 3 8.32 3 9 C3.99 9.33 4.98 9.66 6 10 C6 14.62 6 19.24 6 24 C4.02 24.33 2.04 24.66 0 25 C0 16.75 0 8.5 0 0 Z " fill="#BBD20B" transform="translate(635,243)"/>
<path d="M0 0 C2.97 0 5.94 0 9 0 C10.33684341 4.01053022 10.40162427 7.86106529 10.625 12.0625 C10.6765625 12.89072266 10.728125 13.71894531 10.78125 14.57226562 C10.82507813 15.36439453 10.86890625 16.15652344 10.9140625 16.97265625 C10.9548291 17.69718994 10.9955957 18.42172363 11.03759766 19.16821289 C11 21 11 21 10 23 C8.68 23 7.36 23 6 23 C4.88176185 20.76352369 4.80603939 19.35108471 4.68359375 16.8671875 C4.64169922 16.06152344 4.59980469 15.25585938 4.55664062 14.42578125 C4.51732422 13.58402344 4.47800781 12.74226563 4.4375 11.875 C4.39431641 11.02550781 4.35113281 10.17601562 4.30664062 9.30078125 C4.20045764 7.20071777 4.09971503 5.10038052 4 3 C3.34 3 2.68 3 2 3 C2 2.34 2 1.68 2 1 C1.34 0.67 0.68 0.34 0 0 Z " fill="#BBD308" transform="translate(648,244)"/>
<path d="M0 0 C0.99 0 1.98 0 3 0 C2.67 2.31 2.34 4.62 2 7 C2.66 7 3.32 7 4 7 C4 13.27 4 19.54 4 26 C2.35 25.67 0.7 25.34 -1 25 C-2.29132612 21.12602163 -1.89572379 17.63171216 -1.625 13.625 C-1.58117187 12.86960938 -1.53734375 12.11421875 -1.4921875 11.3359375 C-1.24932085 7.47705629 -0.88756962 3.77593175 0 0 Z " fill="#BCD20D" transform="translate(545,243)"/>
<path d="M0 0 C2.39453125 -0.14453125 2.39453125 -0.14453125 5 0 C6.6875 2.3125 6.6875 2.3125 8 5 C8.99 6.485 8.99 6.485 10 8 C7.33333333 7.33333333 4.66666667 6.66666667 2 6 C1.8730918 12.31692016 1.78560415 18.63351094 1.7253418 24.95141602 C1.70021715 27.09997849 1.66611139 29.24845565 1.62280273 31.39672852 C1.56206208 34.48735612 1.53376956 37.57685263 1.51171875 40.66796875 C1.48591232 41.62648239 1.4601059 42.58499603 1.43351746 43.57255554 C1.4315626 48.23410463 1.46154764 50.30154911 4.38598633 54.0949707 C6.73459484 55.8065792 8.14581912 56.68286879 11 57 C11.12375 57.804375 11.2475 58.60875 11.375 59.4375 C11.58125 60.283125 11.7875 61.12875 12 62 C12.66 62.33 13.32 62.66 14 63 C9.47856133 63 7.08108164 60.77422569 3.83769226 57.75517273 C-3.67315206 49.27268096 -1.09799167 35.81277846 -0.6875 25.3125 C-0.63226118 22.85753151 -0.582082 20.40244364 -0.53710938 17.94726562 C-0.4165206 11.96221887 -0.23302209 5.98166886 0 0 Z " fill="#CFDB6E" transform="translate(108,51)"/>
<path d="M0 0 C17 0 17 0 24 3 C25.4375 5.1875 25.4375 5.1875 26 7 C24.02 6.34 22.04 5.68 20 5 C20 4.34 20 3.68 20 3 C14.39 3 8.78 3 3 3 C2.67 14.55 2.34 26.1 2 38 C7.61 38 13.22 38 19 38 C19 38.33 19 38.66 19 39 C13.06 39 7.12 39 1 39 C0.67 26.13 0.34 13.26 0 0 Z " fill="#C0CE5D" transform="translate(574,230)"/>
<path d="M0 0 C0.99 0.66 1.98 1.32 3 2 C3.39872742 4.13870239 3.39872742 4.13870239 3.43237305 6.81689453 C3.45216721 7.81778107 3.47196136 8.8186676 3.49235535 9.84988403 C3.49874527 10.93325043 3.50513519 12.01661682 3.51171875 13.1328125 C3.52966995 14.23978485 3.54762115 15.3467572 3.56611633 16.48727417 C3.62042605 20.03314368 3.65418169 23.57887703 3.6875 27.125 C3.72065477 29.52475862 3.75514268 31.92449922 3.79101562 34.32421875 C3.87616422 40.21602373 3.94442624 46.1078459 4 52 C2.02 52.495 2.02 52.495 0 53 C-0.66 52.01 -1.32 51.02 -2 50 C-1.34 50 -0.68 50 0 50 C0 33.5 0 17 0 0 Z " fill="#64746A" transform="translate(129,183)"/>
<path d="M0 0 C0.99 0 1.98 0 3 0 C3 5.61 3 11.22 3 17 C2.34 17 1.68 17 1 17 C1 17.66 1 18.32 1 19 C0.34 19 -0.32 19 -1 19 C-1.28875 18.360625 -1.5775 17.72125 -1.875 17.0625 C-2.82823451 14.84793921 -2.82823451 14.84793921 -5 14 C-4.979375 12.7625 -4.95875 11.525 -4.9375 10.25 C-4.93233319 7.3359175 -5.06984442 4.79046673 -6 2 C-3.50907189 0.75453595 -2.58919267 1.2232422 0 2 C0 1.34 0 0.68 0 0 Z " fill="#C5D413" transform="translate(505,245)"/>
<path d="M0 0 C3.37889673 -0.28527271 6.63115091 -0.44483998 10 0 C12.60078552 2.83026659 13 4.17745143 13 8 C11.68 8.33 10.36 8.66 9 9 C9.66 9.33 10.32 9.66 11 10 C10.34 10 9.68 10 9 10 C8.67 11.32 8.34 12.64 8 14 C8 13.34 8 12.68 8 12 C7.4225 11.814375 6.845 11.62875 6.25 11.4375 C2.83301758 9.2544279 1.7842002 6.63212185 0 3 C0 2.01 0 1.02 0 0 Z " fill="#BCD10E" transform="translate(449,231)"/>
<path d="M0 0 C0.93199219 0.63808594 1.86398438 1.27617188 2.82421875 1.93359375 C5.8292686 4.05011913 5.8292686 4.05011913 8.8125 5.0625 C9.534375 5.371875 10.25625 5.68125 11 6 C11.33 6.99 11.66 7.98 12 9 C12.66 9 13.32 9 14 9 C14 9.66 14 10.32 14 11 C11.525 10.01 11.525 10.01 9 9 C9 8.34 9 7.68 9 7 C6.69 6.67 4.38 6.34 2 6 C2 7.22630127 2 8.45260254 2 9.71606445 C2 23.14404297 2 36.57202148 2 50 C0 48 0 48 -0.24050903 45.93722534 C-0.23606781 45.08895172 -0.23162659 44.2406781 -0.22705078 43.36669922 C-0.22689972 42.40585419 -0.22674866 41.44500916 -0.22659302 40.45504761 C-0.21627045 39.41542877 -0.20594788 38.37580994 -0.1953125 37.3046875 C-0.1924826 36.24210724 -0.18965271 35.17952698 -0.18673706 34.08474731 C-0.17551639 30.68138501 -0.15040837 27.27828314 -0.125 23.875 C-0.11497264 21.57161838 -0.10584637 19.26823264 -0.09765625 16.96484375 C-0.07557093 11.30980655 -0.04207489 5.65492187 0 0 Z " fill="#B7CD24" transform="translate(109,54)"/>
<path d="M0 0 C0 0.33 0 0.66 0 1 C-0.60328125 1.13277344 -1.2065625 1.26554688 -1.828125 1.40234375 C-3.02695312 1.66724609 -3.02695312 1.66724609 -4.25 1.9375 C-5.03890625 2.11152344 -5.8278125 2.28554687 -6.640625 2.46484375 C-8.9454565 2.94914739 -8.9454565 2.94914739 -10.921875 3.62890625 C-13 4 -13 4 -19 3 C-19 11.25 -19 19.5 -19 28 C-15.04 27.505 -15.04 27.505 -11 27 C-11.33 27.66 -11.66 28.32 -12 29 C-18.15234375 29.09765625 -18.15234375 29.09765625 -20 29 C-21 28 -21 28 -21.11352539 25.40795898 C-21.10828857 24.28204346 -21.10305176 23.15612793 -21.09765625 21.99609375 C-21.09443359 20.78115234 -21.09121094 19.56621094 -21.08789062 18.31445312 C-21.07951172 17.03505859 -21.07113281 15.75566406 -21.0625 14.4375 C-21.05798828 13.15423828 -21.05347656 11.87097656 -21.04882812 10.54882812 C-21.03699545 7.36583978 -21.02051068 4.18294238 -21 1 C-19.86111328 1.01740234 -19.86111328 1.01740234 -18.69921875 1.03515625 C-17.70535156 1.04417969 -16.71148438 1.05320313 -15.6875 1.0625 C-14.70136719 1.07410156 -13.71523438 1.08570313 -12.69921875 1.09765625 C-8.35492315 0.94048202 -4.48051689 -0.08453805 0 0 Z " fill="#DAE174" transform="translate(654,240)"/>
<path d="M0 0 C1.32 0 2.64 0 4 0 C4 7.26 4 14.52 4 22 C1.298125 22.20625 -1.40375 22.4125 -4.1875 22.625 C-5.02949951 22.69541504 -5.87149902 22.76583008 -6.73901367 22.83837891 C-11.01778064 23.1262408 -14.09060388 23.05262883 -18 21 C-18 20.67 -18 20.34 -18 20 C-14.535 19.505 -14.535 19.505 -11 19 C-11 19.66 -11 20.32 -11 21 C-10.1028125 20.5359375 -10.1028125 20.5359375 -9.1875 20.0625 C-7 19 -7 19 -4 18 C-4 18.66 -4 19.32 -4 20 C-2.35 19.34 -0.7 18.68 1 18 C1.11269443 11.8894576 0.89604368 6.04829486 0 0 Z " fill="#C7D220" transform="translate(626,247)"/>
<path d="M0 0 C1.76462683 3.08809695 2 4.23312136 2 8 C1.67 8.99 1.34 9.98 1 11 C1.309375 11.61875 1.61875 12.2375 1.9375 12.875 C3.20298687 15.40597375 3.15515144 17.20727405 3 20 C2.01 20 1.02 20 0 20 C0.33 18.35 0.66 16.7 1 15 C0.01 15 -0.98 15 -2 15 C-2 14.34 -2 13.68 -2 13 C-2.94875 13.20625 -3.8975 13.4125 -4.875 13.625 C-5.90625 13.74875 -6.9375 13.8725 -8 14 C-8.66 13.34 -9.32 12.68 -10 12 C-6.535 11.505 -6.535 11.505 -3 11 C-3.33 10.01 -3.66 9.02 -4 8 C-7.00847418 6.77479736 -7.00847418 6.77479736 -10 6 C-10 5.34 -10 4.68 -10 4 C-9.34 4 -8.68 4 -8 4 C-8 4.66 -8 5.32 -8 6 C-5.69 5.34 -3.38 4.68 -1 4 C-0.67 2.68 -0.34 1.36 0 0 Z " fill="#CCDC2F" transform="translate(592,240)"/>
<path d="M0 0 C2.97 0 5.94 0 9 0 C9 0.66 9 1.32 9 2 C9.66 2 10.32 2 11 2 C10 4 10 4 8 5 C8 4.01 8 3.02 8 2 C6.35 2 4.7 2 3 2 C3.04640625 2.86882812 3.0928125 3.73765625 3.140625 4.6328125 C3.49912127 16.07908612 3.49912127 16.07908612 -1 21 C-2.32 20.67 -3.64 20.34 -5 20 C-4.35546875 19.51015625 -3.7109375 19.0203125 -3.046875 18.515625 C-0.27210723 15.10541423 -0.33199765 11.96915167 -0.25 7.75 C-0.22035156 7.00492188 -0.19070313 6.25984375 -0.16015625 5.4921875 C-0.0897657 3.66203328 -0.04258168 1.83101231 0 0 Z " fill="#C2D127" transform="translate(528,241)"/>
<path d="M0 0 C-1.36337671 3.01813363 -2.92664676 5.22421503 -5.1875 7.63671875 C-5.80367187 8.29607422 -6.41984375 8.95542969 -7.0546875 9.63476562 C-8.01761719 10.65086914 -8.01761719 10.65086914 -9 11.6875 C-9.64195313 12.37650391 -10.28390625 13.06550781 -10.9453125 13.77539062 C-15.72933094 18.86466547 -15.72933094 18.86466547 -18 20 C-18 19.34 -18 18.68 -18 18 C-18.66 17.67 -19.32 17.34 -20 17 C-19.34 16.34 -18.68 15.68 -18 15 C-17.01 15 -16.02 15 -15 15 C-15.33 13.68 -15.66 12.36 -16 11 C-14.1875 9.9375 -14.1875 9.9375 -12 9 C-11.01 9.33 -10.02 9.66 -9 10 C-9.33 8.68 -9.66 7.36 -10 6 C-8.68 6 -7.36 6 -6 6 C-6 5.34 -6 4.68 -6 4 C-5.34 4 -4.68 4 -4 4 C-4 3.01 -4 2.02 -4 1 C-4.66 0.67 -5.32 0.34 -6 0 C-3 -1 -3 -1 0 0 Z " fill="#D49D32" transform="translate(128,125)"/>
<path d="M0 0 C0 0.99 0 1.98 0 3 C0.99 3 1.98 3 3 3 C3 3.66 3 4.32 3 5 C0.625 5.1875 0.625 5.1875 -2 5 C-2.66 4.01 -3.32 3.02 -4 2 C-6.56287112 1.59681752 -6.56287112 1.59681752 -9.4375 1.75 C-10.88962891 1.77320313 -10.88962891 1.77320313 -12.37109375 1.796875 C-15.10857454 1.90163323 -15.10857454 1.90163323 -18 3 C-18 4.65 -18 6.3 -18 8 C-18.99 6.68 -19.98 5.36 -21 4 C-20.02703346 1.34645489 -19.34207577 0.20122104 -16.875 -1.25 C-10.7829923 -2.8392194 -5.7882942 -2.31531768 0 0 Z " fill="#CBD84D" transform="translate(627,242)"/>
<path d="M0 0 C2.97 0.495 2.97 0.495 6 1 C1.59156563 6.29012124 -3.07559794 11.18808428 -8 16 C-8.66 14.68 -9.32 13.36 -10 12 C-8.68 11.34 -7.36 10.68 -6 10 C-6 8.68 -6 7.36 -6 6 C-5.34 6 -4.68 6 -4 6 C-4 5.34 -4 4.68 -4 4 C-3.01 3.67 -2.02 3.34 -1 3 C-0.67 2.01 -0.34 1.02 0 0 Z " fill="#30A6AD" transform="translate(166,194)"/>
<path d="M0 0 C2.31 0 4.62 0 7 0 C7 0.33 7 0.66 7 1 C5.35 1 3.7 1 2 1 C2.05192203 4.41790199 2.14700599 7.83328562 2.25 11.25 C2.26417969 12.21808594 2.27835938 13.18617188 2.29296875 14.18359375 C2.4060184 19.74656494 2.4060184 19.74656494 4.84375 24.59375 C7.45567826 26.29718148 10.00054019 27.18196551 13 28 C9.9259539 29.35258028 8.67428952 28.89891744 5.375 27.875 C1.53389497 25.74105276 1.2020448 25.05113269 0 21 C-0.22705078 18.50463867 -0.22705078 18.50463867 -0.1953125 15.91796875 C-0.18886719 14.98662109 -0.18242187 14.05527344 -0.17578125 13.09570312 C-0.15902344 12.13599609 -0.14226562 11.17628906 -0.125 10.1875 C-0.11597656 9.20845703 -0.10695313 8.22941406 -0.09765625 7.22070312 C-0.07417182 4.81354939 -0.0413284 2.40690257 0 0 Z " fill="#D9DF72" transform="translate(510,241)"/>
<path d="M0 0 C1 3 1 3 0.109375 4.82421875 C-0.33921875 5.43910156 -0.7878125 6.05398437 -1.25 6.6875 C-1.68828125 7.31011719 -2.1265625 7.93273437 -2.578125 8.57421875 C-3.04734375 9.04472656 -3.5165625 9.51523438 -4 10 C-4.99 10 -5.98 10 -7 10 C-7 10.66 -7 11.32 -7 12 C-7.66 12 -8.32 12 -9 12 C-8.80528889 13.94999129 -8.80528889 13.94999129 -8 16 C-7.34 16.309375 -6.68 16.61875 -6 16.9375 C-5.01 17.4634375 -5.01 17.4634375 -4 18 C-3.25 20.625 -3.25 20.625 -3 23 C-5 21.625 -5 21.625 -7 20 C-7 19.34 -7 18.68 -7 18 C-7.639375 17.7525 -8.27875 17.505 -8.9375 17.25 C-11 16 -11 16 -11.78686523 14.11035156 C-11.85719971 13.41393555 -11.92753418 12.71751953 -12 12 C-10.08065216 9.70983534 -8.23652142 7.76718302 -6.0625 5.75 C-5.48564453 5.19570312 -4.90878906 4.64140625 -4.31445312 4.0703125 C-2.88722271 2.70205855 -1.44497942 1.3494962 0 0 Z " fill="#D19040" transform="translate(61,141)"/>
<path d="M0 0 C0.33 0 0.66 0 1 0 C1.87157852 10.69240075 2.11813543 21.27592816 2 32 C3.65 32.33 5.3 32.66 7 33 C7.33 32.01 7.66 31.02 8 30 C8.33 31.32 8.66 32.64 9 34 C6.03 34 3.06 34 0 34 C0 22.78 0 11.56 0 0 Z " fill="#D0DB69" transform="translate(665,235)"/>
<path d="M0 0 C2.97 0 5.94 0 9 0 C8.08643073 3.65427708 7.42906165 4.98719808 5.3125 7.875 C3.05136013 11.30674185 3.05136013 11.30674185 3.6875 15.5 C4.120625 16.325 4.55375 17.15 5 18 C4.01 17.67 3.02 17.34 2 17 C0.53154579 11.52667068 1.55961274 8.88077452 4 4 C2.02 4 0.04 4 -2 4 C-1.34 2.68 -0.68 1.36 0 0 Z " fill="#C5D24B" transform="translate(681,241)"/>
<path d="M0 0 C4.91935902 4.11619836 9.52647956 8.40410362 14 13 C13.67 13.66 13.34 14.32 13 15 C10.69 15 8.38 15 6 15 C6 14.34 6 13.68 6 13 C6.66 13 7.32 13 8 13 C8 12.01 8 11.02 8 10 C6.68 10 5.36 10 4 10 C4 9.01 4 8.02 4 7 C3.34 7 2.68 7 2 7 C0.5393715 4.35261084 0 3.10551666 0 0 Z " fill="#D1DD58" transform="translate(197,138)"/>
<path d="M0 0 C0.66 0 1.32 0 2 0 C2.06058594 0.64066406 2.12117187 1.28132812 2.18359375 1.94140625 C2.67209412 6.98423313 3.23779286 11.9912102 4 17 C1.525 16.01 1.525 16.01 -1 15 C-1.02685412 12.68756208 -1.04632841 10.3750373 -1.0625 8.0625 C-1.07410156 6.77472656 -1.08570313 5.48695313 -1.09765625 4.16015625 C-1 1 -1 1 0 0 Z " fill="#BBD404" transform="translate(514,250)"/>
<path d="M0 0 C0.66 0 1.32 0 2 0 C3 3 3 3 1.6875 6.625 C0 10 0 10 -2 11 C-2.72693904 12.97888961 -3.39816251 14.97954558 -4 17 C-4.66 17 -5.32 17 -6 17 C-7.14881521 13.57894256 -7.11090875 12.25327871 -5.63671875 8.88671875 C-4.99347656 7.83097656 -4.35023438 6.77523437 -3.6875 5.6875 C-2.73423828 4.08455078 -2.73423828 4.08455078 -1.76171875 2.44921875 C-1.18035156 1.64097656 -0.59898437 0.83273438 0 0 Z " fill="#C8D713" transform="translate(477,235)"/>
<path d="M0 0 C1.60379341 -0.05416188 3.20811406 -0.09286638 4.8125 -0.125 C5.70582031 -0.14820313 6.59914063 -0.17140625 7.51953125 -0.1953125 C10 0 10 0 13 2 C12.67 2.99 12.34 3.98 12 5 C9.69 4.67 7.38 4.34 5 4 C5 4.66 5 5.32 5 6 C0.25 7.125 0.25 7.125 -2 6 C-2 5.34 -2 4.68 -2 4 C-1.34 4 -0.68 4 0 4 C0 2.68 0 1.36 0 0 Z " fill="#D8E221" transform="translate(609,246)"/>
<path d="M0 0 C4.88049925 3.9419417 9.0580583 8.11950075 13 13 C11 14 11 14 9.0546875 13.44140625 C8.33539063 13.15136719 7.61609375 12.86132812 6.875 12.5625 C6.15054688 12.27503906 5.42609375 11.98757812 4.6796875 11.69140625 C4.12539062 11.46324219 3.57109375 11.23507813 3 11 C3.33 9.35 3.66 7.7 4 6 C2.68 5.34 1.36 4.68 0 4 C0 2.68 0 1.36 0 0 Z " fill="#C4D53F" transform="translate(175,116)"/>
<path d="M0 0 C3.62034939 3.62034939 3.12765736 8.14873134 3.13671875 13.078125 C3.13285156 13.79484375 3.12898437 14.5115625 3.125 15.25 C3.12886719 15.9821875 3.13273438 16.714375 3.13671875 17.46875 C3.12671034 22.87328966 3.12671034 22.87328966 2 24 C-0.33297433 24.04092937 -2.66705225 24.04241723 -5 24 C-4.505 22.515 -4.505 22.515 -4 21 C-4 21.66 -4 22.32 -4 23 C-2.68 23 -1.36 23 0 23 C0 15.41 0 7.82 0 0 Z " fill="#C6D121" transform="translate(658,244)"/>
<path d="M0 0 C0.5259375 0.680625 0.5259375 0.680625 1.0625 1.375 C0.7325 2.035 0.4025 2.695 0.0625 3.375 C-1.5875 2.715 -3.2375 2.055 -4.9375 1.375 C-4.9375 0.715 -4.9375 0.055 -4.9375 -0.625 C-10.5475 -0.625 -16.1575 -0.625 -21.9375 -0.625 C-21.9375 -1.285 -21.9375 -1.945 -21.9375 -2.625 C-5.33287377 -4.47273284 -5.33287377 -4.47273284 0 0 Z " fill="#BFD02A" transform="translate(598.9375,233.625)"/>
<path d="M0 0 C0.33 0 0.66 0 1 0 C1.33 2.97 1.66 5.94 2 9 C3.32 8.01 4.64 7.02 6 6 C5.01 8.97 4.02 11.94 3 15 C2.01 15 1.02 15 0 15 C0 14.01 0 13.02 0 12 C-0.66 12 -1.32 12 -2 12 C-1.85962479 10.18706911 -1.71255111 8.3746557 -1.5625 6.5625 C-1.48128906 5.55316406 -1.40007813 4.54382813 -1.31640625 3.50390625 C-1 1 -1 1 0 0 Z " fill="#C1D42B" transform="translate(673,239)"/>
<path d="M0 0 C0.99 0 1.98 0 3 0 C2.67 0.99 2.34 1.98 2 3 C1.34 3 0.68 3 0 3 C0.061875 4.11375 0.12375 5.2275 0.1875 6.375 C0.125625 7.57125 0.06375 8.7675 0 10 C-0.99 10.66 -1.98 11.32 -3 12 C-3.53229326 10.73392393 -4.05044544 9.46189588 -4.5625 8.1875 C-4.85253906 7.47980469 -5.14257812 6.77210938 -5.44140625 6.04296875 C-6 4 -6 4 -5 1 C-3.35 1.33 -1.7 1.66 0 2 C0 1.34 0 0.68 0 0 Z " fill="#C4D807" transform="translate(505,245)"/>
<path d="M0 0 C3.37889673 -0.28527271 6.63115091 -0.44483998 10 0 C12.60078552 2.83026659 13 4.17745143 13 8 C11.68 7.67 10.36 7.34 9 7 C9.33 5.35 9.66 3.7 10 2 C7.03 1.505 7.03 1.505 4 1 C4.66 4.3 5.32 7.6 6 11 C3.35250867 8.35250867 1.71837368 6.27309273 0 3 C0 2.01 0 1.02 0 0 Z " fill="#CFD971" transform="translate(449,231)"/>
<path d="M0 0 C0.33 0.66 0.66 1.32 1 2 C-0.11375 2.103125 -1.2275 2.20625 -2.375 2.3125 C-3.57125 2.539375 -4.7675 2.76625 -6 3 C-8.29207213 5.75047381 -8.29207213 5.75047381 -7.75 8.5 C-7.06862708 11.21362946 -7.06862708 11.21362946 -5 14 C-1.41642759 14.25015873 -1.41642759 14.25015873 2 14 C1.67 14.66 1.34 15.32 1 16 C-3.34263862 16.16702456 -6.20960634 16.12999997 -10 14 C-10.0272415 12.58344207 -10.04650467 11.16672955 -10.0625 9.75 C-10.07410156 8.96109375 -10.08570313 8.1721875 -10.09765625 7.359375 C-10.00385306 5.09308998 -9.63241063 3.1711105 -9 1 C-5.92677456 0.08941469 -3.19902639 -0.08886184 0 0 Z " fill="#C8D650" transform="translate(495,247)"/>
<path d="M0 0 C0 3 0 3 -1 5 C-0.34 5 0.32 5 1 5 C1 4.34 1 3.68 1 3 C1.66 3.33 2.32 3.66 3 4 C2.875 6.3125 2.875 6.3125 2 9 C-0.9375 10.6875 -0.9375 10.6875 -4 12 C-4.66 12.66 -5.32 13.32 -6 14 C-5.62257767 7.83543524 -3.84129692 4.82624485 0 0 Z " fill="#616161" transform="translate(636,158)"/>
<path d="M0 0 C2 0 2 0 3.625 1.375 C5 3 5 3 5 5 C5.66 5 6.32 5 7 5 C8.20217503 7.40435006 8.03897118 8.68381369 7.87890625 11.3515625 C7.83056641 12.20234375 7.78222656 13.053125 7.73242188 13.9296875 C7.64831055 15.26386719 7.64831055 15.26386719 7.5625 16.625 C7.51029297 17.5221875 7.45808594 18.419375 7.40429688 19.34375 C7.2744565 21.56284012 7.13948661 23.78149871 7 26 C6.67 26 6.34 26 6 26 C5.98582031 24.96101563 5.97164063 23.92203125 5.95703125 22.8515625 C5.70570212 14.15828597 4.87854514 7.48883683 0 0 Z " fill="#DCE67E" transform="translate(455,243)"/>
<path d="M0 0 C1.48454806 0.59082014 2.96254351 1.19812655 4.4375 1.8125 C5.67306641 2.31716797 5.67306641 2.31716797 6.93359375 2.83203125 C9 4 9 4 10 7 C10.66 7 11.32 7 12 7 C12 7.66 12 8.32 12 9 C9.525 8.01 9.525 8.01 7 7 C7 6.34 7 5.68 7 5 C4.69 4.67 2.38 4.34 0 4 C0 8.95 0 13.9 0 19 C-0.33 19 -0.66 19 -1 19 C-1.02683987 16.02077407 -1.04676037 13.04178705 -1.0625 10.0625 C-1.07087891 9.21236328 -1.07925781 8.36222656 -1.08789062 7.48632812 C-1.09111328 6.67744141 -1.09433594 5.86855469 -1.09765625 5.03515625 C-1.10289307 4.2862915 -1.10812988 3.53742676 -1.11352539 2.76586914 C-1 1 -1 1 0 0 Z " fill="#C1D52C" transform="translate(111,56)"/>
<path d="M0 0 C0.33 0 0.66 0 1 0 C1.19590444 3.47874757 1.38031592 6.95800904 1.5625 10.4375 C1.61857422 11.43072266 1.67464844 12.42394531 1.73242188 13.44726562 C1.78076172 14.39150391 1.82910156 15.33574219 1.87890625 16.30859375 C1.9260376 17.18314209 1.97316895 18.05769043 2.02172852 18.95874023 C2 21 2 21 1 22 C-0.68608966 22.07205511 -2.37500659 22.08386068 -4.0625 22.0625 C-4.98160156 22.05347656 -5.90070312 22.04445313 -6.84765625 22.03515625 C-7.55792969 22.02355469 -8.26820313 22.01195312 -9 22 C-8.67 20.35 -8.34 18.7 -8 17 C-7.34 17 -6.68 17 -6 17 C-6 17.99 -6 18.98 -6 20 C-4.02 20 -2.04 20 0 20 C-0.12568359 18.08574219 -0.12568359 18.08574219 -0.25390625 16.1328125 C-0.35706232 14.46355965 -0.45991099 12.79428779 -0.5625 11.125 C-0.61857422 10.28324219 -0.67464844 9.44148438 -0.73242188 8.57421875 C-0.78076172 7.76855469 -0.82910156 6.96289062 -0.87890625 6.1328125 C-0.9260376 5.38918457 -0.97316895 4.64555664 -1.02172852 3.87939453 C-1 2 -1 2 0 0 Z " fill="#C7D33B" transform="translate(536,247)"/>
<path d="M0 0 C0 0.99 0 1.98 0 3 C0.66 3.33 1.32 3.66 2 4 C2 4.66 2 5.32 2 6 C1.04287109 6.16435547 1.04287109 6.16435547 0.06640625 6.33203125 C-0.75988281 6.49058594 -1.58617187 6.64914062 -2.4375 6.8125 C-3.67306641 7.03873047 -3.67306641 7.03873047 -4.93359375 7.26953125 C-5.95646484 7.63111328 -5.95646484 7.63111328 -7 8 C-7.33 8.99 -7.66 9.98 -8 11 C-7.625 8.0625 -7.625 8.0625 -7 5 C-6.34 4.67 -5.68 4.34 -5 4 C-6.32 3.34 -7.64 2.68 -9 2 C-2.25 0 -2.25 0 0 0 Z " fill="#C0CF1F" transform="translate(620,251)"/>
<path d="M0 0 C2.625 0.375 2.625 0.375 5 1 C1.6189962 5.13621084 -1.66590534 8.81316569 -6 12 C-5.67 10.35 -5.34 8.7 -5 7 C-4.34 7 -3.68 7 -3 7 C-2.87625 6.21625 -2.7525 5.4325 -2.625 4.625 C-2 2 -2 2 0 0 Z " fill="#2FA6AD" transform="translate(151,210)"/>
<path d="M0 0 C-0.33 3.63 -0.66 7.26 -1 11 C-1.66 10.67 -2.32 10.34 -3 10 C-2.67 7.03 -2.34 4.06 -2 1 C-3.65 1 -5.3 1 -7 1 C-7 7.6 -7 14.2 -7 21 C-7.33 21 -7.66 21 -8 21 C-8 14.07 -8 7.14 -8 0 C-3 -1 -3 -1 0 0 Z " fill="#C1CF2C" transform="translate(520,242)"/>
<path d="M0 0 C0.61875 0.350625 1.2375 0.70125 1.875 1.0625 C2.57625 1.371875 3.2775 1.68125 4 2 C4.66 1.67 5.32 1.34 6 1 C5.67 2.65 5.34 4.3 5 6 C3.02 6.66 1.04 7.32 -1 8 C-1 7.34 -1 6.68 -1 6 C-1.99 5.67 -2.98 5.34 -4 5 C-4 4.34 -4 3.68 -4 3 C-2 1.375 -2 1.375 0 0 Z " fill="#BDD30A" transform="translate(620,259)"/>
<path d="M0 0 C0.33 0.66 0.66 1.32 1 2 C4.02934491 2.65772428 4.02934491 2.65772428 7 3 C7 3.33 7 3.66 7 4 C4.60472566 4.22295635 2.20998659 4.42874063 -0.1875 4.625 C-1.19780273 4.72167969 -1.19780273 4.72167969 -2.22851562 4.8203125 C-6.37090718 5.14362111 -9.28305109 4.89095265 -13 3 C-13 2.67 -13 2.34 -13 2 C-9.535 1.505 -9.535 1.505 -6 1 C-6 1.66 -6 2.32 -6 3 C-5.38125 2.690625 -4.7625 2.38125 -4.125 2.0625 C-2.75 1.375 -1.375 0.6875 0 0 Z " fill="#C7D63A" transform="translate(621,265)"/>
<path d="M0 0 C0 3 0 3 -1.4609375 4.6484375 C-2.09257812 5.21820313 -2.72421875 5.78796875 -3.375 6.375 C-6.25689736 9.11801074 -7.72903019 11.18709056 -9 15 C-10.625 16.8125 -10.625 16.8125 -12 18 C-12 17.01 -12 16.02 -12 15 C-12.66 14.67 -13.32 14.34 -14 14 C-9.38 9.38 -4.76 4.76 0 0 Z " fill="#5BBCBB" transform="translate(159,155)"/>
<path d="M0 0 C1.65 0.33 3.3 0.66 5 1 C-1.15034169 8.48291572 -1.15034169 8.48291572 -5 11 C-5.33 9.68 -5.66 8.36 -6 7 C-4.68 7 -3.36 7 -2 7 C-1.855625 6.21625 -1.71125 5.4325 -1.5625 4.625 C-1 2 -1 2 0 0 Z " fill="#39A8A8" transform="translate(206,155)"/>
<path d="M0 0 C2.97 0 5.94 0 9 0 C9 0.33 9 0.66 9 1 C6.36 1 3.72 1 1 1 C1.02320313 2.27617187 1.04640625 3.55234375 1.0703125 4.8671875 C1.08906829 6.5364525 1.10726869 8.2057238 1.125 9.875 C1.14175781 10.71675781 1.15851562 11.55851563 1.17578125 12.42578125 C1.18222656 13.23144531 1.18867187 14.03710938 1.1953125 14.8671875 C1.20578613 15.61081543 1.21625977 16.35444336 1.22705078 17.12060547 C1 19 1 19 -1 21 C-3.125 20.625 -3.125 20.625 -5 20 C-4.35546875 19.51015625 -3.7109375 19.0203125 -3.046875 18.515625 C-0.27210723 15.10541423 -0.33199765 11.96915167 -0.25 7.75 C-0.22035156 7.00492188 -0.19070313 6.25984375 -0.16015625 5.4921875 C-0.0897657 3.66203328 -0.04258168 1.83101231 0 0 Z " fill="#D7E16F" transform="translate(528,241)"/>
<path d="M0 0 C1.32 0 2.64 0 4 0 C4 0.66 4 1.32 4 2 C3.071875 2.3403125 3.071875 2.3403125 2.125 2.6875 C-0.61410209 4.37929835 -1.05024472 5.99244161 -2 9 C-3.98 9 -5.96 9 -8 9 C-7.04270084 7.87411986 -6.08412105 6.7493285 -5.125 5.625 C-4.59132813 4.99851563 -4.05765625 4.37203125 -3.5078125 3.7265625 C-2.38567993 2.44163349 -1.20628025 1.20628025 0 0 Z " fill="#DEB34B" transform="translate(78,124)"/>
<path d="M0 0 C7.48291572 6.15034169 7.48291572 6.15034169 10 10 C7.69 10 5.38 10 3 10 C3.33 8.68 3.66 7.36 4 6 C2.35 6 0.7 6 -1 6 C-0.67 4.02 -0.34 2.04 0 0 Z " fill="#D2E053" transform="translate(133,74)"/>
<path d="M0 0 C2.475 0.99 2.475 0.99 5 2 C3.68 2.33 2.36 2.66 1 3 C1.33 3.99 1.66 4.98 2 6 C3.65 5.67 5.3 5.34 7 5 C7.33 6.32 7.66 7.64 8 9 C4.7 8.67 1.4 8.34 -2 8 C-1.34 5.36 -0.68 2.72 0 0 Z " fill="#BDD124" transform="translate(519,260)"/>
<path d="M0 0 C1.32 0.33 2.64 0.66 4 1 C4 3.64 4 6.28 4 9 C2.88625 9.474375 1.7725 9.94875 0.625 10.4375 C-1.26710994 11.25306463 -3.15712709 12.07856355 -5 13 C-4.67 11.68 -4.34 10.36 -4 9 C-2.02 8.67 -0.04 8.34 2 8 C2 6.02 2 4.04 2 2 C1.34 2 0.68 2 0 2 C0 1.34 0 0.68 0 0 Z " fill="#C5DB4A" transform="translate(556,240)"/>
<path d="M0 0 C0.65234375 1.765625 0.65234375 1.765625 1 4 C0.00390625 5.921875 0.00390625 5.921875 -1.4375 7.75 C-1.91058594 8.36359375 -2.38367188 8.9771875 -2.87109375 9.609375 C-3.24363281 10.06828125 -3.61617187 10.5271875 -4 11 C-4.99 10.67 -5.98 10.34 -7 10 C-6.42424336 6.64749299 -5.40693737 5.06181371 -2.9375 2.75 C-2.38964844 2.22921875 -1.84179688 1.7084375 -1.27734375 1.171875 C-0.64505859 0.59179688 -0.64505859 0.59179688 0 0 Z " fill="#33A7AA" transform="translate(144,170)"/>
<path d="M0 0 C0 0.99 0 1.98 0 3 C5.445 2.01 5.445 2.01 11 1 C11.33 2.65 11.66 4.3 12 6 C11.01 6.495 11.01 6.495 10 7 C10 6.01 10 5.02 10 4 C5.71 4 1.42 4 -3 4 C-3.33 3.01 -3.66 2.02 -4 1 C-2 0 -2 0 0 0 Z " fill="#C2D31F" transform="translate(584,259)"/>
<path d="M0 0 C0.66 0.99 1.32 1.98 2 3 C-0.46278801 4.231394 -2.2795055 4.07159196 -5 4 C-5.103125 4.639375 -5.20625 5.27875 -5.3125 5.9375 C-5.539375 6.618125 -5.76625 7.29875 -6 8 C-6.99 8.33 -7.98 8.66 -9 9 C-9 6.69 -9 4.38 -9 2 C-6.03 1.34 -3.06 0.68 0 0 Z " fill="#BFD01C" transform="translate(590,236)"/>
<path d="M0 0 C0.33 0.66 0.66 1.32 1 2 C1.66 2 2.32 2 3 2 C4.4606285 4.64738916 5 5.89448334 5 9 C1.7 9 -1.6 9 -5 9 C-5 8.34 -5 7.68 -5 7 C-2.69 7 -0.38 7 2 7 C2 6.01 2 5.02 2 4 C1.34 4 0.68 4 0 4 C0 2.68 0 1.36 0 0 Z " fill="#C7D35A" transform="translate(686,260)"/>
<path d="M0 0 C2.97 0.495 2.97 0.495 6 1 C5.04578192 2.14926266 4.08647955 3.29430541 3.125 4.4375 C2.59132812 5.07558594 2.05765625 5.71367187 1.5078125 6.37109375 C0 8 0 8 -2 9 C-2.33 7.35 -2.66 5.7 -3 4 C-2.34 3.67 -1.68 3.34 -1 3 C-0.67 2.01 -0.34 1.02 0 0 Z " fill="#30A6AF" transform="translate(166,194)"/>
<path d="M0 0 C2 1.75 2 1.75 4 4 C4 5.32 4 6.64 4 8 C3.34 8 2.68 8 2 8 C1.67 9.32 1.34 10.64 1 12 C-1.22923777 7.67265609 -0.92470553 4.71599818 0 0 Z " fill="#C7DC16" transform="translate(517,252)"/>
<path d="M0 0 C1.14926266 0.95421808 2.29430541 1.91352045 3.4375 2.875 C4.07558594 3.40867187 4.71367187 3.94234375 5.37109375 4.4921875 C7 6 7 6 8 8 C5.69 8.66 3.38 9.32 1 10 C1.020625 8.906875 1.04125 7.81375 1.0625 6.6875 C1.18544452 3.05615809 1.18544452 3.05615809 0 0 Z " fill="#D0DF4D" transform="translate(167,108)"/>
<path d="M0 0 C7.48291572 6.15034169 7.48291572 6.15034169 10 10 C7.625 9.75 7.625 9.75 5 9 C3.6875 6.9375 3.6875 6.9375 3 5 C2.01 5 1.02 5 0 5 C0 3.35 0 1.7 0 0 Z " fill="#D7E368" transform="translate(149,90)"/>
<path d="M0 0 C0.33 0 0.66 0 1 0 C1 2.97 1 5.94 1 9 C2.98 9 4.96 9 7 9 C7.33 8.34 7.66 7.68 8 7 C8.33 7.99 8.66 8.98 9 10 C8 11 8 11 6.15234375 11.09765625 C4.1015625 11.06510417 2.05078125 11.03255208 0 11 C0 7.37 0 3.74 0 0 Z " fill="#C5D24B" transform="translate(462,258)"/>
<path d="M0 0 C0.66 0.99 1.32 1.98 2 3 C1.34 3.66 0.68 4.32 0 5 C-0.64767793 7.57061311 -0.64767793 7.57061311 -1 10 C-3.52588702 7.63707344 -4.88820837 6.33537489 -6 3 C-5.195625 2.87625 -4.39125 2.7525 -3.5625 2.625 C-2.716875 2.41875 -1.87125 2.2125 -1 2 C-0.67 1.34 -0.34 0.68 0 0 Z " fill="#C2D32A" transform="translate(682,256)"/>
<path d="M0 0 C0 0.66 0 1.32 0 2 C-0.598125 2.4125 -1.19625 2.825 -1.8125 3.25 C-4.56819049 5.45455239 -5.46304134 7.85925839 -7 11 C-7.99 11.66 -8.98 12.32 -10 13 C-8.90499334 8.51047268 -5.51962971 0 0 0 Z " fill="#5E5E5E" transform="translate(514,156)"/>
<path d="M0 0 C0.66 1.32 1.32 2.64 2 4 C1.34 4.66 0.68 5.32 0 6 C-0.99 6 -1.98 6 -3 6 C-3.66 5.34 -4.32 4.68 -5 4 C-5.66 3.67 -6.32 3.34 -7 3 C-2.25 0 -2.25 0 0 0 Z " fill="#666666" transform="translate(521,152)"/>
<path d="M0 0 C4.29 0 8.58 0 13 0 C13 0.33 13 0.66 13 1 C11.02 1 9.04 1 7 1 C6.67 1.99 6.34 2.98 6 4 C5.38125 3.79375 4.7625 3.5875 4.125 3.375 C3.42375 3.25125 2.7225 3.1275 2 3 C1.34 3.66 0.68 4.32 0 5 C0 3.35 0 1.7 0 0 Z " fill="#6B6B6B" transform="translate(317,152)"/>
<path d="M0 0 C2.5 1.375 2.5 1.375 5 3 C5 3.66 5 4.32 5 5 C5.9590625 5.433125 5.9590625 5.433125 6.9375 5.875 C9 7 9 7 10 9 C6.21547645 8.47437173 3.73485867 7.73485867 1 5 C0.25 2.3125 0.25 2.3125 0 0 Z " fill="#C9D84E" transform="translate(123,65)"/>
<path d="M0 0 C0.33 1.32 0.66 2.64 1 4 C-2.28696233 4.79953138 -3.71023192 5.09658936 -7 4 C-7 3.01 -7 2.02 -7 1 C-4.50935112 0.31292445 -2.62113708 0 0 0 Z " fill="#BAD10B" transform="translate(527,262)"/>
<path d="M0 0 C2 3 2 3 2 6 C-0.31 6.33 -2.62 6.66 -5 7 C-4.67 6.01 -4.34 5.02 -4 4 C-3.34 4 -2.68 4 -2 4 C-2 3.34 -2 2.68 -2 2 C-1.34 2 -0.68 2 0 2 C0 1.34 0 0.68 0 0 Z " fill="#BBD404" transform="translate(502,258)"/>
<path d="M0 0 C1.53445094 3.06890187 0.54984289 5.70094266 0 9 C-1.98 9.33 -3.96 9.66 -6 10 C-4.93222008 7.86444017 -3.70872563 5.89592279 -2.4375 3.875 C-1.98246094 3.15054688 -1.52742188 2.42609375 -1.05859375 1.6796875 C-0.70925781 1.12539062 -0.35992187 0.57109375 0 0 Z " fill="#CEDD4E" transform="translate(470,235)"/>
<path d="M0 0 C2.97 0.495 2.97 0.495 6 1 C6 1.99 6 2.98 6 4 C9.63 4 13.26 4 17 4 C17 4.33 17 4.66 17 5 C14.91846065 5.13536022 12.83438794 5.23215465 10.75 5.3125 C9.58984375 5.37050781 8.4296875 5.42851562 7.234375 5.48828125 C4 5 4 5 1.578125 2.48046875 C1.05734375 1.66191406 0.5365625 0.84335938 0 0 Z " fill="#B3D54D" transform="translate(155,149)"/>
<path d="M0 0 C1.875 0.3125 1.875 0.3125 4 1 C4.66 1.99 5.32 2.98 6 4 C5 5 5 5 1.4375 5.0625 C0.303125 5.041875 -0.83125 5.02125 -2 5 C-2 4.34 -2 3.68 -2 3 C-1.34 3 -0.68 3 0 3 C0 2.01 0 1.02 0 0 Z " fill="#C1D83A" transform="translate(205,148)"/>
<path d="M0 0 C1.32 0 2.64 0 4 0 C4 0.99 4 1.98 4 3 C6.475 3.99 6.475 3.99 9 5 C8.34 6.65 7.68 8.3 7 10 C6.773125 9.46375 6.54625 8.9275 6.3125 8.375 C4.56617944 5.21499137 2.3597151 2.7323017 0 0 Z " fill="#D5DE43" transform="translate(121,115)"/>
<path d="M0 0 C2.475 0.99 2.475 0.99 5 2 C5 4.64 5 7.28 5 10 C3.02 10.99 3.02 10.99 1 12 C1.09539062 11.38511719 1.19078125 10.77023437 1.2890625 10.13671875 C1.39992188 9.32847656 1.51078125 8.52023437 1.625 7.6875 C1.74101562 6.88699219 1.85703125 6.08648437 1.9765625 5.26171875 C2.21533407 2.71276785 2.21533407 2.71276785 0 0 Z " fill="#C8D64B" transform="translate(496,249)"/>
<path d="M0 0 C1.32 0.33 2.64 0.66 4 1 C3.29875 1.86625 2.5975 2.7325 1.875 3.625 C-0.41942765 6.87555443 -0.41942765 6.87555443 0.75 10.375 C1.36875 11.674375 1.36875 11.674375 2 13 C1.01 12.67 0.02 12.34 -1 12 C-2.11658501 7.31034294 -1.80619523 4.46236469 0 0 Z " fill="#C7D75E" transform="translate(684,246)"/>
<path d="M0 0 C0.33 0 0.66 0 1 0 C0.98839844 0.97582031 0.97679687 1.95164063 0.96484375 2.95703125 C0.95582031 4.22933594 0.94679688 5.50164062 0.9375 6.8125 C0.92589844 8.07707031 0.91429687 9.34164062 0.90234375 10.64453125 C0.83840884 13.99605237 0.83840884 13.99605237 2 17 C1.34 17 0.68 17 0 17 C-1.44869437 14.69913247 -2.06744414 13.48559781 -1.6875 10.75 C-1.460625 9.8425 -1.23375 8.935 -1 8 C-0.62321464 5.33771395 -0.31682102 2.6703486 0 0 Z " fill="#D1DC36" transform="translate(600,237)"/>
<path d="M0 0 C1.31611677 0.95336021 2.62778961 1.91285774 3.9375 2.875 C4.66839844 3.40867188 5.39929688 3.94234375 6.15234375 4.4921875 C8 6 8 6 9 8 C8.01 8 7.02 8 6 8 C5.67 8.66 5.34 9.32 5 10 C5 8.68 5 7.36 5 6 C3.68 5.67 2.36 5.34 1 5 C0.67 3.35 0.34 1.7 0 0 Z " fill="#C0D141" transform="translate(188,130)"/>
<path d="M0 0 C1.14926266 0.95421808 2.29430541 1.91352045 3.4375 2.875 C4.07558594 3.40867187 4.71367187 3.94234375 5.37109375 4.4921875 C7 6 7 6 8 8 C6.68 8.33 5.36 8.66 4 9 C4 8.01 4 7.02 4 6 C3.01 5.67 2.02 5.34 1 5 C0.67 3.35 0.34 1.7 0 0 Z " fill="#D5E266" transform="translate(159,100)"/>
<path d="M0 0 C3 1 3 1 5 4 C8.58357241 4.25015873 8.58357241 4.25015873 12 4 C11.67 4.66 11.34 5.32 11 6 C3.57142857 6.28571429 3.57142857 6.28571429 0 4 C0 2.68 0 1.36 0 0 Z " fill="#C9DB34" transform="translate(485,257)"/>
<path d="M0 0 C3.3 0 6.6 0 10 0 C10.33 0.99 10.66 1.98 11 3 C10.01 3.495 10.01 3.495 9 4 C9 3.01 9 2.02 9 1 C6.56282742 1.27034634 6.56282742 1.27034634 4 2 C3.01 3.485 3.01 3.485 2 5 C1.34 4.67 0.68 4.34 0 4 C0 2.68 0 1.36 0 0 Z " fill="#E6EA53" transform="translate(540,241)"/>
<path d="M0 0 C2.3125 -0.3125 2.3125 -0.3125 5 0 C6.875 2.3125 6.875 2.3125 8 5 C7.67 5.99 7.34 6.98 7 8 C5.83035398 6.8572081 4.66435444 5.71068285 3.5 4.5625 C2.8503125 3.92441406 2.200625 3.28632813 1.53125 2.62890625 C0 1 0 1 0 0 Z " fill="#D66C5D" transform="translate(104,210)"/>
<path d="M0 0 C2.93200474 2.85276137 5.64315404 5.65079784 8 9 C6.0625 8.6875 6.0625 8.6875 4 8 C3.67 7.01 3.34 6.02 3 5 C2.01 4.67 1.02 4.34 0 4 C0 2.68 0 1.36 0 0 Z " fill="#C66C5C" transform="translate(121,174)"/>
<path d="M0 0 C0 1.98 0 3.96 0 6 C0.66 6.33 1.32 6.66 2 7 C-1 7 -1 7 -2.38671875 5.6875 C-3.59114583 4.125 -4.79557292 2.5625 -6 1 C-3.92446352 0.4465236 -2.15634036 0 0 0 Z " fill="#D35842" transform="translate(64,163)"/>
<path d="M0 0 C0.33 0.66 0.66 1.32 1 2 C1.66 2.33 2.32 2.66 3 3 C2.34 3 1.68 3 1 3 C0.67 3.99 0.34 4.98 0 6 C-0.66 5.67 -1.32 5.34 -2 5 C-4.09821215 5.39938767 -4.09821215 5.39938767 -6 6 C-4.95125002 3.37812506 -4.35068687 2.20628639 -1.875 0.75 C-1.25625 0.5025 -0.6375 0.255 0 0 Z " fill="#C6D624" transform="translate(555,240)"/>
<path d="M0 0 C0.66 0.33 1.32 0.66 2 1 C0.76075855 5.95696581 -0.78577758 8.11658466 -5 11 C-4.67 9.35 -4.34 7.7 -4 6 C-3.34 6 -2.68 6 -2 6 C-1.7834375 5.071875 -1.7834375 5.071875 -1.5625 4.125 C-1 2 -1 2 0 0 Z " fill="#C8D634" transform="translate(477,238)"/>
<path d="M0 0 C0 2.87137415 -0.27113266 5.2303041 -1 8 C-1.99 8.495 -1.99 8.495 -3 9 C-4.32 8.34 -5.64 7.68 -7 7 C-4.69 4.69 -2.38 2.38 0 0 Z " fill="#D7A754" transform="translate(69,133)"/>
<path d="M0 0 C-6.39130435 4.26086957 -6.39130435 4.26086957 -10.3125 3.625 C-10.869375 3.41875 -11.42625 3.2125 -12 3 C-7.77050005 0.58314288 -4.87664009 -0.34833144 0 0 Z " fill="#D2DB4D" transform="translate(495,240)"/>
<path d="M0 0 C0.33 0.99 0.66 1.98 1 3 C1.66 3.33 2.32 3.66 3 4 C2.34 4 1.68 4 1 4 C0.67 5.32 0.34 6.64 0 8 C0 7.34 0 6.68 0 6 C-0.66 6 -1.32 6 -2 6 C-2.33 4.35 -2.66 2.7 -3 1 C-2.01 0.67 -1.02 0.34 0 0 Z " fill="#BDD026" transform="translate(457,237)"/>
<path d="M0 0 C3.3 0 6.6 0 10 0 C9.67 1.65 9.34 3.3 9 5 C8.34 4.01 7.68 3.02 7 2 C3.93443402 1.26656572 3.93443402 1.26656572 1 1 C1 1.99 1 2.98 1 4 C0.34 4 -0.32 4 -1 4 C-0.67 2.68 -0.34 1.36 0 0 Z " fill="#CCD963" transform="translate(472,231)"/>
<path d="M0 0 C2.97 1.98 2.97 1.98 6 4 C5.01 4.33 4.02 4.66 3 5 C3 5.66 3 6.32 3 7 C1.68 6.67 0.36 6.34 -1 6 C-0.67 4.02 -0.34 2.04 0 0 Z " fill="#545454" transform="translate(522,189)"/>
<path d="M0 0 C1.32 0.33 2.64 0.66 4 1 C2.50902342 4.7952131 0.24299151 6.61042731 -3 9 C-2.01 6.03 -1.02 3.06 0 0 Z " fill="#11939C" transform="translate(182,178)"/>
<path d="M0 0 C3.91402949 1.26941497 5.79072873 2.51167694 8 6 C5.33333333 5.33333333 2.66666667 4.66666667 0 4 C0 2.68 0 1.36 0 0 Z " fill="#CFDD55" transform="translate(110,53)"/>
<path d="M0 0 C0.66 0.33 1.32 0.66 2 1 C2 2.65 2 4.3 2 6 C1.34 6 0.68 6 0 6 C0 6.66 0 7.32 0 8 C-0.66 8 -1.32 8 -2 8 C-1.125 1.125 -1.125 1.125 0 0 Z " fill="#D3DF16" transform="translate(506,256)"/>
<path d="M0 0 C2.35953094 2.35953094 2.49141413 3.77895617 3 7 C2.01 7 1.02 7 0 7 C0 6.34 0 5.68 0 5 C-1.32 4.67 -2.64 4.34 -4 4 C-3.67 3.34 -3.34 2.68 -3 2 C-2.01 2.33 -1.02 2.66 0 3 C0 2.01 0 1.02 0 0 Z " fill="#CDD717" transform="translate(462,236)"/>
<path d="M0 0 C3.68754757 0.49831724 5.60490662 1.10067643 8 4 C7.67 4.66 7.34 5.32 7 6 C4.525 5.01 4.525 5.01 2 4 C2 3.01 2 2.02 2 1 C1.34 0.67 0.68 0.34 0 0 Z " fill="#CCDB5E" transform="translate(592,231)"/>
<path d="M0 0 C0.66 0 1.32 0 2 0 C0.50902342 3.7952131 -1.75700849 5.61042731 -5 8 C-5 6.35 -5 4.7 -5 3 C-3.35 2.67 -1.7 2.34 0 2 C0 1.34 0 0.68 0 0 Z " fill="#41ADB2" transform="translate(191,173)"/>
<path d="M0 0 C0.33 0.99 0.66 1.98 1 3 C-1.40436026 6.60654039 -2.94679607 6.85452932 -7 8 C-6.02133662 6.85373678 -5.04205413 5.70800212 -4.0625 4.5625 C-3.51722656 3.92441406 -2.97195312 3.28632813 -2.41015625 2.62890625 C-1.63204305 1.73008851 -0.84063472 0.84063472 0 0 Z " fill="#DBAC62" transform="translate(61,141)"/>
<path d="M0 0 C2.31 1.98 4.62 3.96 7 6 C6.34 6.66 5.68 7.32 5 8 C5 7.34 5 6.68 5 6 C3.68 5.67 2.36 5.34 1 5 C0.67 3.35 0.34 1.7 0 0 Z " fill="#D4E05B" transform="translate(175,116)"/>
<path d="M0 0 C2.475 0.495 2.475 0.495 5 1 C5 1.66 5 2.32 5 3 C5.66 3 6.32 3 7 3 C7.33 3.99 7.66 4.98 8 6 C5 6 5 6 3.61328125 4.6875 C2.40885417 3.125 1.20442708 1.5625 0 0 Z " fill="#CE6350" transform="translate(79,185)"/>
<path d="M0 0 C7.50769231 0.61538462 7.50769231 0.61538462 10 2.5625 C10.33 3.036875 10.66 3.51125 11 4 C7.06225823 4.36630156 5.43460229 4.30233203 2.125 2 C1.42375 1.34 0.7225 0.68 0 0 Z " fill="#7E7E7E" transform="translate(370,151)"/>
<path d="M0 0 C2.97 0.495 2.97 0.495 6 1 C6.33 2.98 6.66 4.96 7 7 C5.83040013 6.02433888 4.66438823 5.044375 3.5 4.0625 C2.8503125 3.51722656 2.200625 2.97195312 1.53125 2.41015625 C1.0259375 1.94480469 0.520625 1.47945312 0 1 C0 0.67 0 0.34 0 0 Z " fill="#D0DD5F" transform="translate(134,128)"/>
<path d="M0 0 C1.98 0 3.96 0 6 0 C6 0.66 6 1.32 6 2 C6.66 2.33 7.32 2.66 8 3 C5.36 3 2.72 3 0 3 C0 2.01 0 1.02 0 0 Z " fill="#DC9222" transform="translate(96,124)"/>
<path d="M0 0 C1.32 0 2.64 0 4 0 C4.12375 0.804375 4.2475 1.60875 4.375 2.4375 C4.684375 3.7059375 4.684375 3.7059375 5 5 C5.66 5.33 6.32 5.66 7 6 C4 6 4 6 1.8125 4.125 C0 2 0 2 0 0 Z " fill="#CADA57" transform="translate(115,108)"/>
<path d="M0 0 C1.32 1.32 2.64 2.64 4 4 C3.67 4.66 3.34 5.32 3 6 C0.03 5.505 0.03 5.505 -3 5 C-2.67 4.01 -2.34 3.02 -2 2 C-1.34 2 -0.68 2 0 2 C0 1.34 0 0.68 0 0 Z " fill="#B9D206" transform="translate(615,262)"/>
<path d="M0 0 C0.66 0 1.32 0 2 0 C2 1.32 2 2.64 2 4 C1.34 4 0.68 4 0 4 C0 6.97 0 9.94 0 13 C-0.33 13 -0.66 13 -1 13 C-1.02696365 11.20841511 -1.04637917 9.41671527 -1.0625 7.625 C-1.07410156 6.62726563 -1.08570313 5.62953125 -1.09765625 4.6015625 C-1 2 -1 2 0 0 Z " fill="#C1D01D" transform="translate(469,249)"/>
<path d="M0 0 C0.66 0 1.32 0 2 0 C1.65120368 3.25543229 0.97866739 4.01873107 -1.5625 6.25 C-2.366875 6.8275 -3.17125 7.405 -4 8 C-4.33 7.34 -4.66 6.68 -5 6 C-4.34 6 -3.68 6 -3 6 C-3 5.01 -3 4.02 -3 3 C-2.01 3 -1.02 3 0 3 C0 2.01 0 1.02 0 0 Z " fill="#40A4A5" transform="translate(137,226)"/>
<path d="M0 0 C-1.39332574 3.36720387 -2.9789286 4.9859524 -6 7 C-6 4 -6 4 -4.125 1.8125 C-2 0 -2 0 0 0 Z " fill="#747474" transform="translate(306,195)"/>
<path d="M0 0 C3.37503669 1.1858237 5.64722731 2.27573689 8 5 C7.67 5.99 7.34 6.98 7 8 C5.5 6.625 5.5 6.625 4 5 C4 4.34 4 3.68 4 3 C2.68 2.34 1.36 1.68 0 1 C0 0.67 0 0.34 0 0 Z " fill="#D66456" transform="translate(50,156)"/>
<path d="M0 0 C0.66 0.99 1.32 1.98 2 3 C1.01 3.99 0.02 4.98 -1 6 C-1.99 5.67 -2.98 5.34 -4 5 C-4 4.34 -4 3.68 -4 3 C-2 1.375 -2 1.375 0 0 Z " fill="#C7D62D" transform="translate(620,259)"/>
<path d="M0 0 C0.99 0 1.98 0 3 0 C3 0.99 3 1.98 3 3 C3.99 3 4.98 3 6 3 C6 3.66 6 4.32 6 5 C4.35 5 2.7 5 1 5 C0.67 3.35 0.34 1.7 0 0 Z " fill="#DAE332" transform="translate(624,242)"/>
<path d="M0 0 C-1 3 -1 3 -3 4 C-3 3.01 -3 2.02 -3 1 C-5.64 1 -8.28 1 -11 1 C-11 0.67 -11 0.34 -11 0 C-3.375 -1.125 -3.375 -1.125 0 0 Z " fill="#D4E10F" transform="translate(660,243)"/>
<path d="M0 0 C2.89932357 2.39509338 3.50168276 4.31245243 4 8 C2.68 7.67 1.36 7.34 0 7 C0 4.69 0 2.38 0 0 Z " fill="#CBD649" transform="translate(458,231)"/>
<path d="M0 0 C1.32 0.33 2.64 0.66 4 1 C4 3.64 4 6.28 4 9 C2 6 2 6 2 2 C1.34 2 0.68 2 0 2 C0 1.34 0 0.68 0 0 Z " fill="#CED552" transform="translate(670,230)"/>
<path d="M0 0 C2.0625 0.4375 2.0625 0.4375 4 1 C2.35 2.65 0.7 4.3 -1 6 C-1.042721 4.33388095 -1.04063832 2.66617115 -1 1 C-0.67 0.67 -0.34 0.34 0 0 Z " fill="#36A7AC" transform="translate(141,221)"/>
<path d="M0 0 C0.66 0.66 1.32 1.32 2 2 C1.625 4.625 1.625 4.625 1 7 C0.01 6.67 -0.98 6.34 -2 6 C-2 4.68 -2 3.36 -2 2 C-1.34 2 -0.68 2 0 2 C0 1.34 0 0.68 0 0 Z " fill="#18A1AA" transform="translate(162,198)"/>
<path d="M0 0 C2.64 0.33 5.28 0.66 8 1 C7.67 1.66 7.34 2.32 7 3 C2.52459016 4.26229508 2.52459016 4.26229508 0 3 C0 2.01 0 1.02 0 0 Z " fill="#3B3B3B" transform="translate(376,154)"/>
<path d="M0 0 C0.33 1.32 0.66 2.64 1 4 C-3.75 5.125 -3.75 5.125 -6 4 C-4.02 2.68 -2.04 1.36 0 0 Z " fill="#D39634" transform="translate(76,128)"/>
<path d="M0 0 C-1.75 3.875 -1.75 3.875 -4 5 C-4 3.68 -4 2.36 -4 1 C-4.66 0.67 -5.32 0.34 -6 0 C-3 -1 -3 -1 0 0 Z " fill="#C3A02A" transform="translate(128,125)"/>
<path d="M0 0 C1.98 1.65 3.96 3.3 6 5 C4.125 5.625 4.125 5.625 2 6 C1.34 5.34 0.68 4.68 0 4 C0 2.68 0 1.36 0 0 Z " fill="#D6E25F" transform="translate(143,84)"/>
<path d="M0 0 C1.875 0.3125 1.875 0.3125 4 1 C4.66 1.99 5.32 2.98 6 4 C3.69 4 1.38 4 -1 4 C-0.67 2.68 -0.34 1.36 0 0 Z " fill="#CDDC4A" transform="translate(137,80)"/>
<path d="M0 0 C2.97 0.495 2.97 0.495 6 1 C6 2.65 6 4.3 6 6 C3.97945196 4.35830472 1.97956942 2.69088222 0 1 C0 0.67 0 0.34 0 0 Z " fill="#D57458" transform="translate(112,218)"/>
<path d="M0 0 C1.32 0.66 2.64 1.32 4 2 C1.03 4.475 1.03 4.475 -2 7 C-2 5.68 -2 4.36 -2 3 C-1.01 3 -0.02 3 1 3 C0.67 2.01 0.34 1.02 0 0 Z " fill="#10939A" transform="translate(174,187)"/>
<path d="M0 0 C2.97 0.495 2.97 0.495 6 1 C6 2.65 6 4.3 6 6 C3.97945196 4.35830472 1.97956942 2.69088222 0 1 C0 0.67 0 0.34 0 0 Z " fill="#CDDC5E" transform="translate(145,139)"/>
<path d="M0 0 C0.66 0.66 1.32 1.32 2 2 C0.35 3.32 -1.3 4.64 -3 6 C-3.66 5.67 -4.32 5.34 -5 5 C-3.35 3.35 -1.7 1.7 0 0 Z " fill="#CE840F" transform="translate(72,132)"/>
<path d="M0 0 C0.66 0 1.32 0 2 0 C0.70700306 2.88437779 -0.65941363 4.87219421 -3 7 C-3.33 5.35 -3.66 3.7 -4 2 C-2.68 2 -1.36 2 0 2 C0 1.34 0 0.68 0 0 Z " fill="#CE982B" transform="translate(122,129)"/>
<path d="M0 0 C0.33 0 0.66 0 1 0 C1 2.31 1 4.62 1 7 C0.67 7 0.34 7 0 7 C0 4.69 0 2.38 0 0 Z " fill="#FFFF00" transform="translate(630,256)"/>
<path d="M0 0 C2 1 2 1 2 1 Z " fill="#FFFFBF" transform="translate(590,259)"/>
<path d="M0 0 C2 1 2 1 2 1 Z " fill="#BFFFBF" transform="translate(523,259)"/>
<path d="" fill="#FFFF00" transform="translate(0,0)"/>
</svg>
