<?xml version="1.0" encoding="UTF-8"?>
<svg xmlns="http://www.w3.org/2000/svg" viewBox="0 0 447 447" width="447" height="447">
    <path d="M0.13 0.13C149.04 0.13 297.96 0.13 446.88 0.13C446.88 149.04 446.88 297.96 446.88 446.88C297.96 446.88 149.04 446.88 0.13 446.88C0.13 297.96 0.13 149.04 0.13 0.13ZM127.25 208.47C126.17 197.36 120.25 199.11 110.75 199.13C108.31 199.13 104.22 198.33 102.19 199.75C105.08 207.25 117.65 202.14 122.07 205.25C122.05 208.47 116.19 214.73 114.25 217.91C111.7 216.31 111.04 211.44 107.41 209.33C101.67 206 93.42 208.9 92.97 216.25C92.81 218.97 94.36 220.82 95.01 223.25C91.72 229.63 93.29 235.77 100.41 238.25C100.67 240.2 100.4 242.49 101.43 244.33C104.02 248.96 112.46 247.65 116.75 247.65C119.41 247.64 123.62 248.41 125.68 246.75C118.57 238.98 112.79 244.84 105.89 241.75C105.66 240.84 105.55 240.16 105.99 239.27C107.06 237.1 109.26 235.37 110.76 233.5C112.02 231.92 112.59 229.84 113.75 228.31C115.62 232.54 117.82 237.11 122.59 238.67C128.45 240.6 135.23 235.57 134.78 229.28C134.64 227.32 133.4 225.55 132.77 223.75C135.63 215.73 135.06 212.32 127.25 208.47ZM158.99 200.05C156.61 200.05 154.23 200.05 151.85 200.05C151.85 215.55 151.85 231.05 151.85 246.56C157.4 247.51 170.16 247.94 175.24 245.52C186.16 240.33 188.65 225.1 178.75 217.49C172.47 212.66 165.96 215.33 158.99 213.58C158.99 209.07 158.99 204.56 158.99 200.05ZM264.99 200.05C262.7 200.05 260.42 200.05 258.13 200.05C258.13 215.45 258.13 230.85 258.13 246.25C260.3 247.17 263.18 247.19 265.35 246.25C265.35 243.06 265.35 239.86 265.35 236.67C269.82 237.9 272.79 245.65 276.91 246.77C278.23 247.12 279.89 246.84 281.25 246.84C282.88 246.84 284.34 247.04 285.75 246.33C280.75 240.97 275.75 235.61 270.75 230.25C275.77 224.92 280.8 219.58 285.82 214.25C273.73 210.73 273.93 220.35 265.75 224.23C265.5 216.17 265.24 208.11 264.99 200.05ZM320.06 200.01C309.13 200.01 298.2 200.01 287.27 200.01C287.27 202.37 287.27 204.73 287.27 207.09C295.26 207.09 303.26 207.09 311.25 207.09C303.44 220.33 295.62 233.56 287.81 246.8C290.38 246.8 292.95 246.8 295.52 246.8C302.01 236.87 308.05 226.64 314.3 216.55C317.72 211.04 321.66 206.97 320.06 200.01ZM350.69 223.25C351.16 222.01 352.18 221.24 352.77 220.05C355.04 215.46 354.71 209.64 351.79 205.44C345.69 196.67 325.85 197.64 322.33 208.61C319.86 216.27 323.42 217.86 325.11 223.75C323.37 226.47 322.03 228.42 321.66 231.78C319.57 250.71 351.36 252.51 354.01 236.25C354.93 230.64 352.33 228.02 350.69 223.25ZM334.29 207.19C339.06 206.65 346.66 206.32 347.07 212.75C347.17 214.48 346.98 216.21 345.81 217.57C342.81 221.09 332.29 221.15 329.6 217.15C326.89 213.13 329.76 207.71 334.29 207.19ZM108.88 219.75C105.57 220.79 95.83 221.13 98.28 215.02C101.04 208.16 107.59 216.61 108.88 219.75ZM119.25 220.66C119.35 216.67 127.14 208.8 129.85 215.37C132.43 221.65 122.89 221.2 119.25 220.66ZM219.26 214.25C216 213.64 212.56 213.93 209.25 213.91C198.33 213.84 186.61 216.26 185.88 229.75C185.44 238.02 192.4 245.64 200.35 246.79C203.21 247.21 206.36 246.86 209.25 246.86C212.37 246.86 216.4 247.53 219.26 246.25C219.26 235.58 219.26 224.92 219.26 214.25ZM221.94 214.04C221.94 224.95 221.94 235.85 221.94 246.76C224.21 246.76 226.48 246.76 228.75 246.76C229.88 238.75 225.09 220.87 238.25 220.87C253.05 220.88 244.65 239.55 248.25 246.81C250.25 246.81 252.25 246.81 254.25 246.81C255.24 243.83 254.8 240.38 254.8 237.25C254.8 227.42 253.53 216.9 242.17 214.15C237.21 212.94 233.8 215.12 229.25 215.87C228.2 212.82 224.67 213.82 221.94 214.04ZM159.03 239.53C159.03 233.44 159.03 227.34 159.03 221.25C163.3 220.75 169.1 220.23 173.05 222.23C178.75 225.12 179.46 233.78 174.45 237.7C170.87 240.49 163.25 240.45 159.03 239.53ZM212.01 221.38C212.01 227.37 212.01 233.36 212.01 239.35C208.5 239.94 203.42 240.27 199.94 239.29C192.9 237.32 191.1 228.01 196.58 223.33C200.3 220.15 207.51 220.35 212.01 221.38ZM108.79 226.25C107.77 229.67 100.86 238.15 98.2 231.1C95.93 225.11 105.44 225.53 108.79 226.25ZM119.22 226.75C122.14 226.65 131.99 225.66 129.65 231.38C126.92 238.06 119.42 231.05 119.22 226.75ZM333.38 227.17C338.45 225.89 347.08 226.42 347.06 233.25C347.06 234.89 346.74 236.6 345.61 237.87C342.88 240.92 332.68 240.78 330.07 237.66C327.08 234.1 329 228.28 333.38 227.17Z" fill="#141414" fill-rule="evenodd" stroke="#141414" stroke-width="0.25" stroke-linejoin="round"/>
    <path d="M127.25 208.47C135.06 212.32 135.63 215.73 132.77 223.75C133.4 225.55 134.64 227.32 134.78 229.28C135.23 235.57 128.45 240.6 122.59 238.67C117.82 237.11 115.62 232.54 113.75 228.31C112.59 229.84 112.02 231.92 110.76 233.5C109.26 235.37 107.06 237.1 105.99 239.27C105.55 240.16 105.66 240.84 105.89 241.75C112.79 244.84 118.57 238.98 125.68 246.75C123.62 248.41 119.41 247.64 116.75 247.65C112.46 247.65 104.02 248.96 101.43 244.33C100.4 242.49 100.67 240.2 100.41 238.25C93.29 235.77 91.72 229.63 95.01 223.25C94.36 220.82 92.81 218.97 92.97 216.25C93.42 208.9 101.67 206 107.41 209.33C111.04 211.44 111.7 216.31 114.25 217.91C116.19 214.73 122.05 208.47 122.07 205.25C117.65 202.14 105.08 207.25 102.19 199.75C104.22 198.33 108.31 199.13 110.75 199.13C120.25 199.11 126.17 197.36 127.25 208.47ZM158.99 200.05C158.99 204.56 158.99 209.07 158.99 213.58C165.96 215.33 172.47 212.66 178.75 217.49C188.65 225.1 186.16 240.33 175.24 245.52C170.16 247.94 157.4 247.51 151.85 246.56C151.85 231.05 151.85 215.55 151.85 200.05C154.23 200.05 156.61 200.05 158.99 200.05ZM264.99 200.05C265.24 208.11 265.5 216.17 265.75 224.23C273.93 220.35 273.73 210.73 285.82 214.25C280.8 219.58 275.77 224.92 270.75 230.25C275.75 235.61 280.75 240.97 285.75 246.33C284.34 247.04 282.88 246.84 281.25 246.84C279.89 246.84 278.23 247.12 276.91 246.77C272.79 245.65 269.82 237.9 265.35 236.67C265.35 239.86 265.35 243.06 265.35 246.25C263.18 247.19 260.3 247.17 258.13 246.25C258.13 230.85 258.13 215.45 258.13 200.05C260.42 200.05 262.7 200.05 264.99 200.05ZM320.06 200.01C321.66 206.97 317.72 211.04 314.3 216.55C308.05 226.64 302.01 236.87 295.52 246.8C292.95 246.8 290.38 246.8 287.81 246.8C295.62 233.56 303.44 220.33 311.25 207.09C303.26 207.09 295.26 207.09 287.27 207.09C287.27 204.73 287.27 202.37 287.27 200.01C298.2 200.01 309.13 200.01 320.06 200.01ZM350.69 223.25C352.33 228.02 354.93 230.64 354.01 236.25C351.36 252.51 319.57 250.71 321.66 231.78C322.03 228.42 323.37 226.47 325.11 223.75C323.42 217.86 319.86 216.27 322.33 208.61C325.85 197.64 345.69 196.67 351.79 205.44C354.71 209.64 355.04 215.46 352.77 220.05C352.18 221.24 351.16 222.01 350.69 223.25ZM334.29 207.19C329.76 207.71 326.89 213.13 329.6 217.15C332.29 221.15 342.81 221.09 345.81 217.57C346.98 216.21 347.17 214.48 347.07 212.75C346.66 206.32 339.06 206.65 334.29 207.19ZM108.88 219.75C107.59 216.61 101.04 208.16 98.28 215.02C95.83 221.13 105.57 220.79 108.88 219.75ZM119.25 220.66C122.89 221.2 132.43 221.65 129.85 215.37C127.14 208.8 119.35 216.67 119.25 220.66ZM219.26 214.25C219.26 224.92 219.26 235.58 219.26 246.25C216.4 247.53 212.37 246.86 209.25 246.86C206.36 246.86 203.21 247.21 200.35 246.79C192.4 245.64 185.44 238.02 185.88 229.75C186.61 216.26 198.33 213.84 209.25 213.91C212.56 213.93 216 213.64 219.26 214.25ZM221.94 214.04C224.67 213.82 228.2 212.82 229.25 215.87C233.8 215.12 237.21 212.94 242.17 214.15C253.53 216.9 254.8 227.42 254.8 237.25C254.8 240.38 255.24 243.83 254.25 246.81C252.25 246.81 250.25 246.81 248.25 246.81C244.65 239.55 253.05 220.88 238.25 220.87C225.09 220.87 229.88 238.75 228.75 246.76C226.48 246.76 224.21 246.76 221.94 246.76C221.94 235.85 221.94 224.95 221.94 214.04ZM159.03 239.53C163.25 240.45 170.87 240.49 174.45 237.7C179.46 233.78 178.75 225.12 173.05 222.23C169.1 220.23 163.3 220.75 159.03 221.25C159.03 227.34 159.03 233.44 159.03 239.53ZM212.01 221.38C207.51 220.35 200.3 220.15 196.58 223.33C191.1 228.01 192.9 237.32 199.94 239.29C203.42 240.27 208.5 239.94 212.01 239.35C212.01 233.36 212.01 227.37 212.01 221.38ZM108.79 226.25C105.44 225.53 95.93 225.11 98.2 231.1C100.86 238.15 107.77 229.67 108.79 226.25ZM119.22 226.75C119.42 231.05 126.92 238.06 129.65 231.38C131.99 225.66 122.14 226.65 119.22 226.75ZM333.38 227.17C329 228.28 327.08 234.1 330.07 237.66C332.68 240.78 342.88 240.92 345.61 237.87C346.74 236.6 347.06 234.89 347.06 233.25C347.08 226.42 338.45 225.89 333.38 227.17Z" fill="#b3f5ec" fill-rule="evenodd" stroke="#b3f5ec" stroke-width="0.25" stroke-linejoin="round"/>
</svg>