<svg id="Layer_1" data-name="Layer 1" xmlns="http://www.w3.org/2000/svg" viewBox="0 0 1500 1500" xmlns:xlink="http://www.w3.org/1999/xlink">
 <defs>
  <style>
   .cls-1{fill:#422466;}
  </style>
 </defs>
 <title>
  Kudabank_Logo-09
 </title>
 <path class="cls-1" d="M842.73,707.47v152H798.66V837.27a48.71,48.71,0,0,1-18.88,18.29,54.74,54.74,0,0,1-26.38,6.3q-28.49,0-42.57-15.89t-14.09-48V707.47H742V798.9q0,27.58,23.69,27.58,14.09,0,22.78-9.59t8.7-25.18V707.47Z">
 </path>
 <path class="cls-1" d="M1015.58,638.14V859.46H970.92V837a47.82,47.82,0,0,1-19.49,18.29,60.56,60.56,0,0,1-28.48,6.6,61.92,61.92,0,0,1-34.78-10.05q-15.28-10-23.83-28.18t-8.54-41.52q0-23.39,8.54-41.22T888,713.31q15.13-9.73,34.93-9.74A60.39,60.39,0,0,1,950.83,710a47.6,47.6,0,0,1,19.49,17.84V638.14Zm-53.66,177.7q9-11.54,9-33.13,0-21.29-9.15-32.82t-25.63-11.55q-16.8,0-26.08,11.4t-9.3,32.37q0,21.58,9.3,33.43t26.08,11.84Q952.93,827.38,961.92,815.84Z">
 </path>
 <path class="cls-1" d="M1188.43,707.47v152h-44.67V837a47.79,47.79,0,0,1-19.48,18.29,60.56,60.56,0,0,1-28.48,6.6q-19.79,0-34.93-9.6t-23.68-27.43q-8.55-17.83-8.54-41.22t8.54-41.67q8.55-18.29,23.83-28.33a62,62,0,0,1,34.78-10,58.4,58.4,0,0,1,28.48,6.89,50,50,0,0,1,19.48,18.59V707.47ZM1134.77,816q9-11.38,9-33t-9-33.12q-9-11.55-25.78-11.55t-26.08,12q-9.3,12-9.3,33.27t9.15,32.53q9.13,11.24,26.23,11.24Q1125.78,827.38,1134.77,816Z">
 </path>
 <path class="cls-1" d="M687.56,861.6H631.39L571,792.68V861.6H525.12V638.14H571V773.86L628.66,708h55l-65.28,73.77Z">
 </path>
 <polygon class="cls-1" points="399.52 861.68 311.55 760.42 359.6 861.68 326.29 861.68 277.29 758.44 297.66 861.68 277.2 861.68 256.81 758.28 256.81 861.68 248.78 861.68 248.78 638.14 256.81 638.14 256.81 749.67 277.48 638.14 297.88 638.14 277.12 750.15 327.08 638.14 360.02 638.14 310.26 749.74 400.62 638.14 452.25 638.14 358.78 753.59 452.69 861.68 399.52 861.68">
 </polygon>
 <circle class="cls-1" cx="1226.4" cy="834.4" r="24.82">
 </circle>
</svg>