<?xml version="1.0" encoding="UTF-8"?>
<svg version="1.1" xmlns="http://www.w3.org/2000/svg" width="500" height="500">
<path d="M0 0 C2.69464125 1.47807326 5.20100832 3.0699153 7.71484375 4.8359375 C8.96118184 5.61267774 10.2110173 6.38384397 11.46484375 7.1484375 C12.09132813 7.54804687 12.7178125 7.94765625 13.36328125 8.359375 C16.57756495 10.37764616 19.83335829 12.32420351 23.08984375 14.2734375 C23.75040771 14.66909912 24.41097168 15.06476074 25.09155273 15.47241211 C27.81777688 17.10449947 30.54515264 18.73464097 33.2734375 20.36328125 C34.79079772 21.27054169 36.30639466 22.18075696 37.8203125 23.09375 C39.50747299 24.10923391 41.19627995 25.12200985 42.88916016 26.12792969 C45.37686529 27.60710572 47.85854205 29.09604929 50.33984375 30.5859375 C51.1594458 31.07046387 51.97904785 31.55499023 52.82348633 32.05419922 C53.5842749 32.5132666 54.34506348 32.97233398 55.12890625 33.4453125 C56.1645874 34.0635791 56.1645874 34.0635791 57.22119141 34.69433594 C57.71409668 35.07106445 58.20700195 35.44779297 58.71484375 35.8359375 C58.71484375 36.4959375 58.71484375 37.1559375 58.71484375 37.8359375 C59.37484375 37.8359375 60.03484375 37.8359375 60.71484375 37.8359375 C62.0390625 39.41015625 62.0390625 39.41015625 63.40234375 41.5234375 C63.85996094 42.20792969 64.31757813 42.89242187 64.7890625 43.59765625 C66.01121201 46.55247341 65.82151089 47.84332511 64.71484375 50.8359375 C62.640625 53.265625 62.640625 53.265625 60.02734375 55.7109375 C56.52777395 59.06593818 53.22551433 62.41117139 50.1640625 66.16796875 C48.12979536 68.50929508 45.91430906 70.64904941 43.71484375 72.8359375 C42.32144775 74.22147827 42.32144775 74.22147827 40.89990234 75.63500977 C40.16421524 76.36585533 40.16421524 76.36585533 39.41366577 77.11146545 C37.21434767 79.29729837 35.01778237 81.48588951 32.82128906 83.67456055 C31.66429846 84.8264938 30.50641606 85.977532 29.34765625 87.12768555 C27.66298894 88.80020381 25.98159003 90.47594898 24.30078125 92.15234375 C23.52726822 92.91811485 23.52726822 92.91811485 22.73812866 93.69935608 C20.65931378 95.77784665 18.72927773 97.81622006 16.99072266 100.19116211 C16.3591626 101.00532593 16.3591626 101.00532593 15.71484375 101.8359375 C15.05484375 101.8359375 14.39484375 101.8359375 13.71484375 101.8359375 C13.46951904 102.4021582 13.22419434 102.96837891 12.97143555 103.55175781 C10.39874485 108.2282867 6.24319109 111.80587942 2.52734375 115.5859375 C1.68880859 116.47410156 0.85027344 117.36226563 -0.01367188 118.27734375 C-0.83931641 119.11652344 -1.66496094 119.95570313 -2.515625 120.8203125 C-3.26223389 121.59084961 -4.00884277 122.36138672 -4.77807617 123.15527344 C-8.20776813 125.45442617 -10.23315906 125.44548024 -14.28515625 124.8359375 C-16.91235352 122.97167969 -16.91235352 122.97167969 -19.3515625 120.3828125 C-20.24939453 119.45339844 -21.14722656 118.52398437 -22.07226562 117.56640625 C-22.99835255 116.57380841 -23.92347594 115.58031077 -24.84765625 114.5859375 C-26.67430343 112.65619631 -28.51203492 110.73786462 -30.3515625 108.8203125 C-31.15537354 107.96147461 -31.95918457 107.10263672 -32.78735352 106.21777344 C-35.47817561 103.65187956 -38.14363547 101.80661847 -41.28515625 99.8359375 C-41.97351563 100.63257813 -41.97351563 100.63257813 -42.67578125 101.4453125 C-43.289375 102.15171875 -43.90296875 102.858125 -44.53515625 103.5859375 C-45.169375 104.318125 -45.80359375 105.0503125 -46.45703125 105.8046875 C-48.28515625 107.8359375 -48.28515625 107.8359375 -50.78515625 110.0859375 C-52.51564486 111.72069319 -52.51564486 111.72069319 -52.28515625 113.9609375 C-50.9987698 116.37291209 -49.70527007 116.64001548 -47.28515625 117.8359375 C-45.70800781 119.11010742 -45.70800781 119.11010742 -44.17578125 120.56640625 C-43.59393066 121.11538574 -43.01208008 121.66436523 -42.41259766 122.22998047 C-41.79304199 122.82182129 -41.17348633 123.41366211 -40.53515625 124.0234375 C-39.88337402 124.6333252 -39.2315918 125.24321289 -38.56005859 125.87158203 C-34.99270714 129.21783423 -31.49523493 132.61724127 -28.05859375 136.09765625 C-27.01783691 137.12886597 -27.01783691 137.12886597 -25.95605469 138.1809082 C-24.6204967 139.50610685 -23.3023704 140.84917495 -22.00488281 142.21166992 C-18.59661085 145.55981163 -16.34139957 147.25155561 -11.4609375 147.375 C-8.20039051 147.21344938 -7.47327189 146.99028879 -4.84765625 144.8359375 C-4.07421875 143.8459375 -4.07421875 143.8459375 -3.28515625 142.8359375 C-2.62515625 142.8359375 -1.96515625 142.8359375 -1.28515625 142.8359375 C-1.01703125 142.1965625 -0.74890625 141.5571875 -0.47265625 140.8984375 C0.71484375 138.8359375 0.71484375 138.8359375 3.71484375 137.8359375 C3.98941406 137.27390625 4.26398438 136.711875 4.546875 136.1328125 C6.21132107 132.85958746 8.78563739 130.60041941 11.40234375 128.0859375 C15.54457457 124.03266735 19.50119509 119.91939622 23.265625 115.5078125 C25.29904706 113.16197788 27.49146907 111.00080232 29.71484375 108.8359375 C30.58109375 107.9284375 31.44734375 107.0209375 32.33984375 106.0859375 C34.71484375 103.8359375 34.71484375 103.8359375 37.71484375 102.8359375 C38.40622818 101.51525215 39.06953065 100.17973556 39.71484375 98.8359375 C40.89748372 97.54183032 42.13191007 96.29397267 43.40234375 95.0859375 C46.15425021 92.41336528 48.73970057 89.70377942 51.21484375 86.7734375 C54.20995729 83.27569571 57.47051 80.31111335 61.015625 77.37890625 C62.94752929 75.75025767 62.94752929 75.75025767 64.71484375 72.8359375 C65.70484375 72.8359375 66.69484375 72.8359375 67.71484375 72.8359375 C67.79045296 78.17058712 67.76988629 83.50132248 67.71484375 88.8359375 C67.70372559 89.95613281 67.69260742 91.07632813 67.68115234 92.23046875 C67.63153273 95.99554465 67.55110281 99.75903448 67.46484375 103.5234375 C67.45074463 104.73346436 67.43664551 105.94349121 67.42211914 107.19018555 C67.14015628 117.54405865 65.98215401 128.68539457 58.38818359 136.41748047 C55.44964541 138.90842107 52.34169307 140.94481226 49.02734375 142.8984375 C48.32109863 143.32761475 47.61485352 143.75679199 46.88720703 144.19897461 C42.1670391 147.0447212 37.35793481 149.69628112 32.48828125 152.27734375 C28.51565297 154.50984894 24.73450042 157.01372019 20.92333984 159.50878906 C16.41822997 162.43766943 11.7996619 165.05116479 7.04296875 167.5546875 C4.4932954 168.89969004 4.4932954 168.89969004 1.46484375 171.1484375 C-4.85950791 175.02928966 -12.97744961 174.32395979 -20.09765625 173.2734375 C-24.67217817 172.00323044 -28.3132421 169.44322645 -32.23046875 166.828125 C-35.50848051 164.69029124 -38.87339985 162.74826547 -42.28515625 160.8359375 C-47.4490764 157.92678497 -52.46214289 154.84349779 -57.43359375 151.6171875 C-60.10719793 149.9471005 -62.82543358 148.38807235 -65.57983398 146.85571289 C-75.05463728 141.57676753 -85.03306235 135.77084239 -90.28515625 125.8359375 C-89.88814345 122.17149513 -88.27478511 120.48209469 -85.6796875 117.97265625 C-84.94298828 117.25013672 -84.20628906 116.52761719 -83.44726562 115.78320312 C-82.67189453 115.03748047 -81.89652344 114.29175781 -81.09765625 113.5234375 C-76.38948774 108.95173765 -71.76047279 104.42161615 -67.58081055 99.35473633 C-66.21208761 97.75028459 -64.85957684 96.24135993 -63.28515625 94.8359375 C-62.62515625 94.8359375 -61.96515625 94.8359375 -61.28515625 94.8359375 C-61.06077881 94.28486328 -60.83640137 93.73378906 -60.60522461 93.16601562 C-58.87537844 90.11263078 -56.66794959 88.01343421 -54.1640625 85.5546875 C-53.66349838 85.05932495 -53.16293427 84.5639624 -52.64720154 84.05358887 C-51.05205019 82.47619024 -49.45036555 80.90565339 -47.84765625 79.3359375 C-46.24938989 77.76538117 -44.65264204 76.19335546 -43.05882263 74.61828613 C-41.61092633 73.1881689 -40.15824599 71.76289999 -38.70532227 70.33789062 C-36.2930844 67.95853394 -36.2930844 67.95853394 -34.58178711 65.50585938 C-34.15389893 64.95478516 -33.72601074 64.40371094 -33.28515625 63.8359375 C-32.62515625 63.8359375 -31.96515625 63.8359375 -31.28515625 63.8359375 C-31.07117188 63.30484375 -30.8571875 62.77375 -30.63671875 62.2265625 C-28.7642102 58.91449535 -26.28227659 56.30565537 -23.66015625 53.5859375 C-23.16386719 53.03164062 -22.66757813 52.47734375 -22.15625 51.90625 C-19.45144659 49.11197472 -17.3034168 47.41815898 -13.35546875 47.03515625 C-8.00728854 47.45539778 -5.18900736 51.10258733 -1.78515625 54.8984375 C-0.48233075 56.28040358 0.8223379 57.66063453 2.12890625 59.0390625 C2.74540039 59.69970703 3.36189453 60.36035156 3.99707031 61.04101562 C6.62304434 63.78492709 9.46798188 66.2232657 12.39453125 68.63671875 C13.71484375 69.8359375 13.71484375 69.8359375 14.71484375 71.8359375 C18.53729025 71.29709042 19.95008393 69.78365886 22.33984375 66.8359375 C25.53961716 62.92355079 25.53961716 62.92355079 27.71484375 61.8359375 C28.36697667 59.81130495 28.36697667 59.81130495 28.71484375 57.8359375 C28.07546875 57.5678125 27.43609375 57.2996875 26.77734375 57.0234375 C24.71484375 55.8359375 24.71484375 55.8359375 23.71484375 52.8359375 C22.97234375 52.5471875 22.22984375 52.2584375 21.46484375 51.9609375 C17.97344092 50.53263634 16.28803593 48.59292912 13.71484375 45.8359375 C9.50184997 41.49872769 5.1530077 37.41714245 0.5703125 33.47265625 C-1.82017091 31.36399825 -4.03186174 29.08923201 -6.28515625 26.8359375 C-9.77384276 24.51014649 -11.18234144 24.41728293 -15.28515625 24.8359375 C-17.51259412 26.25571659 -17.51259412 26.25571659 -19.28515625 27.8359375 C-19.94515625 27.8359375 -20.60515625 27.8359375 -21.28515625 27.8359375 C-21.55328125 28.4753125 -21.82140625 29.1146875 -22.09765625 29.7734375 C-23.28515625 31.8359375 -23.28515625 31.8359375 -26.28515625 32.8359375 C-26.98480114 34.15226544 -27.64816598 35.48817431 -28.28515625 36.8359375 C-29.765625 38.4765625 -29.765625 38.4765625 -31.47265625 40.0859375 C-34.0841748 42.61601576 -36.53547754 45.20693375 -38.91015625 47.9609375 C-41.58270035 51.05703212 -44.35292038 53.98086573 -47.28515625 56.8359375 C-48.58453125 58.1971875 -48.58453125 58.1971875 -49.91015625 59.5859375 C-52.28515625 61.8359375 -52.28515625 61.8359375 -55.28515625 62.8359375 C-55.97654068 64.15662285 -56.63984315 65.49213944 -57.28515625 66.8359375 C-58.46779622 68.13004468 -59.70222257 69.37790233 -60.97265625 70.5859375 C-63.72456271 73.25850972 -66.31001307 75.96809558 -68.78515625 78.8984375 C-71.70481601 82.30249536 -74.87411152 85.14912856 -78.30078125 88.03125 C-81.0468699 90.52867708 -83.33719543 93.33340423 -85.64453125 96.234375 C-87.52887809 98.07385643 -88.75863973 98.30345756 -91.28515625 98.8359375 C-91.34861072 88.16875368 -91.35457088 77.50309804 -91.28515625 66.8359375 C-91.27935547 65.83836426 -91.27355469 64.84079102 -91.26757812 63.81298828 C-91.16405647 54.85318935 -90.46898235 47.41229872 -85.28515625 39.8359375 C-84.56328125 38.7634375 -83.84140625 37.6909375 -83.09765625 36.5859375 C-77.88933379 31.49335554 -71.41097826 28.43704132 -65.03515625 25.0234375 C-60.00590025 22.31701584 -55.25821726 19.28130357 -50.48413086 16.1574707 C-46.09212945 13.30312133 -41.59249243 10.76598419 -36.9609375 8.31640625 C-33.04909785 6.15204534 -29.33020581 3.71152973 -25.59765625 1.25390625 C-18.73141578 -2.95630539 -7.48602687 -2.65259929 0 0 Z M-21.53515625 77.5859375 C-22.0765625 78.13765625 -22.61796875 78.689375 -23.17578125 79.2578125 C-25.55963316 81.73701848 -27.18569998 83.53756868 -28.28515625 86.8359375 C-26.04536057 90.07370261 -26.04536057 90.07370261 -23.28515625 92.8359375 C-22.62515625 92.8359375 -21.96515625 92.8359375 -21.28515625 92.8359375 C-20.88296875 93.795 -20.88296875 93.795 -20.47265625 94.7734375 C-19.39847873 97.16725436 -19.39847873 97.16725436 -16.28515625 97.8359375 C-16.28515625 98.4959375 -16.28515625 99.1559375 -16.28515625 99.8359375 C-15.29515625 100.1659375 -14.30515625 100.4959375 -13.28515625 100.8359375 C-10.32612954 98.86114995 -7.86154425 96.28156897 -5.28515625 93.8359375 C-4.66125 93.29839844 -4.03734375 92.76085937 -3.39453125 92.20703125 C-1.49633207 90.57723497 -1.49633207 90.57723497 0.71484375 87.8359375 C0.61215991 83.08088591 -1.76248452 80.81987939 -5.03515625 77.5859375 C-5.89625 76.71453125 -6.75734375 75.843125 -7.64453125 74.9453125 C-13.86374861 69.97729863 -16.58661956 72.24928029 -21.53515625 77.5859375 Z " fill="#602582" transform="translate(261.28515625,102.1640625)"/>
<path d="M0 0 C7.88746469 -0.10522855 15.77234698 -0.20534864 23.65990448 -0.25875092 C27.33388189 -0.2850162 31.00727055 -0.32003646 34.6809082 -0.37719727 C38.22768566 -0.43203083 41.77389687 -0.46152651 45.3210659 -0.47438622 C47.31452003 -0.48794948 49.30775031 -0.52689891 51.30085754 -0.56648254 C60.03261872 -0.56914092 67.73106321 0.67865599 74.67329407 6.37236023 C80.54093069 12.74168191 81.44546584 20.32070745 81.29296875 28.53125 C81.28872391 29.40777222 81.28447906 30.28429443 81.28010559 31.18737793 C81.2634513 33.95857823 81.22582509 36.72902336 81.1875 39.5 C81.17243599 41.39061442 81.1587506 43.28124036 81.14648438 45.171875 C81.11359139 49.78153639 81.06190255 54.39064062 81 59 C76.38 59 71.76 59 67 59 C66.98541748 57.87505127 66.97083496 56.75010254 66.95581055 55.59106445 C66.89772246 51.40682613 66.82049036 47.22312003 66.73754883 43.03930664 C66.70434886 41.23047542 66.67630159 39.42154182 66.65356445 37.61254883 C66.61992742 35.00818367 66.56760805 32.4047524 66.51171875 29.80078125 C66.50532883 28.99538406 66.4989389 28.18998688 66.49235535 27.36018372 C66.47256119 26.5997728 66.45276703 25.83936188 66.43237305 25.0559082 C66.42126999 24.39194534 66.41016693 23.72798248 66.39872742 23.04389954 C65.99248914 20.34376668 65.99248914 20.34376668 63 16 C58.05 15.67 53.1 15.34 48 15 C48 29.52 48 44.04 48 59 C43.05 59 38.1 59 33 59 C33 44.48 33 29.96 33 15 C26.4 15 19.8 15 13 15 C13 29.52 13 44.04 13 59 C8.71 59 4.42 59 0 59 C0 39.53 0 20.06 0 0 Z " fill="#737372" transform="translate(192,316)"/>
<path d="M0 0 C10.085625 -0.1546875 10.085625 -0.1546875 20.375 -0.3125 C23.52748291 -0.38078003 23.52748291 -0.38078003 26.74365234 -0.45043945 C45.77452991 -0.69136344 45.77452991 -0.69136344 53.5793457 6.44384766 C60.49354762 14.04785401 60.51945006 21.56315779 60.5 31.3125 C60.52835937 32.59318359 60.55671875 33.87386719 60.5859375 35.19335938 C60.60488743 44.39828848 59.33929352 50.55989511 52.83520508 57.21508789 C49.15508079 59.53192149 46.06231579 59.50802671 41.85546875 59.390625 C41.08568192 59.38496521 40.31589508 59.37930542 39.52278137 59.37347412 C37.07704057 59.35117872 34.6327939 59.30099875 32.1875 59.25 C30.52410978 59.229926 28.86069647 59.2116768 27.19726562 59.1953125 C23.13047928 59.15474605 19.06690111 59.07645349 15 59 C15 66.59 15 74.18 15 82 C10.05 82 5.1 82 0 82 C0 54.94 0 27.88 0 0 Z M15 15 C15 25.89 15 36.78 15 48 C20.259375 48.0928125 20.259375 48.0928125 25.625 48.1875 C26.71893066 48.21481201 27.81286133 48.24212402 28.93994141 48.27026367 C34.35246716 48.31643547 38.39420255 48.19722832 43 45 C45.89591497 40.65612755 45.40641314 36.73706174 45.4375 31.625 C45.47037109 30.67882812 45.50324219 29.73265625 45.53710938 28.7578125 C45.57385714 24.00064745 45.58727337 21.75820335 42.59765625 17.8984375 C38.94953246 15.23228988 37.23863974 14.87780967 32.7734375 14.90234375 C31.3800415 14.90609009 31.3800415 14.90609009 29.95849609 14.90991211 C28.77594238 14.91901611 27.59338867 14.92812012 26.375 14.9375 C22.62125 14.958125 18.8675 14.97875 15 15 Z " fill="#737371" transform="translate(284,316)"/>
<path d="M0 0 C10.085625 -0.1546875 10.085625 -0.1546875 20.375 -0.3125 C23.52748291 -0.38078003 23.52748291 -0.38078003 26.74365234 -0.45043945 C37.49195381 -0.5858096 46.16246003 -0.53030103 54.375 7.25 C59.19779618 15.41165508 60.65973495 21.92563412 60.5625 31.4375 C60.59827148 33.03948242 60.59827148 33.03948242 60.63476562 34.67382812 C60.618365 43.62310458 58.62530891 50.25201902 52.33764648 56.75244141 C48.7504342 59.59259145 45.19092679 59.64401304 40.7578125 59.48828125 C39.98944061 59.48120651 39.22106873 59.47413177 38.42941284 59.46684265 C35.99358583 59.43902296 33.56012296 59.37631602 31.125 59.3125 C29.46617922 59.2874007 27.80732212 59.26459039 26.1484375 59.24414062 C22.09733198 59.19350181 18.05128718 59.09564949 14 59 C14 66.59 14 74.18 14 82 C9.38 82 4.76 82 0 82 C0 54.94 0 27.88 0 0 Z M14 15 C13.97534608 19.53897705 13.95716211 24.07791543 13.94506836 28.61694336 C13.9400286 30.16219766 13.9331968 31.70744716 13.92456055 33.25268555 C13.91247924 35.46925029 13.90676827 37.68575218 13.90234375 39.90234375 C13.89718246 40.5971434 13.89202118 41.29194305 13.88670349 42.00779724 C13.88650723 43.6722933 13.93810871 45.33665499 14 47 C16.33811628 49.33811628 22.11121687 48.18541581 25.25 48.1875 C26.68279297 48.20586914 26.68279297 48.20586914 28.14453125 48.22460938 C34.56223492 48.23799819 38.58715206 47.60856529 44 44 C45.37304046 39.88087862 45.3033389 36.00345265 45.375 31.6875 C45.41238281 30.84509766 45.44976562 30.00269531 45.48828125 29.13476562 C45.54884394 24.83145001 45.40482258 21.89994405 42.6640625 18.45703125 C38.98744353 15.06613194 36.49164156 14.87573679 31.67578125 14.90234375 C30.64775391 14.90556641 29.61972656 14.90878906 28.56054688 14.91210938 C26.95276367 14.92467773 26.95276367 14.92467773 25.3125 14.9375 C23.68731445 14.94426758 23.68731445 14.94426758 22.02929688 14.95117188 C19.35280915 14.96296257 16.67643223 14.97941937 14 15 Z " fill="#71716F" transform="translate(25,316)"/>
<path d="M0 0 C1.093125 0.00257813 2.18625 0.00515625 3.3125 0.0078125 C4.405625 0.00523437 5.49875 0.00265625 6.625 0 C9.3125 0.1328125 9.3125 0.1328125 10.3125 1.1328125 C10.43578105 4.02972628 10.49866191 6.90645655 10.5234375 9.8046875 C10.55151575 11.60157146 10.58018028 13.39844633 10.609375 15.1953125 C10.65058885 18.03710587 10.68746208 20.87873144 10.71386719 23.72070312 C10.74152014 26.45739142 10.78740398 29.19330042 10.8359375 31.9296875 C10.83919037 32.77569519 10.84244324 33.62170288 10.84579468 34.49334717 C10.94301774 39.17199281 11.26692512 42.33866198 14.3125 46.1328125 C21.47412613 49.71362557 30.30555857 47.1328125 38.3125 47.1328125 C38.3125 31.6228125 38.3125 16.1128125 38.3125 0.1328125 C42.6025 0.1328125 46.8925 0.1328125 51.3125 0.1328125 C51.38036775 8.76489385 51.43536895 17.39679702 51.46793652 26.02908516 C51.48356997 30.03772039 51.50476548 34.04616307 51.53881836 38.0546875 C51.57149512 41.92559569 51.58937047 45.79631907 51.59713173 49.66735458 C51.60266037 51.14170108 51.61345651 52.61603784 51.62969017 54.09030533 C51.65157587 56.16084636 51.65446241 58.23063081 51.65307617 60.30126953 C51.65973801 61.47819366 51.66639984 62.6551178 51.67326355 63.8677063 C50.99328091 70.02191876 48.04150822 74.26362396 43.3125 78.1328125 C38.06062073 80.01380328 33.46242354 80.40581128 27.97265625 80.328125 C27.20569931 80.3252951 26.43874237 80.32246521 25.64854431 80.31954956 C23.22386379 80.30844725 20.79956691 80.28336217 18.375 80.2578125 C16.7207085 80.2477698 15.06641115 80.23864622 13.41210938 80.23046875 C9.37876077 80.20854067 5.3456952 80.17408093 1.3125 80.1328125 C1.28563447 78.15371852 1.26616625 76.17452279 1.25 74.1953125 C1.23839844 73.09316406 1.22679687 71.99101562 1.21484375 70.85546875 C1.3125 68.1328125 1.3125 68.1328125 2.3125 67.1328125 C4.39865908 67.01078617 6.48863238 66.95303159 8.578125 66.921875 C9.86074219 66.89351563 11.14335937 66.86515625 12.46484375 66.8359375 C14.50992255 66.794791 16.55477335 66.75791249 18.60009766 66.73144531 C20.57216477 66.7037034 22.54393167 66.65674301 24.515625 66.609375 C26.28921387 66.579646 26.28921387 66.579646 28.09863281 66.54931641 C31.64081253 66.09026455 33.50988944 65.32402355 36.3125 63.1328125 C37.64043606 61.06580595 37.64043606 61.06580595 38.3125 59.1328125 C37.36930908 59.15375977 36.42611816 59.17470703 35.4543457 59.19628906 C31.94122476 59.26462678 28.42881415 59.31468997 24.9152832 59.35253906 C23.3972659 59.37260453 21.87932541 59.39986384 20.36157227 59.43457031 C18.17444878 59.48331643 15.98835048 59.50583055 13.80078125 59.5234375 C11.82911987 59.5548584 11.82911987 59.5548584 9.81762695 59.58691406 C5.76086597 59.06134636 4.18085569 57.98163304 1.3125 55.1328125 C-0.015625 53.1328125 -0.015625 53.1328125 -0.9375 51.1328125 C-1.25203125 50.4728125 -1.5665625 49.8128125 -1.890625 49.1328125 C-3.2706645 45.66918395 -3.81285966 42.56276539 -3.81689453 38.83911133 C-3.82004669 38.00176956 -3.82319885 37.1644278 -3.82644653 36.30171204 C-3.8244223 35.4067955 -3.82239807 34.51187897 -3.8203125 33.58984375 C-3.82126923 32.66564133 -3.82222595 31.7414389 -3.82321167 30.78923035 C-3.82389118 28.84003633 -3.82205287 26.89084004 -3.81787109 24.94165039 C-3.81250137 21.94607522 -3.81783318 18.95064875 -3.82421875 15.95507812 C-3.82355829 14.06249967 -3.82227778 12.1699213 -3.8203125 10.27734375 C-3.82233673 9.37635452 -3.82436096 8.4753653 -3.82644653 7.54707336 C-3.79842588 0.18771291 -3.79842588 0.18771291 0 0 Z " fill="#70706F" transform="translate(423.6875,315.8671875)"/>
<path d="M0 0 C5.51342732 -0.12452146 11.02601847 -0.21476997 16.54052734 -0.2746582 C18.41241737 -0.29964898 20.28421135 -0.33365373 22.15576172 -0.37719727 C42.53217425 -0.83906262 42.53217425 -0.83906262 50 5 C53.86720512 8.96152719 55.12851494 12.09204595 55.11352539 17.56323242 C55.11344986 18.48396042 55.11337433 19.40468842 55.11329651 20.35331726 C55.10813522 21.34402725 55.10297394 22.33473724 55.09765625 23.35546875 C55.0962413 24.37224197 55.09482635 25.3890152 55.09336853 26.43659973 C55.08776707 29.68692964 55.07521432 32.93719088 55.0625 36.1875 C55.05748519 38.38997296 55.05292225 40.59244701 55.04882812 42.79492188 C55.03779717 48.19663804 55.02105762 53.59831412 55 59 C48.00769087 59.15251168 41.01581275 59.25736682 34.0222168 59.32958984 C31.6447751 59.35970659 29.267444 59.40060932 26.89038086 59.45263672 C23.46700721 59.52567251 20.0451061 59.55950887 16.62109375 59.5859375 C15.56353378 59.61690521 14.50597382 59.64787292 13.41636658 59.67977905 C7.21567605 59.68258769 3.73303272 58.95888695 -0.73921204 54.53718567 C-4.58516112 49.84810393 -4.42369905 44.82698874 -4.31640625 39.01171875 C-3.7143959 33.28147205 -1.58140861 29.54187339 2.5 25.5625 C6.87108425 22.83057234 10.84793552 22.83501886 15.953125 22.68359375 C16.61334656 22.66281265 17.27356812 22.64203156 17.95379639 22.62062073 C20.05243015 22.55549853 22.15118372 22.49641498 24.25 22.4375 C25.67709547 22.39427921 27.10417905 22.3506638 28.53125 22.30664062 C32.02070722 22.19985589 35.51029753 22.09848434 39 22 C38.01 19.69 37.02 17.38 36 15 C34.94498291 14.97494385 33.88996582 14.9498877 32.80297852 14.92407227 C28.90229372 14.83015891 25.00179375 14.72989966 21.10131836 14.62768555 C19.41060701 14.58427561 17.71985009 14.54260511 16.02905273 14.50268555 C13.60386394 14.44512906 11.17890585 14.38139351 8.75390625 14.31640625 C7.99348526 14.29969376 7.23306427 14.28298126 6.44960022 14.26576233 C1.11387171 14.11387171 1.11387171 14.11387171 0 13 C-0.07258946 10.81360547 -0.08373783 8.62499611 -0.0625 6.4375 C-0.05347656 5.23996094 -0.04445313 4.04242188 -0.03515625 2.80859375 C-0.02355469 1.88175781 -0.01195312 0.95492188 0 0 Z M14.17700195 37.33081055 C12.34750714 39.92534613 12.61508659 41.92069271 13 45 C14.11884501 46.77591482 14.11884501 46.77591482 16 48 C18.61154091 48.4137098 18.61154091 48.4137098 21.54296875 48.29296875 C22.61611328 48.28330078 23.68925781 48.27363281 24.79492188 48.26367188 C26.47424805 48.2259668 26.47424805 48.2259668 28.1875 48.1875 C29.88422852 48.16719727 29.88422852 48.16719727 31.61523438 48.14648438 C34.41035882 48.11110305 37.20523889 48.05729579 40 48 C40 44.04 40 40.08 40 36 C36.06209217 35.9192684 32.12582931 35.85962531 28.1875 35.8125 C27.06794922 35.78736328 25.94839844 35.76222656 24.79492188 35.73632812 C23.18520508 35.72182617 23.18520508 35.72182617 21.54296875 35.70703125 C20.55321045 35.6913208 19.56345215 35.67561035 18.54370117 35.65942383 C15.97262092 35.79772193 15.97262092 35.79772193 14.17700195 37.33081055 Z " fill="#737371" transform="translate(355,316)"/>
<path d="M0 0 C5.42599527 -0.07446471 10.8516894 -0.12875037 16.27807617 -0.16479492 C18.12187892 -0.17982988 19.96564622 -0.20026333 21.80932617 -0.22631836 C24.4680255 -0.26293561 27.12624971 -0.27977943 29.78515625 -0.29296875 C30.60210464 -0.30845261 31.41905304 -0.32393646 32.26075745 -0.33988953 C39.05877088 -0.34186367 44.44295099 1.29880538 49.8125 5.6875 C50.37582031 6.12449219 50.93914062 6.56148438 51.51953125 7.01171875 C55.21657019 11.97687131 55.2545511 18.48214282 55.1875 24.4375 C55.18105469 25.13544678 55.17460937 25.83339355 55.16796875 26.55249023 C55.01987568 37.37369742 54.47797771 48.18954167 54 59 C46.97091001 59.10147154 39.94200911 59.17149565 32.91235352 59.21972656 C30.52133119 59.23983418 28.13035799 59.2671243 25.73950195 59.30175781 C22.30147169 59.35031151 18.86409196 59.37297774 15.42578125 59.390625 C13.82395744 59.42159271 13.82395744 59.42159271 12.18977356 59.45318604 C4.75043268 59.45543216 4.75043268 59.45543216 0.8972168 57.11694336 C-3.39271879 52.33016798 -4.55608061 48.58368099 -4.5 42.1875 C-4.49718018 41.47770996 -4.49436035 40.76791992 -4.49145508 40.03662109 C-4.31342995 34.27231311 -3.10827775 30.09670514 1 26 C5.87146234 22.75235844 10.29227389 22.87783946 16.05078125 22.90234375 C16.70958786 22.9037587 17.36839447 22.90517365 18.04716492 22.90663147 C20.13565762 22.912195 22.22404011 22.92474053 24.3125 22.9375 C25.73502449 22.94251972 27.15755066 22.9470818 28.58007812 22.95117188 C32.05342077 22.96215243 35.52669961 22.97939165 39 23 C37.48134786 18.70111387 37.48134786 18.70111387 35 15 C32.49283162 14.85243002 30.00960951 14.7650766 27.5 14.71875 C26.37368164 14.69113586 26.37368164 14.69113586 25.22460938 14.66296387 C22.81648813 14.60403696 20.40829529 14.55129132 18 14.5 C14.83317556 14.4325537 11.66658916 14.3588858 8.5 14.28125 C7.76458984 14.26767456 7.02917969 14.25409912 6.27148438 14.2401123 C1.11280181 14.11280181 1.11280181 14.11280181 0 13 C-0.07258946 10.81360547 -0.08373783 8.62499611 -0.0625 6.4375 C-0.05347656 5.23996094 -0.04445313 4.04242188 -0.03515625 2.80859375 C-0.02355469 1.88175781 -0.01195313 0.95492188 0 0 Z M12 40 C12.17186564 43.52324572 13.01727816 45.02591724 15 48 C17.51385259 48.50960691 17.51385259 48.50960691 20.4453125 48.51171875 C22.05986328 48.56489258 22.05986328 48.56489258 23.70703125 48.61914062 C25.39892578 48.65297852 25.39892578 48.65297852 27.125 48.6875 C28.82849609 48.73874023 28.82849609 48.73874023 30.56640625 48.79101562 C33.37725164 48.87368755 36.18861139 48.93851413 39 49 C39 44.71 39 40.42 39 36 C35.24923335 35.89215048 31.50156051 35.81275012 27.75 35.75 C26.15478516 35.69972656 26.15478516 35.69972656 24.52734375 35.6484375 C22.99013672 35.62910156 22.99013672 35.62910156 21.421875 35.609375 C20.47924805 35.58842773 19.53662109 35.56748047 18.56542969 35.54589844 C15.23423449 36.13554662 14.04478776 37.35856419 12 40 Z " fill="#717170" transform="translate(96,316)"/>
<path d="M0 0 C0.9796875 -0.00257813 1.959375 -0.00515625 2.96875 -0.0078125 C5.5 0.125 5.5 0.125 7.5 1.125 C7.5 26.865 7.5 52.605 7.5 79.125 C2.55 79.125 -2.4 79.125 -7.5 79.125 C-7.5 53.385 -7.5 27.645 -7.5 1.125 C-4.89080172 -0.17959914 -2.91057385 -0.0076594 0 0 Z " fill="#6D6D6B" transform="translate(170.5,295.875)"/>
<path d="M0 0 C1.093125 0.00257813 2.18625 0.00515625 3.3125 0.0078125 C4.405625 0.00523437 5.49875 0.00265625 6.625 0 C9.3125 0.1328125 9.3125 0.1328125 10.3125 1.1328125 C10.43578105 4.02972628 10.49866191 6.90645655 10.5234375 9.8046875 C10.55151575 11.60157146 10.58018028 13.39844633 10.609375 15.1953125 C10.65058885 18.03710587 10.68746208 20.87873144 10.71386719 23.72070312 C10.74152014 26.45739142 10.78740398 29.19330042 10.8359375 31.9296875 C10.83919037 32.77569519 10.84244324 33.62170288 10.84579468 34.49334717 C10.94301774 39.17199281 11.26692512 42.33866198 14.3125 46.1328125 C16.88143838 47.41728169 19.07826337 47.46258394 21.9375 47.6953125 C22.94039063 47.77910156 23.94328125 47.86289062 24.9765625 47.94921875 C25.74742187 48.00980469 26.51828125 48.07039063 27.3125 48.1328125 C26.9825 48.7928125 26.6525 49.4528125 26.3125 50.1328125 C22.6825 49.8028125 19.0525 49.4728125 15.3125 49.1328125 C15.3125 49.7928125 15.3125 50.4528125 15.3125 51.1328125 C14.3225 51.6278125 14.3225 51.6278125 13.3125 52.1328125 C13.6425 52.7928125 13.9725 53.4528125 14.3125 54.1328125 C13.6525 54.1328125 12.9925 54.1328125 12.3125 54.1328125 C11.9825 55.4528125 11.6525 56.7728125 11.3125 58.1328125 C9.125 58.8828125 9.125 58.8828125 6.3125 59.1328125 C1.00588858 56.15593292 -1.56748142 50.97148357 -3.22921753 45.27616882 C-3.7022181 43.06397693 -3.81444557 41.09917659 -3.81689453 38.83911133 C-3.82004669 38.00176956 -3.82319885 37.1644278 -3.82644653 36.30171204 C-3.8244223 35.4067955 -3.82239807 34.51187897 -3.8203125 33.58984375 C-3.82126923 32.66564133 -3.82222595 31.7414389 -3.82321167 30.78923035 C-3.82389118 28.84003633 -3.82205287 26.89084004 -3.81787109 24.94165039 C-3.81250137 21.94607522 -3.81783318 18.95064875 -3.82421875 15.95507812 C-3.82355829 14.06249967 -3.82227778 12.1699213 -3.8203125 10.27734375 C-3.82233673 9.37635452 -3.82436096 8.4753653 -3.82644653 7.54707336 C-3.79842588 0.18771291 -3.79842588 0.18771291 0 0 Z " fill="#7D7D7C" transform="translate(423.6875,315.8671875)"/>
<path d="M0 0 C0.9796875 -0.00257813 1.959375 -0.00515625 2.96875 -0.0078125 C5.5 0.125 5.5 0.125 7.5 1.125 C7.5 26.865 7.5 52.605 7.5 79.125 C7.17 79.125 6.84 79.125 6.5 79.125 C6.5 54.045 6.5 28.965 6.5 3.125 C2.54 3.125 -1.42 3.125 -5.5 3.125 C-5.83 28.205 -6.16 53.285 -6.5 79.125 C-6.83 79.125 -7.16 79.125 -7.5 79.125 C-7.5 53.385 -7.5 27.645 -7.5 1.125 C-4.89080172 -0.17959914 -2.91057385 -0.0076594 0 0 Z " fill="#A2A2A1" transform="translate(170.5,295.875)"/>
<path d="M0 0 C3.96 0 7.92 0 12 0 C12.04513767 8.17964035 12.0818507 16.35918431 12.10362434 24.53891563 C12.11407321 28.33686312 12.12825236 32.13472118 12.15087891 35.93261719 C12.17256821 39.59601346 12.18456031 43.25932357 12.18975449 46.92277908 C12.19345731 48.32226544 12.20068777 49.72174695 12.21146011 51.12119675 C12.22592225 53.07733331 12.22681647 55.03355609 12.22705078 56.98974609 C12.231492 58.1044931 12.23593323 59.21924011 12.24050903 60.36776733 C12 63 12 63 10 65 C10 44.54 10 24.08 10 3 C7.03 2.67 4.06 2.34 1 2 C1 17.18 1 32.36 1 48 C0.67 48 0.34 48 0 48 C0 32.16 0 16.32 0 0 Z " fill="#5E5E5E" transform="translate(463,316)"/>
<path d="M0 0 C1.16781006 0.00523682 2.33562012 0.01047363 3.53881836 0.01586914 C4.79887695 0.0190918 6.05893555 0.02231445 7.35717773 0.02563477 C8.6976732 0.03399136 10.03816799 0.04245632 11.37866211 0.05102539 C12.72306153 0.05603879 14.06746271 0.06060197 15.41186523 0.06469727 C18.71334151 0.07653051 22.01473014 0.09301568 25.31616211 0.11352539 C25.31616211 0.44352539 25.31616211 0.77352539 25.31616211 1.11352539 C19.68089246 2.31837261 14.17080096 2.22648969 8.44116211 2.17602539 C7.46663086 2.17151367 6.49209961 2.16700195 5.48803711 2.16235352 C3.09738543 2.15063463 0.70676561 2.13270135 -1.68383789 2.11352539 C-2.01383789 5.74352539 -2.34383789 9.37352539 -2.68383789 13.11352539 C-3.01383789 13.11352539 -3.34383789 13.11352539 -3.68383789 13.11352539 C-3.71070342 11.13443141 -3.73017165 9.15523568 -3.74633789 7.17602539 C-3.75793945 6.07387695 -3.76954102 4.97172852 -3.78149414 3.83618164 C-3.6509111 0.19552654 -3.63454194 0.15373983 0 0 Z " fill="#929291" transform="translate(428.683837890625,382.886474609375)"/>
<path d="M0 0 C0 0.99 0 1.98 0 3 C-0.99 3 -1.98 3 -3 3 C-3.309375 4.2065625 -3.309375 4.2065625 -3.625 5.4375 C-4.07875 6.283125 -4.5325 7.12875 -5 8 C-8.0625 8.6875 -8.0625 8.6875 -11 9 C-11.33 9.66 -11.66 10.32 -12 11 C-18.25321021 15.12947844 -18.25321021 15.12947844 -21.23046875 14.61328125 C-21.81441406 14.41089844 -22.39835938 14.20851563 -23 14 C-15.46601821 9.08094219 -7.96994562 4.19581793 0 0 Z " fill="#7B5496" transform="translate(225,110)"/>
<path d="M0 0 C0.61328125 1.859375 0.61328125 1.859375 1 4 C-0.8125 6.25 -0.8125 6.25 -3 8 C-3.66 8 -4.32 8 -5 8 C-5 8.66 -5 9.32 -5 10 C-5.66 10 -6.32 10 -7 10 C-7.33 10.99 -7.66 11.98 -8 13 C-8.66 13.66 -9.32 14.32 -10 15 C-10.6425235 17.06874034 -10.6425235 17.06874034 -11 19 C-13 16 -13 16 -12.79516602 14.00097656 C-11.91369174 11.78281164 -10.98500231 10.6381075 -9.27734375 8.984375 C-8.73916016 8.45585937 -8.20097656 7.92734375 -7.64648438 7.3828125 C-7.08251953 6.84398437 -6.51855469 6.30515625 -5.9375 5.75 C-5.36966797 5.19570312 -4.80183594 4.64140625 -4.21679688 4.0703125 C-2.81787531 2.70665786 -1.40980886 1.35239583 0 0 Z " fill="#75478B" transform="translate(184,212)"/>
<path d="M0 0 C0.33 0 0.66 0 1 0 C1 1.65 1 3.3 1 5 C0.278125 5.165 -0.44375 5.33 -1.1875 5.5 C-4.79066564 7.42168834 -5.83686577 9.67400267 -7.69140625 13.22265625 C-9.32286715 15.43852106 -10.36974404 15.48549884 -13 16 C-14.75422772 17.97670607 -14.75422772 17.97670607 -16 20 C-16.66 19.67 -17.32 19.34 -18 19 C-15.80481264 16.01454519 -13.53749901 13.53040459 -10.6875 11.1875 C-7.17899552 8.2852166 -4.2971029 5.02836984 -1.3828125 1.5390625 C-0.92648437 1.03117188 -0.47015625 0.52328125 0 0 Z " fill="#8A679D" transform="translate(296,206)"/>
<path d="M0 0 C0.66 0 1.32 0 2 0 C2.52666228 5.26662278 2.52666228 5.26662278 2 8 C-0.875 10.1875 -0.875 10.1875 -4 12 C-5.41190564 14.60437233 -5.41190564 14.60437233 -6 17 C-6.99 17 -7.98 17 -9 17 C-9.66 16.34 -10.32 15.68 -11 15 C-10.2059375 14.25234375 -9.411875 13.5046875 -8.59375 12.734375 C-7.56197938 11.74012331 -6.53075775 10.74530171 -5.5 9.75 C-4.97535156 9.25886719 -4.45070313 8.76773438 -3.91015625 8.26171875 C-2.52909948 6.91653358 -1.25735528 5.4614714 0 4 C0 2.68 0 1.36 0 0 Z " fill="#70458A" transform="translate(261,186)"/>
<path d="M0 0 C0 0.66 0 1.32 0 2 C-0.66 2 -1.32 2 -2 2 C-2 2.66 -2 3.32 -2 4 C-4.81769349 6.17364926 -6.2190681 7.08677021 -9.8125 6.6875 C-10.534375 6.460625 -11.25625 6.23375 -12 6 C-12.33 7.32 -12.66 8.64 -13 10 C-14.32 9.34 -15.64 8.68 -17 8 C-15.23174858 6.85018626 -13.46030479 5.70528078 -11.6875 4.5625 C-10.70136719 3.92441406 -9.71523437 3.28632812 -8.69921875 2.62890625 C-5.59006721 0.75261654 -3.64121643 0 0 0 Z " fill="#764B91" transform="translate(244,101)"/>
<path d="M0 0 C0.97582031 -0.01224609 1.95164062 -0.02449219 2.95703125 -0.03710938 C4.35501953 -0.04000977 4.35501953 -0.04000977 5.78125 -0.04296875 C6.63783203 -0.04707764 7.49441406 -0.05118652 8.37695312 -0.05541992 C10.5 0.1875 10.5 0.1875 12.5 2.1875 C8.70913543 2.41269106 4.91738942 2.61479249 1.125 2.8125 C0.04476563 2.87695312 -1.03546875 2.94140625 -2.1484375 3.0078125 C-3.1796875 3.059375 -4.2109375 3.1109375 -5.2734375 3.1640625 C-6.22653809 3.21643066 -7.17963867 3.26879883 -8.16162109 3.32275391 C-10.5 3.1875 -10.5 3.1875 -12.5 1.1875 C-8.72960943 -0.69769529 -4.14845405 0.00274006 0 0 Z " fill="#393938" transform="translate(383.5,363.8125)"/>
<path d="M0 0 C1.875 0.25 1.875 0.25 4 1 C5.6585342 3.21137893 5.98994062 4.61774349 6.0625 7.375 C4.45163064 11.3547949 1.35944106 13.44752651 -2 16 C-1.67 14.68 -1.34 13.36 -1 12 C-0.34 12 0.32 12 1 12 C0.773125 11.401875 0.54625 10.80375 0.3125 10.1875 C0.209375 9.465625 0.10625 8.74375 0 8 C1.4375 6.25 1.4375 6.25 3 5 C2.01 3.35 1.02 1.7 0 0 Z " fill="#72458A" transform="translate(321,143)"/>
<path d="M0 0 C-0.125 2.8125 -0.125 2.8125 -1 6 C-4.20822874 8.09232309 -6.15947088 9 -10 9 C-10 8.34 -10 7.68 -10 7 C-9.34 7 -8.68 7 -8 7 C-7.731875 6.401875 -7.46375 5.80375 -7.1875 5.1875 C-5.24288471 1.60531394 -4.204264 0 0 0 Z " fill="#713F8C" transform="translate(208,190)"/>
<path d="M0 0 C2.31 0.33 4.62 0.66 7 1 C7.33 1.99 7.66 2.98 8 4 C7.34 4 6.68 4 6 4 C6 11.26 6 18.52 6 26 C5.67 26 5.34 26 5 26 C4.67 18.41 4.34 10.82 4 3 C2.68 2.34 1.36 1.68 0 1 C0 0.67 0 0.34 0 0 Z " fill="#7A7A79" transform="translate(324,332)"/>
<path d="M0 0 C0 5.28 0 10.56 0 16 C-0.33 16 -0.66 16 -1 16 C-1 11.71 -1 7.42 -1 3 C-1.66 3 -2.32 3 -3 3 C-3 3.99 -3 4.98 -3 6 C-3.66 6 -4.32 6 -5 6 C-5 6.66 -5 7.32 -5 8 C-6.32 8 -7.64 8 -9 8 C-7.50345469 3.51036406 -4.94314084 0 0 0 Z " fill="#9D7FAE" transform="translate(329,175)"/>
<path d="M0 0 C1.32 0 2.64 0 4 0 C6.03435531 3.72965139 7 5.66905042 7 10 C4.625 9.6875 4.625 9.6875 2 9 C1.34 8.01 0.68 7.02 0 6 C0.33 5.34 0.66 4.68 1 4 C1.66 4 2.32 4 3 4 C3 3.01 3 2.02 3 1 C2.01 0.67 1.02 0.34 0 0 Z " fill="#7C7C7A" transform="translate(265,325)"/>
<path d="M0 0 C0.99 0.33 1.98 0.66 3 1 C3 1.66 3 2.32 3 3 C1.13671875 4.76171875 1.13671875 4.76171875 -1.3125 6.6875 C-2.51326172 7.65236328 -2.51326172 7.65236328 -3.73828125 8.63671875 C-4.48464844 9.08660156 -5.23101562 9.53648437 -6 10 C-6.99 9.67 -7.98 9.34 -9 9 C-6.03 6.03 -3.06 3.06 0 0 Z " fill="#683485" transform="translate(277,226)"/>
<path d="M0 0 C2.16874252 0.50603992 3.99967627 0.99983813 6 2 C6 2.66 6 3.32 6 4 C6.556875 4.0825 7.11375 4.165 7.6875 4.25 C10.69714206 5.22610013 12.62154752 6.95188814 15 9 C14.01 9.33 13.02 9.66 12 10 C9.58984375 8.671875 9.58984375 8.671875 6.9375 6.75 C6.05964844 6.12609375 5.18179688 5.5021875 4.27734375 4.859375 C2 3 2 3 0 0 Z " fill="#784F8F" transform="translate(177,235)"/>
<path d="M0 0 C0.33 0.66 0.66 1.32 1 2 C1.66 2.33 2.32 2.66 3 3 C2 4 2 4 -0.59204102 4.11352539 C-1.71795654 4.10828857 -2.84387207 4.10305176 -4.00390625 4.09765625 C-5.21884766 4.09443359 -6.43378906 4.09121094 -7.68554688 4.08789062 C-8.96494141 4.07951172 -10.24433594 4.07113281 -11.5625 4.0625 C-12.84576172 4.05798828 -14.12902344 4.05347656 -15.45117188 4.04882812 C-18.63416022 4.03699545 -21.81705762 4.02051068 -25 4 C-25 3.67 -25 3.34 -25 3 C-21.20836402 2.8326303 -17.4166864 2.66622322 -13.625 2.5 C-12.54476562 2.45230469 -11.46453125 2.40460938 -10.3515625 2.35546875 C-9.3203125 2.31035156 -8.2890625 2.26523437 -7.2265625 2.21875 C-6.27346191 2.17685547 -5.32036133 2.13496094 -4.33837891 2.09179688 C-2.89304218 2.03505783 -1.44644999 2 0 2 C0 1.34 0 0.68 0 0 Z " fill="#646463" transform="translate(67,371)"/>
<path d="M0 0 C0.66 0.33 1.32 0.66 2 1 C1.07456291 2.34173403 0.13422595 3.67320159 -0.8125 5 C-1.33457031 5.7425 -1.85664063 6.485 -2.39453125 7.25 C-2.92433594 7.8275 -3.45414063 8.405 -4 9 C-4.99 9 -5.98 9 -7 9 C-7.33 9.66 -7.66 10.32 -8 11 C-8 7.45459812 -7.40614728 6.93992636 -5.125 4.375 C-4.59132812 3.76398438 -4.05765625 3.15296875 -3.5078125 2.5234375 C-2 1 -2 1 0 0 Z " fill="#694187" transform="translate(230,165)"/>
<path d="M0 0 C1.32 0.99 2.64 1.98 4 3 C4.33 2.34 4.66 1.68 5 1 C5.99 1.33 6.98 1.66 8 2 C7.4375 3.9375 7.4375 3.9375 6 6 C2.375 6.75 2.375 6.75 -1 7 C-0.67 4.69 -0.34 2.38 0 0 Z " fill="#797977" transform="translate(70,368)"/>
<path d="M0 0 C0.66 0.33 1.32 0.66 2 1 C0.90931332 4.77545388 0.0916909 7.47043472 -3 10 C-3.99 9.67 -4.98 9.34 -6 9 C-5.525625 8.608125 -5.05125 8.21625 -4.5625 7.8125 C-2.64734334 5.59091827 -2.52308986 3.83963065 -2 1 C-1.34 0.67 -0.68 0.34 0 0 Z " fill="#838382" transform="translate(340,363)"/>
<path d="M0 0 C4.43843439 1.39493652 6.9434964 3.51898201 10 7 C10.33 7.99 10.66 8.98 11 10 C10.34 10.66 9.68 11.32 9 12 C8.5978125 11.0409375 8.5978125 11.0409375 8.1875 10.0625 C7.11332248 7.66868314 7.11332248 7.66868314 4 7 C0 2.54285714 0 2.54285714 0 0 Z " fill="#7E5795" transform="translate(264,164)"/>
<path d="M0 0 C1.12894876 0.93274109 2.25300876 1.87140122 3.375 2.8125 C4.00148437 3.33457031 4.62796875 3.85664063 5.2734375 4.39453125 C7 6 7 6 9 9 C7.68 9 6.36 9 5 9 C4.34 8.01 3.68 7.02 3 6 C2.01 5.34 1.02 4.68 0 4 C-0.33 3.34 -0.66 2.68 -1 2 C-0.67 1.34 -0.34 0.68 0 0 Z " fill="#8963A1" transform="translate(235,240)"/>
<path d="M0 0 C-0.75 4.75 -0.75 4.75 -3 7 C-3.99 7 -4.98 7 -6 7 C-6.33 6.01 -6.66 5.02 -7 4 C-3.375 0 -3.375 0 0 0 Z " fill="#72438D" transform="translate(247,150)"/>
<path d="M0 0 C1 3 1 3 -0.25 5.625 C-2 8 -2 8 -5 9 C-5.33 7.68 -5.66 6.36 -6 5 C-4.02 3.35 -2.04 1.7 0 0 Z " fill="#797978" transform="translate(360,340)"/>
<path d="M0 0 C0.66 0.99 1.32 1.98 2 3 C1.21625 3.4125 0.4325 3.825 -0.375 4.25 C-3.05891656 6.0392777 -3.88098949 7.04988139 -5 10 C-6.32 9.67 -7.64 9.34 -9 9 C-8.34 9 -7.68 9 -7 9 C-6.6596875 8.1646875 -6.6596875 8.1646875 -6.3125 7.3125 C-4.64103234 4.36753316 -2.44723648 2.31843456 0 0 Z " fill="#704588" transform="translate(306,196)"/>
<path d="M0 0 C2.1875 -0.375 2.1875 -0.375 5 0 C6.99022836 1.83961648 8.38989899 3.79186148 10 6 C8.125 6.625 8.125 6.625 6 7 C5.34 6.34 4.68 5.68 4 5 C4.33 4.34 4.66 3.68 5 3 C2.525 2.01 2.525 2.01 0 1 C0 0.67 0 0.34 0 0 Z " fill="#63357C" transform="translate(247,150)"/>
<path d="M0 0 C1.32 0 2.64 0 4 0 C2.92598892 2.91517292 2.22189824 4.77810176 0 7 C-0.99 7 -1.98 7 -3 7 C-1.125 1.125 -1.125 1.125 0 0 Z " fill="#532671" transform="translate(318,233)"/>
<path d="M0 0 C0.66 0.99 1.32 1.98 2 3 C-0.51830747 6.12270126 -1.7261549 6.94523098 -5.75 7.75 C-7.35875 7.87375 -7.35875 7.87375 -9 8 C-7 6 -7 6 -4.5 4.5625 C-1.76297015 3.09034084 -1.76297015 3.09034084 0 0 Z " fill="#7F7F7F" transform="translate(469,387)"/>
<path d="M0 0 C0.66 0 1.32 0 2 0 C1.8125 1.8125 1.8125 1.8125 1 4 C-3.17857143 7 -3.17857143 7 -6 7 C-6 6.01 -6 5.02 -6 4 C-5.01 4 -4.02 4 -3 4 C-3.33 3.01 -3.66 2.02 -4 1 C-2.68 1.33 -1.36 1.66 0 2 C0 1.34 0 0.68 0 0 Z " fill="#6F4386" transform="translate(284,256)"/>
<path d="M0 0 C0.33 0 0.66 0 1 0 C1.103125 1.258125 1.20625 2.51625 1.3125 3.8125 C1.64858808 6.60499657 1.80025876 7.74433121 3.5625 10 C4.036875 10.33 4.51125 10.66 5 11 C3.02 11 1.04 11 -1 11 C-0.67 7.37 -0.34 3.74 0 0 Z " fill="#606060" transform="translate(427,385)"/>
<path d="M0 0 C0.33 0.99 0.66 1.98 1 3 C1.33 3.66 1.66 4.32 2 5 C-4.625 8 -4.625 8 -8 8 C-6.625 6.5 -6.625 6.5 -5 5 C-4.34 5 -3.68 5 -3 5 C-2.690625 4.360625 -2.38125 3.72125 -2.0625 3.0625 C-1 1 -1 1 0 0 Z " fill="#9970AB" transform="translate(263,240)"/>
<path d="M0 0 C3.72114571 2.31537955 6.61229661 4.28579473 9 8 C8.01 8 7.02 8 6 8 C6 7.34 6 6.68 6 6 C5.071875 5.9071875 5.071875 5.9071875 4.125 5.8125 C2 5 2 5 0.75 2.4375 C0.5025 1.633125 0.255 0.82875 0 0 Z " fill="#7D5298" transform="translate(216,223)"/>
<path d="M0 0 C0.66 0.99 1.32 1.98 2 3 C1.2884375 3.61875 1.2884375 3.61875 0.5625 4.25 C-1.16266518 6.182185 -1.56584875 7.48192275 -2 10 C-4 7 -4 7 -3.8125 5 C-2.90059285 2.75530549 -1.81466246 1.57796735 0 0 Z " fill="#805F9A" transform="translate(175,221)"/>
<path d="M0 0 C0.8971875 0.309375 0.8971875 0.309375 1.8125 0.625 C-1.9375 3.625 -1.9375 3.625 -4.1875 3.625 C-5.82426257 5.5850281 -5.82426257 5.5850281 -7.1875 7.625 C-7.8475 7.295 -8.5075 6.965 -9.1875 6.625 C-3.65359043 -0.62632979 -3.65359043 -0.62632979 0 0 Z " fill="#795493" transform="translate(287.1875,218.375)"/>
<path d="M0 0 C1.485 0.99 1.485 0.99 3 2 C3 2.66 3 3.32 3 4 C3.99 4.33 4.98 4.66 6 5 C4.6875 6.5 4.6875 6.5 3 8 C2.01 8 1.02 8 0 8 C0 5.36 0 2.72 0 0 Z " fill="#683C7D" transform="translate(170,193)"/>
<path d="M0 0 C2.75 -0.25 2.75 -0.25 6 0 C8.375 2 8.375 2 10 4 C9.67 4.66 9.34 5.32 9 6 C5.48994665 4.3619751 2.54456151 2.96865509 0 0 Z " fill="#7C5592" transform="translate(191,245)"/>
<path d="M0 0 C-0.39803561 2.88575819 -0.79009069 3.82189513 -3.0625 5.75 C-3.701875 6.1625 -4.34125 6.575 -5 7 C-5.66 6.67 -6.32 6.34 -7 6 C-5.52522876 2.59668175 -4.14385429 0 0 0 Z " fill="#501E70" transform="translate(219,201)"/>
<path d="M0 0 C2.97 0.495 2.97 0.495 6 1 C4.68 2.65 3.36 4.3 2 6 C2.66 6 3.32 6 4 6 C3.67 6.99 3.34 7.98 3 9 C2.34 9 1.68 9 1 9 C0.06934867 6.39417629 -0.14917407 5.35801776 0.9375 2.75 C1.288125 2.1725 1.63875 1.595 2 1 C1.34 0.67 0.68 0.34 0 0 Z " fill="#69358A" transform="translate(210,201)"/>
<path d="M0 0 C2.31 0.66 4.62 1.32 7 2 C7 2.99 7 3.98 7 5 C7.66 5.33 8.32 5.66 9 6 C5 6 5 6 3.515625 4.6875 C2.34375 3.125 1.171875 1.5625 0 0 Z " fill="#78548E" transform="translate(271,143)"/>
<path d="M0 0 C0.33 0.66 0.66 1.32 1 2 C0.01 2 -0.98 2 -2 2 C-2.33 2.66 -2.66 3.32 -3 4 C-4.65 3.67 -6.3 3.34 -8 3 C-5.53387212 -0.1151089 -3.89156016 -0.31553191 0 0 Z " fill="#562378" transform="translate(249,250)"/>
<path d="M0 0 C0.33 0.66 0.66 1.32 1 2 C-0.62339805 3.70884005 -2.29319053 5.37446717 -4 7 C-4.66 7 -5.32 7 -6 7 C-5.8125 5.1875 -5.8125 5.1875 -5 3 C-2.4375 1.25 -2.4375 1.25 0 0 Z " fill="#734E90" transform="translate(200,125)"/>
<path d="M0 0 C2.55698285 3.78667689 2.03499684 7.4122334 1.625 11.75 C1.56828125 12.44738281 1.5115625 13.14476562 1.453125 13.86328125 C1.31232128 15.57639312 1.15754028 17.28834611 1 19 C0.67 19 0.34 19 0 19 C-0.19476139 16.39619004 -0.38108614 13.79224467 -0.5625 11.1875 C-0.61857422 10.44951172 -0.67464844 9.71152344 -0.73242188 8.95117188 C-0.95769724 5.63211484 -1.06255812 3.18767436 0 0 Z " fill="#636361" transform="translate(149,330)"/>
<path d="M0 0 C0 2 0 2 -2.5 4.625 C-3.325 5.40875 -4.15 6.1925 -5 7 C-5.99 6.67 -6.98 6.34 -8 6 C-4 0 -4 0 0 0 Z " fill="#551E73" transform="translate(189,183)"/>
<path d="M0 0 C0.66 0.66 1.32 1.32 2 2 C1.625 4.125 1.625 4.125 1 6 C-0.98 6.33 -2.96 6.66 -5 7 C-4.0409375 6.1028125 -4.0409375 6.1028125 -3.0625 5.1875 C-0.79689611 3.09189663 -0.79689611 3.09189663 0 0 Z " fill="#88659D" transform="translate(290,161)"/>
<path d="M0 0 C0.66 0.33 1.32 0.66 2 1 C-0.33846154 6.66153846 -0.33846154 6.66153846 -3.6875 8.375 C-4.450625 8.58125 -5.21375 8.7875 -6 9 C-4.47291037 5.56404834 -2.40072955 2.88087546 0 0 Z " fill="#8C6BA1" transform="translate(181,136)"/>
<path d="M0 0 C-0.99 0.66 -1.98 1.32 -3 2 C-2.67 2.66 -2.34 3.32 -2 4 C-4.4375 3.625 -4.4375 3.625 -7 3 C-7.33 2.34 -7.66 1.68 -8 1 C-3.375 -1.125 -3.375 -1.125 0 0 Z " fill="#713D94" transform="translate(267,106)"/>
<path d="M0 0 C2.31 0.33 4.62 0.66 7 1 C7.33 1.99 7.66 2.98 8 4 C6.68 4.33 5.36 4.66 4 5 C4 4.34 4 3.68 4 3 C2.68 2.34 1.36 1.68 0 1 C0 0.67 0 0.34 0 0 Z " fill="#8B8B89" transform="translate(324,332)"/>
<path d="M0 0 C0.66 0 1.32 0 2 0 C2.33 2.31 2.66 4.62 3 7 C2.01 7.33 1.02 7.66 0 8 C0 5.36 0 2.72 0 0 Z M3 1 C5 2 5 2 5 2 Z " fill="#7E7E7E" transform="translate(96,316)"/>
<path d="M0 0 C2.8125 -0.3125 2.8125 -0.3125 6 0 C7.875 2.5 7.875 2.5 9 5 C5.22454612 3.90931332 2.52956528 3.0916909 0 0 Z " fill="#85619B" transform="translate(202,252)"/>
<path d="M0 0 C0.6875 1.625 0.6875 1.625 1 4 C-0.4375 7.25 -0.4375 7.25 -2 10 C-2.6875 8.375 -2.6875 8.375 -3 6 C-1.5625 2.75 -1.5625 2.75 0 0 Z " fill="#8A8A89" transform="translate(474,379)"/>
<path d="M0 0 C1.32 0.33 2.64 0.66 4 1 C1.47211993 3.79872437 -0.20411134 5.45773019 -4 6 C-2.68 4.02 -1.36 2.04 0 0 Z " fill="#7E5B94" transform="translate(311,190)"/>
<path d="M0 0 C0.99 0.33 1.98 0.66 3 1 C3 1.66 3 2.32 3 3 C0 5 0 5 -3 5 C-1.125 1.125 -1.125 1.125 0 0 Z " fill="#5D377C" transform="translate(277,226)"/>
<path d="M0 0 C0.66 1.32 1.32 2.64 2 4 C0.68 4.99 -0.64 5.98 -2 7 C-2.6875 5.1875 -2.6875 5.1875 -3 3 C-1.5625 1.25 -1.5625 1.25 0 0 Z " fill="#754590" transform="translate(217,178)"/>
<path d="M0 0 C0.99 0.33 1.98 0.66 3 1 C1.71937515 2.7074998 0.38232443 4.37373596 -1 6 C-1.66 6 -2.32 6 -3 6 C-3 4.68 -3 3.36 -3 2 C-2.01 1.34 -1.02 0.68 0 0 Z " fill="#512278" transform="translate(214,154)"/>
<path d="M0 0 C0.66 0 1.32 0 2 0 C2 2.64 2 5.28 2 8 C1.01 8.495 1.01 8.495 0 9 C0 8.34 0 7.68 0 7 C-0.66 6.67 -1.32 6.34 -2 6 C-1.34 5.34 -0.68 4.68 0 4 C0 2.68 0 1.36 0 0 Z " fill="#815B99" transform="translate(261,186)"/>
<path d="M0 0 C1.875 0.125 1.875 0.125 4 1 C5.25 4.0625 5.25 4.0625 6 7 C5.34 7 4.68 7 4 7 C4 6.01 4 5.02 4 4 C3.01 3.67 2.02 3.34 1 3 C0.67 2.01 0.34 1.02 0 0 Z " fill="#7B4F96" transform="translate(321,143)"/>
<path d="M0 0 C1.98 0 3.96 0 6 0 C4.35 1.98 2.7 3.96 1 6 C0 4 0 4 0 0 Z " fill="#60367C" transform="translate(226,139)"/>
<path d="M0 0 C0.66 0.33 1.32 0.66 2 1 C1.67 1.99 1.34 2.98 1 4 C0.34 4 -0.32 4 -1 4 C-1.33 4.99 -1.66 5.98 -2 7 C-2.66 6.01 -3.32 5.02 -4 4 C-2.68 2.68 -1.36 1.36 0 0 Z " fill="#552479" transform="translate(236,131)"/>
<path d="M0 0 C3.96 1.98 3.96 1.98 8 4 C7.01 4.66 6.02 5.32 5 6 C3.0625 5.25 3.0625 5.25 1 4 C0.67 2.68 0.34 1.36 0 0 Z " fill="#815C98" transform="translate(301,127)"/>
<path d="M0 0 C2.475 0.99 2.475 0.99 5 2 C3.68 2.99 2.36 3.98 1 5 C0.34 4.67 -0.32 4.34 -1 4 C-0.67 2.68 -0.34 1.36 0 0 Z " fill="#72408E" transform="translate(290,121)"/>
<path d="M0 0 C3.68754757 0.49831724 5.60490662 1.10067643 8 4 C2.25 3.125 2.25 3.125 0 2 C0 1.34 0 0.68 0 0 Z " fill="#79518D" transform="translate(255,101)"/>
</svg>
