<?xml version="1.0" encoding="UTF-8"?>
<svg xmlns="http://www.w3.org/2000/svg" viewBox="0 0 200 29" width="200" height="29">
    <path d="M24.59 28.92C24.05 28.92 23.51 28.92 22.98 28.92C23.09 28.19 23.2 27.47 23.31 26.75C20 27.58 20.4 23.5 20.75 21.5C19.86 21.42 18.98 21.33 18.09 21.25C16.92 23.81 15.75 26.36 14.58 28.92C14.04 28.92 13.5 28.92 12.96 28.92C12.89 28.3 12.82 27.69 12.75 27.08C10.34 26.52 9.84 24.13 10.75 22C10.17 21.49 9.43 21.58 8.75 20.98C6.96 19.39 4.32 11.66 3.17 9.14C2.32 7.28 1.71 4.26 0.08 3.02C0.08 2.47 0.08 1.93 0.08 1.39C0.64 1.51 1.19 1.63 1.75 1.74C4.42 7.2 7.08 12.66 9.75 18.11C11.13 16.33 13.6 12.07 13.54 9.75C13.47 6.78 9.34 3.94 11.25 1.22C12.42 3.14 13.58 5.06 14.75 6.98C16.66 4.8 18.37 -2.41 21.75 2.74C23.35 0.86 26.82 0 26.25 3.5C28.3 1.52 29.23 0.09 32 2.25C33.54 1.14 34.2 0.89 36.17 1.25C36.99 3.72 34.34 7.28 33.33 9.58C30.47 16.03 27.3 22.4 24.59 28.92ZM49.25 5.67C53.39 5.58 52.92 14.28 54.75 17.09C57.78 14.21 55.85 7.72 59.75 5.37C63.78 7.55 61.88 14.39 64.75 17.32C66 14.66 67.06 4.18 70.75 6.03C71.97 10.03 68.44 16.96 67.24 20.96C66.71 22.75 66.65 24.53 64.75 25.29C60.87 23.95 62.21 16.6 59.75 13.75C57.54 16.88 58.51 22.81 55.25 25.21C53.17 25.17 52.84 23.1 52.31 21.41C51.4 18.5 47.56 7.54 49.25 5.67ZM85.66 7.25C83.77 9.8 79.85 8.5 76.99 8.99C76.99 10.55 76.99 12.11 76.99 13.67C79.18 14.03 81.36 14.39 83.55 14.75C83 17.83 79.55 16.77 76.98 17.08C76.98 18.64 76.98 20.19 76.98 21.75C79.6 22.37 85.6 20.62 85.75 24.24C83.7 26.11 76.73 25.45 74.14 24.75C72.8 21.96 72.82 9.18 73.96 6.25C76.61 5.12 84.1 4.51 85.66 7.25ZM89.25 5.67C93.79 5.68 94.23 14.34 97.75 16.46C99.89 13.65 101.95 5.63 105.75 5.66C107.33 7.61 107.29 23.21 105.75 25.12C101.55 24.82 104.01 17.74 103 14.75C101.25 17.15 99.5 19.56 97.75 21.96C94.27 21.12 94.79 16.07 92 14.75C90.96 17.76 93.66 24.79 89.25 25.12C87.73 23.16 87.65 7.53 89.25 5.67ZM117.25 5.38C119.63 6.56 125.97 22.32 125.25 24.73C122.26 26.01 121.71 22.11 120.5 20.1C118.38 20.1 116.27 20.1 114.15 20.1C112.72 22.39 112.55 25.7 109.3 24.75C108.67 22.32 115.06 6.59 117.25 5.38ZM145.75 14.5C152.44 23.49 142.88 26.85 135.11 24.75C133.77 22.2 133.78 8.9 135 6.25C136.68 5.47 138.41 5.63 140.25 5.65C146.91 5.74 148.09 8.86 145.75 14.5ZM157.25 5.44C159.82 6.17 166.09 21.7 165.75 24.64C162.68 26.4 162.08 22.13 160.82 20.1C158.69 20.1 156.57 20.1 154.45 20.1C153.29 22.08 152.97 24.38 150.75 25.26C148.61 24 149.41 22.57 150.27 20.54C151.82 16.9 154.41 7.67 157.25 5.44ZM169.25 5.51C174.16 6.32 175.17 14.89 179.25 17.14C180.01 13.83 177.89 7.27 181.25 5.38C184.07 7.19 182.87 17.25 182.88 20.75C182.88 22.73 183.27 24.37 181.25 25.28C176.57 23.72 175.86 16 171.75 13.63C170.86 16.57 173.18 23.99 169.75 25.27C169.15 25.02 168.44 24.85 168.19 24.15C167.39 21.9 167.83 6.78 169.25 5.51ZM199.92 22.51C199.92 23.33 199.92 24.15 199.92 24.96C199.03 24.94 198.14 24.92 197.25 24.9C195.25 22.27 193.25 19.65 191.25 17.02C187.58 18.49 191.54 24.04 187.75 25.29C187.09 24.99 186.51 24.81 186.24 24.06C185.62 22.33 185.57 8.08 186.29 6.52C186.58 5.9 187.22 5.7 187.75 5.38C190.43 6.79 189.24 9.94 189.75 12.51C192.61 11.39 195.4 4.24 198.75 6.08C199.42 9.19 195.28 11.54 193.75 14C195.81 16.84 197.86 19.67 199.92 22.51ZM142.95 8.86C141.28 8.86 139.62 8.86 137.96 8.86C137.96 10.35 137.96 11.83 137.96 13.32C140.29 13.7 142.33 13.92 143.76 11.75C143.49 10.79 143.22 9.82 142.95 8.86ZM115.61 16.88C116.73 16.88 117.84 16.88 118.96 16.88C118.39 15.27 117.82 13.66 117.25 12.05C116.7 13.66 116.16 15.27 115.61 16.88ZM155.75 16.81C156.92 16.81 158.08 16.81 159.25 16.81C158.75 15.21 158.25 13.62 157.75 12.02C157.08 13.62 156.42 15.21 155.75 16.81ZM143.8 16.69C141.85 16.69 139.89 16.69 137.93 16.69C137.93 18.45 137.93 20.22 137.93 21.98C139.71 21.98 141.48 21.98 143.25 21.98C144.62 20.05 144.5 18.91 143.8 16.69Z" fill="#9d1c89" fill-rule="evenodd" stroke="#9d1c89" stroke-width="0.25" stroke-linejoin="round"/>
</svg>