<?xml version="1.0" encoding="UTF-8"?>
<svg version="1.1" xmlns="http://www.w3.org/2000/svg" width="500" height="500">
<path d="M0 0 C3.80724173 1.73414737 5.38921783 3.71787384 8 7 C9.72006553 8.56369594 11.49444901 10.04763887 13.27734375 11.5390625 C17.00167191 14.69756303 20.21188591 18.23314195 23.375 21.9375 C26.16502388 25.16422326 29.10359595 27.92642509 32.3828125 30.64453125 C36.10770641 33.76660417 39.28625773 37.31780444 42.4375 41 C44.55846621 43.45755432 46.65338158 45.65892541 49.1875 47.6875 C51.92663696 49.93967928 53.83687943 52.20887668 56 55 C58.52426565 57.57164948 61.09404746 60.09157614 63.67578125 62.60546875 C64.54589844 63.45753906 65.41601562 64.30960937 66.3125 65.1875 C67.19550781 66.04730469 68.07851563 66.90710938 68.98828125 67.79296875 C71 70 71 70 71 72 C71.60328125 72.26425781 72.2065625 72.52851562 72.828125 72.80078125 C75.1042287 74.05755074 76.16818433 75.15440162 77.75 77.1875 C80.58966782 80.64542461 83.72431222 83.48233491 87.12109375 86.3828125 C90.68165355 89.44741075 93.82074294 92.76564162 96.8125 96.375 C99.64394815 99.73187152 102.7865566 102.53548476 106.12109375 105.3828125 C109.70372297 108.46640605 112.85907432 111.81045254 115.875 115.4375 C118.45588381 118.49607953 121.25222636 121.03552635 124.32421875 123.58984375 C130.63282937 128.89848812 130.63282937 128.89848812 132 133 C132.66 133 133.32 133 134 133 C135.35386936 134.65002828 136.68678142 136.3174387 138 138 C138.66 138.33 139.32 138.66 140 139 C140 139.66 140 140.32 140 141 C140.66 141 141.32 141 142 141 C143.515625 142.50390625 143.515625 142.50390625 145.25 144.5625 C146.18779297 145.66078125 146.18779297 145.66078125 147.14453125 146.78125 C148.2728519 148.13048396 149.39653923 149.48363441 150.51171875 150.84375 C153.75844951 154.75761721 157.24620288 158.07803972 161.1171875 161.375 C163.53866683 163.46490747 165.76929011 165.70900065 168 168 C168.928125 168.886875 169.85625 169.77375 170.8125 170.6875 C173 173 173 173 173 175 C173.8353125 175.3403125 173.8353125 175.3403125 174.6875 175.6875 C177.66159588 177.37550036 179.72008865 179.46676517 182 182 C182 182.66 182 183.32 182 184 C182.90492188 184.39638672 182.90492188 184.39638672 183.828125 184.80078125 C186.1042287 186.05755074 187.16818433 187.15440162 188.75 189.1875 C191.59083945 192.64685134 194.72730291 195.48451915 198.125 198.38671875 C201.92738511 201.65835427 205.24073243 205.26352576 208.5 209.0625 C211.12224208 212.09907904 213.84820952 214.51174435 217 217 C218.68732277 218.98260426 220.35366057 220.9832342 222 223 C222.9075 223.886875 223.815 224.77375 224.75 225.6875 C227 228 227 228 228 231 C228.56879883 231.28407715 229.13759766 231.5681543 229.72363281 231.86083984 C232.84049845 233.4206098 235.01215066 235.76527954 237.421875 238.2265625 C237.92672424 238.73424164 238.43157349 239.24192078 238.95172119 239.76498413 C240.55592096 241.38033842 242.15300856 243.00252209 243.75 244.625 C244.83938107 245.72441698 245.9292199 246.82338059 247.01953125 247.921875 C249.68501885 250.6093602 252.34415143 253.30299021 255 256 C254.00102287 258.99693138 253.34869747 260.02709413 251 262 C250.34 262 249.68 262 249 262 C249 262.66 249 263.32 249 264 C248.34 264 247.68 264 247 264 C246.62875 264.86625 246.62875 264.86625 246.25 265.75 C244.81700012 268.32939979 243.21575324 270.06121592 241 272 C240.34 272 239.68 272 239 272 C238.79221924 272.53375244 238.58443848 273.06750488 238.37036133 273.61743164 C236.45178921 276.95314255 233.79846343 279.44665778 231.07421875 282.12109375 C230.4896138 282.7028688 229.90500885 283.28464386 229.3026886 283.88404846 C227.43561298 285.73995842 225.56171566 287.58880352 223.6875 289.4375 C222.4376908 290.67727058 221.18833682 291.91750025 219.93945312 293.15820312 C217.6339166 295.44744394 215.32574236 297.73395135 213.0144043 300.01733398 C212.50549652 300.52102509 211.99658875 301.02471619 211.47225952 301.54367065 C210.06622568 302.93449089 208.65780481 304.32289674 207.24926758 305.71118164 C204.90419523 308.021845 204.90419523 308.021845 202.6875 310.875 C200.09254167 314.06753549 197.0609095 316.6012295 193.9296875 319.25390625 C192.12850996 320.8837167 190.63421396 322.53981973 189.125 324.4375 C188.42375 325.283125 187.7225 326.12875 187 327 C186.34 327 185.68 327 185 327 C185 327.66 185 328.32 185 329 C183.37118481 330.7271534 181.71658609 332.36393018 180 334 C178.96408859 335.02860631 177.93082678 336.05988599 176.89984131 337.09342957 C175.72979265 338.26046285 174.55972739 339.42747951 173.38964844 340.59448242 C166.86599402 347.10183639 160.34485588 353.61170593 153.82516098 360.12302685 C149.88442986 364.05851725 145.94276012 367.99305839 141.99902344 371.92553711 C138.17857042 375.7351568 134.3605372 379.54718598 130.54419708 383.36092567 C129.08895874 384.81431301 127.63283898 386.26681834 126.17583466 387.71843529 C124.14583155 389.74122054 122.11893763 391.76707166 120.09277344 393.79370117 C119.4870752 394.39580414 118.88137695 394.9979071 118.25732422 395.61825562 C115.26156565 398.53026739 115.26156565 398.53026739 113 402 C112.34 402 111.68 402 111 402 C111 402.66 111 403.32 111 404 C110.34 404 109.68 404 109 404 C108.34 405.32 107.68 406.64 107 408 C106.34 408 105.68 408 105 408 C104.64785179 408.84061478 104.64785179 408.84061478 104.28858948 409.69821167 C102.68440257 412.56374702 100.71626965 414.51550147 98.38256836 416.82861328 C97.91571121 417.29415619 97.44885406 417.7596991 96.96784973 418.23934937 C95.4297339 419.7709947 93.88476955 421.29553921 92.33984375 422.8203125 C91.26841807 423.88546549 90.19750743 424.95113679 89.12709045 426.01730347 C86.31227654 428.8188313 83.49194562 431.61473284 80.66998291 434.40905762 C76.14833977 438.88753129 71.63344588 443.37278453 67.12173653 447.86126328 C65.54363637 449.42912558 63.96217609 450.99353983 62.38035583 452.55764771 C61.41613541 453.51504208 60.45202322 454.47254548 59.48803711 455.43017578 C58.64357529 456.26638458 57.79911346 457.10259338 56.92906189 457.96414185 C54.95271333 459.85243224 54.95271333 459.85243224 54 462 C50.50424954 461.43575998 49.17451314 460.42419424 46.98999023 457.67919922 C43.99174586 454.09637647 40.83612245 450.73301866 37.52368164 447.44189453 C37.02134727 446.94222609 36.51901289 446.44255764 36.00145626 445.92774773 C34.94015993 444.87436713 33.87794907 443.82190725 32.81489754 442.770298 C31.12707277 441.10007402 29.44299693 439.42614993 27.75987244 437.75119019 C22.98019385 432.99580319 18.19466748 428.24633137 13.4050293 423.50097656 C10.46205353 420.58470181 7.52390204 417.66363916 4.58871269 414.73952866 C3.47138441 413.62841772 2.35216111 412.51920908 1.23103523 411.41193008 C-0.32698708 409.87301403 -1.87885305 408.32813711 -3.42944336 406.78173828 C-4.31433945 405.90429962 -5.19923553 405.02686096 -6.11094666 404.12283325 C-8 402 -8 402 -8 400 C-8.66 400 -9.32 400 -10 400 C-10 399.34 -10 398.68 -10 398 C-10.99 397.67 -11.98 397.34 -13 397 C-14.6484375 395.328125 -14.6484375 395.328125 -16.375 393.25 C-19.95245694 389.04255065 -23.55986877 385.15836642 -27.875 381.6875 C-31.02383019 379.12148671 -33.58248881 376.16567278 -36.19140625 373.0625 C-39.79384513 368.95431916 -43.79729324 365.20757045 -47.68305969 361.36824036 C-50.09662137 358.98149053 -52.50482663 356.58936559 -54.9128418 354.19702148 C-56.18647901 352.93353278 -57.46189176 351.67183153 -58.73901367 350.41186523 C-60.58719248 348.5878147 -62.42895096 346.75749477 -64.26953125 344.92578125 C-64.84443802 344.36119705 -65.41934479 343.79661285 -66.01167297 343.21492004 C-67.37959931 341.84738775 -68.69539653 340.42806752 -70 339 C-70 338.34 -70 337.68 -70 337 C-70.66 337 -71.32 337 -72 337 C-72 336.34 -72 335.68 -72 335 C-72.61875 334.7525 -73.2375 334.505 -73.875 334.25 C-76.35068687 332.79371361 -76.95125002 331.62187494 -78 329 C-78.66 329 -79.32 329 -80 329 C-80 328.34 -80 327.68 -80 327 C-80.66 327 -81.32 327 -82 327 C-83.48046875 325.4609375 -83.48046875 325.4609375 -85.1875 323.375 C-87.50190374 320.64285119 -89.79395631 318.20770582 -92.5625 315.9375 C-95.6105531 313.42814085 -98.08620692 310.68734076 -100.60546875 307.65625 C-103.56128088 304.14570562 -106.85047273 301.10759831 -110.375 298.1875 C-113.67700426 295.40233119 -116.45441361 292.3336384 -119.2265625 289.02734375 C-121.37768788 286.56823786 -123.68280403 284.30381367 -126 282 C-134 274 -142 266 -150 258 C-148.50410556 254.84812633 -146.97845843 252.78334055 -144.4375 250.375 C-141.85984611 247.95478041 -141.85984611 247.95478041 -140 245 C-139.34 245 -138.68 245 -138 245 C-137.67 244.01 -137.34 243.02 -137 242 C-136.34 242 -135.68 242 -135 242 C-135 241.34 -135 240.68 -135 240 C-134.34 240 -133.68 240 -133 240 C-132.773125 239.443125 -132.54625 238.88625 -132.3125 238.3125 C-130.62449964 235.33840412 -128.53323483 233.27991135 -126 231 C-125.34 231 -124.68 231 -124 231 C-123.62101562 230.12794922 -123.62101562 230.12794922 -123.234375 229.23828125 C-121.85621935 226.73928382 -120.31416075 225.15165296 -118.25 223.1875 C-115.09669631 220.11972896 -112.19593335 216.96212242 -109.37109375 213.59375 C-107.37049089 211.26826291 -105.19676744 209.13895777 -103 207 C-102.278125 206.236875 -101.55625 205.47375 -100.8125 204.6875 C-99 203 -99 203 -97 203 C-96.61521484 202.12214844 -96.61521484 202.12214844 -96.22265625 201.2265625 C-94.89437838 198.80765392 -93.43475199 197.26801128 -91.4375 195.375 C-88.85984611 192.95478041 -88.85984611 192.95478041 -87 190 C-86.34 190 -85.68 190 -85 190 C-84.7525 189.401875 -84.505 188.80375 -84.25 188.1875 C-82.77541915 185.60698352 -81.52596033 184.55681575 -79 183 C-76.55563736 182.63085651 -76.55563736 182.63085651 -73.77349854 182.63923645 C-72.18759666 182.63305046 -72.18759666 182.63305046 -70.56965637 182.6267395 C-69.41519516 182.63752533 -68.26073395 182.64831116 -67.07128906 182.65942383 C-65.24161842 182.65876671 -65.24161842 182.65876671 -63.37498474 182.65809631 C-60.03420061 182.6598277 -56.69397328 182.67486809 -53.3532877 182.69581819 C-49.86060287 182.71457778 -46.36791054 182.71633485 -42.87518311 182.71989441 C-36.26308374 182.72921701 -29.65113327 182.75383361 -23.03909945 182.78394288 C-15.510755 182.81748027 -7.98240342 182.83397122 -0.45400286 182.84902918 C15.03075097 182.88038305 30.51535628 182.93314763 46 183 C46 183.99 46 184.98 46 186 C45.34 186 44.68 186 44 186 C43.814375 186.70125 43.62875 187.4025 43.4375 188.125 C41.75251516 191.49496968 39.84119878 192.98824972 36.9453125 195.30859375 C34.13020725 197.75626558 31.83843853 200.57957397 29.48046875 203.4609375 C28.99191406 203.96882812 28.50335938 204.47671875 28 205 C27.34 205 26.68 205 26 205 C25.773125 205.556875 25.54625 206.11375 25.3125 206.6875 C23.62632969 209.65837149 21.44612884 211.60822958 19 214 C17.25862146 215.96054518 15.54760874 217.94430676 13.84375 219.9375 C11.65203687 222.38924689 9.33932896 224.68885573 7 227 C6.175 227.825 5.35 228.65 4.5 229.5 C-3 237 -3 237 -5.58203125 239.54296875 C-8.37197728 242.37798661 -10.90400907 245.37265833 -13.44921875 248.42578125 C-13.96097656 248.94527344 -14.47273437 249.46476563 -15 250 C-15.66 250 -16.32 250 -17 250 C-17.433125 250.86625 -17.433125 250.86625 -17.875 251.75 C-19.4375 254.875 -19.4375 254.875 -21 258 C-20.4225 258.55429687 -19.845 259.10859375 -19.25 259.6796875 C-18.5075 260.40414063 -17.765 261.12859375 -17 261.875 C-16.2575 262.59429687 -15.515 263.31359375 -14.75 264.0546875 C-13 266 -13 266 -13 268 C-12.41476563 268.24621094 -11.82953125 268.49242187 -11.2265625 268.74609375 C-8.65597983 270.19373768 -7.24544307 271.79242482 -5.375 274.0625 C-3.04514448 276.97875712 -3.04514448 276.97875712 0 279 C0 279.66 0 280.32 0 281 C0.66 281 1.32 281 2 281 C3.26953125 282.29296875 3.26953125 282.29296875 4.8125 284.1875 C8.83610721 288.95590259 13.24599605 293.27798618 17.73168945 297.60620117 C19.19058334 299.03482136 20.5999677 300.51364992 22 302 C22 302.66 22 303.32 22 304 C22.99 304.33 23.98 304.66 25 305 C26.46606445 306.47631836 26.46606445 306.47631836 28.05078125 308.40234375 C32.53663432 313.68279996 37.32910445 318.6255705 42.1875 323.5625 C43.07630859 324.48869141 43.96511719 325.41488281 44.88085938 326.36914062 C45.73873047 327.23861328 46.59660156 328.10808594 47.48046875 329.00390625 C48.25285889 329.79611572 49.02524902 330.5883252 49.82104492 331.40454102 C51.86134722 333.27513886 51.86134722 333.27513886 54.2824707 332.74975586 C54.84925537 332.50233643 55.41604004 332.25491699 56 332 C56 331.34 56 330.68 56 330 C56.66 330 57.32 330 58 330 C58 329.34 58 328.68 58 328 C58.66 328 59.32 328 60 328 C60.25289795 327.42113037 60.5057959 326.84226074 60.76635742 326.24584961 C62.14619931 323.73384376 63.69756641 322.07521574 65.73828125 320.06640625 C66.47626953 319.33486328 67.21425781 318.60332031 67.97460938 317.84960938 C69.13186523 316.71749023 69.13186523 316.71749023 70.3125 315.5625 C71.07240234 314.81162109 71.83230469 314.06074219 72.61523438 313.28710938 C75.56044018 310.37772709 78.51133546 307.47481263 81.48046875 304.58984375 C83.77607155 302.23017762 85.96138573 299.81136438 88.1484375 297.3515625 C93.1034627 291.81383454 98.33400509 286.58975579 103.625 281.375 C109.12002883 275.95847158 114.54669743 270.56022491 119.54663086 264.67822266 C121.58354515 262.32617347 123.76706042 260.16527475 126 258 C124.7750757 253.37250818 122.37272825 251.42324331 118.80078125 248.5390625 C117.11669546 247.09973539 115.76376906 245.65692835 114.375 243.9375 C110.98048655 239.73902284 107.22522399 236.1794056 103.125 232.6875 C99.59405035 229.63622653 96.55240694 226.35333384 93.54296875 222.79296875 C91.91239016 220.84520362 91.91239016 220.84520362 89.5625 218.625 C88 217 88 217 88 215 C87.34 215 86.68 215 86 215 C86 214.34 86 213.68 86 213 C85.443125 212.79375 84.88625 212.5875 84.3125 212.375 C81.73408667 210.84188937 80.26240121 208.97702891 78.41796875 206.64453125 C76.39414301 204.29733941 74.06248642 202.40664277 71.6875 200.42578125 C67.92649224 197.24807793 64.69723118 193.66530618 61.5 189.9375 C59.56663982 187.69996893 57.817417 185.8539336 55.5 184 C52.48466923 181.58773539 50.14585224 178.83208189 47.6484375 175.8984375 C45.92824582 173.86415086 45.92824582 173.86415086 43.5625 171.625 C42 170 42 170 42 168 C41.40832031 167.74734375 40.81664062 167.4946875 40.20703125 167.234375 C37.73986939 165.85451102 36.46288171 164.43638893 34.6875 162.25 C31.88352236 158.92965817 28.96144244 156.12687993 25.62109375 153.359375 C22.09554379 150.40301021 19.05775868 147.0910962 16.125 143.5625 C13.54215399 140.50159508 10.74461674 137.95993575 7.66796875 135.40625 C-1.67937648 127.52558424 -1.67937648 127.52558424 -2.34751892 122.26255798 C-2.33459305 121.21032547 -2.32166718 120.15809296 -2.30834961 119.07397461 C-2.30098282 117.87124405 -2.29361603 116.66851349 -2.286026 115.42933655 C-2.26253586 114.12105392 -2.23904572 112.8127713 -2.21484375 111.46484375 C-2.20059789 110.07927201 -2.18768147 108.69368603 -2.17601013 107.30809021 C-2.14133444 103.62041588 -2.088386 99.93321079 -2.03212738 96.24581146 C-1.979847 92.591238 -1.94599215 88.93650766 -1.91064453 85.28173828 C-1.83581934 77.87835035 -1.73612316 70.47547389 -1.62768555 63.07250977 C-1.5834893 60.05333294 -1.54188286 57.03413842 -1.50268555 54.01489258 C-1.26856698 35.99593258 -0.90154345 18.00082299 0 0 Z " fill="#B1CB36" transform="translate(198,19)"/>
<path d="M0 0 C1.58590187 -0.00618599 1.58590187 -0.00618599 3.20384216 -0.01249695 C4.35830338 -0.00171112 5.51276459 0.00907471 6.70220947 0.02018738 C8.53188011 0.01953026 8.53188011 0.01953026 10.39851379 0.01885986 C13.73929793 0.02059125 17.07952526 0.03563164 20.42021084 0.05658174 C23.91289567 0.07534133 27.40558799 0.0770984 30.89831543 0.08065796 C37.51041479 0.08998056 44.12236527 0.11459716 50.73439908 0.14470643 C58.26274353 0.17824382 65.79109511 0.19473477 73.31949568 0.20979273 C88.80424951 0.2411466 104.28885482 0.29391118 119.77349854 0.36076355 C119.77349854 1.35076355 119.77349854 2.34076355 119.77349854 3.36076355 C119.11349854 3.36076355 118.45349854 3.36076355 117.77349854 3.36076355 C117.58787354 4.06201355 117.40224854 4.76326355 117.21099854 5.48576355 C115.5260137 8.85573323 113.61469731 10.34901327 110.71881104 12.6693573 C107.90370579 15.11702913 105.61193706 17.94033752 103.25396729 20.82170105 C102.7654126 21.32959167 102.27685791 21.8374823 101.77349854 22.36076355 C101.11349854 22.36076355 100.45349854 22.36076355 99.77349854 22.36076355 C99.43318604 23.19607605 99.43318604 23.19607605 99.08599854 24.04826355 C97.39982823 27.01913504 95.21962738 28.96899313 92.77349854 31.36076355 C91.03211999 33.32130873 89.32110727 35.30507031 87.61724854 37.29826355 C85.42553541 39.75001044 83.11282749 42.04961928 80.77349854 44.36076355 C79.94849854 45.18576355 79.12349854 46.01076355 78.27349854 46.86076355 C70.77349854 54.36076355 70.77349854 54.36076355 68.19146729 56.9037323 C65.40152125 59.73875016 62.86948946 62.73342188 60.32427979 65.7865448 C59.81252197 66.30603699 59.30076416 66.82552917 58.77349854 67.36076355 C58.11349854 67.36076355 57.45349854 67.36076355 56.77349854 67.36076355 C56.48474854 67.93826355 56.19599854 68.51576355 55.89849854 69.11076355 C54.85683187 71.19409688 53.8151652 73.27743022 52.77349854 75.36076355 C53.35099854 75.91506042 53.92849854 76.4693573 54.52349854 77.04045105 C55.26599854 77.76490417 56.00849854 78.4893573 56.77349854 79.23576355 C57.51599854 79.95506042 58.25849854 80.6743573 59.02349854 81.41545105 C60.77349854 83.36076355 60.77349854 83.36076355 60.77349854 85.36076355 C61.35873291 85.60697449 61.94396729 85.85318542 62.54693604 86.1068573 C65.11751871 87.55450123 66.52805546 89.15318837 68.39849854 91.42326355 C70.72835406 94.33952067 70.72835406 94.33952067 73.77349854 96.36076355 C73.77349854 97.02076355 73.77349854 97.68076355 73.77349854 98.36076355 C74.43349854 98.36076355 75.09349854 98.36076355 75.77349854 98.36076355 C77.04302979 99.6537323 77.04302979 99.6537323 78.58599854 101.54826355 C82.60960575 106.31666614 87.01949458 110.63874973 91.50518799 114.96696472 C92.96408187 116.39558491 94.37346623 117.87441347 95.77349854 119.36076355 C95.77349854 120.02076355 95.77349854 120.68076355 95.77349854 121.36076355 C96.76349854 121.69076355 97.75349854 122.02076355 98.77349854 122.36076355 C100.25054932 123.8634491 100.25054932 123.8634491 101.84381104 125.8099823 C106.94410456 131.82382129 112.63324378 137.23204407 118.27349854 142.73381042 C119.09592041 143.54527527 119.91834229 144.35674011 120.76568604 145.1927948 C121.51189209 145.92216248 122.25809814 146.65153015 123.0269165 147.40299988 C125.86758986 150.58714297 125.89785625 153.376124 125.89375305 157.4670105 C125.89581505 159.05085037 125.89581505 159.05085037 125.8979187 160.66668701 C125.89432343 161.8247435 125.89072815 162.98279999 125.88702393 164.1759491 C125.88716995 165.3955835 125.88731598 166.6152179 125.88746643 167.87181091 C125.88688871 171.21659206 125.88186979 174.56131166 125.87489247 177.90608191 C125.86864564 181.40145674 125.86805408 184.89683237 125.86686707 188.39221191 C125.86375768 195.01136422 125.85554956 201.63050002 125.84551758 208.24964505 C125.83434427 215.78524006 125.82884292 223.32083586 125.82382214 230.85643709 C125.81336664 246.3578888 125.79577477 261.85932405 125.77349854 277.36076355 C125.11349854 277.69076355 124.45349854 278.02076355 123.77349854 278.36076355 C123.40554672 277.92094147 123.03759491 277.48111938 122.65849304 277.02796936 C117.59319899 271.0989531 112.12730473 265.61035147 106.58839607 260.13106155 C104.90057131 258.46083757 103.21649547 256.78691348 101.53337097 255.11195374 C96.75369238 250.35656674 91.96816601 245.60709492 87.17852783 240.86174011 C84.23555207 237.94546536 81.29740058 235.02440271 78.36221123 232.10029221 C77.24488294 230.98918127 76.12565965 229.87997263 75.00453377 228.77269363 C73.44651145 227.23377758 71.89464548 225.68890066 70.34405518 224.14250183 C69.45915909 223.26506317 68.574263 222.38762451 67.66255188 221.4835968 C65.77349854 219.36076355 65.77349854 219.36076355 65.77349854 217.36076355 C65.11349854 217.36076355 64.45349854 217.36076355 63.77349854 217.36076355 C63.77349854 216.70076355 63.77349854 216.04076355 63.77349854 215.36076355 C62.78349854 215.03076355 61.79349854 214.70076355 60.77349854 214.36076355 C59.12506104 212.68888855 59.12506104 212.68888855 57.39849854 210.61076355 C53.8210416 206.4033142 50.21362977 202.51912997 45.89849854 199.04826355 C42.74966835 196.48225026 40.19100973 193.52643633 37.58209229 190.42326355 C33.9796534 186.3150827 29.97620529 182.568334 26.09043884 178.72900391 C23.67687717 176.34225408 21.26867191 173.95012914 18.86065674 171.55778503 C17.58701953 170.29429633 16.31160677 169.03259508 15.03448486 167.77262878 C13.18630605 165.94857825 11.34454757 164.11825832 9.50396729 162.2865448 C8.92906052 161.7219606 8.35415375 161.1573764 7.76182556 160.57568359 C6.39389923 159.20815129 5.078102 157.78883107 3.77349854 156.36076355 C3.77349854 155.70076355 3.77349854 155.04076355 3.77349854 154.36076355 C3.11349854 154.36076355 2.45349854 154.36076355 1.77349854 154.36076355 C1.77349854 153.70076355 1.77349854 153.04076355 1.77349854 152.36076355 C1.15474854 152.11326355 0.53599854 151.86576355 -0.10150146 151.61076355 C-2.57718833 150.15447716 -3.17775149 148.98263849 -4.22650146 146.36076355 C-4.88650146 146.36076355 -5.54650146 146.36076355 -6.22650146 146.36076355 C-6.22650146 145.70076355 -6.22650146 145.04076355 -6.22650146 144.36076355 C-6.88650146 144.36076355 -7.54650146 144.36076355 -8.22650146 144.36076355 C-9.70697021 142.82170105 -9.70697021 142.82170105 -11.41400146 140.73576355 C-13.7284052 138.00361474 -16.02045778 135.56846937 -18.78900146 133.29826355 C-21.83705457 130.7889044 -24.31270838 128.04810431 -26.83197021 125.01701355 C-29.78778234 121.50646917 -33.0769742 118.46836186 -36.60150146 115.54826355 C-39.90350573 112.76309474 -42.68091508 109.69440195 -45.45306396 106.3881073 C-47.60418935 103.92900141 -49.9093055 101.66457722 -52.22650146 99.36076355 C-60.22650146 91.36076355 -68.22650146 83.36076355 -76.22650146 75.36076355 C-74.73060703 72.20888988 -73.20495989 70.1441041 -70.66400146 67.73576355 C-68.08634757 65.31554396 -68.08634757 65.31554396 -66.22650146 62.36076355 C-65.56650146 62.36076355 -64.90650146 62.36076355 -64.22650146 62.36076355 C-63.89650146 61.37076355 -63.56650146 60.38076355 -63.22650146 59.36076355 C-62.56650146 59.36076355 -61.90650146 59.36076355 -61.22650146 59.36076355 C-61.22650146 58.70076355 -61.22650146 58.04076355 -61.22650146 57.36076355 C-60.56650146 57.36076355 -59.90650146 57.36076355 -59.22650146 57.36076355 C-58.99962646 56.80388855 -58.77275146 56.24701355 -58.53900146 55.67326355 C-56.8510011 52.69916767 -54.7597363 50.6406749 -52.22650146 48.36076355 C-51.56650146 48.36076355 -50.90650146 48.36076355 -50.22650146 48.36076355 C-49.97384521 47.77939636 -49.72118896 47.19802917 -49.46087646 46.5990448 C-48.08272081 44.10004737 -46.54066222 42.51241651 -44.47650146 40.54826355 C-41.32319777 37.48049251 -38.42243481 34.32288597 -35.59759521 30.95451355 C-33.59699235 28.62902646 -31.42326891 26.49972132 -29.22650146 24.36076355 C-28.50462646 23.59763855 -27.78275146 22.83451355 -27.03900146 22.04826355 C-25.22650146 20.36076355 -25.22650146 20.36076355 -23.22650146 20.36076355 C-22.96997803 19.77552917 -22.71345459 19.1902948 -22.44915771 18.58732605 C-21.12087984 16.16841747 -19.66125345 14.62877483 -17.66400146 12.73576355 C-15.08634757 10.31554396 -15.08634757 10.31554396 -13.22650146 7.36076355 C-12.56650146 7.36076355 -11.90650146 7.36076355 -11.22650146 7.36076355 C-10.97900146 6.76263855 -10.73150146 6.16451355 -10.47650146 5.54826355 C-7.92352301 1.08055126 -5.00231912 -0.01506723 0 0 Z " fill="#E10712" transform="translate(124.22650146484375,201.6392364501953)"/>
<path d="M0 0 C40.92 0 81.84 0 124 0 C124 3 124 3 123 5 C122.34 5 121.68 5 121 5 C121 5.66 121 6.32 121 7 C120.34 7 119.68 7 119 7 C118.62875 7.86625 118.62875 7.86625 118.25 8.75 C116.81700012 11.32939979 115.21575324 13.06121592 113 15 C112.34 15 111.68 15 111 15 C110.79221924 15.53375244 110.58443848 16.06750488 110.37036133 16.61743164 C108.45178921 19.95314255 105.79846343 22.44665778 103.07421875 25.12109375 C102.4896138 25.7028688 101.90500885 26.28464386 101.3026886 26.88404846 C99.43561298 28.73995842 97.56171566 30.58880352 95.6875 32.4375 C94.4376908 33.67727058 93.18833682 34.91750025 91.93945312 36.15820312 C89.6339166 38.44744394 87.32574236 40.73395135 85.0144043 43.01733398 C84.50549652 43.52102509 83.99658875 44.02471619 83.47225952 44.54367065 C82.06622568 45.93449089 80.65780481 47.32289674 79.24926758 48.71118164 C76.90419523 51.021845 76.90419523 51.021845 74.6875 53.875 C72.09254167 57.06753549 69.0609095 59.6012295 65.9296875 62.25390625 C64.12850996 63.8837167 62.63421396 65.53981973 61.125 67.4375 C60.42375 68.283125 59.7225 69.12875 59 70 C58.34 70 57.68 70 57 70 C57 70.66 57 71.32 57 72 C55.37118481 73.7271534 53.71658609 75.36393018 52 77 C50.96408859 78.02860631 49.93082678 79.05988599 48.89984131 80.09342957 C47.72979265 81.26046285 46.55972739 82.42747951 45.38964844 83.59448242 C38.86599402 90.10183639 32.34485588 96.61170593 25.82516098 103.12302685 C21.88442986 107.05851725 17.94276012 110.99305839 13.99902344 114.92553711 C10.17857042 118.7351568 6.3605372 122.54718598 2.54419708 126.36092567 C1.08895874 127.81431301 -0.36716102 129.26681834 -1.82416534 130.71843529 C-3.85416845 132.74122054 -5.88106237 134.76707166 -7.90722656 136.79370117 C-8.81577393 137.69685562 -8.81577393 137.69685562 -9.74267578 138.61825562 C-12.73843435 141.53026739 -12.73843435 141.53026739 -15 145 C-15.66 145 -16.32 145 -17 145 C-17 145.66 -17 146.32 -17 147 C-17.66 147 -18.32 147 -19 147 C-19.66 148.32 -20.32 149.64 -21 151 C-21.66 151 -22.32 151 -23 151 C-23.35214821 151.84061478 -23.35214821 151.84061478 -23.71141052 152.69821167 C-25.31559743 155.56374702 -27.28373035 157.51550147 -29.61743164 159.82861328 C-30.31771736 160.52692764 -30.31771736 160.52692764 -31.03215027 161.23934937 C-32.5702661 162.7709947 -34.11523045 164.29553921 -35.66015625 165.8203125 C-36.73158193 166.88546549 -37.80249257 167.95113679 -38.87290955 169.01730347 C-41.68772346 171.8188313 -44.50805438 174.61473284 -47.33001709 177.40905762 C-51.85166023 181.88753129 -56.36655412 186.37278453 -60.87826347 190.86126328 C-62.45636363 192.42912558 -64.03782391 193.99353983 -65.61964417 195.55764771 C-66.58386459 196.51504208 -67.54797678 197.47254548 -68.51196289 198.43017578 C-69.35642471 199.26638458 -70.20088654 200.10259338 -71.07093811 200.96414185 C-73.04728667 202.85243224 -73.04728667 202.85243224 -74 205 C-74.99 204.67 -75.98 204.34 -77 204 C-77 161.76 -77 119.52 -77 76 C-74.525 75.505 -74.525 75.505 -72 75 C-72 74.34 -72 73.68 -72 73 C-71.34 73 -70.68 73 -70 73 C-70 72.34 -70 71.68 -70 71 C-69.34 71 -68.68 71 -68 71 C-67.74710205 70.42113037 -67.4942041 69.84226074 -67.23364258 69.24584961 C-65.85380069 66.73384376 -64.30243359 65.07521574 -62.26171875 63.06640625 C-61.15473633 61.9690918 -61.15473633 61.9690918 -60.02539062 60.84960938 C-59.25388672 60.09486328 -58.48238281 59.34011719 -57.6875 58.5625 C-56.92759766 57.81162109 -56.16769531 57.06074219 -55.38476562 56.28710938 C-52.43955982 53.37772709 -49.48866454 50.47481263 -46.51953125 47.58984375 C-44.22392845 45.23017762 -42.03861427 42.81136438 -39.8515625 40.3515625 C-34.8965373 34.81383454 -29.66599491 29.58975579 -24.375 24.375 C-18.34438288 18.43053455 -12.48801897 12.45069366 -7 6 C-4.75 3.5 -4.75 3.5 -3 2 C-2.01 2 -1.02 2 0 2 C0 1.34 0 0.68 0 0 Z " fill="#029AB2" transform="translate(326,276)"/>
<path d="M0 0 C1.58590187 -0.00618599 1.58590187 -0.00618599 3.20384216 -0.01249695 C4.35830338 -0.00171112 5.51276459 0.00907471 6.70220947 0.02018738 C8.53188011 0.01953026 8.53188011 0.01953026 10.39851379 0.01885986 C13.73929793 0.02059125 17.07952526 0.03563164 20.42021084 0.05658174 C23.91289567 0.07534133 27.40558799 0.0770984 30.89831543 0.08065796 C37.51041479 0.08998056 44.12236527 0.11459716 50.73439908 0.14470643 C58.26274353 0.17824382 65.79109511 0.19473477 73.31949568 0.20979273 C88.80424951 0.2411466 104.28885482 0.29391118 119.77349854 0.36076355 C119.77349854 1.35076355 119.77349854 2.34076355 119.77349854 3.36076355 C119.11349854 3.36076355 118.45349854 3.36076355 117.77349854 3.36076355 C117.58787354 4.06201355 117.40224854 4.76326355 117.21099854 5.48576355 C115.5260137 8.85573323 113.61469731 10.34901327 110.71881104 12.6693573 C107.90370579 15.11702913 105.61193706 17.94033752 103.25396729 20.82170105 C102.7654126 21.32959167 102.27685791 21.8374823 101.77349854 22.36076355 C101.11349854 22.36076355 100.45349854 22.36076355 99.77349854 22.36076355 C99.43318604 23.19607605 99.43318604 23.19607605 99.08599854 24.04826355 C97.39982823 27.01913504 95.21962738 28.96899313 92.77349854 31.36076355 C91.03211999 33.32130873 89.32110727 35.30507031 87.61724854 37.29826355 C85.42553541 39.75001044 83.11282749 42.04961928 80.77349854 44.36076355 C79.94849854 45.18576355 79.12349854 46.01076355 78.27349854 46.86076355 C70.77349854 54.36076355 70.77349854 54.36076355 68.19146729 56.9037323 C65.40152125 59.73875016 62.86948946 62.73342188 60.32427979 65.7865448 C59.81252197 66.30603699 59.30076416 66.82552917 58.77349854 67.36076355 C58.11349854 67.36076355 57.45349854 67.36076355 56.77349854 67.36076355 C56.48474854 67.93826355 56.19599854 68.51576355 55.89849854 69.11076355 C55.16081024 70.58614015 54.3906702 72.04582478 53.58599854 73.48576355 C53.31787354 74.10451355 53.04974854 74.72326355 52.77349854 75.36076355 C53.10349854 76.02076355 53.43349854 76.68076355 53.77349854 77.36076355 C50.80349854 76.86576355 50.80349854 76.86576355 47.77349854 76.36076355 C47.77349854 76.03076355 47.77349854 75.70076355 47.77349854 75.36076355 C-12.61650146 74.86576355 -12.61650146 74.86576355 -74.22650146 74.36076355 C-74.72150146 75.35076355 -74.72150146 75.35076355 -75.22650146 76.36076355 C-75.22650146 72.36076355 -75.22650146 72.36076355 -73.51165771 70.29045105 C-72.77818115 69.61240417 -72.04470459 68.9343573 -71.28900146 68.23576355 C-68.35657711 65.59863106 -68.35657711 65.59863106 -66.22650146 62.36076355 C-65.56650146 62.36076355 -64.90650146 62.36076355 -64.22650146 62.36076355 C-63.89650146 61.37076355 -63.56650146 60.38076355 -63.22650146 59.36076355 C-62.56650146 59.36076355 -61.90650146 59.36076355 -61.22650146 59.36076355 C-61.22650146 58.70076355 -61.22650146 58.04076355 -61.22650146 57.36076355 C-60.56650146 57.36076355 -59.90650146 57.36076355 -59.22650146 57.36076355 C-58.99962646 56.80388855 -58.77275146 56.24701355 -58.53900146 55.67326355 C-56.8510011 52.69916767 -54.7597363 50.6406749 -52.22650146 48.36076355 C-51.56650146 48.36076355 -50.90650146 48.36076355 -50.22650146 48.36076355 C-49.97384521 47.77939636 -49.72118896 47.19802917 -49.46087646 46.5990448 C-48.08272081 44.10004737 -46.54066222 42.51241651 -44.47650146 40.54826355 C-41.32319777 37.48049251 -38.42243481 34.32288597 -35.59759521 30.95451355 C-33.59699235 28.62902646 -31.42326891 26.49972132 -29.22650146 24.36076355 C-28.50462646 23.59763855 -27.78275146 22.83451355 -27.03900146 22.04826355 C-25.22650146 20.36076355 -25.22650146 20.36076355 -23.22650146 20.36076355 C-22.96997803 19.77552917 -22.71345459 19.1902948 -22.44915771 18.58732605 C-21.12087984 16.16841747 -19.66125345 14.62877483 -17.66400146 12.73576355 C-15.08634757 10.31554396 -15.08634757 10.31554396 -13.22650146 7.36076355 C-12.56650146 7.36076355 -11.90650146 7.36076355 -11.22650146 7.36076355 C-10.97900146 6.76263855 -10.73150146 6.16451355 -10.47650146 5.54826355 C-7.92352301 1.08055126 -5.00231912 -0.01506723 0 0 Z " fill="#EA8E2F" transform="translate(124.22650146484375,201.6392364501953)"/>
<path d="M0 0 C0.66 0.33 1.32 0.66 2 1 C1.67 1.33 1.34 1.66 1 2 C0.89190884 3.58113613 0.85315956 5.16706062 0.84178162 6.75184631 C0.8319928 7.77974777 0.82220398 8.80764923 0.81211853 9.86669922 C0.80636307 11.00389404 0.8006076 12.14108887 0.79467773 13.31274414 C0.78477814 14.50282578 0.77487854 15.69290741 0.76467896 16.91905212 C0.73842897 20.19160309 0.71659269 23.46414865 0.69667697 26.73674321 C0.67485467 30.15341561 0.64744767 33.57004297 0.62062073 36.98667908 C0.57064288 43.46065999 0.52572302 49.93466584 0.48259836 56.40869564 C0.43326941 63.77741119 0.37833523 71.14608157 0.32291877 78.51475346 C0.20902059 93.67646023 0.10219871 108.83820952 0 124 C1.32 124.33 2.64 124.66 4 125 C2.68 126.65 1.36 128.3 0 130 C-0.99 129.67 -1.98 129.34 -3 129 C-3 86.76 -3 44.52 -3 1 C-2.01 0.67 -1.02 0.34 0 0 Z " fill="#517389" transform="translate(252,351)"/>
<path d="M0 0 C1.58590187 -0.00618599 1.58590187 -0.00618599 3.20384216 -0.01249695 C4.35830338 -0.00171112 5.51276459 0.00907471 6.70220947 0.02018738 C8.53188011 0.01953026 8.53188011 0.01953026 10.39851379 0.01885986 C13.73929793 0.02059125 17.07952526 0.03563164 20.42021084 0.05658174 C23.91289567 0.07534133 27.40558799 0.0770984 30.89831543 0.08065796 C37.51041479 0.08998056 44.12236527 0.11459716 50.73439908 0.14470643 C58.26274353 0.17824382 65.79109511 0.19473477 73.31949568 0.20979273 C88.80424951 0.2411466 104.28885482 0.29391118 119.77349854 0.36076355 C119.77349854 1.35076355 119.77349854 2.34076355 119.77349854 3.36076355 C119.11349854 3.36076355 118.45349854 3.36076355 117.77349854 3.36076355 C117.77349854 2.70076355 117.77349854 2.04076355 117.77349854 1.36076355 C101.95287307 1.39793737 86.13250671 1.45780838 70.31208515 1.54466629 C62.96629281 1.58446783 55.62060777 1.61685457 48.27471924 1.63175964 C41.87167704 1.64477048 35.46887083 1.67172029 29.06596154 1.71537662 C25.67592184 1.73800465 22.28617333 1.75367346 18.89605141 1.7526474 C15.11045355 1.755006 11.32578285 1.78199893 7.54034424 1.81486511 C5.85612366 1.80731956 5.85612366 1.80731956 4.13787842 1.79962158 C-1.89832322 1.85938002 -1.89832322 1.85938002 -7.36036682 4.19566345 C-9.53473246 6.71837492 -10.76908667 9.37968782 -12.22650146 12.36076355 C-13.21650146 12.69076355 -14.20650146 13.02076355 -15.22650146 13.36076355 C-14.72046154 11.19202103 -14.22666333 9.36108728 -13.22650146 7.36076355 C-12.56650146 7.36076355 -11.90650146 7.36076355 -11.22650146 7.36076355 C-10.97900146 6.76263855 -10.73150146 6.16451355 -10.47650146 5.54826355 C-7.92352301 1.08055126 -5.00231912 -0.01506723 0 0 Z " fill="#E4A360" transform="translate(124.22650146484375,201.6392364501953)"/>
<path d="M0 0 C0.5514204 0.3242565 1.10284081 0.64851299 1.67097092 0.98259544 C4.38325382 2.1674192 6.31009464 2.2608173 9.26446533 2.2784729 C10.3301474 2.28963638 11.39582947 2.30079987 12.49380493 2.31230164 C13.65761688 2.31446182 14.82142883 2.31662201 16.02050781 2.31884766 C17.25004181 2.32889328 18.47957581 2.3389389 19.74636841 2.34928894 C23.11382956 2.37487891 26.48112226 2.39173519 29.8486414 2.40471697 C33.3694189 2.42035194 36.89011108 2.44714098 40.41082764 2.4727478 C47.07594737 2.51952914 53.74108317 2.55627634 60.40628314 2.58942068 C67.99515967 2.62764664 75.58395049 2.67705555 83.17275476 2.72740483 C98.78177455 2.83071508 114.3908424 2.9199784 130 3 C129.67 3.99 129.34 4.98 129 6 C128.01 5.505 128.01 5.505 127 5 C125.35313431 4.89537351 123.70211603 4.85344931 122.05197144 4.84178162 C121.005867 4.8319928 119.95976257 4.82220398 118.88195801 4.81211853 C117.72965698 4.80636307 116.57735596 4.8006076 115.39013672 4.79467773 C114.18040192 4.78477814 112.97066711 4.77487854 111.72427368 4.76467896 C108.40218923 4.73845695 105.08012926 4.71660908 101.75800467 4.69667697 C98.28795357 4.67483264 94.8179465 4.64743637 91.34793091 4.62062073 C84.77481805 4.57067279 78.20168079 4.52574178 71.62852013 4.48259836 C64.14612036 4.43324392 56.66376476 4.37831915 49.18140769 4.32291877 C33.78764593 4.20906649 18.39384357 4.10223454 3 4 C3 4.66 3 5.32 3 6 C2.34 5.67 1.68 5.34 1 5 C0.375 2.4375 0.375 2.4375 0 0 Z " fill="#82C25D" transform="translate(323,272)"/>
<path d="M0 0 C40.92 0 81.84 0 124 0 C124 3 124 3 123 5 C122.34 5 121.68 5 121 5 C121 5.66 121 6.32 121 7 C120.34 7 119.68 7 119 7 C119 6.01 119 5.02 119 4 C119.66 4 120.32 4 121 4 C121 3.01 121 2.02 121 1 C81.07 1 41.14 1 0 1 C0 0.67 0 0.34 0 0 Z " fill="#289D84" transform="translate(326,276)"/>
<path d="M0 0 C0 0.99 0 1.98 0 3 C-1.66666667 4.66666667 -3.33333333 6.33333333 -5 8 C-6.45119602 10.27763986 -7.70227008 12.6282867 -9 15 C-9.66 15.66 -10.32 16.32 -11 17 C-10.6814823 19.10820797 -10.6814823 19.10820797 -10 21 C-10.60328125 21.08636719 -11.2065625 21.17273438 -11.828125 21.26171875 C-17.28282267 22.21039289 -17.28282267 22.21039289 -21.5625 25.625 C-22.036875 26.40875 -22.51125 27.1925 -23 28 C-23 24 -23 24 -21.28515625 21.9296875 C-20.18494141 20.91261719 -20.18494141 20.91261719 -19.0625 19.875 C-16.13007565 17.23786751 -16.13007565 17.23786751 -14 14 C-13.34 14 -12.68 14 -12 14 C-11.67 13.01 -11.34 12.02 -11 11 C-10.34 11 -9.68 11 -9 11 C-9 10.34 -9 9.68 -9 9 C-8.34 9 -7.68 9 -7 9 C-6.773125 8.443125 -6.54625 7.88625 -6.3125 7.3125 C-4.64103234 4.36753316 -2.44723648 2.31843456 0 0 Z " fill="#E69853" transform="translate(72,250)"/>
<path d="M0 0 C0.66 0.33 1.32 0.66 2 1 C2 2.32 2 3.64 2 5 C3.65 5.33 5.3 5.66 7 6 C7.12375 6.928125 7.12375 6.928125 7.25 7.875 C7.81258459 10.18437567 7.81258459 10.18437567 10.0625 11.25 C10.701875 11.4975 11.34125 11.745 12 12 C12 12.66 12 13.32 12 14 C13.65 13.67 15.3 13.34 17 13 C16.731875 13.721875 16.46375 14.44375 16.1875 15.1875 C16.0946875 16.5796875 16.0946875 16.5796875 16 18 C18.39585286 20.64587234 18.39585286 20.64587234 21 23 C21 23.99 21 24.98 21 26 C16.70389582 22.64694308 13.19253433 19.05975458 9.66015625 14.9140625 C8.29679956 13.34219244 6.84631182 11.84631182 5.375 10.375 C2.71361998 7.71361998 0.37504509 4.91791253 -2 2 C-1.34 2 -0.68 2 0 2 C0 1.34 0 0.68 0 0 Z " fill="#CD242B" transform="translate(152,377)"/>
<path d="M0 0 C0.7734375 0.495 0.7734375 0.495 1.5625 1 C4.78026512 2.32010877 7.5570528 2.13242105 11 2 C10.979375 2.763125 10.95875 3.52625 10.9375 4.3125 C10.87057159 7.10185786 10.87057159 7.10185786 12 10 C12.66 10 13.32 10 14 10 C14.33 11.98 14.66 13.96 15 16 C9.75715884 11.6309657 4.48058696 7.16722236 0 2 C0 1.34 0 0.68 0 0 Z " fill="#D90A11" transform="translate(128,356)"/>
<path d="M0 0 C0.99 0 1.98 0 3 0 C3 3.63 3 7.26 3 11 C-1.37826761 9.24869296 -2.80161403 8.5629969 -5.8125 5.375 C-6.41707031 4.74335938 -7.02164063 4.11171875 -7.64453125 3.4609375 C-8.09183594 2.97882813 -8.53914062 2.49671875 -9 2 C-5.93109813 0.46554906 -3.29905734 1.45015711 0 2 C0 1.34 0 0.68 0 0 Z " fill="#DC1E26" transform="translate(246,466)"/>
<path d="M0 0 C1.1725131 0.95117134 2.33787015 1.91117009 3.5 2.875 C4.47453125 3.67550781 4.47453125 3.67550781 5.46875 4.4921875 C5.9740625 4.98976563 6.479375 5.48734375 7 6 C7 6.66 7 7.32 7 8 C7.58265625 8.24492187 8.1653125 8.48984375 8.765625 8.7421875 C11.36302236 10.20435874 12.83975831 11.84740414 14.75 14.125 C15.36359375 14.84945313 15.9771875 15.57390625 16.609375 16.3203125 C17.06828125 16.87460937 17.5271875 17.42890625 18 18 C17.01 18 16.02 18 15 18 C15 17.34 15 16.68 15 16 C13.02 16 11.04 16 9 16 C7.26337666 12.77484237 6.1094072 9.48670834 5 6 C3.35 5.67 1.7 5.34 0 5 C0 3.35 0 1.7 0 0 Z " fill="#D8484B" transform="translate(178,279)"/>
<path d="M0 0 C1.32 0.66 2.64 1.32 4 2 C-2.6 8.6 -9.2 15.2 -16 22 C-16.66 20.68 -17.32 19.36 -18 18 C-16.35 17.67 -14.7 17.34 -13 17 C-13 16.34 -13 15.68 -13 15 C-12.34 15 -11.68 15 -11 15 C-11 13.68 -11 12.36 -11 11 C-9.68 11 -8.36 11 -7 11 C-7 10.01 -7 9.02 -7 8 C-6.01 8 -5.02 8 -4 8 C-4 7.34 -4 6.68 -4 6 C-3.34 6 -2.68 6 -2 6 C-1.34 4.02 -0.68 2.04 0 0 Z " fill="#4CAEC3" transform="translate(372,353)"/>
<path d="M0 0 C0.99 0.33 1.98 0.66 3 1 C2.67 1.66 2.34 2.32 2 3 C2.33 3.33 2.66 3.66 3 4 C3.36162029 5.32594105 3.69728039 6.65938457 4 8 C5.32 8.33 6.64 8.66 8 9 C8 9.99 8 10.98 8 12 C8.99 12 9.98 12 11 12 C11.33 12.99 11.66 13.98 12 15 C13.49985609 16.66710346 13.49985609 16.66710346 15 18 C12 18 12 18 10.19067383 16.53125 C9.53607178 15.8609375 8.88146973 15.190625 8.20703125 14.5 C7.49482422 13.778125 6.78261719 13.05625 6.04882812 12.3125 C5.31083984 11.549375 4.57285156 10.78625 3.8125 10 C2.68811523 8.8553125 2.68811523 8.8553125 1.54101562 7.6875 C-0.31286823 5.79819161 -2.15941069 3.90224794 -4 2 C-3.34 1.67 -2.68 1.34 -2 1 C-1.34 1.33 -0.68 1.66 0 2 C0 1.34 0 0.68 0 0 Z " fill="#D74B50" transform="translate(200,425)"/>
<path d="M0 0 C4.30621189 2.15310594 7.79971673 4.59943347 10 9 C7.6875 9.25 7.6875 9.25 5 9 C4.01 7.68 3.02 6.36 2 5 C1.67 10.94 1.34 16.88 1 23 C0.67 23 0.34 23 0 23 C0 15.41 0 7.82 0 0 Z " fill="#B6C85A" transform="translate(199,20)"/>
<path d="M0 0 C1.12894876 0.93274109 2.25300876 1.87140122 3.375 2.8125 C4.00148438 3.33457031 4.62796875 3.85664063 5.2734375 4.39453125 C7 6 7 6 9 9 C5.7 9 2.4 9 -1 9 C-0.67 7.68 -0.34 6.36 0 5 C0.03786901 3.33376361 0.04627845 1.66602403 0 0 Z " fill="#B3CE53" transform="translate(443,266)"/>
<path d="M0 0 C0 0.99 0 1.98 0 3 C-1.66666667 4.66666667 -3.33333333 6.33333333 -5 8 C-5.69948789 9.2319339 -6.36644741 10.48289481 -7 11.75 C-9 15 -9 15 -11.75 15.9375 C-12.4925 15.958125 -13.235 15.97875 -14 16 C-14 15.34 -14 14.68 -14 14 C-13.34 14 -12.68 14 -12 14 C-11.67 13.01 -11.34 12.02 -11 11 C-10.34 11 -9.68 11 -9 11 C-9 10.34 -9 9.68 -9 9 C-8.34 9 -7.68 9 -7 9 C-6.773125 8.443125 -6.54625 7.88625 -6.3125 7.3125 C-4.64103234 4.36753316 -2.44723648 2.31843456 0 0 Z " fill="#EBB97F" transform="translate(72,250)"/>
<path d="M0 0 C0 3.59857954 -0.95830515 5.09451118 -3 8 C-3.66 8 -4.32 8 -5 8 C-5.33 8.99 -5.66 9.98 -6 11 C-6.66 11 -7.32 11 -8 11 C-8 11.66 -8 12.32 -8 13 C-9.98 13.99 -11.96 14.98 -14 16 C-12.48031735 12.13171688 -10.20197271 10.56157817 -7 8 C-4.58874311 5.39864401 -2.2847391 2.71271616 0 0 Z " fill="#E8BA7F" transform="translate(99,222)"/>
<path d="M0 0 C0.66 0 1.32 0 2 0 C1.34 1.32 0.68 2.64 0 4 C-0.66 4 -1.32 4 -2 4 C-2.226875 4.5775 -2.45375 5.155 -2.6875 5.75 C-4.33038023 8.5663661 -6.39533227 10.08077114 -9 12 C-8.67 10.02 -8.34 8.04 -8 6 C-7.01 6 -6.02 6 -5 6 C-4.67 4.68 -4.34 3.36 -4 2 C-2.68 2 -1.36 2 0 2 C0 1.34 0 0.68 0 0 Z " fill="#46AEBD" transform="translate(305,423)"/>
<path d="M0 0 C4.13621084 3.3810038 7.81316569 6.66590534 11 11 C9.02 11.33 7.04 11.66 5 12 C5 10.02 5 8.04 5 6 C3.35 6 1.7 6 0 6 C0 4.02 0 2.04 0 0 Z " fill="#DA434A" transform="translate(231,334)"/>
<path d="M0 0 C0.66 0.33 1.32 0.66 2 1 C2 1.99 2 2.98 2 4 C2.66 4.33 3.32 4.66 4 5 C3.34 5.66 2.68 6.32 2 7 C2.66 7.33 3.32 7.66 4 8 C4 8.99 4 9.98 4 11 C3.34 11 2.68 11 2 11 C2 10.34 2 9.68 2 9 C1.01 8.67 0.02 8.34 -1 8 C-2.6875 5.4375 -2.6875 5.4375 -4 3 C-3.01 2.67 -2.02 2.34 -1 2 C-0.67 1.34 -0.34 0.68 0 0 Z " fill="#D11B21" transform="translate(186,408)"/>
<path d="M0 0 C0.66 0.99 1.32 1.98 2 3 C2.8353125 3.7115625 2.8353125 3.7115625 3.6875 4.4375 C4.120625 4.953125 4.55375 5.46875 5 6 C4.58203125 8.09765625 4.58203125 8.09765625 4 10 C2.84775972 9.07038578 1.70340824 8.1309875 0.5625 7.1875 C-0.39462891 6.40439453 -0.39462891 6.40439453 -1.37109375 5.60546875 C-3 4 -3 4 -4 1 C-2.68 0.67 -1.36 0.34 0 0 Z " fill="#C2D46D" transform="translate(271,214)"/>
<path d="M0 0 C1.65 0 3.3 0 5 0 C4.01 1.485 4.01 1.485 3 3 C2.34 3 1.68 3 1 3 C0.7525 3.5775 0.505 4.155 0.25 4.75 C-1.16683317 7.3002997 -2.87627537 9.01785701 -5 11 C-5.33 9.68 -5.66 8.36 -6 7 C-4.68 6.67 -3.36 6.34 -2 6 C-2 4.68 -2 3.36 -2 2 C-1.34 2 -0.68 2 0 2 C0 1.34 0 0.68 0 0 Z " fill="#E9A55C" transform="translate(180,266)"/>
<path d="M0 0 C2.31 0.66 4.62 1.32 7 2 C7 3.32 7 4.64 7 6 C8.32 6.66 9.64 7.32 11 8 C11 8.99 11 9.98 11 11 C6.86378916 7.6189962 3.18683431 4.33409466 0 0 Z " fill="#D8474D" transform="translate(222,452)"/>
<path d="M0 0 C0 1.65 0 3.3 0 5 C-0.5775 5.2475 -1.155 5.495 -1.75 5.75 C-4.3002997 7.16683317 -6.01785701 8.87627537 -8 11 C-8.99 10.67 -9.98 10.34 -11 10 C-9.35718838 8.33035479 -7.71067239 6.6643536 -6.0625 5 C-5.14597656 4.071875 -4.22945313 3.14375 -3.28515625 2.1875 C-1 0 -1 0 0 0 Z " fill="#4CB2C5" transform="translate(297,306)"/>
<path d="M0 0 C0.66 0.33 1.32 0.66 2 1 C2 2.32 2 3.64 2 5 C3.65 5.33 5.3 5.66 7 6 C7.33 7.98 7.66 9.96 8 12 C6 12 6 12 4.30859375 10.3203125 C3.69113281 9.59585937 3.07367188 8.87140625 2.4375 8.125 C1.50744141 7.04605469 1.50744141 7.04605469 0.55859375 5.9453125 C-1 4 -1 4 -2 2 C-1.34 2 -0.68 2 0 2 C0 1.34 0 0.68 0 0 Z " fill="#DA373C" transform="translate(152,377)"/>
<path d="M0 0 C6.75 5.625 6.75 5.625 9 9 C6.03 8.505 6.03 8.505 3 8 C2.67 8.66 2.34 9.32 2 10 C1.34 6.7 0.68 3.4 0 0 Z " fill="#DC474B" transform="translate(208,310)"/>
<path d="M0 0 C0.66 1.32 1.32 2.64 2 4 C2.99 3.34 3.98 2.68 5 2 C6.32 2 7.64 2 9 2 C7.89113011 4.21773977 6.9581636 5.47698387 5 7 C3 6.9375 3 6.9375 1 6 C-0.75 3.9375 -0.75 3.9375 -2 2 C-1.34 2 -0.68 2 0 2 C0 1.34 0 0.68 0 0 Z " fill="#D82326" transform="translate(54,278)"/>
<path d="M0 0 C0 3.64478912 -0.85802506 5.09303401 -3 8 C-5.1875 8.8125 -5.1875 8.8125 -7 9 C-7 9.99 -7 10.98 -7 12 C-7.99 12 -8.98 12 -10 12 C-10 11.34 -10 10.68 -10 10 C-9.34 10 -8.68 10 -8 10 C-8 9.34 -8 8.68 -8 8 C-7.34 8 -6.68 8 -6 8 C-5.7525 7.4225 -5.505 6.845 -5.25 6.25 C-3.83316683 3.6997003 -2.12372463 1.98214299 0 0 Z " fill="#4AAABC" transform="translate(264,339)"/>
<path d="M0 0 C4.28069903 1.58544408 6.29521912 4.4687583 9 8 C9 8.33 9 8.66 9 9 C7.35 9 5.7 9 4 9 C4 8.34 4 7.68 4 7 C3.34 7 2.68 7 2 7 C1.7834375 5.824375 1.7834375 5.824375 1.5625 4.625 C1.12201075 2.03578982 1.12201075 2.03578982 0 0 Z " fill="#C8D672" transform="translate(216,37)"/>
<path d="M0 0 C1.32 0.33 2.64 0.66 4 1 C4.33 2.32 4.66 3.64 5 5 C6.32 5 7.64 5 9 5 C9.33 6.98 9.66 8.96 10 11 C2.23162964 5.80689762 2.23162964 5.80689762 0 2 C0 1.34 0 0.68 0 0 Z " fill="#DC4E53" transform="translate(81,308)"/>
<path d="M0 0 C-0.33 2.31 -0.66 4.62 -1 7 C-2.98 5.68 -4.96 4.36 -7 3 C-6.67 2.01 -6.34 1.02 -6 0 C-3.50907189 -1.24546405 -2.58919267 -0.7767578 0 0 Z " fill="#D0151B" transform="translate(183,404)"/>
<path d="M0 0 C3.34148439 1.17403506 5.81103718 2.15434834 8 5 C8.6875 7.1875 8.6875 7.1875 9 9 C4.77728219 6.46636932 2.21689838 4.43379675 0 0 Z " fill="#C9D77C" transform="translate(258,206)"/>
<path d="M0 0 C0.99 0.33 1.98 0.66 3 1 C2.67 1.66 2.34 2.32 2 3 C2.33 3.33 2.66 3.66 3 4 C3.36442233 5.66014616 3.69972883 7.32706064 4 9 C2.85073734 8.04578192 1.70569459 7.08647955 0.5625 6.125 C-0.07558594 5.59132813 -0.71367187 5.05765625 -1.37109375 4.5078125 C-3 3 -3 3 -4 1 C-2.68 1.33 -1.36 1.66 0 2 C0 1.34 0 0.68 0 0 Z " fill="#D94246" transform="translate(200,425)"/>
<path d="M0 0 C0.598125 0.309375 1.19625 0.61875 1.8125 0.9375 C4.08956772 2.10209704 4.08956772 2.10209704 7 3 C7.33 4.98 7.66 6.96 8 9 C6.84775972 8.07038578 5.70340824 7.1309875 4.5625 6.1875 C3.60537109 5.40439453 3.60537109 5.40439453 2.62890625 4.60546875 C1 3 1 3 0 0 Z " fill="#D73C3C" transform="translate(128,356)"/>
<path d="M0 0 C0.99 0 1.98 0 3 0 C1.4169423 4.2742558 -1.50568404 6.26531794 -5 9 C-5 7.68 -5 6.36 -5 5 C-4.01 5 -3.02 5 -2 5 C-1.7834375 4.0409375 -1.7834375 4.0409375 -1.5625 3.0625 C-1 1 -1 1 0 0 Z " fill="#41A9B8" transform="translate(413,312)"/>
<path d="M0 0 C0.33 1.32 0.66 2.64 1 4 C0.34 4 -0.32 4 -1 4 C-1.103125 4.639375 -1.20625 5.27875 -1.3125 5.9375 C-1.539375 6.618125 -1.76625 7.29875 -2 8 C-2.99 8.33 -3.98 8.66 -5 9 C-5.33 8.01 -5.66 7.02 -6 6 C-4.02 4.02 -2.04 2.04 0 0 Z " fill="#1C9AB1" transform="translate(312,290)"/>
<path d="M0 0 C7.26 0 14.52 0 22 0 C21.67 0.99 21.34 1.98 21 3 C20.34 2.67 19.68 2.34 19 2 C17.5534758 1.84932786 16.1012066 1.75138964 14.6484375 1.68359375 C13.37226563 1.62075195 13.37226563 1.62075195 12.0703125 1.55664062 C11.18085938 1.51732422 10.29140625 1.47800781 9.375 1.4375 C8.4778125 1.39431641 7.580625 1.35113281 6.65625 1.30664062 C4.43765717 1.20043139 2.2189512 1.09838806 0 1 C0 0.67 0 0.34 0 0 Z " fill="#89C672" transform="translate(431,275)"/>
<path d="M0 0 C0 3.59947819 -0.83412607 4.25100617 -3 7 C-3.33 7.721875 -3.66 8.44375 -4 9.1875 C-5 11 -5 11 -8 12 C-7.49396008 9.83125748 -7.00016187 8.00032373 -6 6 C-5.34 6 -4.68 6 -4 6 C-3.71125 5.38125 -3.4225 4.7625 -3.125 4.125 C-2 2 -2 2 0 0 Z " fill="#EBB978" transform="translate(117,203)"/>
<path d="M0 0 C3.98175544 2.10148204 6.35039045 4.36905358 9 8 C5.41209425 7.70100785 4.21833224 7.23013399 1.6875 4.5625 C0 2 0 2 0 0 Z " fill="#C9D87E" transform="translate(361,184)"/>
<path d="M0 0 C3.36591866 1.44253657 5.51047079 3.33264727 8 6 C7.67 6.66 7.34 7.32 7 8 C3.535 6.02 3.535 6.02 0 4 C0 2.68 0 1.36 0 0 Z " fill="#CFDA88" transform="translate(298,120)"/>
<path d="M0 0 C0.33 0 0.66 0 1 0 C1 2.31 1 4.62 1 7 C2.32 7.33 3.64 7.66 5 8 C3.68 9.65 2.36 11.3 1 13 C0.34 12.67 -0.32 12.34 -1 12 C-0.67 8.04 -0.34 4.08 0 0 Z " fill="#5F9FB0" transform="translate(251,468)"/>
<path d="M0 0 C2.64752004 2.57784846 4.94432065 4.91648098 7 8 C4.03 7.505 4.03 7.505 1 7 C0.67 4.69 0.34 2.38 0 0 Z " fill="#C3D46D" transform="translate(209,29)"/>
<path d="M0 0 C3.91402949 1.26941497 5.79072873 2.51167694 8 6 C7.67 6.66 7.34 7.32 7 8 C1.125 3.375 1.125 3.375 0 0 Z " fill="#CBD584" transform="translate(250,198)"/>
<path d="M0 0 C2.31 1.98 4.62 3.96 7 6 C6.34 6.66 5.68 7.32 5 8 C5 7.34 5 6.68 5 6 C3.35 6.33 1.7 6.66 0 7 C0 4.69 0 2.38 0 0 Z " fill="#DD4A4E" transform="translate(242,345)"/>
<path d="M0 0 C2.64752004 2.57784846 4.94432065 4.91648098 7 8 C5.35 8.33 3.7 8.66 2 9 C2 7.35 2 5.7 2 4 C1.34 4 0.68 4 0 4 C0 2.68 0 1.36 0 0 Z " fill="#CD282E" transform="translate(222,324)"/>
<path d="M0 0 C2.31 0.66 4.62 1.32 7 2 C7 3.65 7 5.3 7 7 C5.82780457 6.21654285 4.66236332 5.42297164 3.5 4.625 C2.8503125 4.18414062 2.200625 3.74328125 1.53125 3.2890625 C1.0259375 2.86367188 0.520625 2.43828125 0 2 C0 1.34 0 0.68 0 0 Z " fill="#DA464C" transform="translate(93,321)"/>
<path d="M0 0 C0.66 0.99 1.32 1.98 2 3 C1.360625 3.268125 0.72125 3.53625 0.0625 3.8125 C-2.33131686 4.88667752 -2.33131686 4.88667752 -3 8 C-3.99 8.33 -4.98 8.66 -6 9 C-5.52797514 4.75177626 -3.03344482 2.80010291 0 0 Z " fill="#E29951" transform="translate(108,213)"/>
<path d="M0 0 C2.97 0.495 2.97 0.495 6 1 C6 1.99 6 2.98 6 4 C7.43750191 5.68798827 7.43750191 5.68798827 9 7 C6 7 6 7 4.39453125 5.46875 C3.87246094 4.8190625 3.35039062 4.169375 2.8125 3.5 C2.28269531 2.8503125 1.75289062 2.200625 1.20703125 1.53125 C0.80871094 1.0259375 0.41039062 0.520625 0 0 Z " fill="#DA5559" transform="translate(214,444)"/>
<path d="M0 0 C0.66 0 1.32 0 2 0 C2 0.66 2 1.32 2 2 C2.99 2 3.98 2 5 2 C4.625 3.9375 4.625 3.9375 4 6 C3.01 6.495 3.01 6.495 2 7 C0 4 0 4 0 0 Z " fill="#0D95AB" transform="translate(312,409)"/>
<path d="M0 0 C2.3125 0.1875 2.3125 0.1875 5 1 C6.8125 3.5625 6.8125 3.5625 8 6 C5 6 5 6 3.61328125 4.6875 C2.40885417 3.125 1.20442708 1.5625 0 0 Z " fill="#D94646" transform="translate(143,372)"/>
<path d="M0 0 C2.97 0.495 2.97 0.495 6 1 C6.33 2.98 6.66 4.96 7 7 C5.83040013 6.02433888 4.66438823 5.044375 3.5 4.0625 C2.8503125 3.51722656 2.200625 2.97195313 1.53125 2.41015625 C1.0259375 1.94480469 0.520625 1.47945313 0 1 C0 0.67 0 0.34 0 0 Z " fill="#DB4446" transform="translate(136,365)"/>
<path d="M0 0 C2.31 0 4.62 0 7 0 C7 0.66 7 1.32 7 2 C5.03852126 3.38938077 3.03833424 4.7260411 1 6 C0.67 4.02 0.34 2.04 0 0 Z " fill="#41AFBD" transform="translate(400,322)"/>
<path d="M0 0 C1.65 0.33 3.3 0.66 5 1 C4.34 2.32 3.68 3.64 3 5 C2.34 5 1.68 5 1 5 C1 5.66 1 6.32 1 7 C0.34 7 -0.32 7 -1 7 C-1 6.01 -1 5.02 -1 4 C-0.34 4 0.32 4 1 4 C0.67 2.68 0.34 1.36 0 0 Z " fill="#38A0A3" transform="translate(446,276)"/>
<path d="M0 0 C2.31 1.98 4.62 3.96 7 6 C4.16032769 6 1.76264289 5.59732819 -1 5 C-0.67 3.35 -0.34 1.7 0 0 Z " fill="#B9D25E" transform="translate(434,257)"/>
<path d="M0 0 C0.33 0.66 0.66 1.32 1 2 C1.66 2 2.32 2 3 2 C3.66 3.32 4.32 4.64 5 6 C3.02 6.33 1.04 6.66 -1 7 C-0.67 4.69 -0.34 2.38 0 0 Z " fill="#BFCE63" transform="translate(337,158)"/>
<path d="M0 0 C3.57104439 1.87949705 5.54744301 3.17053157 7 7 C6.01 7 5.02 7 4 7 C4 6.34 4 5.68 4 5 C2.68 4.34 1.36 3.68 0 3 C0 2.01 0 1.02 0 0 Z " fill="#CDDA87" transform="translate(243,64)"/>
<path d="M0 0 C2.31 0.66 4.62 1.32 7 2 C7 2.99 7 3.98 7 5 C4.0625 4.1875 4.0625 4.1875 1 3 C0.67 2.01 0.34 1.02 0 0 Z " fill="#D42125" transform="translate(120,348)"/>
<path d="M0 0 C5.875 4.625 5.875 4.625 7 8 C5.1875 7.8125 5.1875 7.8125 3 7 C0 2.82142857 0 2.82142857 0 0 Z " fill="#CCD984" transform="translate(383,205)"/>
<path d="M0 0 C2.03833424 1.2739589 4.03852126 2.61061923 6 4 C6 4.66 6 5.32 6 6 C3.03 5.505 3.03 5.505 0 5 C0 3.35 0 1.7 0 0 Z " fill="#C3D376" transform="translate(252,73)"/>
<path d="M0 0 C0.515625 0.309375 1.03125 0.61875 1.5625 0.9375 C4.66665423 2.29059287 7.65115007 2.61359424 11 3 C11 3.33 11 3.66 11 4 C8.36 4 5.72 4 3 4 C3 4.66 3 5.32 3 6 C2.34 5.67 1.68 5.34 1 5 C0.375 2.4375 0.375 2.4375 0 0 Z " fill="#95CB7B" transform="translate(323,272)"/>
<path d="M0 0 C0.66 0.33 1.32 0.66 2 1 C0.63016497 4.16115776 0.0109362 4.9927092 -3 7 C-3.1875 4.625 -3.1875 4.625 -3 2 C-2.01 1.34 -1.02 0.68 0 0 Z " fill="#E89E5A" transform="translate(197,249)"/>
<path d="M0 0 C1 2 1 2 0.3125 4.5625 C-1 7 -1 7 -3.125 7.8125 C-3.74375 7.874375 -4.3625 7.93625 -5 8 C-3.8141763 4.62496331 -2.72426311 2.35277269 0 0 Z " fill="#E5A25B" transform="translate(78,244)"/>
<path d="M0 0 C0.66 0.33 1.32 0.66 2 1 C1.34 2.65 0.68 4.3 0 6 C-1.65 6 -3.3 6 -5 6 C-3.35 4.02 -1.7 2.04 0 0 Z " fill="#DE974B" transform="translate(84,238)"/>
<path d="M0 0 C1.98 0.66 3.96 1.32 6 2 C6.33 3.65 6.66 5.3 7 7 C5.83040013 6.02433888 4.66438823 5.044375 3.5 4.0625 C2.8503125 3.51722656 2.200625 2.97195312 1.53125 2.41015625 C1.0259375 1.94480469 0.520625 1.47945312 0 1 C0 0.67 0 0.34 0 0 Z " fill="#BACA5D" transform="translate(243,191)"/>
<path d="M0 0 C1.98 0.495 1.98 0.495 4 1 C4 1.99 4 2.98 4 4 C2.68 4.33 1.36 4.66 0 5 C-0.33 4.34 -0.66 3.68 -1 3 C-0.67 2.01 -0.34 1.02 0 0 Z " fill="#B3C749" transform="translate(331,155)"/>
<path d="M0 0 C1.98 0 3.96 0 6 0 C4.02 2.97 4.02 2.97 2 6 C1.34 5.67 0.68 5.34 0 5 C0 3.35 0 1.7 0 0 Z " fill="#58B8C4" transform="translate(386,337)"/>
<path d="M0 0 C2.31 0.33 4.62 0.66 7 1 C7.33 1.99 7.66 2.98 8 4 C7.01 4.33 6.02 4.66 5 5 C3.35 3.35 1.7 1.7 0 0 Z " fill="#D52B33" transform="translate(71,299)"/>
<path d="M0 0 C1.98 1.65 3.96 3.3 6 5 C3 6 3 6 0 5 C0 3.35 0 1.7 0 0 Z " fill="#CCDA7D" transform="translate(443,266)"/>
<path d="M0 0 C1.98 1.65 3.96 3.3 6 5 C3.92446352 5.5534764 2.15634036 6 0 6 C0 4.02 0 2.04 0 0 Z " fill="#D2DE8C" transform="translate(226,46)"/>
<path d="M0 0 C2.475 0.495 2.475 0.495 5 1 C5 1.99 5 2.98 5 4 C4.01 4.66 3.02 5.32 2 6 C1.34 4.02 0.68 2.04 0 0 Z " fill="#35ACBC" transform="translate(275,448)"/>
<path d="M0 0 C1.875 0.3125 1.875 0.3125 4 1 C4.66 1.99 5.32 2.98 6 4 C3.69 3.67 1.38 3.34 -1 3 C-0.67 2.01 -0.34 1.02 0 0 Z " fill="#D9464D" transform="translate(186,289)"/>
<path d="M0 0 C2.97 0.495 2.97 0.495 6 1 C6 2.65 6 4.3 6 6 C3.97945196 4.35830472 1.97956942 2.69088222 0 1 C0 0.67 0 0.34 0 0 Z " fill="#BFCF66" transform="translate(286,235)"/>
</svg>
