<?xml version="1.0" encoding="UTF-8"?>
<svg version="1.1" xmlns="http://www.w3.org/2000/svg" width="200" height="200">
<path d="M0 0 C1.2979248 0.74491699 1.2979248 0.74491699 2.62207031 1.50488281 C29.04178339 16.70274778 29.04178339 16.70274778 32 26 C31.75398169 30.43204855 28.43881746 32.99695971 25.47387695 35.94604492 C24.6102932 36.82233299 24.6102932 36.82233299 23.72926331 37.71632385 C21.82338793 39.64560227 19.90650538 41.56347306 17.98828125 43.48046875 C16.65857329 44.81727651 15.32916557 46.15438297 14.00004578 47.49177551 C11.21167095 50.29360298 8.41741915 53.08941222 5.61938477 55.8815918 C2.03567521 59.45940626 -1.52945746 63.05511946 -5.08993816 66.65603161 C-7.83081796 69.42276936 -10.58309586 72.17794535 -13.33875465 74.92995644 C-14.65799908 76.25089403 -15.97326316 77.57581938 -17.28442955 78.90477562 C-19.12022495 80.76272014 -20.9712278 82.60407971 -22.8269043 84.44213867 C-23.36480591 84.99330353 -23.90270752 85.54446838 -24.45690918 86.11233521 C-27.82186233 89.40357206 -30.25663267 90.85274365 -35 91 C-36.984375 89.91796875 -36.984375 89.91796875 -38.75 88.1875 C-39.4203125 87.54683594 -40.090625 86.90617187 -40.78125 86.24609375 C-41.5134375 85.50488281 -42.245625 84.76367188 -43 84 C-43.8559375 83.14535156 -44.711875 82.29070312 -45.59375 81.41015625 C-47.30671844 79.69466874 -49.01059308 77.97002876 -50.703125 76.234375 C-52.71010478 74.28200692 -54.7172021 72.6126187 -57 71 C-58.13199353 71.9080162 -59.25532363 72.82683826 -60.375 73.75 C-61.00148437 74.26046875 -61.62796875 74.7709375 -62.2734375 75.296875 C-64.08312318 77.08199481 -65.00117455 78.67949644 -66 81 C-65.34 81 -64.68 81 -64 81 C-64 81.66 -64 82.32 -64 83 C-63.44586426 83.22743896 -62.89172852 83.45487793 -62.32080078 83.68920898 C-59.32600295 85.38067433 -57.27633764 87.51782362 -54.8671875 89.97265625 C-54.38927765 90.45576767 -53.9113678 90.93887909 -53.41897583 91.43663025 C-51.89946386 92.97389041 -50.3868361 94.51769326 -48.875 96.0625 C-47.35515441 97.60997477 -45.83386581 99.15595926 -44.30960083 100.69908142 C-42.93081258 102.09570801 -41.55683935 103.49708323 -40.18310547 104.89868164 C-37.75248247 107.23824462 -36.66077935 107.87413727 -33.375 108.5 C-24.16404766 107.13541447 -15.86231254 94.98980003 -9.40625 88.50390625 C-8.20721046 87.30299797 -7.00794723 86.102313 -5.80847168 84.90184021 C-2.67619792 81.76577715 0.4530591 78.62672111 3.58166504 75.48699951 C6.7843727 72.27399999 9.98996908 69.06388529 13.1953125 65.85351562 C19.46634789 59.57180629 25.73419523 53.28692642 32 47 C32.66 47.33 33.32 47.66 34 48 C34.02497996 52.37418249 34.04299062 56.74832563 34.05493164 61.12255859 C34.05991708 62.60628992 34.06670785 64.09001646 34.07543945 65.57373047 C34.23049464 92.62629958 34.23049464 92.62629958 27.3503418 99.69482422 C22.34796209 104.09527381 17.13174171 107.60086441 11.375 110.9375 C10.06329834 111.71009155 10.06329834 111.71009155 8.72509766 112.49829102 C6.15527016 114.00799987 3.578626 115.50538238 1 117 C-0.35420004 117.79160958 -1.70836994 118.58327073 -3.0625 119.375 C-28.34333224 134.07064477 -28.34333224 134.07064477 -41 131 C-46.58302842 128.77571128 -51.76846658 125.94518243 -57 123 C-58.42940918 122.19828369 -58.42940918 122.19828369 -59.88769531 121.38037109 C-63.03816016 119.60194713 -66.17762871 117.80576131 -69.3125 116 C-70.30209717 115.43128174 -71.29169434 114.86256348 -72.3112793 114.27661133 C-94.49368643 101.2861467 -94.49368643 101.2861467 -98 93 C-97.82761905 88.48218265 -95.96087948 86.51950255 -92.75 83.5 C-91.98171875 82.7678125 -91.2134375 82.035625 -90.421875 81.28125 C-89.62265625 80.5284375 -88.8234375 79.775625 -88 79 C-84.71107601 75.73168605 -81.4551263 72.43272695 -78.21313477 69.11791992 C-73.6594099 64.46846655 -69.09273762 59.83212352 -64.51609898 55.20522594 C-61.7555225 52.41322573 -59.00088453 49.61583211 -56.25854492 46.8059082 C-53.59453706 44.07670613 -50.91612943 41.3624309 -48.22712517 38.65786171 C-47.20797493 37.62764607 -46.1941105 36.59217292 -45.18576241 35.55138206 C-43.77672665 34.09878119 -42.34689315 32.66644218 -40.91625977 31.23510742 C-40.10971451 30.41523849 -39.30316925 29.59536957 -38.47218323 28.75065613 C-35.3927796 26.57000189 -33.69880283 26.50756164 -30 27 C-27.48291016 28.8359375 -27.48291016 28.8359375 -25.0390625 31.375 C-23.71455078 32.72851562 -23.71455078 32.72851562 -22.36328125 34.109375 C-21.45964844 35.06328125 -20.55601563 36.0171875 -19.625 37 C-18.69020755 37.96490526 -17.75402269 38.92846363 -16.81640625 39.890625 C-14.53021866 42.24751942 -12.25917673 44.61724979 -10 47 C-8.87105124 46.06725891 -7.74699124 45.12859878 -6.625 44.1875 C-5.99851562 43.66542969 -5.37203125 43.14335938 -4.7265625 42.60546875 C-2.7778952 40.91774261 -2.7778952 40.91774261 -1 38 C-4.6446587 34.33061498 -8.29259526 30.66453218 -11.94360352 27.00146484 C-13.18506979 25.75497108 -14.42563689 24.50758109 -15.6652832 23.25927734 C-17.44767166 21.46475409 -19.23327301 19.67348281 -21.01953125 17.8828125 C-21.57276566 17.32441681 -22.12600006 16.76602112 -22.69599915 16.19070435 C-27.03694057 11.72110115 -27.03694057 11.72110115 -32.6875 9.4375 C-41.895767 11.00116798 -50.11093416 22.98332306 -56.59375 29.49609375 C-57.79278954 30.69700203 -58.99205277 31.897687 -60.19152832 33.09815979 C-63.32380208 36.23422285 -66.4530591 39.37327889 -69.58166504 42.51300049 C-72.7843727 45.72600001 -75.98996908 48.93611471 -79.1953125 52.14648438 C-85.46634789 58.42819371 -91.73419523 64.71307358 -98 71 C-98.66 70.67 -99.32 70.34 -100 70 C-100.05008562 65.52003377 -100.08603769 61.04022339 -100.10986328 56.56005859 C-100.11981384 55.04147496 -100.13337916 53.52290993 -100.15087891 52.00439453 C-100.4397004 26.26530301 -100.4397004 26.26530301 -94 19 C-87.34373343 12.29046087 -79.9898751 7.85896521 -71.6875 3.4375 C-69.37822567 2.18745437 -67.06962701 0.9361597 -64.76171875 -0.31640625 C-63.63773682 -0.92234619 -62.51375488 -1.52828613 -61.35571289 -2.15258789 C-57.06373385 -4.51544023 -52.8576456 -7.01073857 -48.66259766 -9.54101562 C-30.65470665 -19.40853411 -15.77520645 -9.16158842 0 0 Z M-34 48 C-37.3 51.3 -40.6 54.6 -44 58 C-42.16614077 61.66771845 -40.74937171 63.46834996 -37.875 66.25 C-36.78832031 67.30960938 -36.78832031 67.30960938 -35.6796875 68.390625 C-35.12539062 68.92171875 -34.57109375 69.4528125 -34 70 C-30.7089747 68.90299157 -30.03976712 68.12380142 -27.9375 65.5 C-25.19897084 62.09948542 -25.19897084 62.09948542 -23 61 C-23.15068085 56.02753179 -25.85621928 53.73646624 -29.2109375 50.453125 C-31.04467442 48.78919184 -31.04467442 48.78919184 -34 48 Z " fill="#8E02FA" transform="translate(133,41)"/>
<path d="M0 0 C0.66 0.33 1.32 0.66 2 1 C2.02497996 5.37418249 2.04299062 9.74832563 2.05493164 14.12255859 C2.05991708 15.60628992 2.06670785 17.09001646 2.07543945 18.57373047 C2.23208934 45.90452871 2.23208934 45.90452871 -5.75 54 C-6.4925 54.66 -7.235 55.32 -8 56 C-8.99 55.505 -8.99 55.505 -10 55 C-8.53560832 51.33902079 -7.21129243 48.30093165 -4.9375 45.0625 C-0.13638662 37.47364337 -0.75098804 29.1808372 -0.875 20.5 C-0.88402344 19.29601562 -0.89304688 18.09203125 -0.90234375 16.8515625 C-0.92576225 13.9008321 -0.95856007 10.95052311 -1 8 C-2.65 8 -4.3 8 -6 8 C-6.0928125 8.8353125 -6.0928125 8.8353125 -6.1875 9.6875 C-7.33412279 12.95096487 -9.51955157 14.64054906 -12 17 C-12.66 17.99 -13.32 18.98 -14 20 C-14.66 20 -15.32 20 -16 20 C-16 20.66 -16 21.32 -16 22 C-17.32 22.33 -18.64 22.66 -20 23 C-20 23.66 -20 24.32 -20 25 C-20.66 25 -21.32 25 -22 25 C-22 25.99 -22 26.98 -22 28 C-25.33333333 31 -25.33333333 31 -28 31 C-28.2475 31.556875 -28.495 32.11375 -28.75 32.6875 C-30.87913948 36.62640804 -32.67082087 39.55694029 -37 41 C-37.33 41.99 -37.66 42.98 -38 44 C-39.671875 45.2109375 -39.671875 45.2109375 -41.75 46.375 C-45.42914206 48.55204629 -48.12263869 50.85288607 -51 54 C-51.66 53.67 -52.32 53.34 -53 53 C-35.51 35.51 -18.02 18.02 0 0 Z " fill="#771AC3" transform="translate(165,88)"/>
<path d="M0 0 C0.66 0.33 1.32 0.66 2 1 C1 4 1 4 -1.3984375 5.38671875 C-2.38070312 5.81597656 -3.36296875 6.24523438 -4.375 6.6875 C-5.35210937 7.12449219 -6.32921875 7.56148437 -7.3359375 8.01171875 C-10 9 -10 9 -13 9 C-13 9.66 -13 10.32 -13 11 C-14.65 11.33 -16.3 11.66 -18 12 C-18.33 12.99 -18.66 13.98 -19 15 C-22.12274339 17.21614047 -25.5793014 18.79729757 -29 20.5 C-30.30130859 21.15162109 -30.30130859 21.15162109 -31.62890625 21.81640625 C-33.39461402 22.69780568 -35.1648951 23.57005505 -36.9375 24.4375 C-39.67968328 26.51491157 -40.58889905 28.90901696 -42 32 C-42.99 32.495 -42.99 32.495 -44 33 C-48.36125457 41.20942036 -47.28065125 52.52947857 -47.5625 61.5625 C-47.60568359 62.85736328 -47.64886719 64.15222656 -47.69335938 65.48632812 C-47.79867385 68.65746384 -47.90080617 71.82866793 -48 75 C-46.71797387 73.88500636 -45.43690891 72.76890749 -44.15625 71.65234375 C-43.44275391 71.03093506 -42.72925781 70.40952637 -41.99414062 69.76928711 C-39.91233171 67.92221693 -37.92741472 66.00772366 -36 64 C-35.01 64.33 -34.02 64.66 -33 65 C-37.95 69.95 -42.9 74.9 -48 80 C-48.66 79.67 -49.32 79.34 -50 79 C-50.05008562 74.52003377 -50.08603769 70.04022339 -50.10986328 65.56005859 C-50.11981384 64.04147496 -50.13337916 62.52290993 -50.15087891 61.00439453 C-50.4397004 35.26530301 -50.4397004 35.26530301 -44 28 C-37.29892034 21.22799444 -29.80053515 16.75732581 -21.4375 12.3125 C-19.07974097 11.04194948 -16.72553873 9.76497805 -14.37109375 8.48828125 C-13.2713623 7.89611816 -12.17163086 7.30395508 -11.03857422 6.69384766 C-8.37951357 5.21155915 -5.83164792 3.64576975 -3.28515625 1.98046875 C-2.20105469 1.32691406 -1.11695313 0.67335937 0 0 Z " fill="#7519BE" transform="translate(83,32)"/>
<path d="M0 0 C2.69489535 1.683696 4.84647699 3.6733642 7 6 C6.67 6.99 6.34 7.98 6 9 C5.23816406 8.24203125 5.23816406 8.24203125 4.4609375 7.46875 C0.23800705 3.45459191 0.23800705 3.45459191 -5 1.125 C-12.90737948 3.43131902 -19.42252611 12.28781414 -25.09375 17.99609375 C-26.34194519 19.24641136 -26.34194519 19.24641136 -27.61535645 20.52198792 C-30.24594935 23.15813262 -32.87302441 25.79775105 -35.5 28.4375 C-37.29403855 30.23655979 -39.08830715 32.0353902 -40.8828125 33.83398438 C-45.25787125 38.22000812 -49.63005512 42.60888142 -54 47 C-54.495 45.515 -54.495 45.515 -55 44 C-50.375 39.125 -50.375 39.125 -47 38 C-46.67 37.34 -46.34 36.68 -46 36 C-45 34 -45 34 -42 33 C-41.71125 32.401875 -41.4225 31.80375 -41.125 31.1875 C-39.65087485 28.32114553 -37.50081174 26.98782471 -35 25 C-34.67 24.01 -34.34 23.02 -34 22 C-33.01 21.34 -32.02 20.68 -31 20 C-30.67 19.01 -30.34 18.02 -30 17 C-29.0925 16.401875 -28.185 15.80375 -27.25 15.1875 C-24.55189958 13.37147087 -23.18785246 12.20115267 -21.25 9.75 C-20.5075 8.8425 -19.765 7.935 -19 7 C-18.34 7 -17.68 7 -17 7 C-17 6.34 -17 5.68 -17 5 C-16.360625 4.71125 -15.72125 4.4225 -15.0625 4.125 C-12.84793921 3.17176549 -12.84793921 3.17176549 -12 1 C-7.9119698 -0.36267673 -4.26358109 -0.7822438 0 0 Z " fill="#6E19B7" transform="translate(105,49)"/>
<path d="M0 0 C-3.48468603 1.1818957 -3.8556156 1.07087961 -7.4375 -0.6875 C-9.59529741 -2.01783696 -11.46947756 -3.38521235 -13.4375 -5 C-18.56345776 -9.00074752 -23.5575923 -11.12148986 -30 -12 C-32.0625 -12.9375 -32.0625 -12.9375 -34 -14 C-41.27387625 -17.35717365 -49.28373006 -16.37178132 -57 -15 C-56 -17 -56 -17 -53.9609375 -17.8515625 C-33.87663315 -23.85865051 -16.5780398 -10.24672812 0 0 Z " fill="#6E1FB4" transform="translate(143,47)"/>
<path d="M0 0 C0.66 0.33 1.32 0.66 2 1 C2.35919668 2.66128463 2.68911632 4.32900023 3 6 C4.25797836 9.17452084 4.25797836 9.17452084 7 11 C7 11.66 7 12.32 7 13 C7.66 13 8.32 13 9 13 C8.55491959 18.04424468 6.39019075 20.44443409 3 24 C2.34 24 1.68 24 1 24 C1 24.66 1 25.32 1 26 C-4.75 25.125 -4.75 25.125 -7 24 C-7 23.34 -7 22.68 -7 22 C-7.66 22 -8.32 22 -9 22 C-10.5 19.5 -10.5 19.5 -12 17 C-13.62339805 15.29115995 -15.29319053 13.62553283 -17 12 C-17.804375 11.071875 -18.60875 10.14375 -19.4375 9.1875 C-21.83935518 6.71603072 -21.83935518 6.71603072 -25.125 6.6875 C-26.07375 6.790625 -27.0225 6.89375 -28 7 C-28.99 7 -29.98 7 -31 7 C-29.875 5.5 -29.875 5.5 -28 4 C-24.24771343 3.50918081 -22.57893884 3.57772842 -19.48291016 5.8359375 C-18.67644043 6.67382812 -17.8699707 7.51171875 -17.0390625 8.375 C-16.15605469 9.27734375 -15.27304688 10.1796875 -14.36328125 11.109375 C-13.45964844 12.06328125 -12.55601563 13.0171875 -11.625 14 C-10.69020755 14.96490526 -9.75402269 15.92846363 -8.81640625 16.890625 C-6.53021866 19.24751942 -4.25917673 21.61724979 -2 24 C-0.87105124 23.06725891 0.25300876 22.12859878 1.375 21.1875 C2.00148437 20.66542969 2.62796875 20.14335938 3.2734375 19.60546875 C5.2221048 17.91774261 5.2221048 17.91774261 7 15 C3.04 11.04 -0.92 7.08 -5 3 C-3.68 2.67 -2.36 2.34 -1 2 C-0.67 1.34 -0.34 0.68 0 0 Z " fill="#721FB0" transform="translate(125,64)"/>
<path d="M0 0 C4.34423569 0.51108655 8.11851062 2.02263749 12 4 C13.125 5.875 13.125 5.875 14 8 C14.845625 8.804375 15.69125 9.60875 16.5625 10.4375 C19.11210474 13.1178537 19.69062979 14.39068083 20 18 C15.64261331 14.35402338 11.55821279 10.59867609 7.578125 6.546875 C5.83830377 4.84150567 4.01468988 3.36998912 2 2 C0.86800647 2.9080162 -0.25532363 3.82683826 -1.375 4.75 C-2.31472656 5.51570313 -2.31472656 5.51570313 -3.2734375 6.296875 C-5.08312318 8.08199481 -6.00117455 9.67949644 -7 12 C-6.34 12 -5.68 12 -5 12 C-5 12.66 -5 13.32 -5 14 C-6.32 13.67 -7.64 13.34 -9 13 C-9 11.02 -9 9.04 -9 7 C-8.01 7 -7.02 7 -6 7 C-6 5.68 -6 4.36 -6 3 C-5.195625 2.690625 -4.39125 2.38125 -3.5625 2.0625 C-1.10919595 1.23664655 -1.10919595 1.23664655 0 0 Z " fill="#7716C7" transform="translate(74,110)"/>
<path d="M0 0 C0 0.99 0 1.98 0 3 C-0.598125 3.5775 -1.19625 4.155 -1.8125 4.75 C-4.52578863 7.54081116 -5.54175579 10.4206733 -7 14 C-7.66 14.66 -8.32 15.32 -9 16 C-9.99 16 -10.98 16 -12 16 C-12.33 16.99 -12.66 17.98 -13 19 C-13.66 19 -14.32 19 -15 19 C-14.40477663 20.44122613 -13.79842381 21.87785868 -13.1875 23.3125 C-12.85105469 24.11300781 -12.51460937 24.91351563 -12.16796875 25.73828125 C-11.01799296 27.96515745 -9.86373039 29.34987767 -8 31 C-11 31 -11 31 -12.5703125 29.6796875 C-13.08335938 29.08414063 -13.59640625 28.48859375 -14.125 27.875 C-14.64320312 27.29492188 -15.16140625 26.71484375 -15.6953125 26.1171875 C-17.44275347 23.28151981 -17.96604279 21.34054014 -18 18 C-16.0859375 15.40234375 -16.0859375 15.40234375 -13.375 12.9375 C-12.05628906 11.71353516 -12.05628906 11.71353516 -10.7109375 10.46484375 C-9.81632812 9.65144531 -8.92171875 8.83804688 -8 8 C-6.32494323 6.34176589 -4.65669116 4.67658282 -3 3 C-2 2 -1 1 0 0 Z " fill="#8109E4" transform="translate(53,112)"/>
<path d="M0 0 C-2.78059566 2.97630449 -5.50968084 5.08615031 -9.02734375 7.12890625 C-9.98447266 7.68900391 -10.94160156 8.24910156 -11.92773438 8.82617188 C-12.92095703 9.39916016 -13.91417969 9.97214844 -14.9375 10.5625 C-15.92685547 11.13935547 -16.91621094 11.71621094 -17.93554688 12.31054688 C-19.7807948 13.38642445 -21.62755007 14.45972409 -23.47631836 15.52954102 C-25.23369956 16.55350415 -26.97311396 17.60866961 -28.69750977 18.68725586 C-31 20 -31 20 -33 20 C-33 19.34 -33 18.68 -33 18 C-30 16 -30 16 -27 16 C-26.67 15.01 -26.34 14.02 -26 13 C-24.27042201 12.24942842 -22.53718227 11.50470913 -20.77734375 10.828125 C-18.35316341 9.6986168 -16.84040674 7.90613555 -15 6 C-14.01 6 -13.02 6 -12 6 C-12.33 4.68 -12.66 3.36 -13 2 C-11.824375 1.7834375 -11.824375 1.7834375 -10.625 1.5625 C-3.02631579 -0.06578947 -3.02631579 -0.06578947 0 0 Z " fill="#7B0FD5" transform="translate(155,144)"/>
<path d="M0 0 C0 3 0 3 -1.3125 4.375 C-1.869375 4.91125 -2.42625 5.4475 -3 6 C-4.0064275 7.66279327 -5.00585407 9.32983484 -6 11 C-9.52 15.84 -9.52 15.84 -13 17 C-13.33 17.99 -13.66 18.98 -14 20 C-15.671875 21.2109375 -15.671875 21.2109375 -17.75 22.375 C-21.42914206 24.55204629 -24.12263869 26.85288607 -27 30 C-27.66 29.67 -28.32 29.34 -29 29 C-19.43 19.43 -9.86 9.86 0 0 Z " fill="#751CBA" transform="translate(141,112)"/>
<path d="M0 0 C4.69017742 3.90848119 9.05066053 7.97956146 13.30078125 12.36328125 C15.43682859 14.42076134 16.7009434 14.94303684 19.625 15.5 C24.70634445 14.74720823 27.44678549 11.53517789 31 8 C31.33 8.99 31.66 9.98 32 11 C30.72530598 13.54938804 29.50840774 13.74579613 27 15 C26.5875 15.53625 26.175 16.0725 25.75 16.625 C22.38295904 19.27053218 17.68815109 18.13327509 13.625 17.8125 C12 17 12 17 11.18359375 14.66796875 C9.43462325 10.72556991 6.48463886 9.210379 2.99609375 6.84375 C0.59462417 4.62556284 0.31213039 3.19796753 0 0 Z " fill="#7812CE" transform="translate(80,134)"/>
<path d="M0 0 C0.33 0 0.66 0 1 0 C1 9.57 1 19.14 1 29 C4.91111499 26.65333101 7.25434228 24.97432408 10.3125 21.8125 C11.00988281 21.09707031 11.70726562 20.38164063 12.42578125 19.64453125 C12.94527344 19.10183594 13.46476562 18.55914062 14 18 C14.99 18.33 15.98 18.66 17 19 C12.05 23.95 7.1 28.9 2 34 C1.34 33.67 0.68 33.34 0 33 C0 22.11 0 11.22 0 0 Z " fill="#6C18B6" transform="translate(33,78)"/>
<path d="M0 0 C0 4.0333534 -1.60879918 5.83517538 -4 9 C-4.66 9 -5.32 9 -6 9 C-6.66 10.98 -7.32 12.96 -8 15 C-8.99 15 -9.98 15 -11 15 C-11.33 15.99 -11.66 16.98 -12 18 C-14.3125 19.0625 -14.3125 19.0625 -17 20 C-18.33954963 20.6540864 -19.67409813 21.31867303 -21 22 C-16.61557474 16.74825074 -11.99157907 11.86777527 -7.125 7.0625 C-6.43664062 6.37865234 -5.74828125 5.69480469 -5.0390625 4.99023438 C-3.36166489 3.32448536 -1.68196209 1.6611378 0 0 Z " fill="#7811CC" transform="translate(93,72)"/>
<path d="M0 0 C1 3 1 3 0.375 5.4375 C-2.74752614 11.25675325 -9.59021031 14.46418974 -15 18 C-15.66 17.67 -16.32 17.34 -17 17 C-11.39 11.39 -5.78 5.78 0 0 Z " fill="#7C0ED6" transform="translate(71,94)"/>
<path d="M0 0 C0.66 0.33 1.32 0.66 2 1 C-7.24 10.24 -16.48 19.48 -26 29 C-26 25.06830895 -24.60580385 23.83572772 -22 21 C-21.34 21 -20.68 21 -20 21 C-19.67 20.01 -19.34 19.02 -19 18 C-18.34 18 -17.68 18 -17 18 C-17 17.34 -17 16.68 -17 16 C-16.34 16 -15.68 16 -15 16 C-14.67 15.01 -14.34 14.02 -14 13 C-12.01739574 11.31267723 -10.0167658 9.64633943 -8 8 C-7.34 7.01 -6.68 6.02 -6 5 C-5.34 5 -4.68 5 -4 5 C-3.67 4.01 -3.34 3.02 -3 2 C-2.01 1.34 -1.02 0.68 0 0 Z " fill="#6B17AC" transform="translate(142,90)"/>
<path d="M0 0 C2 1 2 1 3.12109375 3.5390625 C2.95203504 8.37086944 0.77485438 9.94536331 -2.59960938 13.21484375 C-3.75686523 14.28412109 -3.75686523 14.28412109 -4.9375 15.375 C-5.70513672 16.11105469 -6.47277344 16.84710938 -7.26367188 17.60546875 C-9.16104625 19.42034859 -11.0727556 21.21695823 -13 23 C-13 18.14683415 -9.97359765 14.70125449 -7 11 C-6.0925 10.484375 -5.185 9.96875 -4.25 9.4375 C-1.5171112 7.69148771 -1.44983896 6.87251792 -0.6875 3.8125 C-0.460625 2.554375 -0.23375 1.29625 0 0 Z " fill="#7413BE" transform="translate(162,63)"/>
<path d="M0 0 C2.90426705 -0.34574608 5.11804487 -0.58374009 7.62890625 1.078125 C9.10416255 2.36481471 10.55299573 3.68161833 12 5 C12.99 5.33 13.98 5.66 15 6 C16.175625 7.2065625 16.175625 7.2065625 17.375 8.4375 C19.965178 10.9660071 21.71417165 11.72217786 25 13 C25.33 13.99 25.66 14.98 26 16 C21.80645418 14.45709163 17.98493642 12.41510688 14.125 10.1875 C13.19953369 9.65564087 13.19953369 9.65564087 12.25537109 9.11303711 C7.97313398 6.62590203 3.89317848 4.05892595 0 1 C0 0.67 0 0.34 0 0 Z " fill="#7F0BDE" transform="translate(45,144)"/>
<path d="M0 0 C0.33 1.32 0.66 2.64 1 4 C-4.75 3.125 -4.75 3.125 -7 2 C-13.07456899 1.65748699 -19.01553449 1.93609502 -25 3 C-24 1 -24 1 -21.9609375 0.1484375 C-13.96998188 -2.24160663 -7.93903912 -2.5923393 0 0 Z " fill="#7411D8" transform="translate(111,29)"/>
<path d="M0 0 C1.4540625 0.0309375 1.4540625 0.0309375 2.9375 0.0625 C-2.88054552 4.91087126 -11.04159806 9.2615666 -18.72265625 8.95703125 C-21.18196377 8.71836428 -23.61885276 8.42634285 -26.0625 8.0625 C-26.0625 7.7325 -26.0625 7.4025 -26.0625 7.0625 C-24.70705078 7.00642578 -24.70705078 7.00642578 -23.32421875 6.94921875 C-22.14472656 6.88347656 -20.96523437 6.81773437 -19.75 6.75 C-18.57824219 6.69199219 -17.40648438 6.63398438 -16.19921875 6.57421875 C-12.83854422 6.02596425 -12.15979605 5.57027602 -10.0625 3.0625 C-8.07893517 2.34841666 -6.07934563 1.67632258 -4.0625 1.0625 C-3.0625 0.0625 -3.0625 0.0625 0 0 Z " fill="#701DBD" transform="translate(119.0625,163.9375)"/>
<path d="M0 0 C0.33 0 0.66 0 1 0 C1.13399609 13.62931686 1.13399609 13.62931686 -3.5625 18.875 C-4.67861573 19.94844732 -5.81469551 21.00347768 -7 22 C-7.66 21.67 -8.32 21.34 -9 21 C-7.53560832 17.33902079 -6.21129243 14.30093165 -3.9375 11.0625 C-1.58883153 7.35008855 -0.88586262 4.28166935 0 0 Z " fill="#810AE1" transform="translate(164,122)"/>
<path d="M0 0 C0.99 0 1.98 0 3 0 C3 3 3 6 3 9 C-0.33333333 12 -0.33333333 12 -3 12 C-3.66 13.65 -4.32 15.3 -5 17 C-6.98 17 -8.96 17 -11 17 C-11.66 15.35 -12.32 13.7 -13 12 C-10.69 12.66 -8.38 13.32 -6 14 C-6 13.34 -6 12.68 -6 12 C-4.37660195 10.29115995 -2.70680947 8.62553283 -1 7 C1.1385485 4.8614515 1.42655063 3.86724686 2 1 C1.34 0.67 0.68 0.34 0 0 Z " fill="#8809EB" transform="translate(132,76)"/>
<path d="M0 0 C0 3 0 3 -1.75 5.04296875 C-2.4925 5.75066406 -3.235 6.45835938 -4 7.1875 C-4.7425 7.90292969 -5.485 8.61835937 -6.25 9.35546875 C-6.8275 9.89816406 -7.405 10.44085938 -8 11 C-6.79618552 13.49361571 -5.54571278 15.68143083 -4 18 C-6.31 17.34 -8.62 16.68 -11 16 C-11 13.36 -11 10.72 -11 8 C-10.01 8 -9.02 8 -8 8 C-7.67 7.01 -7.34 6.02 -7 5 C-6.01 4.67 -5.02 4.34 -4 4 C-2.62804426 2.70644173 -1.28817344 1.37701298 0 0 Z " fill="#7515C2" transform="translate(98,88)"/>
<path d="M0 0 C-1.69327727 1.82885996 -3.40230337 3.63670184 -5.125 5.4375 C-5.8365625 6.2119043 -5.8365625 6.2119043 -6.5625 7.00195312 C-9.02333217 9.54592151 -10.80700345 10.94191366 -14.21875 11.96875 C-17 12 -17 12 -19.375 10.0625 C-19.91125 9.381875 -20.4475 8.70125 -21 8 C-16.545 8.99 -16.545 8.99 -12 10 C-11.67 9.01 -11.34 8.02 -11 7 C-10.34 7 -9.68 7 -9 7 C-8.7525 6.05125 -8.505 5.1025 -8.25 4.125 C-7 1 -7 1 -5.0625 -0.4375 C-3 -1 -3 -1 0 0 Z " fill="#6C16B1" transform="translate(115,120)"/>
<path d="M0 0 C0 5.20673256 -4.48764106 8.43256923 -8 12 C-9.29682225 13.10205237 -10.60777734 14.18787713 -11.9375 15.25 C-14.36229858 17.2229043 -14.92949722 17.78379149 -15.9375 20.875 C-15.958125 21.57625 -15.97875 22.2775 -16 23 C-16.66 22.67 -17.32 22.34 -18 22 C-17.52177377 17.47279165 -16.02882082 15.58339442 -12.75 12.5 C-11.93789063 11.72398438 -11.12578125 10.94796875 -10.2890625 10.1484375 C-9.15597656 9.08496094 -9.15597656 9.08496094 -8 8 C-7.03698052 7.04637584 -6.07747213 6.08915891 -5.125 5.125 C-3.41666667 3.41666667 -1.70833333 1.70833333 0 0 Z " fill="#6919B1" transform="translate(53,112)"/>
<path d="M0 0 C0.99 0.33 1.98 0.66 3 1 C0.46316052 2.63297743 -2.07898927 4.25643276 -4.625 5.875 C-5.33785156 6.33519531 -6.05070313 6.79539063 -6.78515625 7.26953125 C-10.76522818 9.78902633 -14.41124513 11.74062564 -19 13 C-19 12.34 -19 11.68 -19 11 C-16 9 -16 9 -13 9 C-12.67 8.01 -12.34 7.02 -12 6 C-10.29922552 5.21502716 -8.591708 4.43901866 -6.84375 3.765625 C-4.77898535 2.97029117 -4.77898535 2.97029117 -2.25 1.25 C-1.5075 0.8375 -0.765 0.425 0 0 Z " fill="#6F16B9" transform="translate(141,151)"/>
<path d="M0 0 C0.33 0 0.66 0 1 0 C1 6.27 1 12.54 1 19 C1.66 19 2.32 19 3 19 C2.67 20.65 2.34 22.3 2 24 C3.65 23.34 5.3 22.68 7 22 C5.38405168 24.04119788 3.7143618 26.04072937 2 28 C1.34 28 0.68 28 0 28 C0 18.76 0 9.52 0 0 Z " fill="#8707ED" transform="translate(35,79)"/>
<path d="M0 0 C0.66 0.33 1.32 0.66 2 1 C2 11.56 2 22.12 2 33 C1.67 33 1.34 33 1 33 C1 23.1 1 13.2 1 3 C-0.32 3.99 -1.64 4.98 -3 6 C-3.66 5.67 -4.32 5.34 -5 5 C-3.35 3.35 -1.7 1.7 0 0 Z " fill="#662798" transform="translate(165,88)"/>
<path d="M0 0 C4.9560634 1.09201397 8.75402841 2.13110028 13 5 C15.9504508 6.79905536 18.88568556 8.50051527 22 10 C19 11 19 11 15.8203125 9.671875 C14.58331342 9.0414045 13.3516804 8.40031913 12.125 7.75 C11.20654297 7.28013672 11.20654297 7.28013672 10.26953125 6.80078125 C6.76877483 4.99418104 3.30941724 3.13916704 0 1 C0 0.67 0 0.34 0 0 Z " fill="#6D1EBE" transform="translate(71,160)"/>
<path d="M0 0 C5.29118628 4.4093219 10.18127939 9.08158172 15 14 C15.66 14.66 16.32 15.32 17 16 C12.94269464 15.45400531 10.87295365 13.36121472 7.9375 10.625 C7.08027344 9.83351562 6.22304687 9.04203125 5.33984375 8.2265625 C4.56769531 7.49179688 3.79554687 6.75703125 3 6 C2.40316406 5.47148437 1.80632812 4.94296875 1.19140625 4.3984375 C0 3 0 3 0 0 Z " fill="#6D1CB0" transform="translate(80,134)"/>
<path d="M0 0 C6.79921044 3.71866202 12.85706284 7.14276601 18 13 C17.67 13.66 17.34 14.32 17 15 C15.0625 14.25 15.0625 14.25 13 13 C12.855625 12.34 12.71125 11.68 12.5625 11 C12.376875 10.34 12.19125 9.68 12 9 C10.35767228 8.27544365 8.68375165 7.62225605 7 7 C4.54731627 5.49182802 2.14342224 3.92722691 0 2 C0 1.34 0 0.68 0 0 Z " fill="#6A17BC" transform="translate(144,48)"/>
<path d="M0 0 C0.33 0 0.66 0 1 0 C1 10.23 1 20.46 1 31 C1.99 31.33 2.98 31.66 4 32 C3.01 32.66 2.02 33.32 1 34 C0 33 0 33 -0.11352539 29.85717773 C-0.11336633 28.46597303 -0.10767506 27.07476239 -0.09765625 25.68359375 C-0.0962413 24.95253922 -0.09482635 24.22148468 -0.09336853 23.46827698 C-0.08775408 21.12464368 -0.07519922 18.78110461 -0.0625 16.4375 C-0.05748686 14.85221492 -0.05292363 13.26692834 -0.04882812 11.68164062 C-0.03777997 7.7877239 -0.02050572 3.89387795 0 0 Z " fill="#5F2396" transform="translate(33,78)"/>
<path d="M0 0 C0 0.99 0 1.98 0 3 C-1 4 -2 5 -3 6 C-4.19027984 8.59915538 -4.19027984 8.59915538 -5 11 C-5.66 11 -6.32 11 -7 11 C-7 12.65 -7 14.3 -7 16 C-7.33 16 -7.66 16 -8 16 C-7.37618048 6.12644281 -7.37618048 6.12644281 -4 2 C-1.8125 0.6875 -1.8125 0.6875 0 0 Z " fill="#7616BD" transform="translate(42,59)"/>
<path d="M0 0 C1.875 2 1.875 2 3 4 C2.113125 3.79375 1.22625 3.5875 0.3125 3.375 C-3.3092752 2.96498771 -4.79379192 3.39689596 -8 5 C-9.1446875 5.556875 -9.1446875 5.556875 -10.3125 6.125 C-10.869375 6.41375 -11.42625 6.7025 -12 7 C-8.9468627 1.47527537 -6.54141956 -0.81767744 0 0 Z " fill="#830AE6" transform="translate(103,70)"/>
<path d="M0 0 C0.66 0.33 1.32 0.66 2 1 C1.67 1.66 1.34 2.32 1 3 C0.34 3 -0.32 3 -1 3 C-1 3.66 -1 4.32 -1 5 C-2.32 5.33 -3.64 5.66 -5 6 C-5 6.66 -5 7.32 -5 8 C-5.66 8 -6.32 8 -7 8 C-7 8.99 -7 9.98 -7 11 C-9 12.6875 -9 12.6875 -11 14 C-11.66 13.67 -12.32 13.34 -13 13 C-12.38125 12.4225 -11.7625 11.845 -11.125 11.25 C-8.95417758 9.19505865 -8.95417758 9.19505865 -8.0625 6.9375 C-6.59950878 4.26969249 -4.62661093 3.44463601 -2 2 C-1.34 1.34 -0.68 0.68 0 0 Z " fill="#8112DE" transform="translate(150,105)"/>
<path d="M0 0 C6.42625594 1.57377696 12.56987811 3.7880919 17 9 C12.90540797 9 10.23249165 7.03072724 6.8125 5 C6.15830078 4.6184375 5.50410156 4.236875 4.83007812 3.84375 C3.21666455 2.90161068 1.60787702 1.95155734 0 1 C0 0.67 0 0.34 0 0 Z " fill="#6A1CB6" transform="translate(54,150)"/>
<path d="M0 0 C1.32 0.33 2.64 0.66 4 1 C2.35 3.64 0.7 6.28 -1 9 C-0.34 9 0.32 9 1 9 C1 9.66 1 10.32 1 11 C-0.32 10.67 -1.64 10.34 -3 10 C-3 8.02 -3 6.04 -3 4 C-2.01 4 -1.02 4 0 4 C0 2.68 0 1.36 0 0 Z " fill="#7C12CC" transform="translate(68,113)"/>
<path d="M0 0 C0.66 0.33 1.32 0.66 2 1 C2.39171753 2.65391846 2.72057545 4.32345271 3 6 C3.33 6.99 3.66 7.98 4 9 C1.62051228 8.82374165 0.29774151 8.30280227 -1.37890625 6.59765625 C-2.62115486 5.09350908 -3.81376056 3.54870149 -5 2 C-3.68 2 -2.36 2 -1 2 C-0.67 1.34 -0.34 0.68 0 0 Z " fill="#7A14CF" transform="translate(125,64)"/>
<path d="M0 0 C0.33 0.66 0.66 1.32 1 2 C0.401875 2.25652344 -0.19625 2.51304687 -0.8125 2.77734375 C-3.81078657 4.45317178 -5.37663283 6.74771845 -7.4375 9.44140625 C-9.24980553 11.24918101 -10.50504602 11.60747491 -13 12 C-13 10 -13 10 -11.42578125 8.37890625 C-7.77264008 5.23896052 -4.27922844 2.27334011 0 0 Z " fill="#850CE1" transform="translate(125,132)"/>
<path d="M0 0 C4.8434046 0.41514897 6.81587829 2.46208699 10 6 C10.33 6.33 10.66 6.66 11 7 C11.04080783 8.99958364 11.04254356 11.00045254 11 13 C10.7421875 12.41476563 10.484375 11.82953125 10.21875 11.2265625 C8.90411054 8.82481734 7.46809205 7.26803769 5.5 5.375 C4.8915625 4.78460938 4.283125 4.19421875 3.65625 3.5859375 C3.1096875 3.06257813 2.563125 2.53921875 2 2 C1.34 1.34 0.68 0.68 0 0 Z " fill="#7317B4" transform="translate(100,89)"/>
<path d="M0 0 C0.66 0.33 1.32 0.66 2 1 C-0.3024119 3.60045875 -2.49896677 4.84739183 -5.6875 6.1875 C-6.49574219 6.53167969 -7.30398437 6.87585938 -8.13671875 7.23046875 C-8.75160156 7.48441406 -9.36648437 7.73835938 -10 8 C-9.67 6.35 -9.34 4.7 -9 3 C-8.071875 2.87625 -7.14375 2.7525 -6.1875 2.625 C-2.86074765 2.18466918 -2.86074765 2.18466918 0 0 Z " fill="#800DDB" transform="translate(146,86)"/>
<path d="M0 0 C0 0.66 0 1.32 0 2 C-0.58007812 2.04898437 -1.16015625 2.09796875 -1.7578125 2.1484375 C-6.47004482 2.59944323 -10.5025539 3.4642867 -15 5 C-15.66 4.67 -16.32 4.34 -17 4 C-11.08466019 0.83598103 -6.67953919 -0.15533812 0 0 Z " fill="#7023B2" transform="translate(103,27)"/>
<path d="M0 0 C3.21524305 1.40844718 5.32183868 3.10344786 7.75 5.625 C8.67039062 6.57246094 8.67039062 6.57246094 9.609375 7.5390625 C10.29773438 8.26222656 10.29773438 8.26222656 11 9 C7.25983417 9 6.54723807 8.0658409 3.8125 5.625 C3.09707031 4.99851563 2.38164063 4.37203125 1.64453125 3.7265625 C0 2 0 2 0 0 Z " fill="#741DB3" transform="translate(69,124)"/>
<path d="M0 0 C0.33 0.99 0.66 1.98 1 3 C0.67 3.66 0.34 4.32 0 5 C-0.99 5.33 -1.98 5.66 -3 6 C-3.33 6.99 -3.66 7.98 -4 9 C-5.65 9.33 -7.3 9.66 -9 10 C-8.06409496 8.8944811 -7.12620142 7.79064547 -6.1875 6.6875 C-5.66542969 6.07261719 -5.14335938 5.45773438 -4.60546875 4.82421875 C-3.12827531 3.14575321 -1.59960869 1.56117966 0 0 Z " fill="#6F16B5" transform="translate(71,94)"/>
<path d="M0 0 C0.66 0 1.32 0 2 0 C1.1875 2.4375 1.1875 2.4375 0 5 C-0.99 5.33 -1.98 5.66 -3 6 C-3 6.66 -3 7.32 -3 8 C-4.32 8.33 -5.64 8.66 -7 9 C-5.625 6.5 -5.625 6.5 -4 4 C-3.34 4 -2.68 4 -2 4 C-1.34 2.68 -0.68 1.36 0 0 Z " fill="#6A17C2" transform="translate(108,102)"/>
<path d="M0 0 C0.66 0.33 1.32 0.66 2 1 C2.625 4.0625 2.625 4.0625 3 7 C1.35 8.32 -0.3 9.64 -2 11 C-1.34 7.37 -0.68 3.74 0 0 Z " fill="#6F1BB3" transform="translate(162,63)"/>
<path d="M0 0 C2 1.375 2 1.375 4 3 C4 3.66 4 4.32 4 5 C4.99 5.33 5.98 5.66 7 6 C7 7.65 7 9.3 7 11 C6.79375 10.38125 6.5875 9.7625 6.375 9.125 C4.43691574 6.12977887 2.3795295 5.84488238 -1 5 C-1.66 5 -2.32 5 -3 5 C-3 4.34 -3 3.68 -3 3 C-2.01 3 -1.02 3 0 3 C0 2.01 0 1.02 0 0 Z " fill="#8809EB" transform="translate(155,57)"/>
<path d="M0 0 C0.33 1.32 0.66 2.64 1 4 C-0.1446875 4.680625 -0.1446875 4.680625 -1.3125 5.375 C-3.23632814 6.53824492 -5.12941224 7.7529415 -7 9 C-7.33 8.34 -7.66 7.68 -8 7 C-6.71034824 5.62437146 -5.37310707 4.29233607 -4 3 C-3.34 3 -2.68 3 -2 3 C-2 2.34 -2 1.68 -2 1 C-1.34 0.67 -0.68 0.34 0 0 Z " fill="#8707EA" transform="translate(49,92)"/>
<path d="M0 0 C0.66 0 1.32 0 2 0 C0.63016497 3.16115776 0.0109362 3.9927092 -3 6 C-5.26171875 6.1953125 -5.26171875 6.1953125 -7.6875 6.125 C-8.89986328 6.09792969 -8.89986328 6.09792969 -10.13671875 6.0703125 C-11.05904297 6.03550781 -11.05904297 6.03550781 -12 6 C-12 5.67 -12 5.34 -12 5 C-11.30132812 4.97421875 -10.60265625 4.9484375 -9.8828125 4.921875 C-8.97273438 4.86515625 -8.06265625 4.8084375 -7.125 4.75 C-6.22007813 4.70359375 -5.31515625 4.6571875 -4.3828125 4.609375 C-1.82889456 4.24388852 -1.82889456 4.24388852 -0.6796875 1.953125 C-0.34324219 0.98632812 -0.34324219 0.98632812 0 0 Z " fill="#8A0AEA" transform="translate(108,147)"/>
<path d="M0 0 C0.33 0.99 0.66 1.98 1 3 C-0.43359375 5.04296875 -0.43359375 5.04296875 -2.4375 7.1875 C-3.09621094 7.90292969 -3.75492188 8.61835938 -4.43359375 9.35546875 C-4.95050781 9.89816406 -5.46742188 10.44085938 -6 11 C-6.66 10.67 -7.32 10.34 -8 10 C-5.36 6.7 -2.72 3.4 0 0 Z " fill="#6F21B2" transform="translate(163,133)"/>
<path d="M0 0 C1.65 0.33 3.3 0.66 5 1 C5.33 1.99 5.66 2.98 6 4 C5.34 4 4.68 4 4 4 C3.34 3.34 2.68 2.68 2 2 C0.68 3.32 -0.64 4.64 -2 6 C-2.66 5.67 -3.32 5.34 -4 5 C-2.68 3.35 -1.36 1.7 0 0 Z " fill="#691ABE" transform="translate(74,110)"/>
<path d="M0 0 C0.33 0.99 0.66 1.98 1 3 C-0.40759521 5.81519043 -2.22583277 6.61291638 -5 8 C-5.99 7.67 -6.98 7.34 -8 7 C-5.36 4.69 -2.72 2.38 0 0 Z " fill="#6F1CB2" transform="translate(111,142)"/>
<path d="M0 0 C0.66 0.33 1.32 0.66 2 1 C0.88121617 2.17262904 -0.24523051 3.33795138 -1.375 4.5 C-2.00148437 5.1496875 -2.62796875 5.799375 -3.2734375 6.46875 C-5 8 -5 8 -7 8 C-6.67 7.01 -6.34 6.02 -6 5 C-5.34 5 -4.68 5 -4 5 C-3.67 4.01 -3.34 3.02 -3 2 C-2.01 1.34 -1.02 0.68 0 0 Z " fill="#6F17B4" transform="translate(142,90)"/>
<path d="M0 0 C-0.33 1.65 -0.66 3.3 -1 5 C-2.98 5.33 -4.96 5.66 -7 6 C-7 5.34 -7 4.68 -7 4 C-2.52941176 0 -2.52941176 0 0 0 Z " fill="#8609EB" transform="translate(79,90)"/>
<path d="M0 0 C3.25543229 0.34879632 4.01873107 1.02133261 6.25 3.5625 C6.8275 4.366875 7.405 5.17125 8 6 C7.67 6.66 7.34 7.32 7 8 C5.83035398 6.8572081 4.66435444 5.71068285 3.5 4.5625 C2.8503125 3.92441406 2.200625 3.28632812 1.53125 2.62890625 C0 1 0 1 0 0 Z " fill="#711EAC" transform="translate(112,58)"/>
<path d="M0 0 C3.91211733 1.15585285 6.8745041 2.35534962 10 5 C6.28400809 5.20086443 5.22791555 5.1519437 2 3 C1.67 3.66 1.34 4.32 1 5 C0.67 3.35 0.34 1.7 0 0 Z " fill="#850BE6" transform="translate(117,35)"/>
<path d="M0 0 C3.7952131 1.49097658 5.61042731 3.75700849 8 7 C7.01 7 6.02 7 5 7 C0 1.53488372 0 1.53488372 0 0 Z " fill="#6C1DAF" transform="translate(37,136)"/>
<path d="M0 0 C1.98 0.66 3.96 1.32 6 2 C6 2.99 6 3.98 6 5 C4.125 4.75 4.125 4.75 2 4 C0.75 1.9375 0.75 1.9375 0 0 Z " fill="#6B17C1" transform="translate(111,30)"/>
<path d="M0 0 C1.98 0 3.96 0 6 0 C3.37801226 2.15377564 1.35595828 3.40072174 -2 4 C-1.34 2.68 -0.68 1.36 0 0 Z " fill="#7415C0" transform="translate(116,164)"/>
<path d="M0 0 C2.31 0 4.62 0 7 0 C7 1.32 7 2.64 7 4 C4.97954558 3.39816251 2.97888961 2.72693904 1 2 C0.67 1.34 0.34 0.68 0 0 Z " fill="#8A08EA" transform="translate(79,162)"/>
<path d="M0 0 C4.24822374 0.47202486 6.19989709 2.96655518 9 6 C5.06326356 4.68775452 2.77280706 3.08089673 0 0 Z " fill="#6A18B4" transform="translate(45,144)"/>
<path d="M0 0 C0.99 0.33 1.98 0.66 3 1 C3 1.99 3 2.98 3 4 C0.5 6.1875 0.5 6.1875 -2 8 C-1.125 1.125 -1.125 1.125 0 0 Z " fill="#8705ED" transform="translate(135,91)"/>
<path d="M0 0 C0.33 0.99 0.66 1.98 1 3 C-1.97 5.475 -1.97 5.475 -5 8 C-5.66 7.67 -6.32 7.34 -7 7 C-4.69 4.69 -2.38 2.38 0 0 Z " fill="#6C1AB0" transform="translate(79,86)"/>
<path d="M0 0 C2.97 1.65 5.94 3.3 9 5 C7.68 5.33 6.36 5.66 5 6 C2.25 4.1875 2.25 4.1875 0 2 C0 1.34 0 0.68 0 0 Z " fill="#7117AF" transform="translate(144,48)"/>
<path d="M0 0 C-5.75 3.875 -5.75 3.875 -8 5 C-8 3.68 -8 2.36 -8 1 C-2.25 -1.125 -2.25 -1.125 0 0 Z " fill="#7914CB" transform="translate(65,46)"/>
</svg>
