<svg version="1.1" id="Layer_1" xmlns="http://www.w3.org/2000/svg" xmlns:xlink="http://www.w3.org/1999/xlink" x="0px" y="0px" viewBox="0 0 80.9 86.2" style="enable-background:new 0 0 80.9 86.2;" xml:space="preserve">
 <style type="text/css">
  .st0{fill:#F57E20;}
 </style>
 <g>
  <g>
   <polygon class="st0" points="35.1,6.9 74,45.7 40.5,79.3 6.9,45.7 23.1,29 16.4,29 0,45.7 40.5,86.2 80.9,45.7 35.3,0 		">
   </polygon>
   <polygon class="st0" points="35.3,29.1 28.3,29 12,45.7 40.5,74.1 68.9,45.7 35.3,12 35.2,18.6 62.3,45.7 40.5,67.6 18.8,45.7 		
			">
   </polygon>
   <path class="st0" d="M40.4,35.9l9.9,9.8l-9.9,9.8l-9.9-9.8L40.4,35.9z M57,45.7L40.4,29.1L23.8,45.7l16.6,16.6L57,45.7z">
   </path>
  </g>
 </g>
</svg>