<?xml version="1.0" encoding="UTF-8"?>
<svg xmlns="http://www.w3.org/2000/svg" viewBox="0 0 225 224" width="225" height="224">
    <path d="M13.5 0.08C79.5 0.08 145.5 0.08 211.5 0.08C213.95 2.08 217.37 2.45 219.86 4.89C222.47 7.44 222.83 10.94 224.92 13.5C224.92 79.17 224.92 144.83 224.92 210.5C222.92 212.95 222.55 216.37 220.11 218.86C217.56 221.47 214.06 221.83 211.5 223.92C145.5 223.92 79.5 223.92 13.5 223.92C10.94 221.83 7.44 221.47 4.89 218.86C2.45 216.37 2.08 212.95 0.08 210.5C0.08 144.83 0.08 79.17 0.08 13.5C2.17 10.94 2.53 7.44 5.14 4.89C7.63 2.45 11.05 2.08 13.5 0.08ZM157.51 60.75C158.19 55.79 158.92 50.89 157.78 45.9C152.78 24 118.17 29.06 101.75 29.06C94.08 29.06 86.42 29.06 78.75 29.06C75.71 29.06 72.12 28.1 71.37 31.75C73.44 35.07 78.46 36.93 81.68 39.06C85.09 41.3 88.93 44.63 92.75 46C97.37 47.66 113.44 46.47 119.25 46.47C123.73 46.47 137.56 45.03 140.44 48.31C143.79 52.12 140.56 57.46 137.98 60.7C132.27 67.87 125 74.1 120.3 82.03C118.36 85.29 116.46 88.8 115.21 92.39C114.56 94.24 114.32 96.46 113.25 98.07C111.49 96.7 109.09 86.58 107.65 83.6C102.81 73.62 94.36 64.49 83.91 60.34C66.19 53.28 43.73 65.28 41.19 84.8C39.72 96.11 43.7 101.74 48.91 110.75C46.38 114.74 43.58 118.34 42.26 122.98C38.19 137.24 44.65 152.93 57.98 159.73C61.17 161.36 64.58 162.03 67.9 163.25C67.15 167.88 66.4 172.42 67.19 177.19C70.56 197.62 97.81 194.94 112.75 194.94C116.75 194.94 120.75 194.94 124.75 194.94C131.75 194.94 138.75 194.94 145.75 194.94C148.1 194.94 151.87 195.68 153.8 194.25C154.06 193.22 154.41 192.52 153.71 191.53C152.01 189.14 144.33 185.42 141.55 183.7C138.73 181.94 135.79 179.3 132.69 178.11C129.59 176.92 125.52 177.58 122.25 177.58C115.25 177.58 108.25 177.58 101.25 177.58C96.94 177.58 86.85 179.54 84.24 175.03C81.62 170.52 85.53 165.4 88.29 162.03C93.68 155.46 100.17 149.68 104.67 142.43C108.07 136.98 109.6 131.07 112.25 125.33C113.98 127.69 114.89 134.33 116.22 137.59C120.72 148.56 130.09 159.6 141.46 163.75C161.28 170.97 183.66 156.76 184.31 135.23C184.59 126.3 180.51 120.52 176.36 113.25C178.73 109.37 181.42 105.99 182.75 101.55C186.76 88.25 181.79 74.19 170.46 66.3C166.41 63.47 161.97 62.57 157.51 60.75ZM96.87 101.25C93.32 101.95 88.91 101.25 85.25 101.15C75.83 100.9 56.6 103.93 57 89.25C57.05 87.54 57.56 85.49 58.19 83.9C61.56 75.45 72.5 72.02 79.99 77.27C84.83 80.67 87.89 87.34 91.16 92.11C92.95 94.71 96.43 98.21 96.87 101.25ZM128.27 102.75C131.03 97.32 135.29 92.49 138.64 87.39C140.8 84.12 142.93 80.21 146.5 78.27C154.59 73.87 165.83 77.34 168.86 86.35C175.28 105.42 150.34 102.99 139.25 103.04C135.68 103.06 131.71 103.65 128.27 102.75ZM96.95 121.25C94.66 126.28 90.46 130.97 87.32 135.57C84.92 139.08 82.76 143.45 78.95 145.68C71.68 149.94 61.7 146.78 58.22 139.06C57.48 137.42 56.99 135.55 56.91 133.75C56.24 118.79 74.72 121.38 84.75 121.09C88.55 120.98 93.33 120.19 96.95 121.25ZM128.25 122.97C131.79 121.83 136.98 122.85 140.75 122.9C150.67 123.03 168.54 120.51 168.06 135.25C168 137.07 167.52 138.92 166.8 140.6C163.25 148.87 152.35 151.9 145.04 146.7C140.17 143.24 137.39 136.54 133.93 131.82C132.18 129.44 128.78 125.8 128.25 122.97Z" fill="#141414" fill-rule="evenodd" stroke="#141414" stroke-width="0.25" stroke-linejoin="round"/>
    <path d="M157.51 60.75C161.97 62.57 166.41 63.47 170.46 66.3C181.79 74.19 186.76 88.25 182.75 101.55C181.42 105.99 178.73 109.37 176.36 113.25C180.51 120.52 184.59 126.3 184.31 135.23C183.66 156.76 161.28 170.97 141.46 163.75C130.09 159.6 120.72 148.56 116.22 137.59C114.89 134.33 113.98 127.69 112.25 125.33C109.6 131.07 108.07 136.98 104.67 142.43C100.17 149.68 93.68 155.46 88.29 162.03C85.53 165.4 81.62 170.52 84.24 175.03C86.85 179.54 96.94 177.58 101.25 177.58C108.25 177.58 115.25 177.58 122.25 177.58C125.52 177.58 129.59 176.92 132.69 178.11C135.79 179.3 138.73 181.94 141.55 183.7C144.33 185.42 152.01 189.14 153.71 191.53C154.41 192.52 154.06 193.22 153.8 194.25C151.87 195.68 148.1 194.94 145.75 194.94C138.75 194.94 131.75 194.94 124.75 194.94C120.75 194.94 116.75 194.94 112.75 194.94C97.81 194.94 70.56 197.62 67.19 177.19C66.4 172.42 67.15 167.88 67.9 163.25C64.58 162.03 61.17 161.36 57.98 159.73C44.65 152.93 38.19 137.24 42.26 122.98C43.58 118.34 46.38 114.74 48.91 110.75C43.7 101.74 39.72 96.11 41.19 84.8C43.73 65.28 66.19 53.28 83.91 60.34C94.36 64.49 102.81 73.62 107.65 83.6C109.09 86.58 111.49 96.7 113.25 98.07C114.32 96.46 114.56 94.24 115.21 92.39C116.46 88.8 118.36 85.29 120.3 82.03C125 74.1 132.27 67.87 137.98 60.7C140.56 57.46 143.79 52.12 140.44 48.31C137.56 45.03 123.73 46.47 119.25 46.47C113.44 46.47 97.37 47.66 92.75 46C88.93 44.63 85.09 41.3 81.68 39.06C78.46 36.93 73.44 35.07 71.37 31.75C72.12 28.1 75.71 29.06 78.75 29.06C86.42 29.06 94.08 29.06 101.75 29.06C118.17 29.06 152.78 24 157.78 45.9C158.92 50.89 158.19 55.79 157.51 60.75ZM96.87 101.25C96.43 98.21 92.95 94.71 91.16 92.11C87.89 87.34 84.83 80.67 79.99 77.27C72.5 72.02 61.56 75.45 58.19 83.9C57.56 85.49 57.05 87.54 57 89.25C56.6 103.93 75.83 100.9 85.25 101.15C88.91 101.25 93.32 101.95 96.87 101.25ZM128.27 102.75C131.71 103.65 135.68 103.06 139.25 103.04C150.34 102.99 175.28 105.42 168.86 86.35C165.83 77.34 154.59 73.87 146.5 78.27C142.93 80.21 140.8 84.12 138.64 87.39C135.29 92.49 131.03 97.32 128.27 102.75ZM96.95 121.25C93.33 120.19 88.55 120.98 84.75 121.09C74.72 121.38 56.24 118.79 56.91 133.75C56.99 135.55 57.48 137.42 58.22 139.06C61.7 146.78 71.68 149.94 78.95 145.68C82.76 143.45 84.92 139.08 87.32 135.57C90.46 130.97 94.66 126.28 96.95 121.25ZM128.25 122.97C128.78 125.8 132.18 129.44 133.93 131.82C137.39 136.54 140.17 143.24 145.04 146.7C152.35 151.9 163.25 148.87 166.8 140.6C167.52 138.92 168 137.07 168.06 135.25C168.54 120.51 150.67 123.03 140.75 122.9C136.98 122.85 131.79 121.83 128.25 122.97Z" fill="#a9fff2" fill-rule="evenodd" stroke="#a9fff2" stroke-width="0.25" stroke-linejoin="round"/>
    <path d="M0.13 0.13C4.58 0.11 9.04 0.1 13.5 0.08C11.05 2.08 7.63 2.45 5.14 4.89C2.53 7.44 2.17 10.94 0.08 13.5C0.1 9.04 0.11 4.58 0.13 0.13ZM211.5 0.08C215.96 0.1 220.42 0.11 224.88 0.13C224.89 4.58 224.9 9.04 224.92 13.5C222.83 10.94 222.47 7.44 219.86 4.89C217.37 2.45 213.95 2.08 211.5 0.08ZM0.08 210.5C2.08 212.95 2.45 216.37 4.89 218.86C7.44 221.47 10.94 221.83 13.5 223.92C9.04 223.9 4.58 223.89 0.13 223.88C0.11 219.42 0.1 214.96 0.08 210.5ZM224.92 210.5C224.9 214.96 224.89 219.42 224.88 223.88C220.42 223.89 215.96 223.9 211.5 223.92C214.06 221.83 217.56 221.47 220.11 218.86C222.55 216.37 222.92 212.95 224.92 210.5Z" fill="#fbfbfb" fill-rule="evenodd" stroke="#fbfbfb" stroke-width="0.25" stroke-linejoin="round"/>
</svg>