<?xml version="1.0" encoding="UTF-8"?>
<svg version="1.1" xmlns="http://www.w3.org/2000/svg" width="400" height="400">
  <path d="M0 0 C132 0 264 0 400 0 C400 132 400 264 400 400 C268 400 136 400 0 400 C0 268 0 136 0 0 Z " fill="#0059E0" transform="translate(0,0)"/>
  <path d="M0 0 C17.49 0 34.98 0 53 0 C55.31 4.95 57.62 9.9 60 15 C61.26892796 17.70926834 62.53871528 20.41802673 63.8125 23.125 C64.13379883 23.80892822 64.45509766 24.49285645 64.78613281 25.19750977 C66.70345537 29.27159303 68.63883631 33.33646454 70.58984375 37.39453125 C71.03158936 38.31540527 71.47333496 39.2362793 71.9284668 40.18505859 C72.78262296 41.96406406 73.63937847 43.74182488 74.49926758 45.51806641 C76.45483815 49.59418774 78.29690401 53.66923473 79.9375 57.8828125 C82.64581574 64.79496997 86.00252132 71.39585427 89.28515625 78.04882812 C89.76339844 79.03173828 90.24164063 80.01464844 90.734375 81.02734375 C91.16975586 81.91156006 91.60513672 82.79577637 92.05371094 83.70678711 C93 86 93 86 93 89 C93.66 89 94.32 89 95 89 C95.12955078 87.77410156 95.12955078 87.77410156 95.26171875 86.5234375 C96.17206057 82.17884322 97.86768227 78.59228699 99.8125 74.625 C100.15603516 73.90828125 100.49957031 73.1915625 100.85351562 72.453125 C102.4747121 69.08298298 104.13305263 65.73391803 105.82421875 62.3984375 C107.72230261 58.62224961 109.49825891 54.79199362 111.2734375 50.95703125 C114.90636309 43.12331541 118.74268769 35.39995359 122.625 27.6875 C123.27363125 26.39527952 123.92206903 25.10296192 124.5703125 23.81054688 C129.42674401 14.13177111 129.42674401 14.13177111 131.53808594 9.96337891 C132.21145996 8.62992432 132.21145996 8.62992432 132.8984375 7.26953125 C133.28435059 6.50874268 133.67026367 5.7479541 134.06787109 4.96411133 C135.11138605 2.86760484 135.11138605 2.86760484 136 0 C153.49 0 170.98 0 189 0 C189.721875 8.683125 190.44375 17.36625 191.1875 26.3125 C192.57128376 42.94504713 193.96012282 59.57709984 195.375 76.20703125 C195.48580399 77.51003677 195.59660797 78.8130423 195.71076965 80.15553284 C196.23881406 86.36204176 196.76821412 92.56843112 197.29956055 98.7746582 C198.53618361 113.26048683 199.69599248 127.75062718 200.79153442 142.24780273 C200.97356766 144.65103581 201.15766364 147.05409029 201.34350586 149.45703125 C201.60712569 152.86695929 201.86673735 156.27716287 202.125 159.6875 C202.21136719 160.79931641 202.29773438 161.91113281 202.38671875 163.05664062 C202.46792969 164.13494141 202.54914063 165.21324219 202.6328125 166.32421875 C202.70387207 167.25322998 202.77493164 168.18224121 202.84814453 169.1394043 C203.02284107 172.43027145 203.02404086 175.70512293 203 179 C197.55569418 179.07437576 192.11168671 179.12870866 186.66699219 179.16479492 C184.81635381 179.17984471 182.96575089 179.20028933 181.11523438 179.22631836 C178.44912955 179.2628698 175.78349792 179.27976454 173.1171875 179.29296875 C172.29507782 179.30845261 171.47296814 179.32393646 170.62594604 179.33988953 C165.66207652 179.34133089 162.31140757 178.73291409 158 176 C156.13671875 173.87890625 156.13671875 173.87890625 154.6875 171.5625 C154.19636719 170.80066406 153.70523438 170.03882813 153.19921875 169.25390625 C151.00411629 165.12825765 150.8266865 161.27542455 150.64282227 156.64038086 C150.58929092 155.34639877 150.53575958 154.05241669 150.48060608 152.71922302 C150.44061336 151.68200009 150.44061336 151.68200009 150.3998127 150.62382317 C150.31495913 148.42738506 150.22478506 146.23122014 150.13328552 144.03504944 C149.9061983 138.55912372 149.68768857 133.08286282 149.46972656 127.60656738 C149.25694069 122.26744811 149.04002954 116.92852071 148.81640625 111.58984375 C148.76964689 110.47103884 148.76964689 110.47103884 148.7219429 109.32963181 C148.1227094 95.19370166 147.17343188 81.10068902 146 67 C145.56856689 68.16007568 145.13713379 69.32015137 144.69262695 70.51538086 C144.30646713 71.5534639 144.30646713 71.5534639 143.9125061 72.61251831 C143.38117937 74.04157855 142.85083128 75.47100276 142.32104492 76.90063477 C141.07801368 80.2285318 139.79641679 83.52340926 138.37890625 86.78125 C137.35186541 89.17864845 136.48670447 91.44849134 135.75 93.9375 C134.05237725 99.202854 131.7826535 104.20209728 129.51269531 109.23999023 C128.22231029 112.12074299 127.0206756 114.93755802 126.02734375 117.9375 C124.65742776 122.02120394 122.89699782 125.88973159 121.125 129.8125 C120.61646484 130.94655273 120.61646484 130.94655273 120.09765625 132.10351562 C119.45201417 133.54332201 118.80521312 134.98260982 118.15673828 136.42114258 C116.42757369 140.27617965 114.71596847 144.13907094 113 148 C100.13 148 87.26 148 74 148 C71.69 142.06 69.38 136.12 67 130 C65.19422898 125.65626722 63.38516102 121.31747132 61.54284668 116.98965454 C56.79475352 105.82286316 52.18822096 94.60602051 47.75 83.3125 C47.28432617 82.13123535 46.81865234 80.9499707 46.33886719 79.73291016 C43.01627901 71.22803876 43.01627901 71.22803876 42 67 C41.96685699 67.66143509 41.93371399 68.32287018 41.89956665 69.00434875 C41.13707454 84.21089156 40.36720881 99.41703198 39.58442688 114.62254333 C39.28455534 120.44841075 38.9852721 126.27428919 38.69384766 132.10058594 C38.4865718 136.24243964 38.27250772 140.38386607 38.0512085 144.5249939 C37.97621909 145.9511411 37.90393304 147.37743337 37.83453369 148.80386353 C36.89847822 167.95459546 36.89847822 167.95459546 31 175 C24.78825104 178.83278128 19.00071963 179.1475074 11.85546875 179.09765625 C11.08568192 179.0962413 10.31589508 179.09482635 9.52278137 179.09336853 C7.07764712 179.08779606 4.63260632 179.07524871 2.1875 179.0625 C0.52408987 179.05748144 -1.1393217 179.05291915 -2.80273438 179.04882812 C-6.86852528 179.03783566 -10.93424683 179.0205901 -15 179 C-15.11699193 172.42072024 -14.80939786 166.03420672 -14.0625 159.5 C-13.38852 153.22867708 -12.84196435 146.98848951 -12.5625 140.6875 C-12.14296814 131.55348187 -11.20614923 122.4727228 -10.29327393 113.37792969 C-9.41599104 104.61816731 -8.69139788 95.88323791 -8.26171875 87.09033203 C-8.02711652 83.00307278 -7.57842379 78.94740231 -7.09765625 74.8828125 C-5.88941144 64.33321131 -4.94116936 53.76370688 -4 43.1875 C-3.74925483 40.38596139 -3.49793716 37.58447538 -3.24609375 34.78303528 C-3.09171065 33.06409702 -2.93796615 31.34510116 -2.78515625 29.62602234 C-1.90119191 19.74618216 -0.94049526 9.87520025 0 0 Z " fill="#FCFDFE" transform="translate(105,111)"/>
  <path d="M0 0 C0.81209288 9.08030509 1.61554293 18.16129932 2.4065094 27.24346924 C2.80628949 31.82372922 3.22022257 36.40240139 3.64453125 40.98046875 C4.90631147 55.01504494 5.24753256 68.91158912 5 83 C4.67 83 4.34 83 4 83 C3.36071556 75.54004763 2.72581939 68.07973179 2.09605503 60.61896992 C1.80329001 57.15213457 1.50918733 53.68542514 1.21166992 50.21899414 C0.86721839 46.20495233 0.52922871 42.19038644 0.19140625 38.17578125 C0.03509483 36.3697216 0.03509483 36.3697216 -0.12437439 34.5271759 C-1.02900834 23.67771626 -1.48094551 12.90014422 -2 2 C-19.49 2 -36.98 2 -55 2 C-55.33 3.98 -55.66 5.96 -56 8 C-57.5625 9.875 -57.5625 9.875 -59 11 C-59.36588639 4.65796918 -59.36588639 4.65796918 -57.77702332 1.80073547 C-55.53857949 -0.46757759 -54.52619398 -0.51622324 -51.38012695 -0.56176758 C-49.977705 -0.59618706 -49.977705 -0.59618706 -48.54695129 -0.63130188 C-47.53759018 -0.63566757 -46.52822906 -0.64003326 -45.48828125 -0.64453125 C-43.92499336 -0.67289314 -43.92499336 -0.67289314 -42.3301239 -0.701828 C-40.1219893 -0.73836216 -37.91368194 -0.76547771 -35.70532227 -0.78393555 C-32.34267749 -0.81224593 -28.98134625 -0.86729411 -25.61914062 -0.92773438 C-23.47137718 -0.95990839 -21.32359023 -0.99055608 -19.17578125 -1.01953125 C-17.67692131 -1.04126152 -17.67692131 -1.04126152 -16.14778137 -1.06343079 C-10.65959239 -1.10491086 -5.42829827 -0.82008529 0 0 Z " fill="#1A5CC9" transform="translate(296,109)"/>
  <path d="M0 0 C2.72783426 2.72783426 3.64230913 5.94451049 4.9375 9.5 C5.20256348 10.21671875 5.46762695 10.9334375 5.74072266 11.671875 C7.70918342 17.05338298 9.48510056 22.47194591 11 28 C10.34 28.66 9.68 29.32 9 30 C8.525625 29.175 8.05125 28.35 7.5625 27.5 C7.046875 26.675 6.53125 25.85 6 25 C5.67 25 5.34 25 5 25 C4.67 22.69 4.34 20.38 4 18 C3.34 18.33 2.68 18.66 2 19 C2.01047363 19.98395752 2.02094727 20.96791504 2.03173828 21.98168945 C2.06794031 25.63253135 2.09090115 29.28335737 2.10986328 32.93432617 C2.11992041 34.51443144 2.13356785 36.0945181 2.15087891 37.67456055 C2.17514022 39.9458475 2.18648582 42.21688836 2.1953125 44.48828125 C2.20563507 45.19463211 2.21595764 45.90098297 2.22659302 46.6287384 C2.22743775 50.32197792 2.10720523 51.83919216 0 55 C-0.35156233 57.51354677 -0.35156233 57.51354677 -0.37890625 60.33984375 C-0.41306641 61.40396484 -0.44722656 62.46808594 -0.48242188 63.56445312 C-0.50884766 64.67755859 -0.53527344 65.79066406 -0.5625 66.9375 C-0.74824395 73.5491942 -0.95556269 80.15386477 -1.40234375 86.75390625 C-1.46800537 87.73818604 -1.53366699 88.72246582 -1.60131836 89.73657227 C-1.79866577 90.85696899 -1.79866577 90.85696899 -2 92 C-2.99 92.495 -2.99 92.495 -4 93 C-4.28602963 78.5879758 -3.39776429 64.25741872 -2.5625 49.875 C-2.29112217 45.12249973 -2.02221235 40.36986208 -1.75390625 35.6171875 C-1.68877838 34.4704657 -1.62365051 33.3237439 -1.55654907 32.14227295 C-0.95429552 21.43175076 -0.4581142 10.71755089 0 0 Z " fill="#1E62C9" transform="translate(146,176)"/>
  <path d="M0 0 C2.20192224 3.30288336 2.23959968 4.27462727 2.1953125 8.10546875 C2.18886719 9.08837891 2.18242187 10.07128906 2.17578125 11.08398438 C2.15902344 12.10814453 2.14226562 13.13230469 2.125 14.1875 C2.11597656 15.22326172 2.10695313 16.25902344 2.09765625 17.32617188 C2.0740786 19.88434685 2.0411703 22.44205748 2 25 C2.66 25 3.32 25 4 25 C4.04898438 26.00160156 4.09796875 27.00320312 4.1484375 28.03515625 C4.22354079 29.37762759 4.29908526 30.7200743 4.375 32.0625 C4.47941406 34.02896484 4.47941406 34.02896484 4.5859375 36.03515625 C4.85998882 39.93219342 4.85998882 39.93219342 6.0234375 43.2578125 C7.38292694 48.46737603 7.29027282 53.45285826 7.25 58.8125 C7.26160156 60.38547852 7.26160156 60.38547852 7.2734375 61.99023438 C7.27085937 62.98990234 7.26828125 63.98957031 7.265625 65.01953125 C7.26336914 65.92807861 7.26111328 66.83662598 7.25878906 67.77270508 C7 70 7 70 5 72 C3.68 72 2.36 72 1 72 C1 71.34 1 70.68 1 70 C-11.21 70.33 -23.42 70.66 -36 71 C-36.33 70.01 -36.66 69.02 -37 68 C-23.14 68.33 -9.28 68.66 5 69 C4.505 65.535 4.505 65.535 4 62 C3.82464898 60.10985478 3.66931647 58.21773347 3.53515625 56.32421875 C3.4582959 55.26122559 3.38143555 54.19823242 3.30224609 53.10302734 C3.22312988 51.97590332 3.14401367 50.8487793 3.0625 49.6875 C2.88980105 47.27730944 2.71661057 44.86715406 2.54296875 42.45703125 C2.41027588 40.61165771 2.41027588 40.61165771 2.27490234 38.72900391 C2.00531152 35.07204993 1.71912712 31.41683819 1.42578125 27.76171875 C1.33353271 26.60518799 1.24128418 25.44865723 1.14624023 24.25708008 C0.97004303 22.06008644 0.79131348 19.8632939 0.60961914 17.66674805 C0.13960359 11.75439739 -0.08631545 5.93110451 0 0 Z " fill="#185DC7" transform="translate(303,221)"/>
  <path d="M0 0 C0.99 0.495 0.99 0.495 2 1 C2 1.99 2 2.98 2 4 C2.66 4 3.32 4 4 4 C4.26554688 4.69867188 4.53109375 5.39734375 4.8046875 6.1171875 C5.15789062 7.02726563 5.51109375 7.93734375 5.875 8.875 C6.22304687 9.77992188 6.57109375 10.68484375 6.9296875 11.6171875 C7.88530895 14.12217007 7.88530895 14.12217007 10 16 C10.625 18.125 10.625 18.125 11 20 C11.78375 20 12.5675 20 13.375 20 C14.91666667 20 16.45833333 20 18 20 C18.0928125 19.13375 18.0928125 19.13375 18.1875 18.25 C19.34689075 15.03937946 21.17315616 13.81725675 24 12 C24.99 12.33 25.98 12.66 27 13 C26.7326001 13.55461914 26.4652002 14.10923828 26.18969727 14.68066406 C24.97677415 17.20194132 23.7695872 19.72592388 22.5625 22.25 C22.14162109 23.12269531 21.72074219 23.99539062 21.28710938 24.89453125 C20.68286133 26.16103516 20.68286133 26.16103516 20.06640625 27.453125 C19.69459229 28.22817383 19.32277832 29.00322266 18.93969727 29.80175781 C18.05933621 31.86119427 17.47225498 33.8150046 17 36 C16.34 36 15.68 36 15 36 C14.50371094 34.86304688 14.00742188 33.72609375 13.49609375 32.5546875 C12.81077695 30.99440436 12.12451023 29.43453825 11.4375 27.875 C11.07978516 27.06272949 10.72207031 26.25045898 10.35351562 25.41357422 C7.54261532 19.08904853 4.48832224 12.93553709 1.25 6.8203125 C0 4 0 4 0 0 Z " fill="#0758D7" transform="translate(183,164)"/>
  <path d="M0 0 C7.51136408 -0.05057965 15.02268449 -0.08568257 22.53417969 -0.10986328 C25.09116253 -0.11994038 27.64813379 -0.13360226 30.20507812 -0.15087891 C33.87372692 -0.17505217 37.54222379 -0.18646585 41.2109375 -0.1953125 C42.9344191 -0.21079636 42.9344191 -0.21079636 44.69271851 -0.22659302 C46.28414169 -0.22681961 46.28414169 -0.22681961 47.90771484 -0.22705078 C48.84481293 -0.231492 49.78191101 -0.23593323 50.74740601 -0.24050903 C53 0 53 0 55 2 C37.51 2 20.02 2 2 2 C2 6.95 2 11.9 2 17 C1.8366852 19.53413028 1.63345047 22.06703546 1.34375 24.58984375 C1.20839844 25.80478516 1.07304688 27.01972656 0.93359375 28.27148438 C0.79050781 29.48126953 0.64742188 30.69105469 0.5 31.9375 C0.35691406 33.20529297 0.21382813 34.47308594 0.06640625 35.77929688 C-0.28165005 38.85379422 -0.63717168 41.92721724 -1 45 C-1.33 45 -1.66 45 -2 45 C-2.02886751 40.85418113 -2.04675327 36.70838784 -2.0625 32.5625 C-2.07087891 31.37849609 -2.07925781 30.19449219 -2.08789062 28.97460938 C-2.09111328 27.84990234 -2.09433594 26.72519531 -2.09765625 25.56640625 C-2.10289307 24.52427979 -2.10812988 23.48215332 -2.11352539 22.40844727 C-2 20 -2 20 -1 19 C-0.84379445 17.58672053 -0.74943827 16.1664541 -0.68359375 14.74609375 C-0.64169922 13.89208984 -0.59980469 13.03808594 -0.55664062 12.15820312 C-0.51732422 11.26037109 -0.47800781 10.36253906 -0.4375 9.4375 C-0.39431641 8.53580078 -0.35113281 7.63410156 -0.30664062 6.70507812 C-0.20021858 4.47021515 -0.09820012 2.23523692 0 0 Z " fill="#2765C4" transform="translate(103,109)"/>
  <path d="M0 0 C0.33 0 0.66 0 1 0 C2.3190933 17.19698961 3.31952181 34.3969208 4.125 51.625 C4.16929138 52.55510895 4.21358276 53.4852179 4.25921631 54.44351196 C5.16960593 73.68244261 5.16960593 73.68244261 5 83 C4.34 83 3.68 83 3 83 C2.67967613 77.83378686 2.36790997 72.66711284 2.0625 67.5 C2.01642609 66.72122498 1.97035217 65.94244995 1.92288208 65.14007568 C1.1605411 52.1127044 0.64438213 39.09087183 0.34204102 26.04492188 C0.31037842 24.79517578 0.27871582 23.54542969 0.24609375 22.2578125 C0.22216553 21.1661377 0.1982373 20.07446289 0.17358398 18.94970703 C0.01205387 16.20483098 -0.38508003 13.67590867 -1 11 C-2.39643215 13.49362885 -3.16255926 15.63862567 -3.875 18.4375 C-5.0472919 22.14975768 -6.44092943 24.12104561 -9 27 C-9.66 27.99 -10.32 28.98 -11 30 C-10.40002082 26.34143128 -9.37000873 23.38966982 -7.75 20.0625 C-4.68815689 13.52818759 -2.33969315 6.81995663 0 0 Z " fill="#497ED4" transform="translate(251,176)"/>
  <path d="M0 0 C7.92 0 15.84 0 24 0 C21.22334525 1.85110317 18.42600358 3.46185019 15.5 5.0625 C14.5409375 5.58972656 13.581875 6.11695313 12.59375 6.66015625 C10 8 10 8 7 9 C5.99083967 10.76591887 5.99083967 10.76591887 5 13 C3.71203834 15.02951535 2.38442 17.03501678 1 19 C0.67 19 0.34 19 0 19 C0 12.73 0 6.46 0 0 Z " fill="#F2F8FB" transform="translate(0,0)"/>
  <path d="M0 0 C0.33 0 0.66 0 1 0 C1.02717692 2.06242617 1.0464758 4.12495703 1.0625 6.1875 C1.07410156 7.33605469 1.08570312 8.48460937 1.09765625 9.66796875 C1 13 1 13 0.53881836 15.13256836 C-0.21414197 19.13960009 -0.44435119 23.14658591 -0.71875 27.2109375 C-0.78155151 28.09729889 -0.84435303 28.98366028 -0.90905762 29.8968811 C-1.10906734 32.72271771 -1.3049414 35.54881762 -1.5 38.375 C-1.6952966 41.19402201 -1.89157982 44.01295803 -2.09094238 46.83169556 C-2.21471239 48.58231876 -2.33617557 50.33310711 -2.45495605 52.08407593 C-2.78525174 56.76383132 -3.32426841 61.35502379 -4 66 C-4.19067929 68.31976582 -4.35657295 70.64167765 -4.5 72.96484375 C-4.5825 74.25970703 -4.665 75.55457031 -4.75 76.88867188 C-4.83362469 78.23826323 -4.916956 79.58787279 -5 80.9375 C-5.98507734 96.90460317 -5.98507734 96.90460317 -7 104 C-7.33 104 -7.66 104 -8 104 C-8.2644831 92.06486628 -7.55335826 80.20360088 -6.828125 68.2956543 C-6.62525056 64.94164229 -6.43336623 61.58711845 -6.2421875 58.23242188 C-5.67843469 48.6580859 -5.10609355 39.19665358 -3.45507812 29.74047852 C-2.67146402 25.02155774 -2.32233043 20.26520461 -1.9375 15.5 C-1.78249932 13.61437187 -1.62503233 11.7289445 -1.46484375 9.84375 C-1.399021 9.03099609 -1.33319824 8.21824219 -1.26538086 7.38085938 C-0.98664222 4.88016097 -0.52710971 2.45929878 0 0 Z " fill="#3773CD" transform="translate(98,176)"/>
  <path d="M0 0 C2.05369157 2.56711446 4.10026334 5.14877786 5.9375 7.875 C9.925502 12.75204703 16.46794045 15.26231899 22 18 C22 18.33 22 18.66 22 19 C14.74 19 7.48 19 0 19 C0 12.73 0 6.46 0 0 Z " fill="#FBFDFB" transform="translate(0,381)"/>
  <path d="M0 0 C7.92 0 15.84 0 24 0 C24 5.94 24 11.88 24 18 C22.68 16.35 21.36 14.7 20 13 C15.66136937 8.51027278 10.86931559 5.70309732 5.234375 3.078125 C3 2 3 2 0 0 Z " fill="#F4FAFA" transform="translate(376,0)"/>
  <path d="M0 0 C0.33 0 0.66 0 1 0 C1 5.94 1 11.88 1 18 C-5.93 18 -12.86 18 -20 18 C-16.44246964 14.44246964 -12.99156858 12.67894384 -8.25 11.0625 C-5.43905838 9.7351109 -5.17707227 8.82497344 -4 6 C-2.71203834 3.97048465 -1.38442 1.96498322 0 0 Z " fill="#FAFCFC" transform="translate(399,382)"/>
  <path d="M0 0 C17.49 0 34.98 0 53 0 C56 6 56 6 56 8 C53.46148913 6.94958171 52.1897291 6.28939948 50.65995789 3.95599365 C49.17399285 1.81375346 49.17399285 1.81375346 46.81697083 1.48101807 C45.54789131 1.4676944 45.54789131 1.4676944 44.25317383 1.45410156 C43.29240433 1.43438293 42.33163483 1.41466431 41.3417511 1.39434814 C40.30729355 1.39311951 39.272836 1.39189087 38.20703125 1.390625 C37.14586594 1.37408875 36.08470062 1.35755249 34.99137878 1.34051514 C31.59836119 1.29188717 28.20579224 1.27063083 24.8125 1.25 C22.51364912 1.22185279 20.21481928 1.19192713 17.91601562 1.16015625 C12.27742561 1.08612446 6.63896253 1.03456879 1 1 C1.00507568 2.12277344 1.01015137 3.24554688 1.01538086 4.40234375 C1.03945648 11.949762 1.05620826 19.46525241 0.5625 27 C0.50352539 28.01707031 0.50352539 28.01707031 0.44335938 29.0546875 C0.12904471 33.87095529 0.12904471 33.87095529 -1 35 C-1.2362647 38.21019977 -1.39660302 41.41273872 -1.51757812 44.62890625 C-1.60924224 46.42413939 -1.79759856 48.21385947 -2 50 C-2.99 50.495 -2.99 50.495 -4 51 C-3.56097866 41.22599867 -2.96630746 31.51856745 -1.74853516 21.80712891 C-0.86059452 14.52741126 -0.49132027 7.369804 0 0 Z " fill="#BEDDFC" transform="translate(105,111)"/>
  <path d="M0 0 C0.495 1.485 0.495 1.485 1 3 C-16.49 3 -33.98 3 -52 3 C-52.33 4.98 -52.66 6.96 -53 9 C-54.5625 10.875 -54.5625 10.875 -56 12 C-56.36578699 5.65969209 -56.36578699 5.65969209 -54.77999878 2.79974365 C-52.52648152 0.52122896 -51.49690799 0.48792642 -48.33251953 0.45410156 C-47.38788849 0.43438293 -46.44325745 0.41466431 -45.47000122 0.39434814 C-43.9418428 0.39250519 -43.9418428 0.39250519 -42.3828125 0.390625 C-41.33350555 0.37408875 -40.28419861 0.35755249 -39.20309448 0.34051514 C-35.84367168 0.29189343 -32.48469984 0.27065291 -29.125 0.25 C-26.86846649 0.22184592 -24.61195435 0.19191929 -22.35546875 0.16015625 C-14.90374721 0.06150377 -7.45241223 -0.00601746 0 0 Z " fill="#2C69C5" transform="translate(293,108)"/>
  <path d="M0 0 C0.33 0 0.66 0 1 0 C1 8.91 1 17.82 1 27 C14.2 27 27.4 27 41 27 C35.88815655 30.40789563 30.84481707 30.13944288 24.85546875 30.09765625 C24.08568192 30.0962413 23.31589508 30.09482635 22.52278137 30.09336853 C20.07764712 30.08779606 17.63260632 30.07524871 15.1875 30.0625 C13.52408987 30.05748144 11.8606783 30.05291915 10.19726562 30.04882812 C6.13147472 30.03783566 2.06575317 30.0205901 -2 30 C-2.1346906 23.05033907 -1.75715004 16.28143617 -1 9.375 C-0.90460938 8.46621094 -0.80921875 7.55742187 -0.7109375 6.62109375 C-0.47856232 4.41352957 -0.24153511 2.20657739 0 0 Z " fill="#C4DFFA" transform="translate(92,260)"/>
  <path d="M0 0 C2.05109345 2.05109345 2.54673394 3.10349868 3.47265625 5.7734375 C3.73240234 6.5159375 3.99214844 7.2584375 4.25976562 8.0234375 C4.52466797 8.79945313 4.78957031 9.57546875 5.0625 10.375 C5.33126953 11.14328125 5.60003906 11.9115625 5.87695312 12.703125 C7.06593673 16.13071863 8.11824534 19.47298135 9 23 C21.87 22.67 34.74 22.34 48 22 C48.99 19.36 49.98 16.72 51 14 C51.33 14 51.66 14 52 14 C52 16.97 52 19.94 52 23 C47.49838197 25.25080902 47.49838197 25.25080902 43.90576172 25.18286133 C42.71465286 25.16712822 42.71465286 25.16712822 41.4994812 25.15107727 C40.22743332 25.11689949 40.22743332 25.11689949 38.9296875 25.08203125 C38.05224884 25.06412033 37.17481018 25.04620941 36.27078247 25.02775574 C34.4198165 24.98662751 32.56896448 24.94005954 30.71826172 24.88842773 C27.87865975 24.81259773 25.03942793 24.76373233 22.19921875 24.71679688 C20.4010016 24.67350843 18.60282163 24.62864081 16.8046875 24.58203125 C15.95260712 24.56936722 15.10052673 24.55670319 14.22262573 24.5436554 C11.83544922 24.46411133 11.83544922 24.46411133 8 24 C5.8480563 20.77208445 5.79913557 19.71599191 6 16 C5.36578125 15.77054688 4.7315625 15.54109375 4.078125 15.3046875 C2 14 2 14 1.171875 11.7578125 C0.96304688 10.45457031 0.96304688 10.45457031 0.75 9.125 C0.60046875 8.26132813 0.4509375 7.39765625 0.296875 6.5078125 C0 4 0 4 0 0 Z " fill="#1657BD" transform="translate(170,236)"/>
  <path d="M0 0 C1.2126291 4.00769617 0.49206738 6.0735069 -1 10 C-2.60860725 14.62474584 -3.85202664 19.24411037 -5 24 C-5.66 24 -6.32 24 -7 24 C-7 25.65 -7 27.3 -7 29 C-7.66 29 -8.32 29 -9 29 C-9 30.65 -9 32.3 -9 34 C-9.99 34 -10.98 34 -12 34 C-12.33 35.32 -12.66 36.64 -13 38 C-13.66 38 -14.32 38 -15 38 C-13.70917486 33.99725782 -12.26758352 30.1210567 -10.625 26.25 C-8.35449734 20.85672389 -6.15984122 15.4383253 -4 10 C-3.25044412 8.12482241 -2.50045397 6.24981835 -1.75 4.375 C-1.41484375 3.53710938 -1.0796875 2.69921875 -0.734375 1.8359375 C-0.49203125 1.23007813 -0.2496875 0.62421875 0 0 Z " fill="#2161CB" transform="translate(237,212)"/>
  <path d="M0 0 C0.33 0 0.66 0 1 0 C1.33763954 4.35384389 1.6693442 8.7081206 2 13.0625 C2.09539062 14.29162109 2.19078125 15.52074219 2.2890625 16.78710938 C2.37929688 17.98271484 2.46953125 19.17832031 2.5625 20.41015625 C2.64628906 21.50465088 2.73007812 22.59914551 2.81640625 23.72680664 C3.00885915 27.15794502 3.03042215 30.56419899 3 34 C-2.49925421 34.04940929 -7.99837942 34.08572395 -13.49780273 34.10986328 C-15.36891938 34.11992567 -17.24002028 34.13357691 -19.11108398 34.15087891 C-21.79935591 34.17511684 -24.48742006 34.18648063 -27.17578125 34.1953125 C-28.01337479 34.20563507 -28.85096832 34.21595764 -29.71394348 34.22659302 C-35.65838488 34.22774341 -35.65838488 34.22774341 -39 32 C-25.8 32 -12.6 32 1 32 C0.7525 27.42125 0.7525 27.42125 0.5 22.75 C0.10510246 15.1561017 -0.13912033 7.60524488 0 0 Z " fill="#9EC4F4" transform="translate(305,256)"/>
  <path d="M0 0 C2.45041203 3.67561805 3.96046944 7.4857534 5.625 11.5625 C5.94984375 12.34302734 6.2746875 13.12355469 6.609375 13.92773438 C7.06957031 15.04825195 7.06957031 15.04825195 7.5390625 16.19140625 C7.81959473 16.87404541 8.10012695 17.55668457 8.38916016 18.26000977 C9 20 9 20 9 22 C8.01 22 7.02 22 6 22 C6 20.68 6 19.36 6 18 C5.34 18 4.68 18 4 18 C3.34 19.32 2.68 20.64 2 22 C1.67 22 1.34 22 1 22 C1 19 1 16 1 13 C0.34 13 -0.32 13 -1 13 C-0.67 8.71 -0.34 4.42 0 0 Z " fill="#0459D7" transform="translate(161,214)"/>
  <path d="M0 0 C1.26092972 0.00212242 1.26092972 0.00212242 2.54733276 0.00428772 C5.23732025 0.00989388 7.92722509 0.02244739 10.6171875 0.03515625 C12.43880088 0.04017046 14.26041557 0.0447335 16.08203125 0.04882812 C20.55211527 0.05986531 25.02213736 0.07713405 29.4921875 0.09765625 C29.1621875 1.08765625 28.8321875 2.07765625 28.4921875 3.09765625 C15.6221875 3.09765625 2.7521875 3.09765625 -10.5078125 3.09765625 C-10.5078125 2.43765625 -10.5078125 1.77765625 -10.5078125 1.09765625 C-7.22889325 -0.54180338 -3.60167716 -0.02264553 0 0 Z " fill="#B0D2FB" transform="translate(189.5078125,255.90234375)"/>
  <path d="M0 0 C1.32 0.33 2.64 0.66 4 1 C2.70242463 5.15116435 1.14056506 8.95590318 -0.8203125 12.8359375 C-1.35527344 13.89941406 -1.89023438 14.96289062 -2.44140625 16.05859375 C-2.99699219 17.15300781 -3.55257812 18.24742187 -4.125 19.375 C-4.68832031 20.49261719 -5.25164062 21.61023438 -5.83203125 22.76171875 C-7.21774567 25.5096609 -8.60716947 28.2556598 -10 31 C-10.33 31 -10.66 31 -11 31 C-11 29.35 -11 27.7 -11 26 C-10.34 26 -9.68 26 -9 26 C-8.87625 25.2575 -8.7525 24.515 -8.625 23.75 C-8 21 -8 21 -7 19.0625 C-5.7228974 16.42847588 -5.39343003 13.88515352 -5 11 C-4.34 11 -3.68 11 -3 11 C-2.87625 9.741875 -2.7525 8.48375 -2.625 7.1875 C-2.30131941 3.89674737 -1.93395001 2.90092502 0 0 Z " fill="#1F62CB" transform="translate(229,127)"/>
  <path d="M0 0 C10.20019498 3.62011095 19.62054231 8.10601703 25 18 C25 18.99 25 19.98 25 21 C22.625 20.375 22.625 20.375 20 19 C18.75 16.0625 18.75 16.0625 18 13 C17.67 12.01 17.34 11.02 17 10 C14.36 10 11.72 10 9 10 C8.91878906 9.38640625 8.83757812 8.7728125 8.75390625 8.140625 C8.18806644 5.86169372 8.18806644 5.86169372 6.15234375 4.734375 C5.05599609 4.24710937 5.05599609 4.24710937 3.9375 3.75 C3.20402344 3.41484375 2.47054688 3.0796875 1.71484375 2.734375 C1.14894531 2.49203125 0.58304687 2.2496875 0 2 C0 1.34 0 0.68 0 0 Z " fill="#1E63C9" transform="translate(375,0)"/>
  <path d="M0 0 C1.15507777 3.93421227 0.83585767 6.97268577 0 11 C-0.99 11.495 -0.99 11.495 -2 12 C-2.2475 13.2375 -2.495 14.475 -2.75 15.75 C-3.80966302 20.57928393 -6.01841527 22.23020193 -10 25 C-11 22 -11 22 -10.10375977 19.63989258 C-9.63768311 18.73392334 -9.17160645 17.8279541 -8.69140625 16.89453125 C-8.19189453 15.91162109 -7.69238281 14.92871094 -7.17773438 13.91601562 C-6.64470703 12.89185547 -6.11167969 11.86769531 -5.5625 10.8125 C-5.03333984 9.77673828 -4.50417969 8.74097656 -3.95898438 7.67382812 C-2.64814201 5.11119034 -1.32821043 2.55366713 0 0 Z " fill="#DBEEFC" transform="translate(232,130)"/>
  <path d="M0 0 C0.33 0 0.66 0 1 0 C1 7.59 1 15.18 1 23 C1.66 23 2.32 23 3 23 C3.33 29.27 3.66 35.54 4 42 C3.34 41.67 2.68 41.34 2 41 C-2.34440208 27.67971872 -0.93872853 13.74390638 0 0 Z " fill="#165DCD" transform="translate(253,236)"/>
  <path d="M0 0 C0.33 0 0.66 0 1 0 C1.16744804 10.47829358 0.63960381 20.85884102 0 31.3125 C-0.09670407 32.93943236 -0.19306043 34.56638544 -0.2890625 36.19335938 C-0.52204466 40.12915582 -0.75969245 44.06464431 -1 48 C-1.33 48 -1.66 48 -2 48 C-2.04992286 42.93206166 -2.08596378 37.86427058 -2.10986328 32.79614258 C-2.1198403 31.07671613 -2.13342675 29.35730628 -2.15087891 27.63793945 C-2.24386086 18.23308829 -2.29982328 9.1954039 0 0 Z " fill="#B7D7FA" transform="translate(143,224)"/>
  <path d="M0 0 C2.16375048 2.16375048 2.70361418 3.53874371 3.75 6.375 C5.76761797 11.61774974 8.23563269 16.5516113 10.828125 21.53125 C12 24 12 24 12 26 C10.68 26.33 9.36 26.66 8 27 C5.12059087 20.5849443 3.4535179 15.02952752 3 8 C2.34 8 1.68 8 1 8 C0.67 5.36 0.34 2.72 0 0 Z " fill="#CEE6FA" transform="translate(181,162)"/>
  <path d="M0 0 C2.375 -0.125 2.375 -0.125 5 0 C5.66 0.66 6.32 1.32 7 2 C8.98 1.34 10.96 0.68 13 0 C13 0.66 13 1.32 13 2 C8.38582754 5.57226255 2.93229123 9 -3 9 C-2.67 7.68 -2.34 6.36 -2 5 C-0.35 5 1.3 5 3 5 C3 4.34 3 3.68 3 3 C1.68 2.67 0.36 2.34 -1 2 C-0.67 1.34 -0.34 0.68 0 0 Z " fill="#0558D4" transform="translate(380,390)"/>
  <path d="M0 0 C0.33 0 0.66 0 1 0 C1.26153386 8.29885674 0.44173497 16.38694003 -0.5 24.625 C-0.64308594 25.91535156 -0.78617187 27.20570313 -0.93359375 28.53515625 C-1.28420756 31.69068053 -1.63978452 34.84555987 -2 38 C-2.33 38 -2.66 38 -3 38 C-3.05831395 33.95839444 -3.09370212 29.91689795 -3.125 25.875 C-3.14175781 24.73289063 -3.15851563 23.59078125 -3.17578125 22.4140625 C-3.18222656 21.30546875 -3.18867187 20.196875 -3.1953125 19.0546875 C-3.20578613 18.03874512 -3.21625977 17.02280273 -3.22705078 15.97607422 C-2.97747605 12.70476668 -2.1039294 10.07871894 -1 7 C-0.62468554 4.67305036 -0.28082798 2.34023315 0 0 Z " fill="#3571CD" transform="translate(104,116)"/>
  <path d="M0 0 C0 3 0 3 -1 6 C2.465 5.505 2.465 5.505 6 5 C4.875 6.5 4.875 6.5 3 8 C-0.1875 8.1875 -0.1875 8.1875 -3 8 C-3.66 9.32 -4.32 10.64 -5 12 C-5.66 12 -6.32 12 -7 12 C-7 12.66 -7 13.32 -7 14 C-7.66 14 -8.32 14 -9 14 C-8.66506307 8.6410091 -5.42872819 4.89256144 -2 1 C-1.34 0.67 -0.68 0.34 0 0 Z " fill="#125FD3" transform="translate(9,8)"/>
  <path d="M0 0 C0.99 0 1.98 0 3 0 C4 3 4 3 3.0625 5.1875 C2.5365625 6.0846875 2.5365625 6.0846875 2 7 C2.66 7 3.32 7 4 7 C4 6.34 4 5.68 4 5 C4.66 5 5.32 5 6 5 C6.33 5.99 6.66 6.98 7 8 C8.49985609 9.66710346 8.49985609 9.66710346 10 11 C6.63527499 11 5.38567651 10.31790723 2.5 8.6875 C1.7265625 8.25824219 0.953125 7.82898438 0.15625 7.38671875 C-1.88389241 6.07467064 -3.44600894 4.85781624 -5 3 C-5 2.34 -5 1.68 -5 1 C-2.525 1.99 -2.525 1.99 0 3 C0 2.01 0 1.02 0 0 Z " fill="#1B65CD" transform="translate(10,386)"/>
  <path d="M0 0 C4.62 2.31 9.24 4.62 14 7 C14 7.33 14 7.66 14 8 C9.71 8 5.42 8 1 8 C0.67 5.36 0.34 2.72 0 0 Z " fill="#DFF0FA" transform="translate(8,392)"/>
  <path d="M0 0 C13.86 0.33 27.72 0.66 42 1 C42 1.33 42 1.66 42 2 C28.47 2.33 14.94 2.66 1 3 C0.67 2.01 0.34 1.02 0 0 Z " fill="#1456C1" transform="translate(266,289)"/>
  <path d="M0 0 C1.93166016 0.01740234 1.93166016 0.01740234 3.90234375 0.03515625 C5.19269531 0.04417969 6.48304687 0.05320313 7.8125 0.0625 C8.81152344 0.07410156 9.81054688 0.08570313 10.83984375 0.09765625 C8.15751714 1.88587399 5.53695414 3.29908229 2.65234375 4.72265625 C1.75128906 5.16867188 0.85023437 5.6146875 -0.078125 6.07421875 C-1.10873047 6.58082031 -1.10873047 6.58082031 -2.16015625 7.09765625 C-2.82015625 5.11765625 -3.48015625 3.13765625 -4.16015625 1.09765625 C-3.16015625 0.09765625 -3.16015625 0.09765625 0 0 Z " fill="#EAF6F6" transform="translate(13.16015625,-0.09765625)"/>
  <path d="M0 0 C0 0.99 0 1.98 0 3 C-13.2 3 -26.4 3 -40 3 C-40 2.67 -40 2.34 -40 2 C-39.02651611 1.97494385 -38.05303223 1.9498877 -37.05004883 1.92407227 C-33.42508653 1.82962722 -29.80029934 1.72949833 -26.17553711 1.62768555 C-24.60917264 1.58447661 -23.04276533 1.54279209 -21.47631836 1.50268555 C-19.2197582 1.44464129 -16.96341092 1.38104698 -14.70703125 1.31640625 C-14.01100296 1.29969376 -13.31497467 1.28298126 -12.59785461 1.26576233 C-8.34410232 1.1372736 -4.19566343 0 0 0 Z " fill="#1C5DC5" transform="translate(132,288)"/>
  <path d="M0 0 C0.33 0 0.66 0 1 0 C1.84062776 4.36893737 2.11732956 8.4835198 2.09765625 12.9296875 C2.09443359 14.21875 2.09121094 15.5078125 2.08789062 16.8359375 C2.07953733 18.18229236 2.07107241 19.52864652 2.0625 20.875 C2.0574783 22.24479004 2.05291657 23.61458185 2.04882812 24.984375 C2.03707254 28.3229619 2.02063964 31.66145815 2 35 C1.67 35 1.34 35 1 35 C0.04531742 28.62542652 -0.1202324 22.43938347 -0.0625 16 C-0.05798828 15.03449219 -0.05347656 14.06898438 -0.04882812 13.07421875 C-0.03715417 10.71607911 -0.02078021 8.35807398 0 6 C-0.66 6 -1.32 6 -2 6 C-1.34 4.02 -0.68 2.04 0 0 Z " fill="#0958CC" transform="translate(250,186)"/>
  <path d="M0 0 C0.598125 0.20625 1.19625 0.4125 1.8125 0.625 C1.4825 1.181875 1.1525 1.73875 0.8125 2.3125 C-0.36063661 5.02537841 -0.47377609 6.69067008 -0.1875 9.625 C0.3384375 10.924375 0.3384375 10.924375 0.875 12.25 C1.8125 14.625 1.8125 14.625 0.8125 17.625 C-0.1919134 15.3351766 -1.19117612 13.0433401 -2.1875 10.75 C-2.47367188 10.09902344 -2.75984375 9.44804687 -3.0546875 8.77734375 C-5.1875 3.8515625 -5.1875 3.8515625 -5.1875 1.625 C-2.1875 -0.375 -2.1875 -0.375 0 0 Z " fill="#E4F7FD" transform="translate(165.1875,208.375)"/>
  <path d="M0 0 C0.99 0 1.98 0 3 0 C2.34838935 2.00495586 1.67735217 4.00359361 1 6 C0.78214844 6.66128906 0.56429687 7.32257813 0.33984375 8.00390625 C-1.17491714 12.36608651 -2.89647641 15.49602175 -6 19 C-6.66 19.99 -7.32 20.98 -8 22 C-7.38381689 18.17135661 -6.23217407 15.05543833 -4.5625 11.5625 C-2.78446265 7.75976117 -1.1990099 4.03303332 0 0 Z " fill="#2F6ECE" transform="translate(248,184)"/>
  <path d="M0 0 C0.66 0 1.32 0 2 0 C2.66 1.32 3.32 2.64 4 4 C4.33 3.34 4.66 2.68 5 2 C5.66 2 6.32 2 7 2 C6.979375 3.2375 6.95875 4.475 6.9375 5.75 C6.924681 8.16851715 7.00632011 10.02401643 7.625 12.375 C7.74875 12.91125 7.8725 13.4475 8 14 C7.34 14.66 6.68 15.32 6 16 C4.9955866 13.7101766 3.99632388 11.4183401 3 9.125 C2.71382812 8.47402344 2.42765625 7.82304687 2.1328125 7.15234375 C0 2.2265625 0 2.2265625 0 0 Z " fill="#1560CD" transform="translate(167,130)"/>
  <path d="M0 0 C0.33 0 0.66 0 1 0 C1.02687279 1.81242052 1.04633715 3.62495233 1.0625 5.4375 C1.07410156 6.44683594 1.08570312 7.45617187 1.09765625 8.49609375 C1 11 1 11 0 12 C-0.2362647 15.21019977 -0.39660302 18.41273872 -0.51757812 21.62890625 C-0.60924224 23.42413939 -0.79759856 25.21385947 -1 27 C-1.66 27.33 -2.32 27.66 -3 28 C-2.22095672 9.17995444 -2.22095672 9.17995444 0 0 Z " fill="#D3EAFB" transform="translate(104,134)"/>
  <path d="M0 0 C2.57833439 2.57833439 3.3761471 5.10325781 4.6875 8.5 C5.14511719 9.6653125 5.60273438 10.830625 6.07421875 12.03125 C7 15 7 15 6 17 C3.45598735 15.42291899 2.18642026 14.52672517 1.171875 11.66015625 C1.03265625 10.80292969 0.8934375 9.94570312 0.75 9.0625 C0.60046875 8.20785156 0.4509375 7.35320312 0.296875 6.47265625 C0 4 0 4 0 0 Z " fill="#336ECF" transform="translate(170,236)"/>
  <path d="M0 0 C1.8984375 0.26953125 1.8984375 0.26953125 4 1 C4.9765625 2.63671875 4.9765625 2.63671875 5.625 4.6875 C5.97691406 5.76837891 5.97691406 5.76837891 6.3359375 6.87109375 C6.55507812 7.57363281 6.77421875 8.27617187 7 9 C7.61875 10.60875 7.61875 10.60875 8.25 12.25 C9 15 9 15 8 19 C6.02 13.72 4.04 8.44 2 3 C1.34 3.99 0.68 4.98 0 6 C0 4.02 0 2.04 0 0 Z " fill="#DAF0FC" transform="translate(145,175)"/>
  <path d="M0 0 C2.61666628 2.61666628 3.71634007 5.64348017 5.125 9 C5.54072266 9.96292969 5.54072266 9.96292969 5.96484375 10.9453125 C8 15.73745382 8 15.73745382 8 18 C6.140625 17.89453125 6.140625 17.89453125 4 17 C2.734375 14.19921875 2.734375 14.19921875 1.75 10.6875 C1.41484375 9.53636719 1.0796875 8.38523438 0.734375 7.19921875 C0 4 0 4 0 0 Z " fill="#C6E3FB" transform="translate(168,134)"/>
  <path d="M0 0 C2.46301423 2.46301423 2.76766521 4.27360036 3.625 7.625 C3.88539063 8.62789062 4.14578125 9.63078125 4.4140625 10.6640625 C4.60742188 11.43492187 4.80078125 12.20578125 5 13 C3.35 13.33 1.7 13.66 0 14 C0 9.38 0 4.76 0 0 Z " fill="#3B70CE" transform="translate(146,176)"/>
  <path d="M0 0 C1.66088246 5.39786799 1.40358799 9.89237551 -1 15 C-2.32 14.01 -3.64 13.02 -5 12 C-3.68938409 7.76570244 -2.05643741 3.92592596 0 0 Z " fill="#D3E7F7" transform="translate(220,154)"/>
  <path d="M0 0 C0.99 0.33 1.98 0.66 3 1 C1.5625 4 1.5625 4 -1 7 C-4.05872891 7.53698855 -6.92553889 7.35474551 -10 7 C-7.31623205 4.12338645 -4.54937346 2.69752644 -1 1 C-0.67 0.67 -0.34 0.34 0 0 Z " fill="#D6EDF9" transform="translate(389,393)"/>
  <path d="M0 0 C0.33 0 0.66 0 1 0 C1.79822348 9.37912587 2.12873737 18.58786748 2 28 C1.67 28 1.34 28 1 28 C0.67 21.4 0.34 14.8 0 8 C-0.66 8 -1.32 8 -2 8 C-1.125 2.25 -1.125 2.25 0 0 Z " fill="#4278C1" transform="translate(251,176)"/>
  <path d="M0 0 C0.99 0.495 0.99 0.495 2 1 C2 1.99 2 2.98 2 4 C2.66 4 3.32 4 4 4 C4.27714844 4.71027344 4.55429688 5.42054688 4.83984375 6.15234375 C5.20207031 7.07144531 5.56429687 7.99054688 5.9375 8.9375 C6.29714844 9.85402344 6.65679687 10.77054688 7.02734375 11.71484375 C7.7996218 13.92418533 7.7996218 13.92418533 9 15 C9.04063832 16.66617115 9.042721 18.33388095 9 20 C6.48261362 16.85515695 4.6305147 13.59114015 2.8125 10 C2.28269531 8.96875 1.75289062 7.9375 1.20703125 6.875 C0 4 0 4 0 0 Z " fill="#2464C3" transform="translate(183,164)"/>
  <path d="M0 0 C0.66 0 1.32 0 2 0 C0.70024676 6.71539173 -1.29928888 12.72019113 -4 19 C-4.33 19 -4.66 19 -5 19 C-5.72270443 12.31498398 -2.95065494 5.90130988 0 0 Z " fill="#CCE7FD" transform="translate(247,181)"/>
  <path d="M0 0 C-1 1.9375 -1 1.9375 -3 4 C-5.69924572 4.66549451 -8.20631637 4.81680763 -11 5 C-11 5.66 -11 6.32 -11 7 C-12.65 7 -14.3 7 -16 7 C-12.44070801 3.78515562 -4.92883213 -2.46441606 0 0 Z " fill="#2669CF" transform="translate(26,1)"/>
  <path d="M0 0 C2 3.75 2 3.75 2 6 C1.01 6 0.02 6 -1 6 C-1 7.65 -1 9.3 -1 11 C-2.98 11.99 -2.98 11.99 -5 13 C-4.44516583 8.33939297 -3.45003386 3.45003386 0 0 Z " fill="#0C59CD" transform="translate(243,201)"/>
  <path d="M0 0 C1.83030476 6.10537373 -1.54956764 11.43083554 -4 17 C-4.66 17 -5.32 17 -6 17 C-5.34496718 12.94180817 -4.05440879 9.46028718 -2.4375 5.6875 C-1.75494141 4.08455078 -1.75494141 4.08455078 -1.05859375 2.44921875 C-0.53458984 1.23685547 -0.53458984 1.23685547 0 0 Z " fill="#2C6CC9" transform="translate(237,212)"/>
  <path d="M0 0 C0.99 0.33 1.98 0.66 3 1 C-0.465 8.425 -0.465 8.425 -4 16 C-5.12896218 11.48415129 -4.91189414 11.71757194 -3 8 C-2.835 6.783125 -2.67 5.56625 -2.5 4.3125 C-2.335 3.219375 -2.17 2.12625 -2 1 C-1.34 0.67 -0.68 0.34 0 0 Z " fill="#2263C9" transform="translate(207,176)"/>
  <path d="M0 0 C0.99 0 1.98 0 3 0 C3 3.3 3 6.6 3 10 C2.34 10 1.68 10 1 10 C1 11.65 1 13.3 1 15 C0.67 15 0.34 15 0 15 C0 10.05 0 5.1 0 0 Z " fill="#1A65D0" transform="translate(97,166)"/>
  <path d="M0 0 C0.66 0 1.32 0 2 0 C2 3.3 2 6.6 2 10 C1.2575 9.814375 0.515 9.62875 -0.25 9.4375 C-2.99177639 9.0013083 -4.39298201 9.24797558 -7 10 C-6.57847656 9.44570313 -6.15695313 8.89140625 -5.72265625 8.3203125 C-5.17480469 7.59585937 -4.62695312 6.87140625 -4.0625 6.125 C-3.51722656 5.40570313 -2.97195312 4.68640625 -2.41015625 3.9453125 C-0.96035376 2.05642921 -0.96035376 2.05642921 0 0 Z " fill="#1961CD" transform="translate(140,278)"/>
  <path d="M0 0 C0.33 0 0.66 0 1 0 C1 2.97 1 5.94 1 9 C-2.86790003 10.93395001 -4.1500459 11.23289353 -8.25 11.125 C-9.14203125 11.10695313 -10.0340625 11.08890625 -10.953125 11.0703125 C-11.96632812 11.03550781 -11.96632812 11.03550781 -13 11 C-13 10.67 -13 10.34 -13 10 C-12.39671875 10.03222656 -11.7934375 10.06445312 -11.171875 10.09765625 C-8.5229713 10.05920442 -6.49995369 9.90359772 -4 9 C-1.99047395 6.20459632 -0.95103922 3.29205884 0 0 Z " fill="#2465D0" transform="translate(221,250)"/>
  <path d="M0 0 C0.66 0 1.32 0 2 0 C4.60137141 2.89573712 5.92556623 5.93019098 7.25 9.5625 C7.60578125 10.51253906 7.9615625 11.46257812 8.328125 12.44140625 C9 15 9 15 8 18 C6.66356841 15.18896187 5.33137766 12.37593488 4 9.5625 C3.6184375 8.76005859 3.236875 7.95761719 2.84375 7.13085938 C2.4828125 6.36708984 2.121875 5.60332031 1.75 4.81640625 C1.41484375 4.10943604 1.0796875 3.40246582 0.734375 2.67407227 C0 1 0 1 0 0 Z " fill="#1E5DC5" transform="translate(174,146)"/>
  <path d="M0 0 C4.29 0.33 8.58 0.66 13 1 C13 2.65 13 4.3 13 6 C12.34 5.731875 11.68 5.46375 11 5.1875 C7.35060933 3.74294953 3.67754567 2.37128822 0 1 C0 0.67 0 0.34 0 0 Z " fill="#CFEAFB" transform="translate(376,0)"/>
  <path d="M0 0 C0.99 0 1.98 0 3 0 C3.268125 1.175625 3.53625 2.35125 3.8125 3.5625 C4.81447119 7.60642688 6.2659924 11.2167107 8 15 C7.34 15.66 6.68 16.32 6 17 C4.99580363 14.5433053 3.99649499 12.08481647 3 9.625 C2.71382812 8.92632812 2.42765625 8.22765625 2.1328125 7.5078125 C0 2.2265625 0 2.2265625 0 0 Z " fill="#DDF2FE" transform="translate(170,234)"/>
  <path d="M0 0 C0.33 0 0.66 0 1 0 C1.0810206 2.10353495 1.13919907 4.20795952 1.1875 6.3125 C1.22230469 7.48425781 1.25710937 8.65601563 1.29296875 9.86328125 C1 13 1 13 -0.51171875 14.91796875 C-1.00285156 15.27503906 -1.49398437 15.63210937 -2 16 C-1.85890014 13.89551062 -1.71195825 11.7914123 -1.5625 9.6875 C-1.48128906 8.51574219 -1.40007812 7.34398437 -1.31640625 6.13671875 C-1 3 -1 3 0 0 Z " fill="#D0E7FC" transform="translate(143,224)"/>
  <path d="M0 0 C0 0.66 0 1.32 0 2 C-4.20024742 5.32608425 -8.8423143 7.58163643 -14 9 C-14 8.01 -14 7.02 -14 6 C-13.236875 5.896875 -12.47375 5.79375 -11.6875 5.6875 C-8.72988846 4.9309017 -8.00769001 4.18227175 -6 2 C-2.52631579 0 -2.52631579 0 0 0 Z " fill="#2F6DCA" transform="translate(393,390)"/>
  <path d="M0 0 C1.97625073 2.9643761 3.29886906 5.78787746 4.6875 9.0625 C5.14511719 10.12597656 5.60273438 11.18945312 6.07421875 12.28515625 C6.37972656 13.18105469 6.68523437 14.07695312 7 15 C6.67 15.66 6.34 16.32 6 17 C4 14 4 14 4 11 C3.34 11 2.68 11 2 11 C0.80712589 7.12315913 0 4.08378077 0 0 Z " fill="#407BCF" transform="translate(161,214)"/>
  <path d="M0 0 C2.475 0.495 2.475 0.495 5 1 C5.625 2.8125 5.625 2.8125 6 5 C5.01 6.485 5.01 6.485 4 8 C0 2.25 0 2.25 0 0 Z " fill="#195ECB" transform="translate(0,379)"/>
  <path d="M0 0 C0.66 0 1.32 0 2 0 C1.5188509 5.77378925 -0.18467181 9.95859836 -3 15 C-4.43410153 11.21180727 -3.51009497 8.93478721 -2.0625 5.25 C-1.49208984 3.77273437 -1.49208984 3.77273437 -0.91015625 2.265625 C-0.60980469 1.51796875 -0.30945313 0.7703125 0 0 Z " fill="#C2DEFB" transform="translate(230,224)"/>
  <path d="M0 0 C2.9156164 3.54039134 5.50127818 7.1626772 8 11 C4.34683329 9.75023244 3.21934164 9.32901247 1 6 C1.33 5.34 1.66 4.68 2 4 C1.34 4 0.68 4 0 4 C0 2.68 0 1.36 0 0 Z " fill="#CBE5FC" transform="translate(0,381)"/>
  <path d="M0 0 C0.33 0 0.66 0 1 0 C0.56744475 5.40694067 -0.58221513 8.75366122 -4 13 C-4.66 13 -5.32 13 -6 13 C-6 12.01 -6 11.02 -6 10 C-5.34 10 -4.68 10 -4 10 C-3.71125 9.278125 -3.4225 8.55625 -3.125 7.8125 C-2.08333333 5.20833333 -1.04166667 2.60416667 0 0 Z " fill="#B8DDFB" transform="translate(140,273)"/>
  <path d="M0 0 C0.66 0 1.32 0 2 0 C1.5206753 4.31392226 0.2542015 6.16569547 -3 9 C-3 7.35 -3 5.7 -3 4 C-2.34 4 -1.68 4 -1 4 C-0.67 2.68 -0.34 1.36 0 0 Z " fill="#1C63CD" transform="translate(397,380)"/>
  <path d="M0 0 C0.66 0 1.32 0 2 0 C2.25 2.3125 2.25 2.3125 2 5 C0 6.8125 0 6.8125 -2 8 C-2.33 6.35 -2.66 4.7 -3 3 C-2.34 3 -1.68 3 -1 3 C-0.67 2.01 -0.34 1.02 0 0 Z " fill="#DFEFF4" transform="translate(180,248)"/>
  <path d="M0 0 C0.33 0 0.66 0 1 0 C1 1.98 1 3.96 1 6 C0.01 6.33 -0.98 6.66 -2 7 C-2 7.66 -2 8.32 -2 9 C-2.66 9 -3.32 9 -4 9 C-3.47181039 5.19703482 -2.56226812 2.88255163 0 0 Z " fill="#2569CB" transform="translate(4,13)"/>
  <path d="M0 0 C0.33 1.32 0.66 2.64 1 4 C0.34 4 -0.32 4 -1 4 C-1 5.32 -1 6.64 -1 8 C-1.99 8.33 -2.98 8.66 -4 9 C-4.33 9.66 -4.66 10.32 -5 11 C-5.99 10.67 -6.98 10.34 -8 10 C-7.34 10 -6.68 10 -6 10 C-5.7525 9.46375 -5.505 8.9275 -5.25 8.375 C-3.70303025 5.43575748 -1.86985631 2.74245592 0 0 Z " fill="#C0E4F9" transform="translate(399,382)"/>
  <path d="M0 0 C0.99 0.495 0.99 0.495 2 1 C2 1.66 2 2.32 2 3 C2.61875 3.226875 3.2375 3.45375 3.875 3.6875 C6.61410209 5.37929835 7.05024472 6.99244161 8 10 C3.79236776 8.4972742 2.1972242 5.76667005 0 2 C0 1.34 0 0.68 0 0 Z " fill="#C5E3F8" transform="translate(258,278)"/>
  <path d="M0 0 C0.66 1.32 1.32 2.64 2 4 C2.66 3.67 3.32 3.34 4 3 C3.625 5.9375 3.625 5.9375 3 9 C2.01 9.495 2.01 9.495 1 10 C-0.60725635 6.78548731 -0.05748185 3.56387464 0 0 Z " fill="#2166D4" transform="translate(144,221)"/>
  <path d="M0 0 C0.33 0 0.66 0 1 0 C0.67 2.97 0.34 5.94 0 9 C-0.99 9.33 -1.98 9.66 -3 10 C-2.49287967 6.28111761 -1.88391785 3.26545761 0 0 Z " fill="#C4E1F8" transform="translate(203,190)"/>
  <path d="M0 0 C2 2 2 2 3 5 C3.99 5.66 4.98 6.32 6 7 C5.67 8.32 5.34 9.64 5 11 C4.34 11 3.68 11 3 11 C0 4.5 0 4.5 0 0 Z " fill="#2F66C4" transform="translate(195,189)"/>
  <path d="M0 0 C0.99 0 1.98 0 3 0 C3 1.65 3 3.3 3 5 C2.67 4.34 2.34 3.68 2 3 C1.01 3.495 1.01 3.495 0 4 C-0.33 4.99 -0.66 5.98 -1 7 C-1.66 7 -2.32 7 -3 7 C-2.25 2.25 -2.25 2.25 0 0 Z " fill="#085BD8" transform="translate(397,377)"/>
  <path d="M0 0 C0 3 0 3 -2 6 C-4.625 6.1875 -4.625 6.1875 -7 6 C-7 5.34 -7 4.68 -7 4 C-5.68 4 -4.36 4 -3 4 C-3 3.01 -3 2.02 -3 1 C-2.01 0.67 -1.02 0.34 0 0 Z " fill="#0757CC" transform="translate(135,287)"/>
  <path d="M0 0 C1 3 1 3 0.22265625 5.04296875 C-0.16019531 5.75066406 -0.54304687 6.45835937 -0.9375 7.1875 C-1.31777344 7.90292969 -1.69804687 8.61835938 -2.08984375 9.35546875 C-2.54037109 10.16951172 -2.54037109 10.16951172 -3 11 C-3.33 11 -3.66 11 -4 11 C-4 9.35 -4 7.7 -4 6 C-3.34 6 -2.68 6 -2 6 C-2 4.35 -2 2.7 -2 1 C-1.34 0.67 -0.68 0.34 0 0 Z " fill="#C9E2FD" transform="translate(225,239)"/>
  <path d="M0 0 C0.66 1.32 1.32 2.64 2 4 C1.01 5.485 1.01 5.485 0 7 C-0.66 7 -1.32 7 -2 7 C-2.33 8.32 -2.66 9.64 -3 11 C-3.33 10.34 -3.66 9.68 -4 9 C-3.22265625 6.8359375 -3.22265625 6.8359375 -2.0625 4.375 C-1.68222656 3.55773437 -1.30195313 2.74046875 -0.91015625 1.8984375 C-0.60980469 1.27195313 -0.30945313 0.64546875 0 0 Z " fill="#CADFF8" transform="translate(208,179)"/>
  <path d="M0 0 C0.66 0 1.32 0 2 0 C1.55090939 1.48199902 1.09043436 2.96055236 0.625 4.4375 C0.36976563 5.26121094 0.11453125 6.08492187 -0.1484375 6.93359375 C-1 9 -1 9 -3 10 C-3.3636198 5.75776898 -2.5393228 3.41831915 0 0 Z " fill="#2A67CD" transform="translate(215,160)"/>
  <path d="M0 0 C2.79828356 0.38597015 3.8205884 0.80136573 5.75 2.9375 C7 5 7 5 7 7 C3.17053157 5.54744301 1.87949705 3.57104439 0 0 Z " fill="#D7EFFC" transform="translate(154,112)"/>
  <path d="M0 0 C0.33 0.66 0.66 1.32 1 2 C1.99 2 2.98 2 4 2 C4.33 3.65 4.66 5.3 5 7 C2.525 6.01 2.525 6.01 0 5 C0 3.35 0 1.7 0 0 Z " fill="#1964D0" transform="translate(395,14)"/>
  <path d="M0 0 C0.33 0 0.66 0 1 0 C1.66 2.64 2.32 5.28 3 8 C2.01 8.495 2.01 8.495 1 9 C0.34 8.67 -0.32 8.34 -1 8 C-1.125 2.25 -1.125 2.25 0 0 Z " fill="#FAFAF3" transform="translate(261,273)"/>
  <path d="M0 0 C1.99097846 2.98646769 2.94124926 5.59687262 4 9 C2.68 8.67 1.36 8.34 0 8 C0 5.36 0 2.72 0 0 Z " fill="#2867C9" transform="translate(157,205)"/>
  <path d="M0 0 C0.66 0 1.32 0 2 0 C1.67 2.31 1.34 4.62 1 7 C0.01 7 -0.98 7 -2 7 C-1.125 2.25 -1.125 2.25 0 0 Z " fill="#0B5ACA" transform="translate(231,229)"/>
  <path d="M0 0 C2.6855594 2.6855594 3.06049974 5.37621328 4 9 C2.68 9 1.36 9 0 9 C0 6.03 0 3.06 0 0 Z " fill="#BCDDF9" transform="translate(193,188)"/>
  <path d="M0 0 C-2.55991624 2.01136276 -5.04590299 3.62845496 -8 5 C-8.33 4.01 -8.66 3.02 -9 2 C-5.5647952 -0.29013653 -4.014669 -0.17842973 0 0 Z " fill="#D4EDFE" transform="translate(19,2)"/>
  <path d="M0 0 C2.25245881 2.68841859 3.88213958 4.64641875 5 8 C3.68 8 2.36 8 1 8 C0.67 5.36 0.34 2.72 0 0 Z " fill="#2D69CE" transform="translate(257,278)"/>
  <path d="M0 0 C0.66 0 1.32 0 2 0 C1.01 3.3 0.02 6.6 -1 10 C-1.33 10 -1.66 10 -2 10 C-2.17942163 6.05272412 -2.09350689 3.4019487 0 0 Z " fill="#CFEEFE" transform="translate(234,214)"/>
  <path d="M0 0 C2.18975773 3.28463659 2.99806563 6.20696275 4 10 C3.34 10.66 2.68 11.32 2 12 C0.86235649 7.73383684 0 4.43513689 0 0 Z " fill="#3D77CC" transform="translate(153,194)"/>
  <path d="M0 0 C2.79872437 2.52788007 4.45773019 4.20411134 5 8 C4.01 8 3.02 8 2 8 C2 6.68 2 5.36 2 4 C1.34 4 0.68 4 0 4 C0 2.68 0 1.36 0 0 Z " fill="#1D63C9" transform="translate(165,228)"/>
  <path d="M0 0 C1.32 0 2.64 0 4 0 C4 0.99 4 1.98 4 3 C4.66 3.33 5.32 3.66 6 4 C3.69 3.67 1.38 3.34 -1 3 C-0.67 2.01 -0.34 1.02 0 0 Z " fill="#DFEFF7" transform="translate(194,197)"/>
  <path d="M0 0 C0.33 0.66 0.66 1.32 1 2 C0.34 2 -0.32 2 -1 2 C-1.103125 2.61875 -1.20625 3.2375 -1.3125 3.875 C-2 6 -2 6 -5 8 C-3.375 2.25 -3.375 2.25 0 0 Z " fill="#D6EBFC" transform="translate(240,118)"/>
  <path d="M0 0 C5.875 4.625 5.875 4.625 7 8 C6.34 8 5.68 8 5 8 C5 7.34 5 6.68 5 6 C4.360625 5.7525 3.72125 5.505 3.0625 5.25 C1 4 1 4 0.25 1.875 C0.1675 1.25625 0.085 0.6375 0 0 Z " fill="#4176CD" transform="translate(391,8)"/>
</svg>
