<?xml version="1.0" encoding="UTF-8"?>
<svg version="1.1" xmlns="http://www.w3.org/2000/svg" width="450" height="450">
    <path d="M0 0 C1.6316958 1.51364713 3.25662971 3.03461367 4.875 4.5625 C6.14730469 5.72072266 6.14730469 5.72072266 7.4453125 6.90234375 C32.35461281 30.46813952 49.18031708 64.64204475 51.06787109 99.08154297 C52.01245185 142.73262325 41.87871639 181.60871009 11.26391602 214.01416016 C10.26569521 215.05546157 9.2647234 216.09413423 8.26074219 217.12988281 C7.01749382 218.4151861 5.79264896 219.71823077 4.5703125 221.0234375 C-5.29686709 231.32433927 -16.61545932 238.89651639 -29.125 245.5625 C-30.08792969 246.09617187 -31.05085937 246.62984375 -32.04296875 247.1796875 C-66.85593832 265.71459268 -108.93479533 266.71726618 -146.125 255.5625 C-168.44578239 248.51177312 -187.47690116 235.84698982 -204.125 219.5625 C-205.10146484 218.64404297 -205.10146484 218.64404297 -206.09765625 217.70703125 C-220.22155804 204.16224161 -231.05516359 187.27485714 -239.125 169.5625 C-239.59164062 168.56734375 -240.05828125 167.5721875 -240.5390625 166.546875 C-242.58246287 161.90404694 -243.88470011 158.59021459 -242.125 153.5625 C-239.48308772 150.92058772 -238.2499137 151.29425838 -234.5612793 151.25610352 C-233.39634445 151.24011612 -232.23140961 151.22412872 -231.03117371 151.20765686 C-229.76662857 151.20229416 -228.50208344 151.19693146 -227.19921875 151.19140625 C-225.25690117 151.17786354 -225.25690117 151.17786354 -223.27534485 151.16404724 C-220.53062447 151.14754418 -217.78602622 151.13985514 -215.04125977 151.13696289 C-211.53033542 151.13158613 -208.02056561 151.0939442 -204.50996685 151.04821873 C-201.15638944 151.01124442 -197.80299309 151.00993127 -194.44921875 151.00390625 C-193.19074631 150.98437393 -191.93227386 150.96484161 -190.63566589 150.94471741 C-180.92619331 150.99496602 -180.92619331 150.99496602 -177.8894043 153.94995117 C-176.25156218 156.37509971 -174.66487356 158.75065794 -173.25 161.3125 C-161.83781717 180.81433142 -142.55389655 193.64921236 -120.8125 199.375 C-96.53313686 204.81306553 -71.19841321 200.66242143 -49.99609375 187.6015625 C-44.55598638 183.73797604 -39.8300624 179.2675624 -35.125 174.5625 C-34.29742187 173.73492187 -33.46984375 172.90734375 -32.6171875 172.0546875 C-16.59002063 155.15825056 -9.30430319 131.90734982 -9.87890625 108.92578125 C-11.03703457 82.95720243 -22.99343119 60.89008387 -41.5546875 43.25390625 C-57.07142143 29.85309058 -78.19693356 23.12984738 -98.4375 23.25 C-99.44296875 23.25563965 -100.4484375 23.2612793 -101.484375 23.26708984 C-127.14417813 23.68402036 -148.0070308 35.23552662 -165.66796875 53.140625 C-170.15993143 57.92603248 -173.74609941 62.79194395 -176.93359375 68.53125 C-178.125 70.5625 -178.125 70.5625 -180.125 72.5625 C-185.18904753 73.56617078 -190.19521679 73.70971609 -195.33984375 73.6953125 C-196.49994713 73.69674759 -196.49994713 73.69674759 -197.68348694 73.69821167 C-199.31641725 73.69888902 -200.94935032 73.69706594 -202.58227539 73.69287109 C-205.02431653 73.68758269 -207.46616813 73.69279689 -209.90820312 73.69921875 C-237.82469423 73.71265289 -237.82469423 73.71265289 -242.125 71.5625 C-242.65791901 64.51977033 -240.941596 59.6304966 -238.0625 53.25 C-237.65128906 52.31937744 -237.24007812 51.38875488 -236.81640625 50.42993164 C-233.79427543 43.72809845 -230.47157396 37.50846265 -226.125 31.5625 C-225.07699219 30.09296875 -225.07699219 30.09296875 -224.0078125 28.59375 C-219.09722871 21.86506079 -213.84666124 15.61035765 -208.125 9.5625 C-207.65562012 9.04461914 -207.18624023 8.52673828 -206.70263672 7.99316406 C-152.54882439 -51.6439176 -58.87139855 -51.85850468 0 0 Z " fill="#1DCE9E" transform="translate(328.125,113.4375)"/>
    <path d="M0 0 C2.61115914 -0.00543454 5.2223152 -0.01256459 7.83346558 -0.02124023 C14.13249395 -0.03884491 20.43132961 -0.03526769 26.73036493 -0.02358967 C31.8574486 -0.01448502 36.98447898 -0.01336135 42.11156845 -0.01768494 C42.84661003 -0.01829787 43.5816516 -0.0189108 44.33896717 -0.01954231 C45.83305481 -0.02082145 47.32714243 -0.02211831 48.82123004 -0.02343267 C62.76632579 -0.03478513 76.71131562 -0.02180833 90.65639399 -0.00023121 C102.57632076 0.01764242 114.49609165 0.01452311 126.41601562 -0.00390625 C140.32083882 -0.02539496 154.22556972 -0.03369482 168.13040721 -0.0214572 C169.6178003 -0.02018324 171.1051934 -0.01892575 172.59258652 -0.01768494 C173.68980289 -0.01675928 173.68980289 -0.01675928 174.80918524 -0.01581493 C179.92067605 -0.01238648 185.03210743 -0.01813556 190.14358902 -0.02760315 C197.04349276 -0.04010476 203.94310019 -0.03098936 210.84297562 -0.00802612 C213.3598533 -0.00278235 215.87675594 -0.00417744 218.39362335 -0.01307678 C237.90740358 -0.07566168 256.25130366 1.3834027 274.21826172 9.51757812 C275.19666016 9.93523438 276.17505859 10.35289063 277.18310547 10.78320312 C295.47676567 19.14876653 309.68583163 34.03093485 319.21826172 51.51757812 C319.75064453 52.47535156 320.28302734 53.433125 320.83154297 54.41992188 C330.58544916 73.60008366 332.10448816 93.83339197 331.99462891 114.97607422 C332.00278165 117.6482715 332.01326492 120.32037057 332.02648926 122.99253845 C332.05289205 129.43823112 332.04753168 135.88349996 332.03001341 142.32920788 C332.01634979 147.57828788 332.0146737 152.82725078 332.02115631 158.07634354 C332.02207571 158.82923354 332.02299511 159.58212354 332.02394237 160.35782839 C332.02586112 161.88830485 332.02780641 163.41878129 332.02977791 164.94925769 C332.04680663 179.23458324 332.027344 193.51967618 331.99497572 207.80496354 C331.96818742 220.00420665 331.97282578 232.20310685 332.00048828 244.40234375 C332.03276008 258.64052659 332.04514798 272.87850646 332.0268147 287.1167208 C332.02490383 288.64154089 332.0230176 290.16636102 332.02115631 291.69118118 C332.02023066 292.44100899 332.019305 293.19083679 332.0183513 293.96338665 C332.0132184 299.19179122 332.02181094 304.4200647 332.03603363 309.64844894 C332.05304427 316.04097578 332.04793291 322.43306203 332.01634917 328.82553981 C332.0008188 332.07355657 331.99733774 335.32071202 332.01424408 338.56874275 C332.10931278 358.71164957 330.07616399 378.15954266 321.21826172 396.51757812 C320.78384766 397.45085937 320.34943359 398.38414062 319.90185547 399.34570312 C309.43259028 419.69349126 290.45196694 435.46034407 269.21826172 443.51757812 C255.71126493 447.78202189 242.09405371 450.82323996 227.89610291 450.79846191 C226.81065691 450.80440416 225.72521092 450.8103464 224.60687262 450.81646872 C220.9980556 450.83370292 217.38937236 450.8368473 213.78051758 450.83984375 C211.18071718 450.84911042 208.58091947 450.85916112 205.98112488 450.86993408 C198.93480747 450.89697561 191.888513 450.90913215 184.84215236 450.9179554 C180.42884203 450.92350475 176.01554029 450.93198406 171.60223579 450.94096375 C159.34594621 450.96533886 147.08966346 450.98593552 134.83335018 450.99271393 C133.65901088 450.99337263 133.65901088 450.99337263 132.46094755 450.99404463 C131.67633253 450.99448119 130.89171751 450.99491774 130.08332628 450.99536753 C128.49378327 450.99625441 126.90424027 450.99714754 125.31469727 450.99804688 C124.52625309 450.99848973 123.73780892 450.99893259 122.92547251 450.99938887 C110.18517352 451.00726408 97.44510476 451.04211285 84.70489448 451.08876592 C71.57592762 451.13644785 58.44707557 451.16112932 45.31802088 451.16344976 C37.96639707 451.16526974 30.61507284 451.17642635 23.26353264 451.21308899 C16.99596149 451.24423862 10.72878237 451.25393219 4.46114831 451.23761278 C1.27582314 451.2299179 -1.90857042 451.2344761 -5.09382629 451.25972748 C-41.29468264 451.52952723 -69.35189073 442.51499561 -95.10986328 417.23242188 C-100.93851812 411.09397633 -104.94769158 403.9949835 -108.78173828 396.51757812 C-109.34119141 395.43734375 -109.90064453 394.35710937 -110.47705078 393.24414062 C-119.20294254 374.78383695 -119.37266541 354.7587592 -119.31518555 334.72924805 C-119.3222604 332.10502135 -119.33101193 329.48079873 -119.34129333 326.85658264 C-119.36273049 320.5206578 -119.36285914 314.18491395 -119.35466779 307.84896489 C-119.34831972 302.689472 -119.34954834 297.53003114 -119.35593987 292.37053871 C-119.35684152 291.63096581 -119.35774318 290.89139292 -119.35867215 290.12940872 C-119.36052371 288.62606847 -119.36238628 287.12272824 -119.36425971 285.61938802 C-119.38076791 271.58070983 -119.37217923 257.54213267 -119.35527413 243.50346062 C-119.34058796 230.71719837 -119.35520273 217.93117136 -119.3840443 205.14493939 C-119.41358113 191.95010839 -119.42436896 178.7553854 -119.4148621 165.56052285 C-119.41383976 164.0623702 -119.41284514 162.56421753 -119.41187859 161.06606483 C-119.4114022 160.3293269 -119.41092581 159.59258896 -119.41043498 158.83352562 C-119.40828937 153.69435062 -119.41797499 148.55528007 -119.43264961 143.41612816 C-119.45034479 137.1326456 -119.44981398 130.84946212 -119.42729796 124.56599041 C-119.41630795 121.37286695 -119.41544129 118.18036379 -119.43159866 114.98724747 C-119.58203808 82.66631456 -113.54557735 52.34062182 -90.16845703 28.74414062 C-81.10851681 19.95196908 -71.32684694 13.60779743 -59.78173828 8.51757812 C-58.51716797 7.93556641 -58.51716797 7.93556641 -57.22705078 7.34179688 C-39.22488298 -0.10638437 -19.12475607 -0.0677426 0 0 Z M-85.78173828 33.51757812 C-86.49587891 34.14921875 -87.21001953 34.78085937 -87.94580078 35.43164062 C-105.25283391 51.083818 -111.64272299 74.88623299 -112.94478607 97.32776642 C-113.08053958 100.16895774 -113.19876349 103.0102084 -113.30810547 105.85253906 C-113.35050102 106.93597847 -113.39289658 108.01941788 -113.43657684 109.13568878 C-114.96886627 149.59279375 -115.09210119 190.02940509 -115.03887606 230.5109458 C-115.03019465 237.88869268 -115.03640796 245.26637118 -115.04613328 252.64411378 C-115.05534639 259.94101337 -115.05642694 267.23788434 -115.05125594 274.53478789 C-115.04822198 278.81646429 -115.04747828 283.09809535 -115.05432892 287.37976837 C-115.07923452 305.55199543 -114.78717923 323.68226131 -113.95263672 341.83691406 C-113.9180827 342.65745789 -113.88352868 343.47800172 -113.84792757 344.32341051 C-112.58874262 373.43091184 -105.57704656 397.50500543 -84.78173828 418.51757812 C-84.10369141 419.25621094 -83.42564453 419.99484375 -82.72705078 420.75585938 C-74.96377829 429.05064223 -66.05981383 434.35204654 -55.53173828 438.33007812 C-54.80688232 438.60795166 -54.08202637 438.8858252 -53.33520508 439.17211914 C-40.92877237 443.58410056 -27.71148049 445.00061206 -14.64233398 445.68847656 C-13.57846023 445.7476171 -13.57846023 445.7476171 -12.49309409 445.8079524 C7.26704547 446.88836429 27.04976009 446.81127648 46.83300614 446.78622913 C52.23142054 446.78105108 57.62982925 446.78589265 63.02824402 446.78900146 C72.0854924 446.79260856 81.14270783 446.7879298 90.19995117 446.77832031 C100.56095045 446.76745211 110.92187085 446.77096286 121.28286821 446.78197312 C130.29298142 446.79115213 139.30307138 446.79228002 148.31318778 446.78709579 C153.6442329 446.78403221 158.97524142 446.78340635 164.30628395 446.79016876 C184.51802928 446.81225426 204.68682406 446.69719521 224.87329102 445.60253906 C225.63142204 445.56211377 226.38955306 445.52168847 227.17065775 445.48003817 C252.25722947 444.10275971 273.97874437 439.46147125 293.21826172 422.51757812 C294.30107422 421.56625 294.30107422 421.56625 295.40576172 420.59570312 C297.46405584 418.65360303 299.34552878 416.63976776 301.21826172 414.51757812 C301.63817383 414.04400879 302.05808594 413.57043945 302.49072266 413.08251953 C328.69231042 383.05947947 327.37547596 342.18275657 327.36352539 304.43310547 C327.36652769 302.503575 327.36993263 300.57404512 327.373703 298.64451599 C327.38244265 293.45970316 327.38487695 288.2749069 327.38551879 283.09008741 C327.38623553 279.83048938 327.38838159 276.57089539 327.39101601 273.31129837 C327.40023937 261.88103219 327.40435507 250.45077759 327.40356445 239.02050781 C327.4029659 228.46263847 327.41348182 217.90482059 327.42930812 207.34696424 C327.44250828 198.20643581 327.44774312 189.06592392 327.44710904 179.92538607 C327.4468575 174.5003424 327.44951339 169.07534446 327.46028709 163.65031052 C329.77951866 93.47498345 329.77951866 93.47498345 298.21826172 33.51757812 C297.68974609 32.91429688 297.16123047 32.31101562 296.61669922 31.68945312 C277.44321146 10.64777938 249.59290854 6.99150954 222.74295044 5.64300537 C221.00303426 5.56288728 219.26302787 5.4847112 217.52294922 5.40820312 C216.58637356 5.36633125 215.6497979 5.32445938 214.68484116 5.28131866 C180.82368616 3.83389521 146.89031397 4.21804198 113.00635123 4.2604394 C105.29901155 4.26907737 97.59173789 4.26294621 89.88440239 4.25318313 C82.29479416 4.24397195 74.70521346 4.24289027 67.11560142 4.24806046 C62.6470403 4.25110284 58.17852268 4.25181336 53.70996475 4.24498749 C-21.61911841 0.92976328 -21.61911841 0.92976328 -85.78173828 33.51757812 Z " fill="#E2DDDE" transform="translate(118.78173828125,-0.517578125)"/>
    <path d="M0 0 C0.69787628 -0.00350464 1.39575256 -0.00700928 2.11477661 -0.01062012 C4.421671 -0.01942276 6.72825873 -0.01359359 9.03515625 -0.00683594 C10.63794005 -0.00818301 12.24072346 -0.0101239 13.84350586 -0.01263428 C17.20267629 -0.01558355 20.56174037 -0.01129426 23.92089844 -0.00195312 C28.228617 0.00944134 32.53608636 0.00288081 36.84379578 -0.00909805 C40.15346151 -0.01632199 43.46306808 -0.01402627 46.7727356 -0.00884247 C48.36117584 -0.00750745 49.94962143 -0.00914854 51.53805542 -0.01380157 C53.75728607 -0.01887561 55.97611202 -0.01114452 58.1953125 0 C59.45867432 0.00159119 60.72203613 0.00318237 62.02368164 0.00482178 C65.09765625 0.25878906 65.09765625 0.25878906 68.09765625 2.25878906 C68.47860718 4.45996094 68.47860718 4.45996094 68.48583984 7.22753906 C68.49529633 8.26201172 68.50475281 9.29648438 68.51449585 10.36230469 C68.50842316 11.48314453 68.50235046 12.60398438 68.49609375 13.75878906 C68.49896393 14.90541016 68.50183411 16.05203125 68.50479126 17.23339844 C68.50683558 19.66113783 68.50128018 22.08889355 68.48876953 24.51660156 C68.47272192 28.24353691 68.48860674 31.96938765 68.5078125 35.69628906 C68.50583013 38.05045814 68.5019866 40.40462653 68.49609375 42.75878906 C68.50216644 43.87962891 68.50823914 45.00046875 68.51449585 46.15527344 C68.50031113 47.70698242 68.50031113 47.70698242 68.48583984 49.29003906 C68.48345306 50.20333984 68.48106628 51.11664063 68.47860718 52.05761719 C68.35289337 52.78400391 68.22717957 53.51039063 68.09765625 54.25878906 C64.3891701 56.73111316 62.51600561 56.51209093 58.08764648 56.51757812 C57.37841034 56.52108276 56.66917419 56.5245874 55.93844604 56.52819824 C53.59428113 56.53700048 51.25041798 56.53117248 48.90625 56.52441406 C47.27865033 56.525761 45.65105105 56.52770177 44.02345276 56.5302124 C40.6130083 56.53316149 37.20266861 56.5288724 33.79223633 56.51953125 C29.41491849 56.50812774 25.03784565 56.51470315 20.66053677 56.52667618 C17.30029952 56.53389289 13.94012065 56.53160789 10.57988167 56.52642059 C8.96549513 56.52508404 7.35110334 56.52673202 5.73672295 56.5313797 C3.48376226 56.53644288 1.23120222 56.52873839 -1.02172852 56.51757812 C-2.30507584 56.51598694 -3.58842316 56.51439575 -4.91065979 56.51275635 C-7.90234375 56.25878906 -7.90234375 56.25878906 -9.90234375 54.25878906 C-10.16304016 52.05761719 -10.16304016 52.05761719 -10.17700195 49.29003906 C-10.18653397 48.25556641 -10.19606598 47.22109375 -10.20588684 46.15527344 C-10.20497543 45.03443359 -10.20406403 43.91359375 -10.203125 42.75878906 C-10.20741013 41.61216797 -10.21169525 40.46554688 -10.21611023 39.28417969 C-10.22186113 36.85645204 -10.22234823 34.42870716 -10.21801758 32.00097656 C-10.21485675 28.27411712 -10.23831138 24.54805031 -10.26367188 20.82128906 C-10.26594458 18.4671234 -10.2666485 16.1129556 -10.265625 13.75878906 C-10.27483475 12.63794922 -10.28404449 11.51710937 -10.29353333 10.36230469 C-10.28730453 9.32783203 -10.28107574 8.29335937 -10.2746582 7.22753906 C-10.27528763 6.31423828 -10.27591705 5.4009375 -10.27656555 4.45996094 C-10.15307236 3.73357422 -10.02957916 3.0071875 -9.90234375 2.25878906 C-6.21673771 -0.19828163 -4.39753792 0.00553864 0 0 Z " fill="#210E5F" transform="translate(79.90234375,197.7412109375)"/>
    <path d="M0 0 C0.33 0 0.66 0 1 0 C1.00331015 0.81349411 1.00662029 1.62698822 1.01003075 2.46513367 C1.09205085 22.46597761 1.18438269 42.46675224 1.28752708 62.46749878 C1.337175 72.1405894 1.38361312 81.81367349 1.421875 91.48681641 C1.4553199 99.93992693 1.49541747 108.39297829 1.54279006 116.84602261 C1.56754785 121.30183466 1.58946261 125.75761015 1.60334396 130.21347046 C1.66422982 148.97207697 1.97788296 167.6969851 2.83837891 186.4375 C2.87269036 187.25481598 2.90700181 188.07213196 2.94235301 188.91421509 C4.1947051 217.98338607 11.23946404 242.01691618 32 263 C32.60457031 263.66515625 33.20914063 264.3303125 33.83203125 265.015625 C41.23088547 273.00854781 50.17750047 278.01232776 60.25 281.8125 C60.97477539 282.09029297 61.69955078 282.36808594 62.44628906 282.65429688 C74.94455052 287.09980571 88.23421598 288.49289342 101.39990234 289.16162109 C102.11386697 289.20088423 102.82783159 289.24014738 103.5634315 289.28060031 C121.95921583 290.28278747 140.36667697 290.35132779 158.78498507 290.40471697 C163.59882654 290.42068951 168.41261053 290.44736422 173.22640991 290.4727478 C182.28111822 290.51894743 191.3358381 290.55596964 200.39060152 290.58942068 C210.72496596 290.62806637 221.05927185 290.67736024 231.3935864 290.72740483 C252.59568065 290.82984626 273.79781223 290.91938273 295 291 C291.33928247 293.3383286 287.82696716 293.28756961 283.62301636 293.27174377 C282.50519671 293.27937403 282.50519671 293.27937403 281.36479485 293.28715843 C278.86667933 293.3018268 276.36876104 293.3023529 273.87060547 293.30297852 C272.08017595 293.31063915 270.28975002 293.31918541 268.49932861 293.32855225 C264.64373249 293.34683487 260.78818491 293.35887083 256.93255234 293.36609077 C250.84073345 293.37756498 244.74902223 293.40301491 238.65725708 293.43040466 C229.02664732 293.47206154 219.39603242 293.50447474 209.76537526 293.53287882 C192.50670769 293.58386048 175.24808473 293.64590929 157.98949349 293.71821922 C151.92863119 293.74318621 145.86778321 293.76259741 139.80688834 293.77760136 C136.04394731 293.78777957 132.28102852 293.80192516 128.51810455 293.81707764 C126.76770932 293.82325171 125.01730706 293.82770057 123.26690292 293.83033562 C120.88556583 293.83412647 118.50432776 293.84392253 116.12301636 293.85523987 C115.42341793 293.85485374 114.7238195 293.8544676 114.00302112 293.85406977 C110.37895754 293.83713403 110.37895754 293.83713403 107 295 C83.29188021 297.00100584 54.86633613 291.36536654 36 276 C23.97668989 265.71104652 14.25718934 255.15343911 7 241 C6.44054688 239.91976562 5.88109375 238.83953125 5.3046875 237.7265625 C-3.55788031 218.97710999 -3.56531888 198.77056323 -3.3125 178.4375 C-3.30097423 176.01367961 -3.29119935 173.58985023 -3.28320312 171.16601562 C-3.26980648 168.8593653 -3.25489121 166.55272317 -3.23828125 164.24609375 C-3.23089432 163.17330673 -3.22350739 162.10051971 -3.21589661 160.995224 C-3.20306137 160.00220779 -3.19022614 159.00919159 -3.17700195 157.98608398 C-3.16715775 157.11676743 -3.15731354 156.24745087 -3.14717102 155.35179138 C-3 153 -3 153 -2.50026989 151.23382187 C-1.86929434 148.41636871 -1.86221267 145.79545188 -1.84851074 142.90705872 C-1.84016708 141.65771042 -1.83182343 140.40836212 -1.82322693 139.12115479 C-1.81891783 137.73938014 -1.814694 136.35760522 -1.81054688 134.97583008 C-1.80260249 133.51875063 -1.79421437 132.06167354 -1.78541565 130.604599 C-1.76737404 127.46928913 -1.75235326 124.33398441 -1.73963928 121.19864845 C-1.71941627 116.24549132 -1.69176636 111.29239283 -1.66296387 106.33927917 C-1.59778258 94.93521986 -1.54228118 83.53111728 -1.48697662 72.12700653 C-1.43617084 61.66740765 -1.38334306 51.20783019 -1.32245111 40.74828452 C-1.29404193 35.81948462 -1.27046856 30.89069188 -1.25052643 25.96185076 C-1.23717961 22.90366285 -1.21976586 19.84550815 -1.20121574 16.78734779 C-1.19343293 15.36388484 -1.18737515 13.94041132 -1.18312263 12.51693344 C-1.17711365 10.58193301 -1.16449985 8.64695637 -1.15148926 6.71199036 C-1.14375866 5.08406162 -1.14375866 5.08406162 -1.13587189 3.42324543 C-1 1 -1 1 0 0 Z " fill="#D9D4D3" transform="translate(3,155)"/>
    <path d="M0 0 C0.33 0.66 0.66 1.32 1 2 C1.66 2 2.32 2 3 2 C3.92141727 4.76425182 4.12671182 6.39746546 4.13142776 9.24669552 C4.13526891 10.11756737 4.13911005 10.98843922 4.1430676 11.88570112 C4.14220112 12.84308024 4.14133463 13.80045936 4.14044189 14.78684998 C4.14489858 16.3116683 4.14489858 16.3116683 4.1494453 17.86729103 C4.1581498 21.28970942 4.15964201 24.71209289 4.16113281 28.13452148 C4.16575967 30.58164546 4.17078414 33.02876871 4.17617798 35.47589111 C4.18931489 42.13486192 4.19578569 48.79381901 4.20018864 55.45279956 C4.20295054 59.60926679 4.20718775 63.76573169 4.21169281 67.92219734 C4.22388438 79.42674711 4.23418461 90.93129501 4.2375679 102.4358511 C4.23778747 103.17217469 4.23800703 103.90849828 4.23823325 104.66713471 C4.23845153 105.40523062 4.23866981 106.14332653 4.2388947 106.90378898 C4.23933817 108.39948237 4.23978473 109.89517576 4.24023438 111.39086914 C4.2404558 112.13278647 4.24067723 112.8747038 4.24090537 113.63910348 C4.24485541 125.66721093 4.26231618 137.69525787 4.2855939 149.72334193 C4.30929129 162.06771411 4.32176898 174.41205589 4.32293582 186.75645119 C4.32385338 193.68933124 4.32962609 200.62213241 4.34775543 207.55499077 C4.36473943 214.07285673 4.36642117 220.59059911 4.35761642 227.10848999 C4.35684285 229.50468916 4.36123063 231.9008962 4.37107468 234.29707527 C4.38369777 237.56028696 4.37796988 240.82295923 4.36749268 244.08616638 C4.37554908 245.04131478 4.38360548 245.99646318 4.39190602 246.98055547 C4.34340512 253.40931858 4.34340512 253.40931858 2.47703171 256.6196146 C1.98961124 257.07514178 1.50219078 257.53066896 1 258 C1.00092179 256.99079026 1.00184359 255.98158052 1.00279331 254.94178867 C1.02496004 230.42323873 1.04141013 205.90469008 1.05181217 181.38613224 C1.05697579 169.52930915 1.06401974 157.67249267 1.07543945 145.81567383 C1.08538428 135.48529841 1.09185295 125.15492778 1.09408849 114.82454771 C1.09539594 109.35106943 1.09848395 103.87760484 1.10573006 98.40413094 C1.1124871 93.25867903 1.11461761 88.11324652 1.11310768 82.9677906 C1.11338415 81.07345474 1.11539114 79.17911827 1.11920547 77.28478622 C1.1241378 74.71022399 1.12300001 72.13573623 1.12025452 69.56117249 C1.12316736 68.80145946 1.1260802 68.04174644 1.12908131 67.25901181 C1.42604221 63.84150187 1.42604221 63.84150187 0 61 C-0.2315292 58.26483535 -0.40365931 55.54909439 -0.53515625 52.80859375 C-0.57813339 51.98875504 -0.62111053 51.16891632 -0.66539001 50.32423401 C-0.8021706 47.6955285 -0.9324015 45.06654388 -1.0625 42.4375 C-1.15386695 40.65948306 -1.24565821 38.88148788 -1.33789062 37.10351562 C-1.56352536 32.73591462 -1.78328505 28.36805232 -2 24 C-1.34 24 -0.68 24 0 24 C-0.165 23.21625 -0.33 22.4325 -0.5 21.625 C-1.50589398 14.33226861 -1.07523937 7.25786573 0 0 Z " fill="#EBE9EA" transform="translate(446,82)"/>
    <path d="M0 0 C1.62394748 0.0620775 3.25005297 0.08712041 4.875 0.0625 C5.65617188 0.05347656 6.43734375 0.04445313 7.2421875 0.03515625 C8.11230469 0.01775391 8.11230469 0.01775391 9 0 C8.67 0.99 8.34 1.98 8 3 C-5.79215744 4.89860773 -19.33977219 5.2759824 -33.24853516 5.22705078 C-35.52702326 5.2264853 -37.80551174 5.2268059 -40.08399963 5.22793579 C-46.21293621 5.22850496 -52.34179304 5.21682195 -58.47071123 5.20278788 C-64.8968416 5.19020712 -71.3229742 5.18910426 -77.74911499 5.18673706 C-88.51667815 5.18124551 -99.28420892 5.16878958 -110.05175781 5.15087891 C-121.13281105 5.13246614 -132.21385639 5.1183362 -143.29492188 5.10986328 C-144.32282231 5.10907511 -144.32282231 5.10907511 -145.37148841 5.10827102 C-148.8099374 5.10566058 -152.24838644 5.10313325 -155.68683553 5.10064721 C-184.12457689 5.07997926 -212.56228688 5.04466009 -241 5 C-238.56458757 2.56458757 -237.25931631 2.75569327 -233.93530846 2.72032636 C-232.87219161 2.72425165 -232.87219161 2.72425165 -231.78759766 2.72825623 C-231.0359263 2.72316939 -230.28425495 2.71808255 -229.50980568 2.71284157 C-226.97784006 2.69811671 -224.44606802 2.69764591 -221.9140625 2.69702148 C-220.10422382 2.68936457 -218.29438872 2.68081902 -216.48455811 2.67144775 C-212.58090825 2.65313663 -208.67730662 2.64111884 -204.77362061 2.63390923 C-198.60635124 2.62245259 -192.43918879 2.59700967 -186.27197266 2.56959534 C-176.52088185 2.52790349 -166.76978596 2.49550792 -157.01864815 2.46712118 C-139.54869215 2.41618185 -122.07878049 2.35410063 -104.60890007 2.28178078 C-98.47277289 2.25680723 -92.33665987 2.23739859 -86.20050049 2.22239864 C-82.38948545 2.21222007 -78.57849239 2.19807413 -74.7674942 2.18292236 C-72.99452479 2.17674809 -71.22154845 2.17229935 -69.44857025 2.16966438 C-67.03647324 2.16587364 -64.624474 2.15607758 -62.21240234 2.14476013 C-61.50365778 2.14514626 -60.79491322 2.1455324 -60.06469154 2.14593023 C-56.40911279 2.16695644 -56.40911279 2.16695644 -53 1 C-51.52194286 0.84886658 -50.03799181 0.75337841 -48.55371094 0.68701172 C-47.63225281 0.64381805 -46.71079468 0.60062439 -45.76141357 0.55612183 C-44.76249084 0.5143985 -43.76356812 0.47267517 -42.734375 0.4296875 C-41.19514374 0.36166428 -41.19514374 0.36166428 -39.62481689 0.29226685 C-37.44935891 0.19757666 -35.27379618 0.10526765 -33.09814453 0.01513672 C-29.77726815 -0.12385869 -26.45704804 -0.27434148 -23.13671875 -0.42578125 C-21.02346743 -0.51632626 -18.91018687 -0.60619196 -16.796875 -0.6953125 C-15.80604919 -0.74108429 -14.81522339 -0.78685608 -13.79437256 -0.83401489 C-9.02655731 -1.02231147 -4.69892182 -0.99306159 0 0 Z " fill="#EBE9E8" transform="translate(351,445)"/>
    <path d="M0 0 C0.99 0.33 1.98 0.66 3 1 C-9.26756218 15.85020684 -23.1017119 26.99537589 -40 36 C-40.96292969 36.53367187 -41.92585937 37.06734375 -42.91796875 37.6171875 C-77.66709821 56.11810332 -119.87461535 57.23750432 -157 46 C-165.27501185 43.30406062 -173.33802718 40.15023528 -181 36 C-181 35.67 -181 35.34 -181 35 C-176.44313418 34.41201731 -173.32255145 36.04858252 -169.3046875 37.92578125 C-165.93694576 39.49549138 -162.51367893 40.80499245 -159 42 C-158.06285156 42.33128906 -157.12570313 42.66257812 -156.16015625 43.00390625 C-139.85588171 48.25772123 -122.72064767 48.17744869 -105.75 48.25 C-104.68668961 48.2580365 -104.68668961 48.2580365 -103.60189819 48.26623535 C-90.19635311 48.38052796 -90.19635311 48.38052796 -77.375 44.875 C-73.86614742 43.58226484 -70.72515472 43.87372357 -67 44 C-67 43.34 -67 42.68 -67 42 C-65.02 41.67 -63.04 41.34 -61 41 C-61 40.34 -61 39.68 -61 39 C-60.31035156 38.81824219 -59.62070312 38.63648438 -58.91015625 38.44921875 C-54.20730821 37.19125528 -49.51795302 35.90290868 -44.875 34.4375 C-44.15054688 34.20933594 -43.42609375 33.98117187 -42.6796875 33.74609375 C-40.79640149 33.12269784 -40.79640149 33.12269784 -40 31 C-38.33333333 30.33333333 -36.66666667 29.66666667 -35 29 C-34.67 28.34 -34.34 27.68 -34 27 C-33.34 27 -32.68 27 -32 27 C-32 26.34 -32 25.68 -32 25 C-30.845 24.608125 -29.69 24.21625 -28.5 23.8125 C-19.25639951 20.34410477 -12.19957457 14.59447885 -6 7 C-4.33333333 5.33333333 -2.66666667 3.66666667 -1 2 C-0.67 1.34 -0.34 0.68 0 0 Z " fill="#42AD90" transform="translate(339,323)"/>
    <path d="M0 0 C0.69948257 -0.00350464 1.39896515 -0.00700928 2.11964417 -0.01062012 C4.43134488 -0.01942165 6.74273954 -0.01359462 9.05444336 -0.00683594 C10.65962279 -0.00818289 12.26480183 -0.01012368 13.86997986 -0.01263428 C17.23334641 -0.01558327 20.59660673 -0.01129459 23.95996094 -0.00195312 C28.27674581 0.00945051 32.59328224 0.00287484 36.91005802 -0.00909805 C40.22397239 -0.01631492 43.53782757 -0.0140297 46.8517437 -0.00884247 C48.44380154 -0.00750596 50.03586472 -0.00915372 51.62791634 -0.01380157 C53.84974599 -0.01886503 56.07116945 -0.01115991 58.29296875 0 C59.55855118 0.00159119 60.82413361 0.00318237 62.12806702 0.00482178 C65.08178711 0.25878906 65.08178711 0.25878906 67.08178711 2.25878906 C66.42178711 2.58878906 65.76178711 2.91878906 65.08178711 3.25878906 C65.08178711 4.24878906 65.08178711 5.23878906 65.08178711 6.25878906 C64.42178711 6.25878906 63.76178711 6.25878906 63.08178711 6.25878906 C63.08178711 5.59878906 63.08178711 4.93878906 63.08178711 4.25878906 C39.98178711 4.25878906 16.88178711 4.25878906 -6.91821289 4.25878906 C-6.93883789 10.44628906 -6.95946289 16.63378906 -6.98071289 23.00878906 C-6.9943689 25.92996582 -6.9943689 25.92996582 -7.00830078 28.91015625 C-7.01122219 30.45865815 -7.01377022 32.00716083 -7.01586914 33.55566406 C-7.02098511 34.35568848 -7.02610107 35.15571289 -7.03137207 35.97998047 C-7.06796776 40.16082074 -7.06796776 40.16082074 -6.4150238 44.27081299 C-5.66794271 47.26023876 -5.85927478 50.19400734 -5.91821289 53.25878906 C-5.2499498 53.25656845 -4.58168671 53.25434784 -3.89317322 53.25205994 C3.13241027 53.22974443 10.15798351 53.21477421 17.18359375 53.20385742 C19.79720469 53.19886316 22.41081288 53.19206545 25.02441406 53.18334961 C52.89232355 53.09281751 52.89232355 53.09281751 65.08178711 54.25878906 C65.08178711 54.91878906 65.08178711 55.57878906 65.08178711 56.25878906 C55.59832696 56.30506725 46.1149055 56.34063519 36.63135719 56.36241341 C32.2280746 56.37286424 27.82486908 56.38704702 23.42163086 56.40966797 C19.17468887 56.43135018 14.92782115 56.44334789 10.68082809 56.44854355 C9.05805669 56.45224764 7.43528949 56.45948052 5.81254959 56.47024918 C3.54494594 56.48470286 1.27765183 56.48676961 -0.98999023 56.48583984 C-2.28238617 56.49028107 -3.5747821 56.49472229 -4.90634155 56.4992981 C-7.91821289 56.25878906 -7.91821289 56.25878906 -9.91821289 54.25878906 C-10.1789093 52.05761719 -10.1789093 52.05761719 -10.19287109 49.29003906 C-10.20240311 48.25556641 -10.21193512 47.22109375 -10.22175598 46.15527344 C-10.22084457 45.03443359 -10.21993317 43.91359375 -10.21899414 42.75878906 C-10.22327927 41.61216797 -10.22756439 40.46554688 -10.23197937 39.28417969 C-10.23773027 36.85645204 -10.23821737 34.42870716 -10.23388672 32.00097656 C-10.23072589 28.27411712 -10.25418052 24.54805031 -10.27954102 20.82128906 C-10.28181372 18.4671234 -10.28251764 16.1129556 -10.28149414 13.75878906 C-10.29070389 12.63794922 -10.29991364 11.51710937 -10.30940247 10.36230469 C-10.30317368 9.32783203 -10.29694489 8.29335937 -10.29052734 7.22753906 C-10.29115677 6.31423828 -10.29178619 5.4009375 -10.29243469 4.45996094 C-10.1689415 3.73357422 -10.0454483 3.0071875 -9.91821289 2.25878906 C-6.22926701 -0.20050819 -4.40203989 0.0055311 0 0 Z " fill="#352856" transform="translate(79.918212890625,197.7412109375)"/>
    <path d="M0 0 C1.32 0 2.64 0 4 0 C4.13069412 10.8630408 3.76790845 21.60303329 3 32.4375 C2.14206155 44.70596951 2.14206155 44.70596951 2 57 C2.99 56.505 2.99 56.505 4 56 C3.67546593 56.53474945 3.35093185 57.0694989 3.01656342 57.62045288 C1.75064501 60.58368414 1.74371592 62.85058206 1.73498535 66.07275391 C1.72671219 67.31776672 1.71843903 68.56277954 1.70991516 69.84552002 C1.71073972 71.22253429 1.71173734 72.59954847 1.71289062 73.9765625 C1.70686548 75.42877588 1.69994099 76.88098576 1.69218445 78.33319092 C1.67730082 81.45868961 1.66854763 84.58412447 1.66447449 87.70965576 C1.65776076 92.65106594 1.63600671 97.59233948 1.61193848 102.53369141 C1.56297146 113.02242893 1.53064332 123.51119534 1.5 134 C1.46691899 145.32319536 1.43102166 156.64633723 1.37586927 167.96945 C1.35251007 172.88238881 1.3387771 177.79523255 1.33237457 182.70822144 C1.3264402 185.76329625 1.31234766 188.81829385 1.29603004 191.87332916 C1.29014949 193.29069263 1.28768277 194.70807496 1.28886986 196.12545013 C1.2900279 198.05939812 1.27786553 199.99334046 1.26501465 201.92724609 C1.26208153 203.00976654 1.25914841 204.09228699 1.2561264 205.20761108 C1.00152312 207.98339431 0.43338263 209.63815069 -1 212 C-1.02336309 185.5398709 -1.04099595 159.07974335 -1.05181217 132.61960602 C-1.05696787 120.33364009 -1.06399677 108.04768057 -1.07543945 95.76171875 C-1.08540844 85.05295606 -1.09185871 74.34419801 -1.09408849 63.63543081 C-1.09539183 57.96555093 -1.0984539 52.29568434 -1.10573006 46.62580872 C-1.11252517 41.28745284 -1.11460984 35.94911571 -1.11310768 30.61075592 C-1.11338244 28.65324553 -1.11536682 26.69573449 -1.11920547 24.73822784 C-1.12419726 22.06101738 -1.12297809 19.38387721 -1.12025452 16.70666504 C-1.12316736 15.93621432 -1.1260802 15.1657636 -1.12908131 14.37196589 C-1.11572967 9.49990152 -0.68754633 4.82461387 0 0 Z " fill="#EDE9EA" transform="translate(1,96)"/>
    <path d="M0 0 C-0.95519531 0.42410156 -1.91039062 0.84820312 -2.89453125 1.28515625 C-22.54762408 10.14065971 -40.21595958 22.694694 -50.84375 42.00390625 C-52 44 -52 44 -54 46 C-59.06404753 47.00367078 -64.07021679 47.14721609 -69.21484375 47.1328125 C-70.37494713 47.13424759 -70.37494713 47.13424759 -71.55848694 47.13571167 C-73.19141725 47.13638902 -74.82435032 47.13456594 -76.45727539 47.13037109 C-78.89931653 47.12508269 -81.34116813 47.13029689 -83.78320312 47.13671875 C-111.69969423 47.15015289 -111.69969423 47.15015289 -116 45 C-116.57250545 37.81842428 -114.68096633 32.81299743 -111.75 26.3125 C-111.35425781 25.38888672 -110.95851563 24.46527344 -110.55078125 23.51367188 C-108.4979995 18.83938687 -106.49149361 14.80380611 -103 11 C-103.638923 15.22793489 -105.09874261 18.65164712 -106.9375 22.5 C-107.96596229 24.66305582 -108.98729045 26.82952436 -110 29 C-110.55880859 30.19109375 -110.55880859 30.19109375 -111.12890625 31.40625 C-112.37123247 34.82129417 -112.37123247 34.82129417 -113 42 C-93.53 42 -74.06 42 -54 42 C-52.68 39.03 -51.36 36.06 -50 33 C-47.5625 30.25 -47.5625 30.25 -45 28 C-42.32820474 25.39033952 -40.07429779 23.11144669 -38 20 C-37.34 20 -36.68 20 -36 20 C-35.773125 19.4225 -35.54625 18.845 -35.3125 18.25 C-33.66800353 15.43086319 -31.5644533 13.98745131 -29 12 C-28.34 11.01 -27.68 10.02 -27 9 C-24.375 8.8125 -24.375 8.8125 -22 9 C-21.76667969 8.37222656 -21.53335938 7.74445313 -21.29296875 7.09765625 C-19.60100553 4.35268873 -18.39990082 4.1892561 -15.3125 3.4375 C-12.06794238 2.58885126 -9.09567189 1.68233117 -6.0625 0.25 C-3 -1 -3 -1 0 0 Z " fill="#5CAC96" transform="translate(202,140)"/>
    <path d="M0 0 C0.99 0.495 0.99 0.495 2 1 C2.02494208 5.39249301 2.04297329 9.78494717 2.05493164 14.17749023 C2.05992328 15.66805745 2.06671894 17.15861986 2.07543945 18.64916992 C2.16653467 34.63370067 2.16653467 34.63370067 1 42 C0.67 42.33 0.34 42.66 0 43 C-0.23075082 44.34747084 -0.41153063 45.70377565 -0.5625 47.0625 C-0.706875 48.361875 -0.85125 49.66125 -1 51 C-2.32 51.33 -3.64 51.66 -5 52 C-5.185625 53.7015625 -5.185625 53.7015625 -5.375 55.4375 C-5.684375 57.2009375 -5.684375 57.2009375 -6 59 C-6.99 59.495 -6.99 59.495 -8 60 C-8.60262099 62.2408573 -8.95607183 64.48570975 -9.33984375 66.7734375 C-10.10555356 69.35600905 -10.89360843 70.35065566 -13 72 C-14.175625 72.45375 -15.35125 72.9075 -16.5625 73.375 C-20.62909017 75.29738808 -20.53866131 76.00567425 -22 80 C-23.95890881 81.39300182 -25.9639118 82.72245446 -28 84 C-28.845625 84.86625 -29.69125 85.7325 -30.5625 86.625 C-33.02594963 89.02528425 -34.82169615 89.85227917 -38 91 C-38.33 91.66 -38.66 92.32 -39 93 C-39.66 93 -40.32 93 -41 93 C-41 93.99 -41 94.98 -41 96 C-41.54527344 96.17015625 -42.09054687 96.3403125 -42.65234375 96.515625 C-46.6784731 97.80949221 -50.54595892 99.19972752 -54.375 101 C-67.43807943 106.93158893 -81.8454639 108.20433081 -96 109 C-96.33 108.34 -96.66 107.68 -97 107 C-96.505 106.01 -96.505 106.01 -96 105 C-94.05737305 104.63696289 -94.05737305 104.63696289 -91.51171875 104.47265625 C-90.58351318 104.40457764 -89.65530762 104.33649902 -88.69897461 104.26635742 C-87.20829468 104.165448 -87.20829468 104.165448 -85.6875 104.0625 C-61.81295167 102.1472659 -41.98591712 93.98591712 -25 77 C-24.17242187 76.17242187 -23.34484375 75.34484375 -22.4921875 74.4921875 C-2.55800091 53.47682468 0.43524975 27.60153004 0 0 Z " fill="#31B793" transform="translate(318,211)"/>
    <path d="M0 0 C0.66 0.33 1.32 0.66 2 1 C2.04673251 25.63474841 2.081995 50.26949017 2.10362434 74.90427399 C2.11393441 86.34277326 2.12798963 97.78124498 2.15087891 109.21972656 C2.17082099 119.19016142 2.1837184 129.16057632 2.18817699 139.13103056 C2.19078297 144.40969024 2.19690264 149.68829283 2.21146011 154.9669342 C2.2250569 159.93759879 2.22921838 164.90818288 2.22621536 169.87886429 C2.22676458 171.70092329 2.2307295 173.52298504 2.23841095 175.34502792 C2.24840504 177.83839297 2.24595268 180.33145665 2.24050903 182.8248291 C2.24633472 183.54080655 2.2521604 184.25678399 2.25816262 184.99445772 C2.22883496 189.98617754 1.34580977 194.2327394 0 199 C-0.33 199 -0.66 199 -1 199 C-0.67 133.33 -0.34 67.66 0 0 Z " fill="#DAD0D1" transform="translate(446,143)"/>
    <path d="M0 0 C1.92199219 0.00290039 1.92199219 0.00290039 3.8828125 0.00585938 C4.86701172 0.01516479 4.86701172 0.01516479 5.87109375 0.0246582 C7.89856315 0.04311211 9.9255797 0.04516616 11.953125 0.04492188 C21.86742184 0.09007809 21.86742184 0.09007809 23.0078125 1.23046875 C25.00566179 1.19824537 27.00401303 1.16237832 29 1.0703125 C31.0078125 1.23046875 31.0078125 1.23046875 34.0078125 3.23046875 C34.0078125 3.89046875 34.0078125 4.55046875 34.0078125 5.23046875 C35.00167969 5.33617187 35.99554688 5.441875 37.01953125 5.55078125 C41.21176428 6.15253719 44.91381927 7.51177499 48.8203125 9.10546875 C49.48740234 9.36199219 50.15449219 9.61851562 50.84179688 9.8828125 C54.35616511 11.29423385 55.85470258 12.00080387 58.0078125 15.23046875 C60.05785205 16.42279488 60.05785205 16.42279488 62.0078125 17.23046875 C62.0078125 17.89046875 62.0078125 18.55046875 62.0078125 19.23046875 C62.6265625 19.31296875 63.2453125 19.39546875 63.8828125 19.48046875 C66.0078125 20.23046875 66.0078125 20.23046875 67.2578125 22.29296875 C67.6290625 23.25203125 67.6290625 23.25203125 68.0078125 24.23046875 C68.9978125 24.23046875 69.9878125 24.23046875 71.0078125 24.23046875 C72.83203125 25.91015625 72.83203125 25.91015625 74.6953125 28.10546875 C75.31792969 28.82476562 75.94054687 29.5440625 76.58203125 30.28515625 C78.0078125 32.23046875 78.0078125 32.23046875 78.0078125 34.23046875 C78.60722656 34.46765625 79.20664062 34.70484375 79.82421875 34.94921875 C87.86845563 39.66927188 92.69694919 54.52029165 95.0078125 63.23046875 C95.9978125 64.71546875 95.9978125 64.71546875 97.0078125 66.23046875 C98.29932712 69.84670968 98.08093116 73.42829837 98.0078125 77.23046875 C97.3478125 77.23046875 96.6878125 77.23046875 96.0078125 77.23046875 C95.605625 75.668125 95.605625 75.668125 95.1953125 74.07421875 C88.967957 50.90355073 77.09707269 29.9178579 56.0078125 17.23046875 C40.87078154 8.69015259 26.37973799 4.03153379 8.8828125 4.04296875 C7.86759521 4.04232422 6.85237793 4.04167969 5.80639648 4.04101562 C-1.6350212 4.09325693 -8.69989256 4.66283529 -15.9921875 6.23046875 C-15.4296875 4.35546875 -15.4296875 4.35546875 -13.9921875 2.23046875 C-9.22999048 0.54116841 -5.03246922 -0.01764443 0 0 Z " fill="#40A88D" transform="translate(220.9921875,132.76953125)"/>
    <path d="M0 0 C19.59381687 -0.02341433 39.18763087 -0.04102097 58.78145885 -0.05181217 C67.88027096 -0.05695705 76.97907435 -0.06396511 86.07788086 -0.07543945 C94.01320076 -0.08544173 101.94851435 -0.09186657 109.88384038 -0.09408849 C114.08114455 -0.09538622 118.27843064 -0.09841222 122.47572899 -0.10573006 C126.43601955 -0.11257795 130.39628481 -0.11459934 134.35658073 -0.11310768 C135.80081063 -0.1133801 137.24504148 -0.11533274 138.6892662 -0.11920547 C163.22743309 -0.18171127 163.22743309 -0.18171127 168 3 C166.79667664 4.98309326 166.79667664 4.98309326 165 7 C162.81697083 7.40509033 162.81697083 7.40509033 160.25317383 7.27050781 C158.81201958 7.20999237 158.81201958 7.20999237 157.3417511 7.14825439 C156.30729355 7.08386169 155.272836 7.01946899 154.20703125 6.953125 C153.14586594 6.90307312 152.08470062 6.85302124 150.99137878 6.80145264 C147.59713224 6.63690695 144.20518987 6.44379946 140.8125 6.25 C138.51376645 6.13353472 136.21493794 6.01892782 133.91601562 5.90625 C128.27606401 5.62573367 122.63774167 5.32174477 117 5 C117 4.67 117 4.34 117 4 C104.39851126 1.60173532 91.88226589 1.65248384 79.1015625 1.5859375 C76.81227953 1.56719473 74.52300323 1.54761909 72.23373413 1.5272522 C66.2531328 1.47625321 60.27250916 1.43645635 54.29180908 1.39910889 C48.17104722 1.35886552 42.0503756 1.30786665 35.9296875 1.2578125 C23.9531887 1.1614356 11.97663855 1.07691024 0 1 C0 0.67 0 0.34 0 0 Z " fill="#ECEAEA" transform="translate(192,0)"/>
    <path d="M0 0 C2.12554096 2.12554096 2.53722644 3.16738845 3.40234375 5.97265625 C3.65161621 6.77977051 3.90088867 7.58688477 4.15771484 8.41845703 C5.48902142 12.93256167 6.77256859 17.45653097 8 22 C8.18804199 22.67949707 8.37608398 23.35899414 8.56982422 24.05908203 C17.59657909 58.24532349 10.08511033 98.31071488 -7.08325195 128.55078125 C-18.2737089 147.59259008 -18.2737089 147.59259008 -25 152 C-25.33 151.34 -25.66 150.68 -26 150 C-25.34 150 -24.68 150 -24 150 C-24 149.34 -24 148.68 -24 148 C-23.2884375 147.443125 -23.2884375 147.443125 -22.5625 146.875 C-20.08184221 143.89821065 -20.31237519 140.81097735 -20 137 C-18.35 137 -16.7 137 -15 137 C-14.505 135.02 -14.505 135.02 -14 133 C-13.34 133 -12.68 133 -12 133 C-11.89558594 132.45085937 -11.79117187 131.90171875 -11.68359375 131.3359375 C-10.85027066 128.48835344 -9.53668088 126.19850891 -8.0625 123.625 C-5.93669959 119.8169115 -4.14462938 116.23512872 -3 112 C-2.34 112 -1.68 112 -1 112 C-0.96261719 111.3709375 -0.92523438 110.741875 -0.88671875 110.09375 C-0.32472691 102.77683659 1.59388564 97.14969618 4.5625 90.5 C13.30469213 66.4819774 9.63734584 32.36625556 0.875 9 C-0.04338284 5.85125882 -0.15530533 3.26141197 0 0 Z " fill="#4BA591" transform="translate(368,170)"/>
    <path d="M0 0 C1.16485931 -0.01583633 2.32971863 -0.03167267 3.52987671 -0.04798889 C5.41895248 -0.04054909 5.41895248 -0.04054909 7.34619141 -0.03295898 C8.63965485 -0.03915756 9.93311829 -0.04535614 11.26577759 -0.05174255 C14.00467709 -0.0621523 16.74305729 -0.05757983 19.48193359 -0.04296875 C22.98509807 -0.02580683 26.48661836 -0.04923698 29.98959923 -0.08445835 C33.33772598 -0.1117612 36.6854585 -0.1016933 40.03369141 -0.09545898 C41.28902679 -0.10871719 42.54436218 -0.1219754 43.83773804 -0.13563538 C53.51672458 -0.0320565 53.51672458 -0.0320565 56.55615234 2.92529297 C58.19720757 5.34809465 59.78295479 7.72173999 61.19775391 10.28344727 C63.77503061 14.78527002 66.73301517 18.68430492 70.10009766 22.62329102 C70.50357422 23.25364258 70.90705078 23.88399414 71.32275391 24.53344727 C70.82775391 26.01844727 70.82775391 26.01844727 70.32275391 27.53344727 C66.14891995 23.60513296 62.42880964 19.36864743 59.32275391 14.53344727 C59.32275391 13.87344727 59.32275391 13.21344727 59.32275391 12.53344727 C58.66275391 12.53344727 58.00275391 12.53344727 57.32275391 12.53344727 C56.82775391 9.56344727 56.82775391 9.56344727 56.32275391 6.53344727 C55.66275391 6.53344727 55.00275391 6.53344727 54.32275391 6.53344727 C54.32275391 5.87344727 54.32275391 5.21344727 54.32275391 4.53344727 C35.18275391 4.53344727 16.04275391 4.53344727 -3.67724609 4.53344727 C-4.00724609 5.52344727 -4.33724609 6.51344727 -4.67724609 7.53344727 C-4.01724609 7.86344727 -3.35724609 8.19344727 -2.67724609 8.53344727 C-3.33724609 10.84344727 -3.99724609 13.15344727 -4.67724609 15.53344727 C-7.82461985 12.11238883 -8.51253443 9.14537389 -8.67724609 4.53344727 C-6.49317112 0.33679898 -4.57789432 0.02764695 0 0 Z " fill="#69C4AF" transform="translate(93.67724609375,264.466552734375)"/>
    <path d="M0 0 C25.08 0 50.16 0 76 0 C76 17.16 76 34.32 76 52 C74.68 52 73.36 52 72 52 C71.97467913 45.21900224 71.95714543 38.43801663 71.94506836 31.65698242 C71.94003449 29.3493606 71.93320695 27.04174197 71.92456055 24.73413086 C71.91245365 21.42040214 71.90676227 18.10671552 71.90234375 14.79296875 C71.89718246 13.7585112 71.89202118 12.72405365 71.88670349 11.6582489 C71.88662796 10.6974794 71.88655243 9.7367099 71.88647461 8.74682617 C71.884254 7.90077316 71.88203339 7.05472015 71.87974548 6.18302917 C72 4 72 4 73 1 C48.91 1 24.82 1 0 1 C0 0.67 0 0.34 0 0 Z " fill="#211343" transform="translate(72,200)"/>
    <path d="M0 0 C20.24168441 -0.52058795 40.85607001 3.96650808 59.33203125 12.12109375 C60.32203125 13.11109375 60.32203125 13.11109375 61.33203125 14.12109375 C57.0333308 13.29254604 53.07456021 12.46379942 49.08203125 10.62109375 C44.95728279 8.72979204 40.6647056 8.25736752 36.19921875 7.6484375 C33.99080142 7.34728968 31.78465957 7.02185977 29.59155273 6.62426758 C20.56716265 5.04655742 11.76598877 4.84748978 2.64453125 4.93359375 C1.1316746 4.94112802 -0.38118354 4.94836878 -1.89404297 4.95532227 C-14.88806532 5.03713336 -27.77280053 5.42735753 -40.66796875 7.12109375 C-36.36145932 4.79674356 -32.06097137 3.99417501 -27.29296875 3.05859375 C-25.95310913 2.7941748 -25.95310913 2.7941748 -24.58618164 2.52441406 C-16.36519381 0.96244852 -8.35390915 0.37916718 0 0 Z " fill="#42BE9D" transform="translate(227.66796875,74.87890625)"/>
    <path d="M0 0 C10.31449993 -0.16352394 20.52381261 0.35062399 30.8125 1 C32.391254 1.09671471 33.97002999 1.19307105 35.54882812 1.2890625 C39.36615082 1.52192371 43.18314569 1.75958837 47 2 C47 2.66 47 3.32 47 4 C50.96 4 54.92 4 59 4 C59.495 4.99 59.495 4.99 60 6 C59.28344238 5.99476318 58.56688477 5.98952637 57.82861328 5.98413086 C54.59408438 5.96339333 51.35956944 5.95035016 48.125 5.9375 C46.99707031 5.92912109 45.86914062 5.92074219 44.70703125 5.91210938 C43.63066406 5.90888672 42.55429688 5.90566406 41.4453125 5.90234375 C39.95281982 5.89448853 39.95281982 5.89448853 38.43017578 5.88647461 C35.99039227 5.8360585 35.99039227 5.8360585 34 7 C32.53759542 7.09539378 31.07097986 7.13073481 29.60546875 7.1328125 C28.29545898 7.13474609 28.29545898 7.13474609 26.95898438 7.13671875 C26.04439453 7.13285156 25.12980469 7.12898438 24.1875 7.125 C22.83301758 7.13080078 22.83301758 7.13080078 21.45117188 7.13671875 C10.6813386 7.1208924 10.6813386 7.1208924 6 4 C4.00787329 2.98440599 2.0088485 1.98210371 0 1 C0 0.67 0 0.34 0 0 Z " fill="#E5DFDE" transform="translate(76,443)"/>
    <path d="M0 0 C0.33 0 0.66 0 1 0 C1.01981934 0.7943042 1.03963867 1.5886084 1.06005859 2.40698242 C1.71477252 27.95348578 2.80783658 53.47347322 4 79 C0.9317806 75.9317806 1.65703941 72.248888 1.5625 68.125 C1.3676185 62.64548024 1.13591283 57.58377467 -0.5 52.3125 C-2.30883734 46.11457206 -2.48881709 39.91364928 -2.75 33.5 C-2.79447266 32.43563721 -2.83894531 31.37127441 -2.88476562 30.2746582 C-3.02601409 25.94130776 -3.12861629 22.1972411 -2 18 C-1.87154524 16.64476921 -1.77890183 15.28575657 -1.71875 13.92578125 C-1.68136719 13.17619141 -1.64398438 12.42660156 -1.60546875 11.65429688 C-1.53462953 10.08140384 -1.4643248 8.50848665 -1.39453125 6.93554688 C-1.10210276 1.10210276 -1.10210276 1.10210276 0 0 Z " fill="#DCD8D9" transform="translate(3,286)"/>
    <path d="M0 0 C0.66 0.33 1.32 0.66 2 1 C2.5625 3.109375 2.5625 3.109375 3 5.75 C3.66500063 9.41789409 4.55159173 12.56003037 6 16 C12.00099352 35.41497903 13.34195822 68.68754498 3.9453125 87.1328125 C1.01987055 92.91116477 0.19429731 99.68547062 -1 106 C-1.66 106 -2.32 106 -3 106 C-2.24382444 99.1041303 -1.12399981 92.82276354 1.5 86.375 C8.99777368 67.85108856 7.74280641 45.57545054 6 26 C5.67 26 5.34 26 5 26 C4.67 21.71 4.34 17.42 4 13 C3.01 13 2.02 13 1 13 C-0.32229189 10.35541621 -0.09677194 8.32238699 -0.0625 5.375 C-0.05347656 4.37210938 -0.04445313 3.36921875 -0.03515625 2.3359375 C-0.01775391 1.17964844 -0.01775391 1.17964844 0 0 Z " fill="#32C29D" transform="translate(368,176)"/>
    <path d="M0 0 C5.20992088 1.49672766 9.55839306 3.81917134 14.1875 6.5625 C14.93128906 7.00142578 15.67507813 7.44035156 16.44140625 7.89257812 C32.1957648 17.39152961 32.1957648 17.39152961 35 23 C31.58978257 22.21302675 28.31114834 21.12880057 25 20 C24.34 20.66 23.68 21.32 23 22 C20.375 21.625 20.375 21.625 18 21 C18.33 18.69 18.66 16.38 19 14 C14.71 13.34 10.42 12.68 6 12 C6.66 10.02 7.32 8.04 8 6 C7.4225 5.7525 6.845 5.505 6.25 5.25 C3.6997003 3.83316683 1.98214299 2.12372463 0 0 Z " fill="#26C89E" transform="translate(290,89)"/>
    <path d="M0 0 C4.55686582 -0.58798269 7.67744855 1.04858252 11.6953125 2.92578125 C27.58062821 10.32995382 44.77025715 12.9905759 62 15 C62 15.66 62 16.32 62 17 C40.97277399 18.73619297 18.52017174 10.22736472 0 1 C0 0.67 0 0.34 0 0 Z " fill="#4CA88E" transform="translate(158,358)"/>
    <path d="M0 0 C0.33 0 0.66 0 1 0 C1.03738281 1.30453125 1.07476562 2.6090625 1.11328125 3.953125 C1.41688722 12.56051937 1.84478648 20.4891482 4.30859375 28.78515625 C5.42377129 33.97041679 5.49728103 39.21270448 5.62109375 44.50415039 C5.64429688 45.28653076 5.6675 46.06891113 5.69140625 46.875 C5.70373291 47.57367188 5.71605957 48.27234375 5.72875977 48.9921875 C6.04303348 51.31854845 6.85488815 52.96576596 8 55 C6.35 55 4.7 55 3 55 C-1.79922585 37.40283856 -0.11985949 18.0692798 0 0 Z " fill="#EFE9EA" transform="translate(0,312)"/>
    <path d="M0 0 C1.4014092 4.20422761 -0.44212542 6.62701534 -2.3125 10.375 C-5.81238808 17.55713505 -7.9772147 22.81771763 -9 31 C9.81 31.33 28.62 31.66 48 32 C48 32.33 48 32.66 48 33 C28.2 33.33 8.4 33.66 -12 34 C-12 24.9966239 -12 24.9966239 -10.13671875 20.80078125 C-9.74419922 19.90166016 -9.35167969 19.00253906 -8.94726562 18.07617188 C-8.53154297 17.16416016 -8.11582031 16.25214844 -7.6875 15.3125 C-7.28337891 14.38888672 -6.87925781 13.46527344 -6.46289062 12.51367188 C-4.54304335 8.17762656 -2.5926083 3.98540111 0 0 Z " fill="#48BF9E" transform="translate(98,151)"/>
    <path d="M0 0 C3.24785681 1.44836858 5.58526128 3.28636567 8.25 5.625 C19.3297953 14.57656483 32.42527886 19.2452899 46 23 C46 23.66 46 24.32 46 25 C36.33406261 23.50779308 26.65817864 20.60632164 18 16 C18 15.34 18 14.68 18 14 C12.69276568 12.57294366 8.46108889 11.5997208 3 13 C3.2475 12.113125 3.495 11.22625 3.75 10.3125 C4.36107295 6.89352748 4.36107295 6.89352748 2.0625 4.25 C1.381875 3.5075 0.70125 2.765 0 2 C0 1.34 0 0.68 0 0 Z " fill="#3BA88C" transform="translate(166,291)"/>
    <path d="M0 0 C17.27095511 14.20056309 34.50989813 33.52209363 42 55 C41.505 55.99 41.505 55.99 41 57 C38.47740939 55.02579865 38.0070192 54.03254358 37.3125 50.8125 C37.1578125 49.4203125 37.1578125 49.4203125 37 48 C36.34 48 35.68 48 35 48 C34.15885829 46.56705502 33.32734313 45.12845595 32.5 43.6875 C32.0359375 42.88699219 31.571875 42.08648437 31.09375 41.26171875 C30 39 30 39 30 36 C29.34 36 28.68 36 28 36 C27.67 35.01 27.34 34.02 27 33 C26.34 32.67 25.68 32.34 25 32 C25 31.01 25 30.02 25 29 C24.01 28.67 23.02 28.34 22 28 C19 23.66666667 19 23.66666667 19 21 C18.34 21 17.68 21 17 21 C16.608125 20.29875 16.21625 19.5975 15.8125 18.875 C13.80066187 15.68380848 11.60120275 13.79354951 8.71875 11.41796875 C6.66853895 9.72654464 4.77096326 7.98347885 3 6 C3 5.34 3 4.68 3 4 C2.34 4 1.68 4 1 4 C0.67 2.68 0.34 1.36 0 0 Z " fill="#3DA78F" transform="translate(326,112)"/>
    <path d="M0 0 C2.60700463 0.37644248 3.75687341 0.7343842 5.5625 2.70703125 C6.036875 3.40183594 6.51125 4.09664062 7 4.8125 C8.65049513 7.1531266 10.12567491 9.1220842 12.1875 11.125 C15.73058475 14.79026009 17.17859254 18.3333749 17.1875 23.375 C17.0946875 25.169375 17.0946875 25.169375 17 27 C16.34 27 15.68 27 15 27 C13.02 23.04 11.04 19.08 9 15 C8.34 15 7.68 15 7 15 C5.88958318 12.85848185 4.91053789 10.76143437 4.0625 8.5 C2.99318168 5.98395689 1.64251823 4.16513767 0 2 C0 1.34 0 0.68 0 0 Z " fill="#E8E3E4" transform="translate(423,36)"/>
    <path d="M0 0 C0.33 0 0.66 0 1 0 C1.04898438 1.134375 1.09796875 2.26875 1.1484375 3.4375 C1.2235414 4.95835398 1.29908584 6.47918625 1.375 8 C1.4059375 8.74378906 1.436875 9.48757813 1.46875 10.25390625 C1.73753793 15.40567483 2.61063884 20.02992756 4 25 C5.32 25.33 6.64 25.66 8 26 C9.32 32.27 10.64 38.54 12 45 C9 42 9 42 7 39 C6.67 38.67 6.34 38.34 6 38 C5.34 38.66 4.68 39.32 4 40 C0.77245382 26.455833 -0.53292988 13.91539121 0 0 Z " fill="#DED7D9" transform="translate(0,341)"/>
    <path d="M0 0 C0.99 0.33 1.98 0.66 3 1 C3.33 1.99 3.66 2.98 4 4 C2.25 6 2.25 6 0 8 C-1.32 8 -2.64 8 -4 8 C-4.268125 8.598125 -4.53625 9.19625 -4.8125 9.8125 C-6 12 -6 12 -7.375 13.3125 C-8.98526466 14.98469792 -9.88838925 16.47618959 -11 18.5 C-12.40590766 21.05767048 -13.7491485 23.08677622 -16 25 C-14.64395061 13.47358015 -9.55745603 8.28460788 -1 1 C-0.67 0.67 -0.34 0.34 0 0 Z " fill="#EAE5E6" transform="translate(32,27)"/>
    <path d="M0 0 C2.51834106 -0.32279968 2.51834106 -0.32279968 5.73486328 -0.2487793 C6.93595734 -0.22853195 8.13705139 -0.20828461 9.37454224 -0.18742371 C11.32769852 -0.13138725 11.32769852 -0.13138725 13.3203125 -0.07421875 C14.66264193 -0.04618993 16.00499992 -0.01949906 17.34738159 0.00590515 C20.88233622 0.07640887 24.41661014 0.16511783 27.9510498 0.25756836 C31.55697577 0.34868334 35.1632484 0.4226528 38.76953125 0.49804688 C45.84678897 0.64854393 52.92346993 0.81826806 60 1 C60.495 1.99 60.495 1.99 61 3 C41.86 3 22.72 3 3 3 C2.67 3.99 2.34 4.98 2 6 C2.66 6.33 3.32 6.66 4 7 C3.34 9.31 2.68 11.62 2 14 C-1.14608258 10.58034502 -1.74940605 7.59422248 -2 3 C-1.34 2.01 -0.68 1.02 0 0 Z " fill="#38BA98" transform="translate(87,266)"/>
    <path d="M0 0 C5.32999074 0.92695491 10.4269218 2.58849172 15.5859375 4.18359375 C20.06127399 5.53418637 24.35466799 6.46070024 29 7 C29 7.33 29 7.66 29 8 C25.37 8 21.74 8 18 8 C20.97 8.99 23.94 9.98 27 11 C27 11.33 27 11.66 27 12 C17.74138541 11.56430049 5.1837015 10.31732544 -2 4 C-1.01 3.67 -0.02 3.34 1 3 C1 3.66 1 4.32 1 5 C3.97 5.33 6.94 5.66 10 6 C7.69717067 4.46478044 5.82137765 3.41642091 3.3125 2.375 C2.219375 1.92125 1.12625 1.4675 0 1 C0 0.67 0 0.34 0 0 Z " fill="#DBD3D3" transform="translate(59,436)"/>
    <path d="M0 0 C0.33 0.99 0.66 1.98 1 3 C0.2575 3.721875 -0.485 4.44375 -1.25 5.1875 C-3.99559988 7.88362128 -3.99559988 7.88362128 -6.0625 10.6875 C-8 13 -8 13 -9.92578125 13.890625 C-12.45068997 15.24104699 -13.5023648 16.72199739 -15.125 19.0625 C-17.80555556 22.90277778 -17.80555556 22.90277778 -20 24 C-21.28972718 26.28115011 -22.43204032 28.61628866 -23.5859375 30.96875 C-25 33 -25 33 -27.1640625 33.78125 C-27.76992187 33.8534375 -28.37578125 33.925625 -29 34 C-24.59244594 20.7531205 -9.73732166 9.49852675 0 0 Z " fill="#34B393" transform="translate(133,110)"/>
    <path d="M0 0 C4.5275381 2.79131405 8.07708815 5.8961271 11.625 9.875 C12.32109375 10.63103516 12.32109375 10.63103516 13.03125 11.40234375 C16.05558627 14.74278296 18.58239932 18.19767029 21 22 C20.67 22.66 20.34 23.32 20 24 C17.69 21.03 15.38 18.06 13 15 C12.01 15.495 12.01 15.495 11 16 C12.65 18.31 14.3 20.62 16 23 C15.67 23.66 15.34 24.32 15 25 C14.5153125 24.3709375 14.030625 23.741875 13.53125 23.09375 C9.02016338 17.3334394 4.29842885 12.04478067 -1 7 C2.58912412 7 3.10857029 7.66436554 5.6875 10 C6.31011719 10.556875 6.93273437 11.11375 7.57421875 11.6875 C8.04472656 12.120625 8.51523437 12.55375 9 13 C9 12.34 9 11.68 9 11 C8.34 10.67 7.68 10.34 7 10 C6.731875 9.401875 6.46375 8.80375 6.1875 8.1875 C4.65417341 5.36295101 2.49948878 3.97328061 0 2 C0 1.34 0 0.68 0 0 Z " fill="#DBD5D6" transform="translate(413,22)"/>
    <path d="M0 0 C0.33 0 0.66 0 1 0 C1.33 2.64 1.66 5.28 2 8 C1.34 8 0.68 8 0 8 C-0.33 12.62 -0.66 17.24 -1 22 C-1.99 22.33 -2.98 22.66 -4 23 C-4.33 25.31 -4.66 27.62 -5 30 C-5.33 30 -5.66 30 -6 30 C-6.22428282 22.05042008 -5.95403042 14.72888819 -4 7 C-3.34 7 -2.68 7 -2 7 C-1.855625 6.030625 -1.71125 5.06125 -1.5625 4.0625 C-1 1 -1 1 0 0 Z " fill="#E7DEE1" transform="translate(6,74)"/>
    <path d="M0 0 C2.0625 0.4375 2.0625 0.4375 4 1 C-1.78244255 5.29976497 -7.70746995 8 -15 8 C-15 8.66 -15 9.32 -15 10 C-15.66 10 -16.32 10 -17 10 C-17.33 10.66 -17.66 11.32 -18 12 C-18 11.34 -18 10.68 -18 10 C-18.86625 10.33 -19.7325 10.66 -20.625 11 C-23.95718275 11.98731341 -26.55159538 12.16420974 -30 12 C-30 12.66 -30 13.32 -30 14 C-33.63 14 -37.26 14 -41 14 C-41 13.67 -41 13.34 -41 13 C-40.33613281 12.87882812 -39.67226562 12.75765625 -38.98828125 12.6328125 C-33.56816395 11.64439902 -33.56816395 11.64439902 -28.375 9.875 C-24.86614742 8.58226484 -21.72515472 8.87372357 -18 9 C-18 8.34 -18 7.68 -18 7 C-16.02 6.67 -14.04 6.34 -12 6 C-12 5.34 -12 4.68 -12 4 C-10.82630859 3.69255859 -10.82630859 3.69255859 -9.62890625 3.37890625 C-8.61699219 3.10949219 -7.60507812 2.84007812 -6.5625 2.5625 C-5.55316406 2.29566406 -4.54382813 2.02882813 -3.50390625 1.75390625 C-1.08247999 1.24021923 -1.08247999 1.24021923 0 0 Z " fill="#37BF9A" transform="translate(290,358)"/>
    <path d="M0 0 C14.0692055 -1.01096087 27.67319405 2.71528325 40.9375 7.0625 C41.68854004 7.30758301 42.43958008 7.55266602 43.21337891 7.80517578 C46.93258812 9.08191924 50.03198848 10.38845984 53 13 C48.02618116 12.04132743 43.69830513 10.88375642 39.09375 8.72265625 C35.16156426 7.36546528 31.00471793 7.02964579 26.890625 6.52734375 C24 6 24 6 21 4 C18.68566325 3.45352178 18.68566325 3.45352178 16.11328125 3.1484375 C15.17548828 3.01953125 14.23769531 2.890625 13.27148438 2.7578125 C11.80678711 2.56832031 11.80678711 2.56832031 10.3125 2.375 C8.83040039 2.17390625 8.83040039 2.17390625 7.31835938 1.96875 C4.87975003 1.6388898 2.44040404 1.31626065 0 1 C0 0.67 0 0.34 0 0 Z " fill="#53B49F" transform="translate(236,76)"/>
    <path d="M0 0 C0 0.33 0 0.66 0 1 C-1.11375 1.309375 -2.2275 1.61875 -3.375 1.9375 C-6.7945155 2.82326483 -6.7945155 2.82326483 -9 4 C-10.6674606 4.08426094 -12.33825187 4.10725143 -14.0078125 4.09765625 C-14.99394531 4.09443359 -15.98007812 4.09121094 -16.99609375 4.08789062 C-18.02863281 4.07951172 -19.06117188 4.07113281 -20.125 4.0625 C-21.68541016 4.05573242 -21.68541016 4.05573242 -23.27734375 4.04882812 C-25.85161962 4.03701952 -28.42578146 4.02055075 -31 4 C-31 3.34 -31 2.68 -31 2 C-31.66 1.67 -32.32 1.34 -33 1 C-21.98906587 -0.12520495 -11.05561292 -0.09920291 0 0 Z " fill="#EBE8E6" transform="translate(343,445)"/>
    <path d="M0 0 C0.66 0.99 1.32 1.98 2 3 C-0.62986812 5.62986812 -2.76228325 5.821272 -6.375 6.625 C-7.51710938 6.88539063 -8.65921875 7.14578125 -9.8359375 7.4140625 C-13 8 -13 8 -17 8 C-17 7.34 -17 6.68 -17 6 C-20.63 6 -24.26 6 -28 6 C-28.33 5.34 -28.66 4.68 -29 4 C-28.44127197 3.9498877 -27.88254395 3.89977539 -27.30688477 3.84814453 C-24.72483727 3.61309799 -22.14370726 3.36909441 -19.5625 3.125 C-18.24475586 3.00705078 -18.24475586 3.00705078 -16.90039062 2.88671875 C-11.12686317 2.33280099 -5.63815054 1.3650863 0 0 Z " fill="#E2DDDD" transform="translate(376,440)"/>
    <path d="M0 0 C1.28132812 0.00193359 2.56265625 0.00386719 3.8828125 0.00585938 C4.86701172 0.01516479 4.86701172 0.01516479 5.87109375 0.0246582 C7.89856315 0.04311211 9.9255797 0.04516616 11.953125 0.04492188 C21.86742184 0.09007809 21.86742184 0.09007809 23.0078125 1.23046875 C25.00566179 1.19824537 27.00401303 1.16237832 29 1.0703125 C31.0078125 1.23046875 31.0078125 1.23046875 34.0078125 3.23046875 C33.6778125 3.89046875 33.3478125 4.55046875 33.0078125 5.23046875 C32.4305542 5.08754395 31.8532959 4.94461914 31.25854492 4.79736328 C21.95893476 2.78430843 12.77830489 3.00664695 3.3203125 3.10546875 C1.63607305 3.11552197 -0.04817223 3.12464367 -1.73242188 3.1328125 C-5.81915687 3.15463279 -9.90560625 3.18903239 -13.9921875 3.23046875 C-13.9921875 2.90046875 -13.9921875 2.57046875 -13.9921875 2.23046875 C-9.16163917 0.67611488 -5.12393655 -0.01796513 0 0 Z " fill="#30BA91" transform="translate(220.9921875,132.76953125)"/>
    <path d="M0 0 C-1.98 0.99 -1.98 0.99 -4 2 C-4 2.66 -4 3.32 -4 4 C-4.54269531 4.19335938 -5.08539063 4.38671875 -5.64453125 4.5859375 C-6.35996094 4.84632812 -7.07539063 5.10671875 -7.8125 5.375 C-8.52019531 5.63023438 -9.22789062 5.88546875 -9.95703125 6.1484375 C-12.24773359 7.0265769 -12.24773359 7.0265769 -15 9 C-15.99 9 -16.98 9 -18 9 C-18.3403125 9.9590625 -18.3403125 9.9590625 -18.6875 10.9375 C-20 13 -20 13 -22.625 13.75 C-23.40875 13.8325 -24.1925 13.915 -25 14 C-25.33 14.99 -25.66 15.98 -26 17 C-28.0625 17.6875 -28.0625 17.6875 -30 18 C-30 18.66 -30 19.32 -30 20 C-31.32 20.33 -32.64 20.66 -34 21 C-32.61831539 17.70809346 -31.22276308 16.15040468 -28.25390625 14.1953125 C-27.50375244 13.69668701 -26.75359863 13.19806152 -25.98071289 12.68432617 C-24.78369751 11.91245972 -24.78369751 11.91245972 -23.5625 11.125 C-22.75224365 10.59559814 -21.9419873 10.06619629 -21.10717773 9.52075195 C-4.22844766 -1.40948255 -4.22844766 -1.40948255 0 0 Z " fill="#3AB396" transform="translate(169,90)"/>
    <path d="M0 0 C0.66 0.33 1.32 0.66 2 1 C1.44570313 1.66386719 0.89140625 2.32773437 0.3203125 3.01171875 C-0.76636719 4.33623047 -0.76636719 4.33623047 -1.875 5.6875 C-2.59429687 6.55761719 -3.31359375 7.42773438 -4.0546875 8.32421875 C-6.0810681 10.88101847 -6.0810681 10.88101847 -7.08203125 13.70703125 C-8.44228545 17.1047726 -10.95083341 18.08679743 -14 20 C-14.845625 20.86625 -15.69125 21.7325 -16.5625 22.625 C-19.02594963 25.02528425 -20.82169615 25.85227917 -24 27 C-24.33 27.66 -24.66 28.32 -25 29 C-26.32 28.67 -27.64 28.34 -29 28 C-28.27296875 27.48953125 -27.5459375 26.9790625 -26.796875 26.453125 C-16.57213837 19.0598539 -6.83511885 10.74090105 0 0 Z " fill="#43AF94" transform="translate(304,275)"/>
    <path d="M0 0 C5.20992088 1.49672766 9.55839306 3.81917134 14.1875 6.5625 C14.93128906 7.00142578 15.67507813 7.44035156 16.44140625 7.89257812 C32.1957648 17.39152961 32.1957648 17.39152961 35 23 C31.14229986 22.44889998 29.65639353 20.73689031 27 18 C25.35178756 16.96986723 23.68496298 15.96885372 22 15 C21.34 14.484375 20.68 13.96875 20 13.4375 C17.7709782 11.83539058 15.57349878 10.929319 13 10 C13 9.34 13 8.68 13 8 C12.34 7.95875 11.68 7.9175 11 7.875 C6.6448332 6.60474302 3.39524475 3.96557358 0 1 C0 0.67 0 0.34 0 0 Z " fill="#3DAC92" transform="translate(290,89)"/>
    <path d="M0 0 C0.33 0 0.66 0 1 0 C1.0498487 4.12593843 1.08592957 8.25175752 1.10986328 12.37792969 C1.11985248 13.77835142 1.13344854 15.17875268 1.15087891 16.57910156 C1.24048615 23.96906389 1.32144933 30.90769811 -1 38 C-1.33 38 -1.66 38 -2 38 C-2.10252381 28.46528532 -2.04308491 18.96256533 -1.5625 9.4375 C-1.52326416 8.61080811 -1.48402832 7.78411621 -1.44360352 6.93237305 C-1.12394681 1.12394681 -1.12394681 1.12394681 0 0 Z " fill="#E0D9DA" transform="translate(447,304)"/>
    <path d="M0 0 C0.33 0 0.66 0 1 0 C1 1.65 1 3.3 1 5 C1.66 5 2.32 5 3 5 C3.19876297 8.83283505 3.38195792 12.66626688 3.5625 16.5 C3.61857422 17.57765625 3.67464844 18.6553125 3.73242188 19.765625 C4.00236528 25.66838755 3.95594719 31.16518157 3 37 C2.34 36.67 1.68 36.34 1 36 C0.31055478 23.98395472 -0.15130716 12.03732485 0 0 Z " fill="#E3DBDC" transform="translate(445,107)"/>
    <path d="M0 0 C1.05361975 3.2355579 0.91737261 5.31240682 0.07421875 8.58984375 C-0.14556641 9.45673828 -0.36535156 10.32363281 -0.59179688 11.21679688 C-0.82962891 12.11462891 -1.06746094 13.01246094 -1.3125 13.9375 C-1.53873047 14.83146484 -1.76496094 15.72542969 -1.99804688 16.64648438 C-3.09008948 20.88562381 -4.21600369 24.98810218 -6 29 C-6.66 28.34 -7.32 27.68 -8 27 C-9.31747324 26.30251417 -10.64914193 25.63040043 -12 25 C-11.01 22.36 -10.02 19.72 -9 17 C-8.01 17.33 -7.02 17.66 -6 18 C-6 18.66 -6 19.32 -6 20 C-5.34 20 -4.68 20 -4 20 C-3.96261719 19.39414062 -3.92523438 18.78828125 -3.88671875 18.1640625 C-3.3859239 11.78138306 -2.04935314 6.05783632 0 0 Z " fill="#E2DBDB" transform="translate(448,363)"/>
    <path d="M0 0 C2.18023178 2.18023178 2.57147082 3.319754 3.4375 6.21875 C3.69273437 7.06953125 3.94796875 7.9203125 4.2109375 8.796875 C4.47132813 9.68890625 4.73171875 10.5809375 5 11.5 C5.26039063 12.36109375 5.52078125 13.2221875 5.7890625 14.109375 C8.01476314 21.61830445 10.18121721 29.11705151 10 37 C9.34 36.67 8.68 36.34 8 36 C7.24200519 33.10126203 6.58808807 30.24604869 6 27.3125 C4.70390025 20.99907661 3.14280189 15.04747171 0.875 9 C-0.04338284 5.85125882 -0.15530533 3.26141197 0 0 Z " fill="#53AA94" transform="translate(368,170)"/>
    <path d="M0 0 C0.33 0.66 0.66 1.32 1 2 C1.66 2 2.32 2 3 2 C4.04976964 5.14930893 4.10131595 7.38814456 4.0625 10.6875 C4.05347656 11.68136719 4.04445313 12.67523438 4.03515625 13.69921875 C4.02355469 14.45847656 4.01195312 15.21773437 4 16 C3.34 15.67 2.68 15.34 2 15 C1.67 19.95 1.34 24.9 1 30 C0.67 30 0.34 30 0 30 C0 28.35 0 26.7 0 25 C-0.66 24.67 -1.32 24.34 -2 24 C-1.34 24 -0.68 24 0 24 C-0.165 23.21625 -0.33 22.4325 -0.5 21.625 C-1.50589398 14.33226861 -1.07523937 7.25786573 0 0 Z " fill="#ECE2E5" transform="translate(446,82)"/>
    <path d="M0 0 C2.64 0.99 5.28 1.98 8 3 C8 3.66 8 4.32 8 5 C12.95 6.98 12.95 6.98 18 9 C17.67 9.66 17.34 10.32 17 11 C10.375 10.25 10.375 10.25 7 8 C6.01 8.33 5.02 8.66 4 9 C3.566875 8.54625 3.13375 8.0925 2.6875 7.625 C0.89201658 5.79975666 0.89201658 5.79975666 -2 4 C-2 3.34 -2 2.68 -2 2 C-1.34 2 -0.68 2 0 2 C0 1.34 0 0.68 0 0 Z " fill="#EDE6E6" transform="translate(52,432)"/>
    <path d="M0 0 C3.45567984 1.15189328 3.6572028 1.66117943 5.375 4.6875 C9.20019499 11.31345271 9.20019499 11.31345271 15 16 C15 16.66 15 17.32 15 18 C15.5775 18.2475 16.155 18.495 16.75 18.75 C19.30271053 20.16817251 20.97785609 21.91045129 23 24 C23.66 24.33 24.32 24.66 25 25 C24.67 25.99 24.34 26.98 24 28 C15.11179521 20.59316267 6.65082386 12.52976845 0 3 C0 2.01 0 1.02 0 0 Z " fill="#35A58B" transform="translate(108,312)"/>
    <path d="M0 0 C1.82421875 0.21875 1.82421875 0.21875 4 1 C5.45703125 2.96875 5.45703125 2.96875 6.8125 5.5 C9.39751344 10.119883 12.3417656 14.07072791 15.77734375 18.08984375 C16.18082031 18.72019531 16.58429688 19.35054688 17 20 C16.67 20.99 16.34 21.98 16 23 C11.82616605 19.07168569 8.10605574 14.83520017 5 10 C5 9.34 5 8.68 5 8 C4.34 8 3.68 8 3 8 C2.67 6.02 2.34 4.04 2 2 C1.34 2 0.68 2 0 2 C0 1.34 0 0.68 0 0 Z " fill="#44AA8C" transform="translate(148,269)"/>
    <path d="M0 0 C0.99 0.495 0.99 0.495 2 1 C2 1.66 2 2.32 2 3 C2.99 3.33 3.98 3.66 5 4 C5.87890625 6.1796875 5.87890625 6.1796875 6.5625 8.875 C7.41532366 12.18029394 8.07314984 14.10972477 10 17 C11.29151462 20.61624093 11.07311866 24.19782962 11 28 C10.34 28 9.68 28 9 28 C8.52820313 26.31583984 8.52820313 26.31583984 8.046875 24.59765625 C5.82239736 16.77925875 3.48847485 9.36455802 0 2 C0 1.34 0 0.68 0 0 Z " fill="#44B39A" transform="translate(308,182)"/>
    <path d="M0 0 C-1 1.9375 -1 1.9375 -3 4 C-4.88318926 4.26430726 -6.77103048 4.51470159 -8.66796875 4.6484375 C-12.33575709 5.20137042 -15.53258181 6.74682465 -18.8984375 8.2578125 C-19.59195313 8.50273437 -20.28546875 8.74765625 -21 9 C-21.66 8.67 -22.32 8.34 -23 8 C-21.25 4.125 -21.25 4.125 -19 3 C-17.56606347 2.82251866 -16.1275036 2.68108853 -14.6875 2.5625 C-9.48611623 2.04652273 -5.26937626 -0.30110721 0 0 Z " fill="#33C39D" transform="translate(207,136)"/>
    <path d="M0 0 C0.66 0.33 1.32 0.66 2 1 C2.02483101 5.44742458 2.04292183 9.89481178 2.05493164 14.34228516 C2.05994162 15.85336002 2.06675144 17.36443009 2.07543945 18.87548828 C2.08765176 21.05502512 2.09326178 23.23449753 2.09765625 25.4140625 C2.10289307 26.7232666 2.10812988 28.0324707 2.11352539 29.38134766 C2.00972117 32.69013513 1.63432368 35.75595018 1 39 C0.01 39 -0.98 39 -2 39 C-1.855625 38.195625 -1.71125 37.39125 -1.5625 36.5625 C0.36031583 24.38466643 0.19871029 12.30322381 0 0 Z " fill="#40B096" transform="translate(318,211)"/>
    <path d="M0 0 C3.40312738 1.05875074 6.01353231 2.00902154 9 4 C9 4.66 9 5.32 9 6 C10.4540625 6.4021875 10.4540625 6.4021875 11.9375 6.8125 C12.948125 7.204375 13.95875 7.59625 15 8 C15.33 8.99 15.66 9.98 16 11 C17.83284443 12.12516085 17.83284443 12.12516085 20 13 C21.33333333 13.66666667 22.66666667 14.33333333 24 15 C24 15.66 24 16.32 24 17 C14.99988272 13.76918867 6.94737365 7.47368908 0 1 C0 0.67 0 0.34 0 0 Z " fill="#3CA58B" transform="translate(133,340)"/>
    <path d="M0 0 C-5.5 4 -5.5 4 -10 4 C-10.3403125 4.86625 -10.3403125 4.86625 -10.6875 5.75 C-12.33038023 8.5663661 -14.39533227 10.08077114 -17 12 C-17.66 11.67 -18.32 11.34 -19 11 C-18.1875 9.0625 -18.1875 9.0625 -17 7 C-16.01 6.67 -15.02 6.34 -14 6 C-13.814375 5.071875 -13.814375 5.071875 -13.625 4.125 C-13 2 -13 2 -10.6875 0.3125 C-6.2911268 -1.83456598 -4.33262505 -2.63052235 0 0 Z " fill="#E9E2E2" transform="translate(55,15)"/>
    <path d="M0 0 C1.65 0 3.3 0 5 0 C5.12375 1.546875 5.12375 1.546875 5.25 3.125 C5.74947729 7.05854577 5.74947729 7.05854577 8.0625 10.0625 C10.25728769 13.39008134 10.37144981 15.09977695 10 19 C6.73431212 16.27691872 5.13812687 12.68403698 3.3125 8.9375 C2.99216797 8.30005859 2.67183594 7.66261719 2.34179688 7.00585938 C0 2.26734075 0 2.26734075 0 0 Z " fill="#3EB795" transform="translate(89,281)"/>
    <path d="M0 0 C5.94 1.485 5.94 1.485 12 3 C12 3.66 12 4.32 12 5 C14.475 5.99 14.475 5.99 17 7 C14.15610473 8.42194764 12.23994018 7.75265538 9.125 7.25 C8.07570313 7.09015625 7.02640625 6.9303125 5.9453125 6.765625 C2.94474357 5.98563626 1.30598534 5.0274847 -1 3 C-0.67 2.01 -0.34 1.02 0 0 Z " fill="#E5E0DE" transform="translate(374,3)"/>
    <path d="M0 0 C2.37310654 3.55965981 2.26915041 5.21962224 2.25 9.4375 C2.25515625 10.57058594 2.2603125 11.70367187 2.265625 12.87109375 C2.01398568 15.83525691 1.54596941 17.50313671 0 20 C-1.32 19.01 -2.64 18.02 -4 17 C-3.79503906 16.443125 -3.59007812 15.88625 -3.37890625 15.3125 C-1.56121505 10.16382446 -0.49429453 5.43723984 0 0 Z " fill="#F0E6E9" transform="translate(447,341)"/>
    <path d="M0 0 C0.66 0 1.32 0 2 0 C0.76934247 4.64915066 -1.67144104 6.62729753 -5.265625 9.5234375 C-7.51136091 11.4353478 -9.17645415 13.69017526 -11 16 C-14.41069324 19.0516729 -17.86024451 21.06811411 -22 23 C-22.66 23.33 -23.32 23.66 -24 24 C-23.3125 22.0625 -23.3125 22.0625 -22 20 C-19.375 19.25 -19.375 19.25 -17 19 C-16.67 18.01 -16.34 17.02 -16 16 C-15.360625 15.855625 -14.72125 15.71125 -14.0625 15.5625 C-13.381875 15.376875 -12.70125 15.19125 -12 15 C-11.7215625 14.42378906 -11.443125 13.84757812 -11.15625 13.25390625 C-9.68798951 10.39179036 -7.75358333 8.59814259 -5.4375 6.375 C-2.30957946 3.48929319 -2.30957946 3.48929319 0 0 Z " fill="#33C29B" transform="translate(337,323)"/>
    <path d="M0 0 C0.66 0 1.32 0 2 0 C2.33 1.98 2.66 3.96 3 6 C3.66 6 4.32 6 5 6 C5.38922918 7.28745036 5.76098036 8.58019597 6.125 9.875 C6.33382813 10.59429687 6.54265625 11.31359375 6.7578125 12.0546875 C6.83773438 12.69664063 6.91765625 13.33859375 7 14 C6.34 14.66 5.68 15.32 5 16 C4.01 16 3.02 16 2 16 C1.67 12.37 1.34 8.74 1 5 C0.01 4.67 -0.98 4.34 -2 4 C-1.34 2.68 -0.68 1.36 0 0 Z " fill="#E7E0E2" transform="translate(441,65)"/>
    <path d="M0 0 C0 0.66 0 1.32 0 2 C-2.54093855 2.64881448 -5.08268273 3.29412899 -7.625 3.9375 C-8.69427734 4.21110352 -8.69427734 4.21110352 -9.78515625 4.49023438 C-15.66332485 5.97325856 -21.27868494 7.14488264 -27.375 7.0625 C-28.68597656 7.04896484 -28.68597656 7.04896484 -30.0234375 7.03515625 C-31.00183594 7.01775391 -31.00183594 7.01775391 -32 7 C-32 6.67 -32 6.34 -32 6 C-25.1834265 4.2120463 -19.03482474 3.76331431 -12 4 C-12 3.34 -12 2.68 -12 2 C-10.56342755 1.66269158 -9.12569907 1.33030409 -7.6875 1 C-6.48673828 0.7215625 -6.48673828 0.7215625 -5.26171875 0.4375 C-3 0 -3 0 0 0 Z " fill="#4FA58D" transform="translate(272,368)"/>
    <path d="M0 0 C-9.14189189 7.75675676 -9.14189189 7.75675676 -14.9375 8.25 C-15.618125 8.1675 -16.29875 8.085 -17 8 C-17 7.34 -17 6.68 -17 6 C-16.195625 5.71125 -15.39125 5.4225 -14.5625 5.125 C-11.8673532 4.26737432 -11.8673532 4.26737432 -11 2 C-10.34 2 -9.68 2 -9 2 C-9 1.34 -9 0.68 -9 0 C-5.93109813 -1.53445094 -3.29905734 -0.54984289 0 0 Z " fill="#41B196" transform="translate(316,348)"/>
    <path d="M0 0 C-0.33 0.99 -0.66 1.98 -1 3 C1.31 3.33 3.62 3.66 6 4 C6 5.32 6 6.64 6 8 C1.6520818 7.34122452 -1.97417319 5.72535435 -6 4 C-8.77888613 3.30859478 -8.77888613 3.30859478 -11 3 C-11 2.34 -11 1.68 -11 1 C-7.27569643 0.30710631 -3.78916254 -0.11144596 0 0 Z " fill="#2BC79C" transform="translate(266,135)"/>
    <path d="M0 0 C0.33 0 0.66 0 1 0 C0.67 3.3 0.34 6.6 0 10 C0.99 9.67 1.98 9.34 3 9 C2.67 10.65 2.34 12.3 2 14 C1.360625 14.12375 0.72125 14.2475 0.0625 14.375 C-0.618125 14.58125 -1.29875 14.7875 -2 15 C-2.33 15.66 -2.66 16.32 -3 17 C-2.34 17.33 -1.68 17.66 -1 18 C-1.99 18 -2.98 18 -4 18 C-4.51137226 11.09647445 -2.86964374 6.25172386 0 0 Z " fill="#28C49B" transform="translate(93,164)"/>
    <path d="M0 0 C4.09274885 1.57413417 7.35956013 4.54102377 10 8 C10 8.99 10 9.98 10 11 C10.66 11 11.32 11 12 11 C12.9765625 12.79036458 13.953125 14.58072917 14.9296875 16.37109375 C15.91410024 18.16618315 15.91410024 18.16618315 18 19 C17.67 19.99 17.34 20.98 17 22 C14.63719073 19.85199157 13.41659766 17.83319533 12 15 C11.34 14.67 10.68 14.34 10 14 C10 13.34 10 12.68 10 12 C9.01 12 8.02 12 7 12 C6.38125 10.3603125 6.38125 10.3603125 5.75 8.6875 C4.38277962 5.44280475 2.97594201 3.94975511 0 2 C0 1.34 0 0.68 0 0 Z " fill="#2DC5A0" transform="translate(333,122)"/>
    <path d="M0 0 C1 2 1 2 0.3984375 4.06640625 C-2.01859062 9.96137177 -4.76476185 15.51070248 -8 21 C-8.66 21 -9.32 21 -10 21 C-10.66 22.32 -11.32 23.64 -12 25 C-12 21.7 -12 18.4 -12 15 C-11.23042969 14.92265625 -10.46085937 14.8453125 -9.66796875 14.765625 C-6.90110124 14.25002357 -6.90110124 14.25002357 -5.48828125 12.109375 C-5.10027344 11.33078125 -4.71226562 10.5521875 -4.3125 9.75 C-3.90257812 8.94175781 -3.49265625 8.13351562 -3.0703125 7.30078125 C-1.95216733 4.89717722 -0.88687896 2.49938617 0 0 Z " fill="#2FC69E" transform="translate(364,282)"/>
    <path d="M0 0 C0.99 0 1.98 0 3 0 C3 1.98 3 3.96 3 6 C-0.98188718 7.71767682 -4.96479403 9.41037341 -9 11 C-8.071875 9.88625 -8.071875 9.88625 -7.125 8.75 C-5.39562719 6.51198812 -4.13893339 4.56260013 -3 2 C-2.34 2.33 -1.68 2.66 -1 3 C-0.67 2.01 -0.34 1.02 0 0 Z " fill="#EEE8EA" transform="translate(424,410)"/>
    <path d="M0 0 C0.66 0.33 1.32 0.66 2 1 C1.67 1.66 1.34 2.32 1 3 C2.98 2.67 4.96 2.34 7 2 C2.08295191 7.57265451 -4.58404216 12.56133843 -12 14 C-9.0098979 10.66488612 -6.10501426 8.78478881 -2 7 C-1.34 7 -0.68 7 0 7 C-0.66 6.34 -1.32 5.68 -2 5 C-2 2 -2 2 0 0 Z " fill="#DCD7D8" transform="translate(407,425)"/>
    <path d="M0 0 C2 1 2 1 3 3 C2.67 3.99 2.34 4.98 2 6 C2.66 6.33 3.32 6.66 4 7 C3.34 9.31 2.68 11.62 2 14 C-1.14608258 10.58034502 -1.74940605 7.59422248 -2 3 C-1.34 2.01 -0.68 1.02 0 0 Z " fill="#49BB9D" transform="translate(87,266)"/>
    <path d="M0 0 C-0.99 1.485 -0.99 1.485 -2 3 C-0.68 2.67 0.64 2.34 2 2 C2 2.66 2 3.32 2 4 C2.99 4.33 3.98 4.66 5 5 C6.6875 6.5625 6.6875 6.5625 8 8 C7.01 8.33 6.02 8.66 5 9 C2.08203125 7.41796875 2.08203125 7.41796875 -1.1875 5.1875 C-2.27417969 4.45917969 -3.36085938 3.73085938 -4.48046875 2.98046875 C-5.31191406 2.32691406 -6.14335937 1.67335938 -7 1 C-7 0.34 -7 -0.32 -7 -1 C-3.51418144 -2.2020064 -3.32007656 -2.21338437 0 0 Z " fill="#EEE7E6" transform="translate(400,13)"/>
    <path d="M0 0 C1.28300777 2.56601555 0.85098078 3.66479324 0.25 6.4375 C0.01023437 7.61119141 0.01023437 7.61119141 -0.234375 8.80859375 C-1.09661168 11.2765263 -1.96176751 12.3874426 -4 14 C-6.6875 14.6875 -6.6875 14.6875 -9 15 C-3.2 4.8 -3.2 4.8 0 0 Z " fill="#28C597" transform="translate(309,269)"/>
    <path d="M0 0 C1 2 1 2 0.0625 5.125 C-0.288125 6.07375 -0.63875 7.0225 -1 8 C-1.66 8 -2.32 8 -3 8 C-2.896875 8.86625 -2.79375 9.7325 -2.6875 10.625 C-3.11458943 15.23756587 -4.85042342 16.69294459 -8 20 C-8.33 19.34 -8.66 18.68 -9 18 C-8.29296875 16.265625 -8.29296875 16.265625 -7.1875 14.25 C-5.84886768 11.7194348 -4.83374352 9.49145077 -3.9375 6.75 C-2.9977429 3.99337919 -1.86913998 2.20898361 0 0 Z " fill="#2FBE96" transform="translate(103,144)"/>
    <path d="M0 0 C0.66 0 1.32 0 2 0 C2 0.66 2 1.32 2 2 C2.66 2.33 3.32 2.66 4 3 C2.906875 3.04125 1.81375 3.0825 0.6875 3.125 C-3.24996333 3.60565398 -3.24996333 3.60565398 -4.9375 7.0625 C-5.288125 8.031875 -5.63875 9.00125 -6 10 C-6.66 10 -7.32 10 -8 10 C-8 9.34 -8 8.68 -8 8 C-9.98 8.33 -11.96 8.66 -14 9 C-14 8.34 -14 7.68 -14 7 C-12.421924 6.15675328 -10.8372958 5.32576082 -9.25 4.5 C-8.36828125 4.0359375 -7.4865625 3.571875 -6.578125 3.09375 C-4 2 -4 2 0 2 C0 1.34 0 0.68 0 0 Z " fill="#28C9A0" transform="translate(165,92)"/>
    <path d="M0 0 C2.625 -0.1875 2.625 -0.1875 5 0 C4.125 6.75 4.125 6.75 3 9 C1.35 9 -0.3 9 -2 9 C-2.25 3.375 -2.25 3.375 0 0 Z " fill="#DFDADA" transform="translate(11,53)"/>
    <path d="M0 0 C0.99 0.33 1.98 0.66 3 1 C2.34 5.29 1.68 9.58 1 14 C-0.32 13.67 -1.64 13.34 -3 13 C-2.01 8.71 -1.02 4.42 0 0 Z " fill="#F0E6E7" transform="translate(443,369)"/>
    <path d="M0 0 C4.25209792 4.12324647 8.13635705 8.51282966 12 13 C11.01 13.33 10.02 13.66 9 14 C8.62875 13.34 8.2575 12.68 7.875 12 C6.09105222 9.64696955 6.09105222 9.64696955 2.8125 9.75 C1.4203125 9.87375 1.4203125 9.87375 0 10 C-0.66 8.68 -1.32 7.36 -2 6 C-0.02 6.99 -0.02 6.99 2 8 C1.34 5.36 0.68 2.72 0 0 Z " fill="#D6D2D3" transform="translate(21,403)"/>
    <path d="M0 0 C-1.61674681 3.42946293 -3.57597677 6.56263052 -5.625 9.75 C-6.57246094 11.22726563 -6.57246094 11.22726563 -7.5390625 12.734375 C-8.26222656 13.85585937 -8.26222656 13.85585937 -9 15 C-10.32 14.67 -11.64 14.34 -13 14 C-12.01 13.34 -11.02 12.68 -10 12 C-9.13975225 10.18157756 -9.13975225 10.18157756 -8.5625 8.125 C-6.96105252 3.51350201 -5.31540491 0 0 0 Z " fill="#54AB95" transform="translate(159,169)"/>
    <path d="M0 0 C1.57043101 0.01330874 3.14079971 0.03717648 4.7109375 0.0703125 C5.51273437 0.07933594 6.31453125 0.08835937 7.140625 0.09765625 C9.12252273 0.12125027 11.10426731 0.15712185 13.0859375 0.1953125 C13.0859375 0.5253125 13.0859375 0.8553125 13.0859375 1.1953125 C10.75784207 1.88004645 8.42355973 2.54384401 6.0859375 3.1953125 C5.2609375 3.4428125 4.4359375 3.6903125 3.5859375 3.9453125 C0.11162504 4.29274375 -2.63538467 3.28820511 -5.9140625 2.1953125 C-3.9140625 0.1953125 -3.9140625 0.1953125 0 0 Z " fill="#E3E0DE" transform="translate(329.9140625,444.8046875)"/>
    <path d="M0 0 C5.54742769 2.48677793 7.44111601 5.51667716 10 11 C7.69 11.66 5.38 12.32 3 13 C3.2475 12.113125 3.495 11.22625 3.75 10.3125 C4.36107295 6.89352748 4.36107295 6.89352748 2.0625 4.25 C1.381875 3.5075 0.70125 2.765 0 2 C0 1.34 0 0.68 0 0 Z " fill="#34BB96" transform="translate(166,291)"/>
    <path d="M0 0 C2.99801938 3.53361325 5.23912566 7.04589616 7.3125 11.1875 C7.84488281 12.23292969 8.37726563 13.27835938 8.92578125 14.35546875 C9.28027344 15.22816406 9.63476562 16.10085937 10 17 C9.67 17.66 9.34 18.32 9 19 C6.47740939 17.02579865 6.0070192 16.03254358 5.3125 12.8125 C5.209375 11.884375 5.10625 10.95625 5 10 C4.34 10 3.68 10 3 10 C0.96564469 6.27034861 0 4.33094958 0 0 Z " fill="#4CA38C" transform="translate(358,150)"/>
    <path d="M0 0 C0.33 0 0.66 0 1 0 C1.01981934 0.55461914 1.03963867 1.10923828 1.06005859 1.68066406 C1.15557651 4.20423693 1.26514567 6.72701224 1.375 9.25 C1.42140625 10.55904297 1.42140625 10.55904297 1.46875 11.89453125 C1.50742188 12.73886719 1.54609375 13.58320313 1.5859375 14.453125 C1.6173584 15.22817383 1.6487793 16.00322266 1.68115234 16.80175781 C2.03026506 19.20865742 2.80551104 20.89602295 4 23 C2.35 23 0.7 23 -1 23 C-2.125 17.25 -2.125 17.25 -1 15 C-0.76827173 12.45384991 -0.58105471 9.92603775 -0.4375 7.375 C-0.39431641 6.66859375 -0.35113281 5.9621875 -0.30664062 5.234375 C-0.20055249 3.48981463 -0.09977111 1.74493303 0 0 Z " fill="#E7E1E3" transform="translate(4,344)"/>
    <path d="M0 0 C2.475 0.495 2.475 0.495 5 1 C5 1.33 5 1.66 5 2 C6.98 2.66 8.96 3.32 11 4 C11 4.66 11 5.32 11 6 C12.134375 6.12375 13.26875 6.2475 14.4375 6.375 C15.613125 6.58125 16.78875 6.7875 18 7 C18.33 7.66 18.66 8.32 19 9 C17.5608866 8.71640113 16.12374482 8.42278601 14.6875 8.125 C13.88699219 7.96257812 13.08648437 7.80015625 12.26171875 7.6328125 C10 7 10 7 7 5 C4.67612053 4.60612212 2.34206251 4.26513915 0 4 C0 2.68 0 1.36 0 0 Z " fill="#32BE98" transform="translate(156,354)"/>
    <path d="M0 0 C1.37562854 1.28965176 2.70766393 2.62689293 4 4 C4 4.66 4 5.32 4 6 C4.99 6.33 5.98 6.66 7 7 C6.01 8.485 6.01 8.485 5 10 C1.27059611 8.75686537 0.15343189 7.23014784 -2 4 C-1 1 -1 1 0 0 Z " fill="#EAE4E4" transform="translate(32,417)"/>
    <path d="M0 0 C0 0.99 0 1.98 0 3 C-0.60328125 3.19335938 -1.2065625 3.38671875 -1.828125 3.5859375 C-2.62734375 3.84632813 -3.4265625 4.10671875 -4.25 4.375 C-5.03890625 4.63023437 -5.8278125 4.88546875 -6.640625 5.1484375 C-9.01062976 5.94423259 -9.01062976 5.94423259 -11.15625 7.125 C-13 8 -13 8 -15.25 7.625 C-15.8275 7.41875 -16.405 7.2125 -17 7 C-16.071875 6.731875 -15.14375 6.46375 -14.1875 6.1875 C-11.11446687 5.04264452 -10.12357987 4.31663259 -8 2 C-4.914097 0.1086401 -3.82679269 0 0 0 Z " fill="#2BB492" transform="translate(277,304)"/>
    <path d="M0 0 C0.66 0 1.32 0 2 0 C2.2475 1.27875 2.495 2.5575 2.75 3.875 C3.51990586 7.26747318 3.51990586 7.26747318 6.125 9.5 C6.74375 9.665 7.3625 9.83 8 10 C7.67 11.98 7.34 13.96 7 16 C5 13 5 13 5 10 C4.01 9.67 3.02 9.34 2 9 C0.3125 6.4375 0.3125 6.4375 -1 4 C-0.34 3.67 0.32 3.34 1 3 C0.67 2.01 0.34 1.02 0 0 Z " fill="#2DBF98" transform="translate(361,160)"/>
    <path d="M0 0 C2.1875 -0.3125 2.1875 -0.3125 5 0 C7.4375 2.1875 7.4375 2.1875 10 5 C11.07128456 5.88971091 12.15472887 6.76498997 13.25 7.625 C16 10 16 10 17 13 C16.01 12.67 15.02 12.34 14 12 C14 11.34 14 10.68 14 10 C13.01 10 12.02 10 11 10 C9.97971135 8.68212715 8.98028616 7.34789347 8 6 C7.01 5.67 6.02 5.34 5 5 C4.67 4.34 4.34 3.68 4 3 C1.98330173 1.86649466 1.98330173 1.86649466 0 1 C0 0.67 0 0.34 0 0 Z " fill="#2CCBA0" transform="translate(278,147)"/>
    <path d="M0 0 C1.171875 1.48828125 1.171875 1.48828125 2 4 C1.21703236 6.88354127 0.36395695 9.43925096 -0.75 12.1875 C-1.16765625 13.29254883 -1.16765625 13.29254883 -1.59375 14.41992188 C-3.71469643 19.85734821 -3.71469643 19.85734821 -6 21 C-5.71788123 19.3733152 -5.42397625 17.74867104 -5.125 16.125 C-4.96257812 15.22007812 -4.80015625 14.31515625 -4.6328125 13.3828125 C-4 11 -4 11 -2 9 C-1.32348793 6.80295489 -1.32348793 6.80295489 -0.875 4.375 C-0.62363281 3.14910156 -0.62363281 3.14910156 -0.3671875 1.8984375 C-0.24601562 1.27195312 -0.12484375 0.64546875 0 0 Z " fill="#5EA192" transform="translate(371,267)"/>
    <path d="M0 0 C2.4375 0.8125 2.4375 0.8125 5 2 C5.33 2.99 5.66 3.98 6 5 C5.34 5 4.68 5 4 5 C4.433125 5.433125 4.86625 5.86625 5.3125 6.3125 C6.875 7.875 8.4375 9.4375 10 11 C6.51329166 9.8905928 3.22515763 8.73662334 0 7 C0.33 6.01 0.66 5.02 1 4 C0.61067144 1.85744207 0.61067144 1.85744207 0 0 Z " fill="#D9D5D4" transform="translate(46,429)"/>
    <path d="M0 0 C7.82152466 0.03408072 7.82152466 0.03408072 10.7109375 2.40234375 C12.0625 4.0625 12.0625 4.0625 14 7 C12.2578125 7.67578125 12.2578125 7.67578125 10 8 C7.9296875 6.85546875 7.9296875 6.85546875 5.875 5.1875 C5.19179688 4.64480469 4.50859375 4.10210937 3.8046875 3.54296875 C2 2 2 2 0 0 Z " fill="#24C199" transform="translate(281,87)"/>
    <path d="M0 0 C4.29 0 8.58 0 13 0 C12 4 12 4 11 6 C7.2089881 4.55049545 3.6125362 2.84827434 0 1 C0 0.67 0 0.34 0 0 Z " fill="#EBE3E3" transform="translate(76,443)"/>
    <path d="M0 0 C2.64 0.99 5.28 1.98 8 3 C6.68 4.32 5.36 5.64 4 7 C2.02 6.01 0.04 5.02 -2 4 C-2 3.34 -2 2.68 -2 2 C-1.34 2 -0.68 2 0 2 C0 1.34 0 0.68 0 0 Z " fill="#E5E1DF" transform="translate(52,432)"/>
    <path d="M0 0 C0 3 0 3 -1.42578125 4.7890625 C-2.04839844 5.39492188 -2.67101562 6.00078125 -3.3125 6.625 C-4.23482422 7.54152344 -4.23482422 7.54152344 -5.17578125 8.4765625 C-7 10 -7 10 -10 11 C-9.33333333 9.66666667 -8.66666667 8.33333333 -8 7 C-7.7525 6.319375 -7.505 5.63875 -7.25 4.9375 C-5.43187814 2.11941112 -3.0131439 1.31006257 0 0 Z " fill="#DFD9DA" transform="translate(424,416)"/>
    <path d="M0 0 C1.32 0 2.64 0 4 0 C4 0.66 4 1.32 4 2 C3.01 2.495 3.01 2.495 2 3 C2.23589844 3.57234375 2.47179687 4.1446875 2.71484375 4.734375 C3 7 3 7 1.56640625 9.140625 C0.90511719 9.83671875 0.24382812 10.5328125 -0.4375 11.25 C-1.09621094 11.95640625 -1.75492187 12.6628125 -2.43359375 13.390625 C-3.20896484 14.18726563 -3.20896484 14.18726563 -4 15 C-4.66 14.34 -5.32 13.68 -6 13 C-5.34 13 -4.68 13 -4 13 C-4 12.34 -4 11.68 -4 11 C-3.525625 10.62875 -3.05125 10.2575 -2.5625 9.875 C-0.08184221 6.89821065 -0.31237519 3.81097735 0 0 Z " fill="#3FB296" transform="translate(348,307)"/>
    <path d="M0 0 C3.29963329 1.09987776 3.61064772 1.45586748 5.25 4.3125 C5.60578125 4.90675781 5.9615625 5.50101562 6.328125 6.11328125 C7 8 7 8 6 12 C3.69 8.7 1.38 5.4 -1 2 C-0.67 1.34 -0.34 0.68 0 0 Z " fill="#37AB8E" transform="translate(100,300)"/>
    <path d="M0 0 C0 1.32 0 2.64 0 4 C-2.4375 5.625 -2.4375 5.625 -5 7 C-5.33 7.66 -5.66 8.32 -6 9 C-7.65 8.67 -9.3 8.34 -11 8 C-9.68 7.67 -8.36 7.34 -7 7 C-7 6.01 -7 5.02 -7 4 C-6.34 4 -5.68 4 -5 4 C-4.67 3.01 -4.34 2.02 -4 1 C-2 0 -2 0 0 0 Z " fill="#28C79D" transform="translate(284,300)"/>
    <path d="M0 0 C0.33 0 0.66 0 1 0 C1 1.98 1 3.96 1 6 C1.94875 5.95875 2.8975 5.9175 3.875 5.875 C7 6 7 6 9 8 C5.37 8.33 1.74 8.66 -2 9 C-2 3.375 -2 3.375 0 0 Z " fill="#42B999" transform="translate(88,176)"/>
    <path d="M0 0 C2.91722548 -0.08103404 5.83219516 -0.14051081 8.75 -0.1875 C9.575 -0.21263672 10.4 -0.23777344 11.25 -0.26367188 C17.42297754 -0.33834499 17.42297754 -0.33834499 20.578125 1.51171875 C21.28195313 2.24841797 21.28195313 2.24841797 22 3 C21.67 3.66 21.34 4.32 21 5 C19.75863281 4.27876953 19.75863281 4.27876953 18.4921875 3.54296875 C14.63532453 1.83887381 11.26966313 1.45306513 7.125 1.3125 C6.43664062 1.27833984 5.74828125 1.24417969 5.0390625 1.20898438 C3.35991387 1.12735909 1.67998832 1.0619843 0 1 C0 0.67 0 0.34 0 0 Z " fill="#6DAEA2" transform="translate(129,265)"/>
    <path d="M0 0 C2.475 0.495 2.475 0.495 5 1 C5.33 2.98 5.66 4.96 6 7 C6.66 7 7.32 7 8 7 C7.67 7.99 7.34 8.98 7 10 C3.60582235 6.87378374 1.3937282 4.43458973 0 0 Z " fill="#2AC59D" transform="translate(111,314)"/>
    <path d="M0 0 C0.33 0 0.66 0 1 0 C0.67 4.29 0.34 8.58 0 13 C-0.99 13 -1.98 13 -3 13 C-2.69128878 11.20767663 -2.37790936 9.41615679 -2.0625 7.625 C-1.88847656 6.62726563 -1.71445312 5.62953125 -1.53515625 4.6015625 C-1 2 -1 2 0 0 Z " fill="#36AD8E" transform="translate(319,237)"/>
    <path d="M0 0 C-0.33 0.99 -0.66 1.98 -1 3 C-5.07467725 4.48882438 -8.66541415 5.26270217 -13 5 C-10.09527326 1.00600073 -4.73773335 0 0 0 Z " fill="#2EC096" transform="translate(197,80)"/>
    <path d="M0 0 C0.66 0 1.32 0 2 0 C2 0.99 2 1.98 2 3 C2.99 3.33 3.98 3.66 5 4 C5 5.32 5 6.64 5 8 C5.66 8 6.32 8 7 8 C7 9.32 7 10.64 7 12 C5.68 12.33 4.36 12.66 3 13 C3.061875 11.948125 3.12375 10.89625 3.1875 9.8125 C2.991113 5.81929766 2.25801811 4.19885899 0 1 C0 0.67 0 0.34 0 0 Z " fill="#2EC79E" transform="translate(95,288)"/>
    <path d="M0 0 C-1.98 0.99 -1.98 0.99 -4 2 C-4 2.66 -4 3.32 -4 4 C-6.64 4.33 -9.28 4.66 -12 5 C-8.77464852 1.23708994 -4.90542108 -1.63514036 0 0 Z " fill="#49B39E" transform="translate(169,90)"/>
    <path d="M0 0 C0.33 0.99 0.66 1.98 1 3 C1.99 2.01 2.98 1.02 4 0 C4.99 0.33 5.98 0.66 7 1 C5.8803014 2.00593243 4.7540588 3.0045849 3.625 4 C2.99851562 4.556875 2.37203125 5.11375 1.7265625 5.6875 C0 7 0 7 -2 7 C-2.66 5.68 -3.32 4.36 -4 3 C-2.68 2.01 -1.36 1.02 0 0 Z " fill="#E1DBDB" transform="translate(37,23)"/>
    <path d="M0 0 C2.4375 0.625 2.4375 0.625 5 2 C5.8125 5.125 5.8125 5.125 6 8 C4.35 7.67 2.7 7.34 1 7 C0.67 4.69 0.34 2.38 0 0 Z " fill="#EDE7E8" transform="translate(17,403)"/>
    <path d="M0 0 C-3.63 1.98 -7.26 3.96 -11 6 C-10 2 -10 2 -7.1875 0.1875 C-4 -1 -4 -1 0 0 Z " fill="#46A593" transform="translate(304,356)"/>
    <path d="M0 0 C0.66 0 1.32 0 2 0 C2 1.98 2 3.96 2 6 C1.01 6 0.02 6 -1 6 C-1.66 7.65 -2.32 9.3 -3 11 C-3.99 10.67 -4.98 10.34 -6 10 C-5.05065487 8.32819726 -4.09026687 6.66266064 -3.125 5 C-2.59132813 4.071875 -2.05765625 3.14375 -1.5078125 2.1875 C-1.01023437 1.465625 -0.51265625 0.74375 0 0 Z " fill="#3CB99D" transform="translate(310,264)"/>
    <path d="M0 0 C0.66 0 1.32 0 2 0 C0 4 -2 8 -4 12 C-4.99 12 -5.98 12 -7 12 C-6.34 11.34 -5.68 10.68 -5 10 C-4.45230745 8.68553789 -3.95625532 7.34892878 -3.5 6 C-2.57258355 3.2580731 -2.09373802 2.09373802 0 0 Z " fill="#34C098" transform="translate(153,170)"/>
    <path d="M0 0 C0.99 0.495 0.99 0.495 2 1 C2 1.66 2 2.32 2 3 C3.32 3.66 4.64 4.32 6 5 C6 6.98 6 8.96 6 11 C3.37997275 8.62949916 1.64180091 6.12723983 0 3 C0 2.01 0 1.02 0 0 Z " fill="#47AC91" transform="translate(93,289)"/>
    <path d="M0 0 C-3.52222892 2.34815261 -5.82626395 2.45262478 -10 3 C-12.68587068 3.60572958 -15.33659586 4.29910417 -18 5 C-16.49812318 1.99624635 -14.37277281 1.86738789 -11.25 0.8125 C-9.67992187 0.26529297 -9.67992187 0.26529297 -8.078125 -0.29296875 C-4.91440531 -1.01966071 -3.08256513 -0.89622727 0 0 Z " fill="#25BD95" transform="translate(186,86)"/>
    <path d="M0 0 C2.66666667 1.33333333 5.33333333 2.66666667 8 4 C7.67 4.66 7.34 5.32 7 6 C1.25 5.25 1.25 5.25 -1 3 C-0.67 2.01 -0.34 1.02 0 0 Z " fill="#ECE7E5" transform="translate(374,3)"/>
    <path d="M0 0 C3.875 2.75 3.875 2.75 5 5 C4.0625 7.625 4.0625 7.625 3 10 C1.10786631 7.61426621 -0.02391783 5.92824652 -1 3 C-0.67 2.01 -0.34 1.02 0 0 Z " fill="#EEE8E9" transform="translate(13,393)"/>
    <path d="M0 0 C1.65 0.33 3.3 0.66 5 1 C4.67 1.99 4.34 2.98 4 4 C3.01 4.33 2.02 4.66 1 5 C-0.20882096 7.00016466 -0.20882096 7.00016466 -1 9 C-1.66 8.67 -2.32 8.34 -3 8 C-1.125 2.25 -1.125 2.25 0 0 Z " fill="#EEE9E9" transform="translate(436,389)"/>
    <path d="M0 0 C-1.0625 2 -1.0625 2 -3 4 C-6.6875 4.25 -6.6875 4.25 -10 4 C-9.67 3.01 -9.34 2.02 -9 1 C-6.03421164 -0.16513114 -3.15436364 -0.08762121 0 0 Z " fill="#37B797" transform="translate(207,136)"/>
    <path d="M0 0 C7.66181818 3.74181818 7.66181818 3.74181818 11 6 C11 6.66 11 7.32 11 8 C6.89160936 6.54997977 3.49655387 4.6020866 0 2 C0 1.34 0 0.68 0 0 Z " fill="#44A38A" transform="translate(146,349)"/>
    <path d="M0 0 C2 3 2 3 2 5 C3.32 4.67 4.64 4.34 6 4 C5.1875 6.4375 5.1875 6.4375 4 9 C3.01 9.33 2.02 9.66 1 10 C0.63883954 8.5225254 0.28624952 7.04295325 -0.0625 5.5625 C-0.25972656 4.73878906 -0.45695312 3.91507812 -0.66015625 3.06640625 C-0.82837891 2.04353516 -0.82837891 2.04353516 -1 1 C-0.67 0.67 -0.34 0.34 0 0 Z " fill="#28CAA1" transform="translate(106,304)"/>
    <path d="M0 0 C1.8125 0.0625 1.8125 0.0625 4 1 C5.75 4.5625 5.75 4.5625 7 8 C5.68 8 4.36 8 3 8 C2.67 6.02 2.34 4.04 2 2 C1.34 2 0.68 2 0 2 C0 1.34 0 0.68 0 0 Z " fill="#4DB096" transform="translate(148,269)"/>
    <path d="M0 0 C0.99 0.33 1.98 0.66 3 1 C2.67 2.32 2.34 3.64 2 5 C0.35 5.33 -1.3 5.66 -3 6 C-2.625 3.5625 -2.625 3.5625 -2 1 C-1.34 0.67 -0.68 0.34 0 0 Z " fill="#EBE5E6" transform="translate(390,435)"/>
    <path d="M0 0 C3.29696105 1.09898702 4.04670589 1.94597387 6.1875 4.5625 C6.71730469 5.20316406 7.24710938 5.84382813 7.79296875 6.50390625 C8.19128906 6.99761719 8.58960938 7.49132812 9 8 C8.67 8.66 8.34 9.32 8 10 C7.01 10 6.02 10 5 10 C5 8.68 5 7.36 5 6 C2.56249975 3.31232422 2.56249975 3.31232422 0 1 C0 0.67 0 0.34 0 0 Z " fill="#2EC99E" transform="translate(155,283)"/>
    <path d="M0 0 C3.3 0 6.6 0 10 0 C9.01 1.485 9.01 1.485 8 3 C4.875 3.1875 4.875 3.1875 2 3 C2 2.34 2 1.68 2 1 C1.34 0.67 0.68 0.34 0 0 Z " fill="#E7E1E0" transform="translate(310,446)"/>
    <path d="M0 0 C0.66 0.99 1.32 1.98 2 3 C-0.5654594 5.5654594 -2.47686668 5.54046087 -6 6 C-6 5.01 -6 4.02 -6 3 C-4.02 2.67 -2.04 2.34 0 2 C0 1.34 0 0.68 0 0 Z " fill="#EDE5E6" transform="translate(376,440)"/>
    <path d="M0 0 C1.5778125 0.1546875 1.5778125 0.1546875 3.1875 0.3125 C2.589375 0.580625 1.99125 0.84875 1.375 1.125 C-0.85542693 2.17430044 -0.85542693 2.17430044 -2.25 3.9375 C-3.8125 5.3125 -3.8125 5.3125 -6.5 5.5 C-7.6446875 5.4071875 -7.6446875 5.4071875 -8.8125 5.3125 C-5.88314862 1.76177106 -4.6956049 0.38488565 0 0 Z " fill="#28CB9B" transform="translate(200.8125,79.6875)"/>
    <path d="M0 0 C2.64 0.33 5.28 0.66 8 1 C8 1.66 8 2.32 8 3 C5.36 3.33 2.72 3.66 0 4 C0 2.68 0 1.36 0 0 Z " fill="#ECE7E6" transform="translate(70,4)"/>
    <path d="M0 0 C1.32 0.66 2.64 1.32 4 2 C4 2.66 4 3.32 4 4 C1 6 1 6 -1.1875 5.625 C-1.785625 5.41875 -2.38375 5.2125 -3 5 C-2.67 4.34 -2.34 3.68 -2 3 C-1.34 3 -0.68 3 0 3 C0 2.01 0 1.02 0 0 Z " fill="#EDE6E7" transform="translate(403,428)"/>
    <path d="M0 0 C3.63 0.33 7.26 0.66 11 1 C11 1.33 11 1.66 11 2 C4.565 2.495 4.565 2.495 -2 3 C-1.34 2.01 -0.68 1.02 0 0 Z " fill="#2ACB9B" transform="translate(245,369)"/>
    <path d="M0 0 C1 3 1 3 1 5 C0.360625 5.103125 -0.27875 5.20625 -0.9375 5.3125 C-1.618125 5.539375 -2.29875 5.76625 -3 6 C-3.33 6.99 -3.66 7.98 -4 9 C-4.66 8.67 -5.32 8.34 -6 8 C-4.02 5.36 -2.04 2.72 0 0 Z " fill="#2AB890" transform="translate(306,275)"/>
    <path d="M0 0 C0.66 0 1.32 0 2 0 C3.65 3.63 5.3 7.26 7 11 C4 10 4 10 2.375 7.75 C1.05138082 5.10276163 0.41630112 2.91410782 0 0 Z " fill="#2FC29B" transform="translate(354,148)"/>
    <path d="M0 0 C3.39914975 1.13304992 4.05254451 2.12518475 6 5 C5.34 5.66 4.68 6.32 4 7 C3.01 7 2.02 7 1 7 C0.67 4.69 0.34 2.38 0 0 Z " fill="#EEE6E9" transform="translate(442,74)"/>
    <path d="M0 0 C0.33 0.99 0.66 1.98 1 3 C-2.3 3.66 -5.6 4.32 -9 5 C-5.89448334 1.89448334 -4.10801767 1.18676066 0 0 Z " fill="#E9E3E3" transform="translate(66,7)"/>
    <path d="M0 0 C0.66 0.33 1.32 0.66 2 1 C2.625 4.0625 2.625 4.0625 3 7 C1.35 6.67 -0.3 6.34 -2 6 C-1.34 4.02 -0.68 2.04 0 0 Z " fill="#EAE4E4" transform="translate(45,428)"/>
    <path d="M0 0 C1.32 0.66 2.64 1.32 4 2 C3.67 4.31 3.34 6.62 3 9 C2.71125 8.360625 2.4225 7.72125 2.125 7.0625 C1.17176549 4.84793921 1.17176549 4.84793921 -1 4 C-0.67 2.68 -0.34 1.36 0 0 Z " fill="#F1E9EB" transform="translate(5,377)"/>
    <path d="M0 0 C0.66 0 1.32 0 2 0 C1.125 5.75 1.125 5.75 0 8 C-0.99 7.67 -1.98 7.34 -3 7 C-2.01 4.69 -1.02 2.38 0 0 Z " fill="#43AD8F" transform="translate(314,254)"/>
    <path d="M0 0 C0 3.75586417 -1.14246188 5.76650772 -3 9 C-3.99 9.66 -4.98 10.32 -6 11 C-4.74194623 6.49197399 -3.09592835 3.5087188 0 0 Z " fill="#D5D2D3" transform="translate(19,40)"/>
    <path d="M0 0 C4.62 0 9.24 0 14 0 C14 0.66 14 1.32 14 2 C9.38 2.33 4.76 2.66 0 3 C0 2.01 0 1.02 0 0 Z " fill="#29C395" transform="translate(222,317)"/>
    <path d="M0 0 C0.66 0.33 1.32 0.66 2 1 C1.67 2.98 1.34 4.96 1 7 C0.34 7 -0.32 7 -1 7 C-1.33 7.66 -1.66 8.32 -2 9 C-1.34 6.03 -0.68 3.06 0 0 Z " fill="#EEE5E8" transform="translate(8,63)"/>
    <path d="M0 0 C3.77545388 1.09068668 6.47043472 1.9083091 9 5 C6.75 5.3125 6.75 5.3125 4 5 C1.6875 2.5 1.6875 2.5 0 0 Z " fill="#30AE90" transform="translate(133,340)"/>
    <path d="M0 0 C1.41687119 4.25061356 0.19320039 6.71851625 -1 11 C-1.66 10.67 -2.32 10.34 -3 10 C-2.21302675 6.58978257 -1.12880057 3.31114834 0 0 Z " fill="#44A894" transform="translate(365,282)"/>
    <path d="M0 0 C2.0625 0.4375 2.0625 0.4375 4 1 C1.03 3.475 1.03 3.475 -2 6 C-1.125 1.125 -1.125 1.125 0 0 Z " fill="#5BA791" transform="translate(168,156)"/>
    <path d="M0 0 C2.97 0.99 5.94 1.98 9 3 C9 3.33 9 3.66 9 4 C6.36 4 3.72 4 1 4 C0.67 2.68 0.34 1.36 0 0 Z " fill="#2CBF9C" transform="translate(271,83)"/>
    <path d="M0 0 C1.65 0 3.3 0 5 0 C5 0.66 5 1.32 5 2 C4.34 2 3.68 2 3 2 C2.67 3.32 2.34 4.64 2 6 C1.34 6 0.68 6 0 6 C0 4.02 0 2.04 0 0 Z " fill="#EDE8E8" transform="translate(9,56)"/>
</svg>
