<?xml version="1.0" encoding="UTF-8"?>
<svg version="1.1" xmlns="http://www.w3.org/2000/svg" width="820" height="386">
<path d="M0 0 C0.98097656 0.42925781 1.96195313 0.85851562 2.97265625 1.30078125 C29.17110084 13.5543357 48.49894626 36.06761968 58.5390625 63 C68.25720229 90.47639311 67.32615571 121.0962636 54.921875 147.62890625 C50.52873226 156.46191694 45.26048384 164.3714845 39 172 C38.42765625 172.72445312 37.8553125 173.44890625 37.265625 174.1953125 C20.05063417 195.09922994 -7.73567248 207.81092986 -34.26953125 210.71875 C-65.2144517 213.05177018 -93.88964217 204.64418446 -118 185 C-119.16595703 184.08154297 -119.16595703 184.08154297 -120.35546875 183.14453125 C-134.68239335 171.25191596 -146.57551531 152.77142892 -152 135 C-151.55834961 132.30883789 -151.55834961 132.30883789 -151 130 C-144.59662963 129.69449481 -138.19514706 129.48512415 -131.78613281 129.34082031 C-129.60898649 129.28064955 -127.43232167 129.19888261 -125.25683594 129.09472656 C-107.12737762 128.24879575 -107.12737762 128.24879575 -101.91967773 132.53564453 C-99.90379164 135.61330794 -98.4313481 138.61832255 -97 142 C-87.09214708 155.31001125 -71.27633486 162.86131976 -55.16601562 165.22705078 C-38.15101938 167.25419974 -22.3644305 163.38254709 -8 154 C-4.45633318 151.19374362 -1.2032569 148.18624846 2 145 C2.55300781 144.48179687 3.10601562 143.96359375 3.67578125 143.4296875 C15.20975002 131.55374122 19.52227038 113.98838917 19.34765625 97.99560547 C18.83490846 81.05131511 11.83059478 65.47820614 -0.2109375 53.5546875 C-7.35196031 47.01375064 -14.98551598 42.500646 -24 39 C-24.79277344 38.67902344 -25.58554688 38.35804687 -26.40234375 38.02734375 C-42.48530988 32.56472492 -61.01582248 35.41459458 -76 42.5 C-87.67880834 48.38370501 -96.08933958 56.90983837 -103 68 C-103.66 68.99 -104.32 69.98 -105 71 C-106.98684692 71.36076355 -106.98684692 71.36076355 -109.44970703 71.34057617 C-110.37051056 71.34034958 -111.29131409 71.34012299 -112.24002075 71.33988953 C-113.23589203 71.32440567 -114.23176331 71.30892181 -115.2578125 71.29296875 C-116.27600067 71.28872391 -117.29418884 71.28447906 -118.3432312 71.28010559 C-121.60408673 71.26327579 -124.86433041 71.22561546 -128.125 71.1875 C-130.33202234 71.17245874 -132.53905434 71.15876937 -134.74609375 71.14648438 C-140.16427223 71.1133583 -145.58209242 71.06311653 -151 71 C-152.34310262 66.71663888 -151.13576203 63.93335141 -149.4375 59.9375 C-149.15938477 59.26992676 -148.88126953 58.60235352 -148.59472656 57.91455078 C-140.07378819 37.84461175 -125.74457472 19.49853763 -107 8 C-106.01257813 7.35675781 -105.02515625 6.71351562 -104.0078125 6.05078125 C-91.23600662 -1.83768709 -75.96785779 -7.391305 -61 -9 C-60.02804688 -9.11988281 -59.05609375 -9.23976562 -58.0546875 -9.36328125 C-38.10225809 -11.39774273 -18.31518201 -8.12155665 0 0 Z " fill="#1CCF9F" transform="translate(182,67)"/>
<path d="M0 0 C0.84411942 -0.0049649 1.68823883 -0.00992981 2.55793762 -0.01504517 C5.36985071 -0.02972596 8.18170711 -0.03648388 10.99365234 -0.04199219 C12.95169069 -0.04774544 14.90972902 -0.05350315 16.86776733 -0.05926514 C20.98883324 -0.0697964 25.10987955 -0.07562295 29.23095703 -0.07910156 C34.47473857 -0.08454504 39.71825498 -0.10847397 44.96195412 -0.13707352 C49.01670031 -0.15585186 53.07138514 -0.16091384 57.12617111 -0.16243744 C59.05638428 -0.16543802 60.98659706 -0.17337719 62.91676712 -0.18662262 C88.41991597 -0.34892004 108.38874153 5.0385223 127.57177734 22.77832031 C131.4265575 26.63310047 134.76953204 30.74203746 137.95458984 35.16113281 C138.48826172 35.89460938 139.02193359 36.62808594 139.57177734 37.38378906 C151.60487323 55.55812819 153.94487344 80.2430454 149.92895508 101.24755859 C146.75257059 114.89800146 139.83090611 127.39701105 130.95458984 138.16113281 C130.43767578 138.79148438 129.92076172 139.42183594 129.38818359 140.07128906 C115.68812962 155.14478203 94.64305241 161.78256292 74.95458984 163.16113281 C71.45960831 163.27649341 67.97068927 163.27920864 64.47412109 163.25878906 C63.53525558 163.25737411 62.59639008 163.25595917 61.6290741 163.25450134 C58.67504481 163.24897179 55.72109563 163.23643326 52.76708984 163.22363281 C50.74560658 163.21860868 48.7241221 163.21404739 46.70263672 163.20996094 C41.78659094 163.19902558 36.8706039 163.18181106 31.95458984 163.16113281 C31.95681046 163.71014755 31.95903107 164.25916229 31.96131897 164.82481384 C31.98337342 170.5182124 31.99849711 176.21159891 32.00952148 181.9050293 C32.01456283 184.03231295 32.02139576 186.15959312 32.0300293 188.28686523 C32.04210363 191.33741107 32.04781999 194.38791127 32.05224609 197.43847656 C32.05998802 198.87440407 32.05998802 198.87440407 32.06788635 200.33934021 C32.06796188 201.22017776 32.06803741 202.10101532 32.06811523 203.00854492 C32.07033585 203.78797958 32.07255646 204.56741425 32.07484436 205.37046814 C31.95458984 207.16113281 31.95458984 207.16113281 30.95458984 208.16113281 C28.08194928 208.26220155 25.23385356 208.30082953 22.36083984 208.29394531 C21.49898071 208.29490204 20.63712158 208.29585876 19.74914551 208.29684448 C17.92325772 208.29752631 16.09736753 208.29567186 14.27148438 208.29150391 C11.46657906 208.28615567 8.66183389 208.29144881 5.85693359 208.29785156 C4.08740199 208.29719078 2.31787048 208.29590962 0.54833984 208.29394531 C-0.29643921 208.29596954 -1.14121826 208.29799377 -2.01159668 208.30007935 C-7.93045984 208.27608313 -7.93045984 208.27608313 -9.04541016 207.16113281 C-9.14545059 204.50796041 -9.17981248 201.88075101 -9.1723938 199.22705078 C-9.17395379 198.38569014 -9.17551378 197.54432949 -9.17712104 196.67747307 C-9.18113467 193.83607141 -9.17794 190.99472244 -9.17480469 188.15332031 C-9.17615857 186.12526417 -9.17793842 184.09720826 -9.18011475 182.06915283 C-9.18469066 176.54452161 -9.18289887 171.01990897 -9.17973566 165.4952774 C-9.17721287 159.72748258 -9.17954937 153.95968941 -9.18112183 148.19189453 C-9.18294376 138.50390333 -9.18053659 128.81591974 -9.17578125 119.12792969 C-9.17033859 107.90975522 -9.17210123 96.69159893 -9.17760766 85.47342491 C-9.18213811 75.86072827 -9.18278967 66.24803711 -9.18016899 56.63533974 C-9.17860584 50.88577603 -9.17841347 45.13622088 -9.18170547 39.38665771 C-9.18458321 33.9826446 -9.1826103 28.57865503 -9.17681122 23.17464447 C-9.17548309 21.18516835 -9.17587862 19.19569026 -9.17807388 17.2062149 C-9.18078334 14.50252099 -9.17740679 11.79890379 -9.1723938 9.09521484 C-9.17462452 8.29727446 -9.17685524 7.49933407 -9.17915356 6.67721367 C-9.15121213 -1.02621518 -6.9486093 0.00964849 0 0 Z M31.95458984 41.16113281 C31.95458984 67.56113281 31.95458984 93.96113281 31.95458984 121.16113281 C39.79208984 121.26425781 47.62958984 121.36738281 55.70458984 121.47363281 C59.37793457 121.54191284 59.37793457 121.54191284 63.12548828 121.61157227 C77.54264557 121.7687221 88.95281697 121.13652714 99.91162109 110.67675781 C108.72358644 99.82607773 110.91799603 87.81164861 109.95458984 74.16113281 C107.48809514 62.01188464 100.78803585 53.467367 90.95458984 46.16113281 C84.97331656 42.78633309 79.14768937 41.0281945 72.25610352 41.04760742 C70.88657532 41.0477887 70.88657532 41.0477887 69.48937988 41.04797363 C68.54332886 41.0530896 67.59727783 41.05820557 66.62255859 41.06347656 C65.30318298 41.06498718 65.30318298 41.06498718 63.95715332 41.06652832 C60.68545215 41.07174275 57.41376963 41.08570399 54.14208984 41.09863281 C43.15927734 41.12957031 43.15927734 41.12957031 31.95458984 41.16113281 Z " fill="#200E5F" transform="translate(301.04541015625,69.8388671875)"/>
<path d="M0 0 C0.96083496 0.00491455 1.92166992 0.0098291 2.91162109 0.01489258 C18.44765924 0.26917556 32.02417549 4.62646682 45.09375 13.078125 C47.35396855 14.37201823 48.66009353 15.05577128 51.25 15.3125 C54.15427641 14.04123654 54.15427641 14.04123654 57.1875 12.09375 C57.74945068 11.75702271 58.31140137 11.42029541 58.89038086 11.07336426 C60.68427257 9.99805061 62.4679926 8.9073815 64.25 7.8125 C66.59590476 6.37115485 68.95074659 4.94643973 71.3125 3.53125 C72.87677734 2.5712207 72.87677734 2.5712207 74.47265625 1.59179688 C77.54767815 0.17538384 78.18103006 0.33798615 81.25 1.3125 C81.273327 22.54778751 81.29097819 43.78307292 81.30181217 65.01837063 C81.30697555 74.87756719 81.31401905 84.7367558 81.32543945 94.59594727 C81.33538501 103.18597817 81.34185312 111.77600331 81.34408849 120.36603981 C81.34539582 124.91731195 81.34848305 129.46856764 81.35573006 134.01983452 C81.36248825 138.29854819 81.36461737 142.57723853 81.36310768 146.85595703 C81.3633841 148.43100677 81.36539041 150.00605723 81.36920547 151.58110237 C81.3741396 153.72214252 81.37299935 155.86309315 81.37025452 158.00413513 C81.37163721 159.80577952 81.37163721 159.80577952 81.37304783 161.64382076 C81.25 164.3125 81.25 164.3125 80.25 165.3125 C77.37735944 165.41356874 74.52926372 165.45219672 71.65625 165.4453125 C70.3634613 165.44674759 70.3634613 165.44674759 69.04455566 165.44821167 C67.21866788 165.4488935 65.39277769 165.44703904 63.56689453 165.44287109 C60.76198922 165.43752286 57.95724405 165.44281599 55.15234375 165.44921875 C53.38281214 165.44855797 51.61328064 165.44727681 49.84375 165.4453125 C48.99897095 165.44733673 48.15419189 165.44936096 47.28381348 165.45144653 C41.36495031 165.42745031 41.36495031 165.42745031 40.25 164.3125 C39.79540142 161.65786879 39.54756762 158.99060862 39.25 156.3125 C38.51136719 156.63863281 37.77273438 156.96476563 37.01171875 157.30078125 C15.24744129 166.67573685 -8.4313158 168.95612462 -30.82446289 160.0559082 C-52.00385737 151.08637538 -68.32355799 135.1902381 -77.125 113.9375 C-85.46751634 92.36753842 -84.69458826 68.88529459 -75.41015625 47.78125 C-70.91712157 38.39345049 -65.02900775 30.71509022 -57.75 23.3125 C-57.06292969 22.61253906 -56.37585938 21.91257813 -55.66796875 21.19140625 C-40.82408791 7.06355677 -20.29365781 -0.1238951 0 0 Z M-33.55859375 55.4765625 C-41.33184091 66.44827795 -44.54463495 78.71198677 -42.2890625 92.03515625 C-39.13747597 103.73310388 -31.86220356 113.35947501 -21.875 120.125 C-11.74586048 125.91307973 0.05519261 127.10764964 11.40625 124.62109375 C23.52735878 120.55235077 33.06408516 112.66389694 39.125 101.375 C44.46410718 89.77996925 44.34134799 78.26232394 40.25 66.3125 C34.26510764 53.37320001 25.01008344 46.73396402 12.25 41.3125 C-4.01708835 35.67016307 -22.92559426 42.75370781 -33.55859375 55.4765625 Z " fill="#200E5F" transform="translate(552.75,113.6875)"/>
<path d="M0 0 C5.78406969 -0.07410115 11.56786371 -0.12857885 17.35229492 -0.16479492 C19.32044283 -0.17989082 21.28855706 -0.20036948 23.2565918 -0.22631836 C26.08390612 -0.26266649 28.9107761 -0.27971814 31.73828125 -0.29296875 C33.06029289 -0.31619453 33.06029289 -0.31619453 34.40901184 -0.33988953 C35.22963608 -0.34011612 36.05026031 -0.34034271 36.89575195 -0.34057617 C37.61745071 -0.34723801 38.33914948 -0.35389984 39.0827179 -0.36076355 C41.60869764 0.11453501 42.41776381 1.0036781 44 3 C44.96095276 4.74855042 44.96095276 4.74855042 45.79907227 6.71313477 C46.28312782 7.83304054 46.28312782 7.83304054 46.77696228 8.97557068 C47.11997879 9.78929642 47.4629953 10.60302216 47.81640625 11.44140625 C48.18548599 12.30085342 48.55456573 13.1603006 48.93482971 14.04579163 C50.1508331 16.88184641 51.35664047 19.72211913 52.5625 22.5625 C53.40345699 24.52877281 54.24509956 26.49475254 55.08740234 28.46044922 C56.8406409 32.55515454 58.58974654 36.65158803 60.33544922 40.74951172 C63.37353354 47.88010132 66.42697768 55.00407192 69.48176575 62.1275177 C70.0939521 63.55507637 70.0939521 63.55507637 70.71850586 65.01147461 C71.11858856 65.94442352 71.51867126 66.87737244 71.93087769 67.83859253 C73.11355004 70.59828226 74.2944927 73.35870565 75.47485352 76.11938477 C75.84013657 76.97326279 76.20541962 77.82714081 76.58177185 78.70689392 C77.2641893 80.30227914 77.94615151 81.89785918 78.62757874 83.4936676 C80.23969858 87.28073667 80.23969858 87.28073667 82 91 C91.10535479 70.5200812 100.05587339 49.97947236 108.83154297 29.35595703 C120.10354497 2.89645503 120.10354497 2.89645503 123 0 C124.83499146 -0.24050903 124.83499146 -0.24050903 127.08251953 -0.22705078 C128.34360031 -0.22682419 128.34360031 -0.22682419 129.63015747 -0.22659302 C130.99272171 -0.21110916 130.99272171 -0.21110916 132.3828125 -0.1953125 C133.77691849 -0.19106766 133.77691849 -0.19106766 135.19918823 -0.18673706 C138.1745885 -0.17552069 141.14969035 -0.1504136 144.125 -0.125 C146.13931858 -0.11497208 148.15364186 -0.1058459 150.16796875 -0.09765625 C155.11209456 -0.07557661 160.05599665 -0.04103693 165 0 C164.47573476 6.41742548 162.27383589 11.65827318 159.71484375 17.52734375 C159.27141632 18.56281845 158.82798889 19.59829315 158.37112427 20.66514587 C156.90111416 24.09270323 155.41929425 27.51502261 153.9375 30.9375 C152.89494863 33.36244776 151.85321497 35.78774721 150.81225586 38.21337891 C148.63701249 43.2798603 146.45650024 48.34404286 144.27246094 53.40673828 C141.16167447 60.61882695 138.06662415 67.83759986 134.9765625 75.05859375 C131.01422685 84.31674262 127.04854648 93.57344067 123.078125 102.828125 C118.65202946 113.14554073 114.23030158 123.46481725 109.8115139 133.78536415 C105.52428457 143.79853918 101.23122076 153.80920127 96.93501282 163.81852722 C94.52274462 169.44101883 92.11785329 175.0665054 89.72624207 180.69781494 C88.5081776 183.56367497 87.2845507 186.4271337 86.05941772 189.28997803 C85.28454324 191.10652012 84.51769188 192.9264783 83.7512207 194.74658203 C83.30222412 195.79313965 82.85322754 196.83969727 82.390625 197.91796875 C82.01969727 198.79219482 81.64876953 199.6664209 81.26660156 200.56713867 C79.70015696 203.57593213 78.52883647 205.68937765 76 208 C72.94586715 208.6861625 69.975947 208.58242502 66.859375 208.48828125 C65.97719299 208.48120651 65.09501099 208.47413177 64.18609619 208.46684265 C61.37319519 208.43889178 58.56229748 208.37615381 55.75 208.3125 C53.84117462 208.28741794 51.93231798 208.26460461 50.0234375 208.24414062 C45.34818848 208.18906299 40.67443367 208.10278694 36 208 C34.90341187 206.28337097 34.90341187 206.28337097 34 204 C34.49185181 201.83320618 34.49185181 201.83320618 35.54541016 199.46606445 C35.93306549 198.57446121 36.32072083 197.68285797 36.72012329 196.76423645 C37.15537323 195.80692123 37.59062317 194.84960602 38.0390625 193.86328125 C38.4763266 192.86926804 38.9135907 191.87525482 39.36410522 190.85112 C40.76980302 187.66487894 42.19701927 184.48880787 43.625 181.3125 C44.56523437 179.19138953 45.50405344 177.06965108 46.44140625 174.94726562 C48.1783076 171.02119727 49.92274963 167.09870777 51.67822266 163.1809082 C52.06439758 162.30657135 52.45057251 161.4322345 52.84844971 160.53140259 C53.60292493 158.87287274 54.39431285 157.23053507 55.22528076 155.60897827 C57.85480561 150.33816761 58.65729176 146.71216237 57 141 C55.9653988 137.97950897 54.72343553 135.08639265 53.4140625 132.17578125 C53.0456575 131.33342422 52.6772525 130.4910672 52.29768372 129.6231842 C51.50031341 127.80277901 50.69827721 125.98441183 49.89205933 124.16790771 C48.1541183 120.25133483 46.43929475 116.32478399 44.72343445 112.39849854 C43.82632402 110.34574259 42.92812642 108.29346146 42.02888489 106.24163818 C37.39734456 95.6617659 32.91053286 85.02261718 28.4375 74.375 C21.23240198 57.2470866 13.94820945 40.15441913 6.60913086 23.08349609 C6.24621948 22.23890839 5.88330811 21.39432068 5.50939941 20.5241394 C4.83554348 18.95626479 4.16110729 17.38863938 3.48596191 15.82131958 C2.90319011 14.46570337 2.32448663 13.10832682 1.75094604 11.7487793 C1.10858337 10.2528655 0.41932175 8.77723947 -0.27905273 7.30664062 C-1.15166899 4.51474142 -0.79434973 2.78022407 0 0 Z " fill="#200E5F" transform="translate(652,114)"/>
<path d="M0 0 C18.81 0 37.62 0 57 0 C57.020625 6.579375 57.04125 13.15875 57.0625 19.9375 C57.071604 22.01667725 57.08070801 24.09585449 57.09008789 26.23803711 C57.09300701 27.87613866 57.09555558 29.51424094 57.09765625 31.15234375 C57.10277222 32.01089966 57.10788818 32.86945557 57.11315918 33.75402832 C57.1134691 35.83636052 57.06242176 37.9186036 57 40 C55.30704655 41.69295345 53.17103516 41.12749729 50.85351562 41.12939453 C49.75567749 41.13254669 48.65783936 41.13569885 47.5267334 41.13894653 C46.33197388 41.1369223 45.13721436 41.13489807 43.90625 41.1328125 C42.68925415 41.13376923 41.4722583 41.13472595 40.21838379 41.13571167 C37.63924101 41.13639372 35.06009653 41.13453772 32.48095703 41.13037109 C28.51721364 41.12502322 24.55358358 41.13031529 20.58984375 41.13671875 C18.09114558 41.13605797 15.59244748 41.13477682 13.09375 41.1328125 C11.30161072 41.13584885 11.30161072 41.13584885 9.4732666 41.13894653 C8.37542847 41.13579437 7.27759033 41.13264221 6.14648438 41.12939453 C4.68873596 41.12820114 4.68873596 41.12820114 3.20153809 41.12698364 C1 41 1 41 0 40 C-0.08867636 37.04316769 -0.11527527 34.10914786 -0.09765625 31.15234375 C-0.09664917 30.36702271 -0.09564209 29.58170166 -0.09460449 28.77258301 C-0.08935638 25.82754057 -0.07539523 22.88251888 -0.0625 19.9375 C-0.041875 13.358125 -0.02125 6.77875 0 0 Z " fill="#200E5F" transform="translate(19,148)"/>
</svg>
