<?xml version="1.0" encoding="UTF-8"?>
<svg xmlns="http://www.w3.org/2000/svg" viewBox="0 0 240 240" width="240" height="240">
    <path d="M126.5 0.08C136.67 0.08 146.83 0.08 157 0.08C157.72 2.72 159.45 4.79 158.98 7.73C158.45 11.16 156.3 14.18 155.09 17.34C151.04 27.96 145.14 37.73 141.09 48.34C139.51 52.49 133.7 63.92 141.75 64C145.31 60.44 145.95 56.24 148.09 51.84C150.16 47.62 152.16 43.14 154.27 39.02C156.15 35.33 158.72 31.91 160.25 28C161.17 25.64 161.98 23.12 163.09 20.84C165.4 16.12 167.85 11.23 170.27 6.52C171.52 4.06 174.25 2.82 175 0.08C184.5 0.08 194 0.08 203.5 0.08C204.61 2.05 206.12 3.97 206.48 6.27C207.18 10.73 203.96 16.02 202.09 19.84C198.92 26.35 196.27 33.33 193.09 39.84C185.81 54.76 178.82 70.49 172.75 86C171.14 90.12 168.45 94.54 166.08 98.33C161.75 105.22 159.21 113.42 156.25 121C153.36 128.38 143.33 143.78 145.09 151.16C145.36 152.28 146.42 153.08 146.88 154.05C142.16 151.99 136.44 151.88 131.25 152.33C128.96 154.4 129.59 168.27 130.25 171.67C130.83 171.8 131.42 171.92 132 172.05C130.71 173.86 130.9 176.11 129.91 178.16C127.45 183.18 124.93 188.34 122.91 193.66C119.89 201.57 115.79 209.28 112.09 216.84C108.33 224.54 105.21 232.48 101 239.92C96.67 239.92 92.33 239.92 88 239.92C88 234.34 92.4 229.39 93.91 224.16C97.12 213 102.99 203.1 107.09 192.34C108.79 187.89 114.29 179.87 110.75 175.5C106.21 175.55 102.71 186.17 100.75 190C99.29 192.85 97.47 195.53 96.09 198.34C92.26 206.2 89.73 214.83 85.91 222.66C83.48 227.63 78.9 234.78 77.5 239.92C73 239.92 68.5 239.92 64 239.92C61.77 231.74 51.95 220.18 52.52 211.77C52.97 204.97 60.46 192.25 63.09 185.34C64.3 182.17 66.39 178.28 64.75 175C57.12 172.16 55.55 189.21 50.16 191.91C48.61 192.68 47.22 192.47 45.66 192.09C39.13 190.54 39.39 184.14 35.25 180C30.15 181.02 28.8 189.89 26.75 194C24.22 199.05 22.4 204.55 19.91 209.66C17.16 215.27 14.17 220.72 11.91 226.66C10.16 231.24 6.34 235.38 5 239.92C3.38 239.9 1.75 239.89 0.13 239.88C0.11 232.42 0.1 224.96 0.08 217.5C4.45 214.22 5.28 209.1 7.09 204.34C8.56 200.51 11.26 197.3 12.75 193.5C14.99 187.78 17.47 181.98 19.41 176.16C20.47 172.98 24.76 163.37 19.25 163C14.06 168.19 11.48 176.42 8.91 183.16C7.98 185.58 6.2 187.56 5.25 190C4.41 192.15 1.71 198.71 0.08 200C0.08 188 0.08 176 0.08 164C3.58 162.97 4.69 157.22 6.09 154.34C9.34 147.69 17.83 136.17 14.25 129C12.83 128.92 11.42 128.83 10 128.75C6.69 134.83 3.39 140.92 0.08 147C0.08 136 0.08 125 0.08 114C5.32 112.46 3.96 103.2 0.08 101C0.08 87.5 0.08 74 0.08 60.5C3.11 58.23 6.8 49.21 8.25 45.5C12.24 35.31 17.65 25.45 22.42 15.67C24.17 12.09 25.08 6.77 28.52 4.27C33.06 0.95 38.85 1.5 44.25 1.5C48.87 1.5 59.79 0.4 62.73 4.52C66.36 9.59 56.67 24.4 54.59 29.84C50.3 41.1 43.63 51.31 39.25 62.5C36.87 68.58 33.42 74.25 31.09 80.34C29.78 83.78 28.52 87.35 26.91 90.66C23.96 96.69 16.78 107.11 21.75 113.5C22.58 113.67 23.42 113.83 24.25 114C30.26 107.99 34.05 95.31 37.09 87.34C38.92 82.55 42.08 78.43 43.91 73.66C49.51 58.95 56.49 44.86 63.42 30.67C66.64 24.09 71.71 8.64 76.34 4.09C78.72 1.76 82.19 2 85.25 2C91.43 2 100.95 0.73 106.66 2.09C114.83 4.04 108.56 15.81 106.91 20.16C104.88 25.48 101.32 30.2 99.25 35.5C95.72 44.52 91.41 53.67 87.08 62.33C84.96 66.56 81 75.56 87.25 78C91.1 75.58 96.13 61.85 98.58 56.83C100.5 52.9 102.99 49.07 104.91 45.16C110.47 33.77 114.53 21.73 120.09 10.34C121.83 6.78 124.53 3.56 126.5 0.08ZM139.75 15.5C136.12 12.02 132.48 15.7 131.09 19.34C129.52 23.48 128.32 27.84 125.92 31.67C124.65 33.71 123.14 35.73 122.25 38C120.68 42.01 119.18 46.13 117.25 50C115.35 53.8 111.56 59.78 113.75 63.89C114.75 63.89 115.75 63.89 116.75 63.89C124.65 57.15 129.98 39.74 134.58 30.33C136.63 26.13 140.72 20.33 139.75 15.5ZM188.5 16.25C184.31 9.56 179.36 18.68 177.58 22.33C171.62 34.53 164.65 47.48 162 60.75C162.58 61.67 163.17 62.58 163.75 63.5C169.57 63.5 169.62 57.26 171.75 53C176.14 44.22 180.6 35.01 184.09 25.84C185.43 22.34 187.74 20.04 188.5 16.25ZM42.75 16.5C36.43 13.48 33.08 26.86 30.92 31.17C28.73 35.56 27.06 40.34 24.91 44.66C20.49 53.49 15.48 62.02 11.91 71.16C9.53 77.23 5.98 82.12 10.75 88C15.84 87.95 18.24 78.4 19.59 74.34C24.35 60.08 30.98 46.35 37.58 32.83C39.11 29.7 44.79 19.13 42.75 16.5ZM86.25 16C81.15 21.1 80.69 29.16 76.92 35.17C71.01 44.59 66.83 55.36 62.91 65.66C60.84 71.07 56.87 75.57 54.75 81C51.36 89.65 47.57 98.38 43.42 106.67C39.91 113.7 36.23 120.89 33.5 128.25C32.5 130.93 32.4 135.22 34.25 137.5C37.63 137.27 38.63 134.57 40.27 132.02C43.65 126.73 45.86 120.7 48.09 114.84C52.01 104.57 57.77 95.17 61.75 85C63.08 81.6 65.16 78.26 65.91 74.66C66.42 72.19 66.97 69.65 68.09 67.34C71.97 59.42 76.63 51.72 80.58 43.83C83.86 37.27 88.01 30.22 90.02 23.27C90.8 20.53 92.31 18.54 90.25 16C88.92 16 87.58 16 86.25 16ZM130.57 133.85C129.79 133.74 129.02 133.62 128.25 133.5C126.19 134.79 125.92 136.09 124.91 138.16C124 140.01 122.6 141.78 122.09 143.84C121.09 147.91 121.8 151.73 121 155.75C122.12 155.63 124.81 155.09 125.98 154.23C129.85 151.42 131.82 138.82 131.08 134.54C131.96 134.61 132.83 134.68 133.71 134.75C136.58 130.69 138.19 125.05 140.27 120.5C145.26 109.62 150.25 98.78 155.2 87.92C157.63 82.62 165.22 69.97 165.13 64.75C163.65 63.68 162.06 63.71 160.25 63.67C159 63.64 157.39 63.3 156.24 63.95C154.1 65.17 151.7 72.5 150.66 74.9C146.1 85.36 140.46 95.34 136.18 105.89C134.97 108.88 131.46 118.75 129.25 120.38C127.63 118.85 133.21 109.01 134.31 106.57C138.55 97.15 142.66 87.72 147.15 78.38C148.97 74.58 152.8 69 152.4 64.75C150.69 63 144.99 62.66 143.08 64.35C141.8 65.48 140.93 67.95 140.25 69.47C136.68 77.4 133.03 85.31 129.38 93.15C127.33 97.55 125.81 102.52 123.25 106.63C121.03 105.46 125.09 98.5 126.14 96.39C129.75 89.18 132.72 81.68 136.22 74.43C137.49 71.78 140.23 68.21 139.74 65.25C138.04 63.58 132.23 62.79 130.28 64.53C128.3 66.32 127.16 70.86 126.04 73.28C123.01 79.86 120.25 86.58 116.75 92.94C114.97 90.85 117.96 87.82 118.79 85.6C120.64 80.69 127.95 68.97 126.75 64.38C123.84 64.34 120.93 64.29 118.02 64.25C115.43 69.27 112.84 74.28 110.25 79.3C106.12 76.36 106.18 66.96 101.75 63.8C101 63.95 100.24 64.1 99.49 64.25C97.85 69.73 107.17 79.79 107.79 85.75C104.44 92.83 101.1 99.91 97.75 106.99C95.3 106.01 94.1 100.7 92.99 98.26C89.22 89.94 85.61 81.42 81.47 73.29C79.95 70.29 78.74 63.16 74.52 64.25C72.7 67.62 76.73 72.92 78.15 76.11C82.61 86.06 86.8 96.26 91.79 105.95C93.27 108.84 94.41 114.09 97.75 115.06C102.44 112.41 106.16 94.34 110.25 91.8C110.73 94.29 108.3 98.41 107.02 100.79C104.78 104.94 99.8 114.68 98.72 118.91C97.94 121.98 101.21 128.16 104.25 128.66C108.06 125.76 110.99 115.6 113.35 111.11C114.4 109.11 114.77 106.35 116.75 105.19C117.32 107.7 115.38 110.3 114.3 112.56C111.94 117.47 109.9 122.51 107.68 127.44C106.57 129.92 104.11 132.35 105.75 135.07C108.88 136.12 109.51 132.53 110.52 130.28C113.21 124.3 115.6 117.44 119.25 112C120.25 112.88 121.25 113.75 122.25 114.63C126.27 114.15 127.93 106.52 129.45 103.23C133.27 94.92 137.25 86.54 141.07 78.26C142.19 75.82 143.82 69.35 146.29 68.25C147.24 69.83 142.3 78.8 141.32 81.07C136.95 91.16 132.03 100.95 127.75 111.04C126.73 113.43 125.13 115.56 124.32 118.07C123.38 120.95 126.03 127.13 128.75 128.39C132.16 127.5 135.59 117.29 137.15 113.88C142.36 102.5 147.18 90.78 152.88 79.63C154.53 76.41 155.98 69.5 159.25 67.86C159.9 71.02 154.64 78.99 153.22 82.42C148.12 94.75 142.4 106.91 136.72 119C134.73 123.26 130.44 129.12 130.57 133.85ZM120.75 68.46C121.83 72.33 117.32 77.16 116.06 80.78C115.41 82.67 115.11 84.94 113.25 85.94C112.72 83.69 118.86 70.45 120.75 68.46ZM133.75 68.49C134.2 70.76 132.09 74.14 130.99 76.27C128.19 81.73 125.81 87.38 123.2 92.94C122.28 94.9 121.55 98.99 119.44 99.75C118.75 97.51 120.7 94.93 121.6 92.83C124.17 86.89 126.99 81.23 129.71 75.44C130.75 73.22 131.47 69.53 133.75 68.49ZM79 89.25C72.85 88.02 71.16 98.06 69.08 102.33C63.51 113.72 57.33 125.29 52.75 137C50.87 141.81 46.38 147.73 48 152.97C50.08 152.97 52.17 152.97 54.25 152.97C57.59 149.75 60.36 141.39 62.09 136.84C66.08 126.4 71.08 115.83 76.08 105.83C78.4 101.19 81.35 94.18 79 89.25ZM113.26 98.25C114.39 100.07 112.61 101.8 111.95 103.75C110.77 107.21 106.26 118.67 103.75 120.59C102.62 119.06 104.29 116.59 105.17 114.88C107.13 111.05 110.51 100.82 113.26 98.25ZM72.87 153.52C70.81 151.86 58.97 152.12 56.17 152.75C54.94 156.4 54.65 168.17 55.91 171.75C61.65 171.75 67.39 171.75 73.13 171.75C73.04 170.58 72.95 169.42 72.87 168.25C68.69 168.08 64.52 167.92 60.34 167.75C60.31 166.72 60.28 165.7 60.25 164.67C63.16 163.32 70.51 165.91 68.75 160.46C65.92 160.16 63.08 159.86 60.25 159.57C59.73 154.25 69.41 157.62 72.75 156.02C72.85 155.34 72.94 154.67 73.04 154C73.61 154.5 74.18 155 74.75 155.5C75.18 155.5 75.61 155.5 76.05 155.5C76.15 160.92 76.25 166.33 76.35 171.75C77.6 171.75 78.85 171.75 80.1 171.75C80.32 168.61 80.53 165.47 80.75 162.33C82.19 164.51 83.62 166.69 85.06 168.87C84.46 168.91 83.85 168.96 83.25 169C82.88 170.83 83.21 171.66 84 173.25C83.77 176.67 81.56 179.85 80.09 182.84C76.71 189.78 73.29 196.72 69.91 203.66C67.6 208.37 65.18 214 70.75 217.5C74.84 215.9 76.97 209.74 78.09 205.84C80.54 197.36 85.86 189.78 88.59 181.34C89.12 179.71 91.83 170.52 91.5 169.75C90.31 169.95 89.13 170.16 87.94 170.36C89.81 167.66 91.67 164.95 93.54 162.25C93.94 165.53 94.35 168.8 94.75 172.08C95.92 171.98 97.08 171.88 98.25 171.79C99.47 168.3 99.32 156.7 98.25 153.21C92.04 149.02 91 159.91 87.25 162.07C83.62 158.94 84.07 151.73 78.03 152.5C83.02 144.61 87.46 135.4 90.02 126.27C90.93 123 92.17 118.74 88.75 116.5C85.63 117.17 83.77 122.47 82.42 125.17C78.2 133.62 71.79 144.04 72.87 153.52ZM103.25 140C98.28 140.05 98.81 144.71 97.5 148.25C98.58 149.98 99.14 150.48 101.25 150.5C104.55 148.34 105.85 143.2 103.25 140ZM31.25 162.28C29.32 158.58 28.83 151.5 23.43 152.75C22.56 155.7 28.28 168.81 29.83 172.14C30.64 172.14 31.44 172.14 32.25 172.14C35.67 169.96 34.71 163.57 38.25 161.64C39.92 165.06 41.58 168.48 43.25 171.9C44.41 172.14 45.36 172.43 46.4 171.63C47.68 170.64 47.94 168.18 48.48 166.75C50.04 162.63 51.96 158.46 53.08 154.25C51.79 153.19 50.65 153.2 49.05 153.75C47.61 156.58 46.18 159.41 44.75 162.24C41.89 158.6 42.48 152.39 36.75 152.59C34.36 155.03 34.13 160.92 31.25 162.28ZM121.25 171.33C121.07 168.26 115.44 158.3 113.85 154.87C113.14 153.33 112.1 152.3 110.26 152.51C108.14 152.75 107.55 155.37 106.73 156.97C104.48 161.39 100.84 167.26 100.16 172.13C101.35 172.13 102.55 172.13 103.75 172.13C104.58 170.83 105.42 169.53 106.25 168.23C108.22 167.3 112.36 166.75 114.36 167.88C116.67 169.19 117.61 174.84 121.25 171.33ZM143.8 157.08C143.8 157.8 143.8 158.53 143.8 159.25C141.33 160.16 137.22 160.48 134.86 159.25C134.86 158.45 134.86 157.64 134.86 156.84C137.5 156.25 141.38 155.87 143.8 157.08ZM110.75 160.13C111.25 161.33 111.75 162.54 112.25 163.75C111.25 163.75 110.24 163.75 109.24 163.75C109.08 162.15 109.37 161.05 110.75 160.13Z" fill="#ffffff" fill-rule="evenodd" stroke="#ffffff" stroke-width="0.25" stroke-linejoin="round"/>
    <path d="M131.08 134.54C130.91 134.31 130.74 134.08 130.57 133.85C130.44 129.12 134.73 123.26 136.72 119C142.4 106.91 148.12 94.75 153.22 82.42C154.64 78.99 159.9 71.02 159.25 67.86C155.98 69.5 154.53 76.41 152.88 79.63C147.18 90.78 142.36 102.5 137.15 113.88C135.59 117.29 132.16 127.5 128.75 128.39C126.03 127.13 123.38 120.95 124.32 118.07C125.13 115.56 126.73 113.43 127.75 111.04C132.03 100.95 136.95 91.16 141.32 81.07C142.3 78.8 147.24 69.83 146.29 68.25C143.82 69.35 142.19 75.82 141.07 78.26C137.25 86.54 133.27 94.92 129.45 103.23C127.93 106.52 126.27 114.15 122.25 114.63C121.25 113.75 120.25 112.88 119.25 112C115.6 117.44 113.21 124.3 110.52 130.28C109.51 132.53 108.88 136.12 105.75 135.07C104.11 132.35 106.57 129.92 107.68 127.44C109.9 122.51 111.94 117.47 114.3 112.56C115.38 110.3 117.32 107.7 116.75 105.19C114.77 106.35 114.4 109.11 113.35 111.11C110.99 115.6 108.06 125.76 104.25 128.66C101.21 128.16 97.94 121.98 98.72 118.91C99.8 114.68 104.78 104.94 107.02 100.79C108.3 98.41 110.73 94.29 110.25 91.8C106.16 94.34 102.44 112.41 97.75 115.06C94.41 114.09 93.27 108.84 91.79 105.95C86.8 96.26 82.61 86.06 78.15 76.11C76.73 72.92 72.7 67.62 74.52 64.25C78.74 63.16 79.95 70.29 81.47 73.29C85.61 81.42 89.22 89.94 92.99 98.26C94.1 100.7 95.3 106.01 97.75 106.99C101.1 99.91 104.44 92.83 107.79 85.75C107.17 79.79 97.85 69.73 99.49 64.25C100.24 64.1 101 63.95 101.75 63.8C106.18 66.96 106.12 76.36 110.25 79.3C112.84 74.28 115.43 69.27 118.02 64.25C120.93 64.29 123.84 64.34 126.75 64.38C127.95 68.97 120.64 80.69 118.79 85.6C117.96 87.82 114.97 90.85 116.75 92.94C120.25 86.58 123.01 79.86 126.04 73.28C127.16 70.86 128.3 66.32 130.28 64.53C132.23 62.79 138.04 63.58 139.74 65.25C140.23 68.21 137.49 71.78 136.22 74.43C132.72 81.68 129.75 89.18 126.14 96.39C125.09 98.5 121.03 105.46 123.25 106.63C125.81 102.52 127.33 97.55 129.38 93.15C133.03 85.31 136.68 77.4 140.25 69.47C140.93 67.95 141.8 65.48 143.08 64.35C144.99 62.66 150.69 63 152.4 64.75C152.8 69 148.97 74.58 147.15 78.38C142.66 87.72 138.55 97.15 134.31 106.57C133.21 109.01 127.63 118.85 129.25 120.38C131.46 118.75 134.97 108.88 136.18 105.89C140.46 95.34 146.1 85.36 150.66 74.9C151.7 72.5 154.1 65.17 156.24 63.95C157.39 63.3 159 63.64 160.25 63.67C162.06 63.71 163.65 63.68 165.13 64.75C165.22 69.97 157.63 82.62 155.2 87.92C150.25 98.78 145.26 109.62 140.27 120.5C138.19 125.05 136.58 130.69 133.71 134.75C132.83 134.68 131.96 134.61 131.08 134.54ZM120.75 68.46C118.86 70.45 112.72 83.69 113.25 85.94C115.11 84.94 115.41 82.67 116.06 80.78C117.32 77.16 121.83 72.33 120.75 68.46ZM133.75 68.49C131.47 69.53 130.75 73.22 129.71 75.44C126.99 81.23 124.17 86.89 121.6 92.83C120.7 94.93 118.75 97.51 119.44 99.75C121.55 98.99 122.28 94.9 123.2 92.94C125.81 87.38 128.19 81.73 130.99 76.27C132.09 74.14 134.2 70.76 133.75 68.49ZM113.26 98.25C110.51 100.82 107.13 111.05 105.17 114.88C104.29 116.59 102.62 119.06 103.75 120.59C106.26 118.67 110.77 107.21 111.95 103.75C112.61 101.8 114.39 100.07 113.26 98.25ZM146.88 154.05C148.85 157.04 147.72 158.28 147.23 161.39C146.9 163.51 149.29 165.04 148.72 167.44C147.28 173.47 136.47 171.13 132 172.05C131.42 171.92 130.83 171.8 130.25 171.67C129.59 168.27 128.96 154.4 131.25 152.33C136.44 151.88 142.16 151.99 146.88 154.05ZM31.25 162.28C34.13 160.92 34.36 155.03 36.75 152.59C42.48 152.39 41.89 158.6 44.75 162.24C46.18 159.41 47.61 156.58 49.05 153.75C50.65 153.2 51.79 153.19 53.08 154.25C51.96 158.46 50.04 162.63 48.48 166.75C47.94 168.18 47.68 170.64 46.4 171.63C45.36 172.43 44.41 172.14 43.25 171.9C41.58 168.48 39.92 165.06 38.25 161.64C34.71 163.57 35.67 169.96 32.25 172.14C31.44 172.14 30.64 172.14 29.83 172.14C28.28 168.81 22.56 155.7 23.43 152.75C28.83 151.5 29.32 158.58 31.25 162.28ZM72.87 153.52C72.92 153.68 72.98 153.84 73.04 154C72.94 154.67 72.85 155.34 72.75 156.02C69.41 157.62 59.73 154.25 60.25 159.57C63.08 159.86 65.92 160.16 68.75 160.46C70.51 165.91 63.16 163.32 60.25 164.67C60.28 165.7 60.31 166.72 60.34 167.75C64.52 167.92 68.69 168.08 72.87 168.25C72.95 169.42 73.04 170.58 73.13 171.75C67.39 171.75 61.65 171.75 55.91 171.75C54.65 168.17 54.94 156.4 56.17 152.75C58.97 152.12 70.81 151.86 72.87 153.52ZM78.03 152.5C84.07 151.73 83.62 158.94 87.25 162.07C91 159.91 92.04 149.02 98.25 153.21C99.32 156.7 99.47 168.3 98.25 171.79C97.08 171.88 95.92 171.98 94.75 172.08C94.35 168.8 93.94 165.53 93.54 162.25C91.67 164.95 89.81 167.66 87.94 170.36C86.44 170.41 86.08 169.86 85.06 168.87C83.62 166.69 82.19 164.51 80.75 162.33C80.53 165.47 80.32 168.61 80.1 171.75C78.85 171.75 77.6 171.75 76.35 171.75C76.25 166.33 76.15 160.92 76.05 155.5C76.71 154.5 77.37 153.5 78.03 152.5ZM121.25 171.33C117.61 174.84 116.67 169.19 114.36 167.88C112.36 166.75 108.22 167.3 106.25 168.23C105.42 169.53 104.58 170.83 103.75 172.13C102.55 172.13 101.35 172.13 100.16 172.13C100.84 167.26 104.48 161.39 106.73 156.97C107.55 155.37 108.14 152.75 110.26 152.51C112.1 152.3 113.14 153.33 113.85 154.87C115.44 158.3 121.07 168.26 121.25 171.33ZM161.25 153.02C164.03 154.29 167.3 162.92 168.77 165.97C169.6 167.67 171.01 169.28 169.75 170.99C165.84 170.31 166.43 166.16 161.25 166.25C156.21 166.34 155.01 170.86 152.25 170.65C152.26 167 157.76 153.71 161.25 153.02ZM189.25 163.16C190.8 160.31 188 152.01 193.17 153.25C194.15 155.52 193.82 168.53 192.75 170.76C187.05 171.88 184.15 161.38 178.75 160.99C176.96 163.82 179.18 169.29 175.75 170.85C173.86 169.59 174.22 156 175.25 153.41C179.76 151.86 184.69 161.78 189.25 163.16ZM201.75 158.96C205.67 158.42 209.1 151.49 213.25 153.75C211.26 156.08 209.27 158.42 207.29 160.75C209.45 164.08 211.61 167.42 213.77 170.75C208.03 172.3 207.61 163.14 202.25 164.12C200.55 166.48 201.51 169.32 199.25 171.25C198.37 171.01 197.66 171.02 197.25 170.05C196.3 167.78 196.54 155.21 197.72 153.25C202.1 152.22 200.14 156.76 201.75 158.96ZM143.8 157.08C141.38 155.87 137.5 156.25 134.86 156.84C134.86 157.64 134.86 158.45 134.86 159.25C137.22 160.48 141.33 160.16 143.8 159.25C143.8 158.53 143.8 157.8 143.8 157.08ZM160.75 159.45C159.36 160.86 158.85 161.74 159.11 163.75C160.77 164.34 161.71 164.38 163.25 163.51C163.15 161.46 162.62 160.33 160.75 159.45ZM110.75 160.13C109.37 161.05 109.08 162.15 109.24 163.75C110.24 163.75 111.25 163.75 112.25 163.75C111.75 162.54 111.25 161.33 110.75 160.13ZM144.68 165.25C142.69 162.65 137.63 163.59 134.76 164.25C134.76 165.52 134.76 166.79 134.76 168.06C137.79 168.06 140.82 168.06 143.85 168.06C144.12 167.12 144.4 166.19 144.68 165.25Z" fill="#8b3195" fill-rule="evenodd" stroke="#8b3195" stroke-width="0.25" stroke-linejoin="round"/>
</svg>